<?xml version="1.0" encoding="UTF-8" ?>
<!DOCTYPE svg PUBLIC "-//W3C//DTD SVG 1.1//EN" "http://www.w3.org/Graphics/SVG/1.1/DTD/svg11.dtd">
<svg width="450pt" height="105pt" viewBox="0 0 450 105" version="1.1" xmlns="http://www.w3.org/2000/svg">
<g id="#fefefdff">
<path fill="#fefefd" opacity="1.00" d=" M 151.47 0.00 L 152.33 0.00 C 151.87 5.70 150.44 12.05 145.59 15.64 C 143.18 17.54 140.00 17.74 137.08 17.29 C 136.06 20.88 135.35 24.54 134.75 28.21 C 135.92 29.93 137.15 31.76 136.85 33.96 C 136.80 56.93 136.88 79.90 136.80 102.88 C 136.36 103.24 135.48 103.96 135.03 104.32 C 132.92 104.47 129.89 103.75 130.10 101.06 C 129.99 78.71 130.10 56.35 130.04 33.99 C 129.70 31.66 131.52 29.89 131.80 27.69 C 131.94 26.44 132.31 25.18 133.48 24.53 L 132.36 24.68 C 133.98 21.62 135.12 17.99 138.22 16.06 C 139.80 13.59 141.51 11.22 143.18 8.81 C 139.93 10.29 137.74 13.26 134.85 15.26 C 134.62 11.82 135.09 8.07 137.57 5.47 C 141.04 1.51 146.49 0.55 151.47 0.00 Z" />
<path fill="#fefefd" opacity="1.00" d=" M 118.42 11.93 C 122.01 12.17 126.07 12.52 128.71 15.27 C 130.84 17.39 131.02 20.54 131.78 23.27 C 128.66 25.69 123.99 24.32 121.65 21.43 C 119.25 18.88 118.58 15.31 118.42 11.93 Z" />
<path fill="#fefefd" opacity="1.00" d=" M 3.92 40.83 C 6.04 35.18 10.37 29.37 16.86 28.88 C 23.34 27.77 29.88 32.72 30.97 39.09 C 30.92 41.42 28.25 43.00 26.24 41.75 C 24.44 39.88 23.32 37.27 20.92 36.06 C 18.28 34.94 14.82 35.53 13.10 37.96 C 9.18 42.93 8.51 49.53 7.67 55.58 C 6.82 65.07 6.79 74.71 8.45 84.12 C 9.30 88.24 10.24 92.64 13.11 95.89 C 15.25 98.38 19.37 99.19 22.05 97.09 C 24.24 95.52 24.68 92.59 26.47 90.71 C 28.13 89.29 29.89 90.97 31.35 91.79 C 31.08 95.01 29.98 98.16 27.91 100.67 C 22.47 106.94 11.30 106.06 6.72 99.19 C 1.51 91.60 1.06 82.13 0.00 73.30 L 0.00 61.79 C 0.82 54.73 1.28 47.51 3.92 40.83 Z" />
<path fill="#fefefd" opacity="1.00" d=" M 45.21 31.10 C 49.33 28.32 55.08 28.03 59.41 30.50 C 63.99 33.63 66.17 39.02 67.61 44.17 C 70.92 56.51 71.26 69.54 69.51 82.16 C 68.30 88.36 66.97 94.92 63.00 100.02 C 60.69 103.11 56.97 104.47 53.27 105.00 L 51.79 105.00 C 48.58 104.44 45.19 103.52 42.90 101.04 C 38.81 96.71 37.24 90.71 36.08 85.03 C 33.92 71.90 33.99 58.22 37.18 45.26 C 38.56 39.98 40.71 34.48 45.21 31.10 M 49.37 36.49 C 47.62 37.69 46.52 39.56 45.64 41.43 C 42.52 48.87 42.28 57.05 41.89 64.99 C 41.78 73.98 42.27 83.18 45.26 91.74 C 46.47 95.46 49.96 99.05 54.20 98.17 C 58.00 96.98 59.54 92.82 60.61 89.38 C 63.97 76.93 64.11 63.78 62.08 51.10 C 61.18 46.67 60.33 42.03 57.73 38.24 C 56.03 35.51 52.00 34.69 49.37 36.49 Z" />
<path fill="#fefefd" opacity="1.00" d=" M 111.23 31.29 C 113.16 27.46 119.47 29.86 118.55 34.03 C 119.08 57.02 120.19 79.99 120.51 103.00 C 118.58 104.71 115.74 104.55 113.72 103.12 C 112.69 84.66 112.53 66.12 111.85 47.65 C 108.45 57.10 105.61 66.73 102.18 76.17 C 100.07 77.97 96.09 77.91 95.17 74.88 C 92.02 65.83 89.35 56.58 85.47 47.80 C 85.45 59.21 84.93 70.61 84.88 82.02 C 84.19 88.71 85.03 95.47 84.01 102.13 C 83.63 104.95 79.18 104.86 77.68 103.05 C 76.78 96.71 78.06 90.32 77.79 83.95 C 78.43 71.99 78.39 60.00 79.00 48.03 C 79.10 42.41 78.64 36.76 79.48 31.18 C 81.77 28.20 86.66 29.40 87.33 33.11 C 90.87 44.22 95.15 55.08 98.72 66.18 C 99.66 64.94 100.08 63.43 100.59 61.99 C 104.16 51.76 107.23 41.36 111.23 31.29 Z" />
<path fill="#fefefd" opacity="1.00" d=" M 201.35 31.36 C 208.00 26.25 219.03 28.95 221.81 37.10 C 223.54 39.61 220.97 43.47 218.01 42.22 C 215.36 40.06 214.00 35.72 210.03 35.60 C 205.97 34.90 203.01 38.51 201.60 41.85 C 198.05 50.07 197.90 59.21 197.47 68.01 C 197.92 76.46 198.11 85.33 201.89 93.09 C 203.16 95.87 205.77 98.45 209.04 98.28 C 211.85 98.49 214.15 96.26 215.06 93.77 C 217.94 86.67 217.96 78.86 217.81 71.33 C 214.46 71.30 211.11 71.48 207.76 71.24 C 205.01 70.06 205.67 64.79 208.90 64.96 C 213.50 64.98 218.16 64.59 222.72 65.21 C 225.40 67.28 224.40 71.06 224.63 73.98 C 224.36 82.63 224.38 91.99 219.57 99.54 C 217.63 102.83 213.96 104.42 210.33 105.00 L 207.60 105.00 C 201.46 104.51 196.60 99.86 194.63 94.21 C 189.78 81.47 189.71 67.41 191.41 54.05 C 192.79 45.92 194.50 36.75 201.35 31.36 Z" />
<path fill="#fefefd" opacity="1.00" d=" M 253.77 33.84 C 257.55 28.81 265.03 27.31 270.51 30.27 C 275.58 33.53 277.80 39.49 279.28 45.06 C 282.48 57.46 282.71 70.52 280.73 83.14 C 279.76 89.02 278.16 94.98 274.69 99.92 C 272.56 102.98 268.87 104.35 265.35 105.00 L 262.60 105.00 C 257.66 104.48 253.23 101.40 251.25 96.80 C 245.73 85.39 245.89 72.31 246.24 59.92 C 247.01 50.92 248.12 41.24 253.77 33.84 M 260.48 36.69 C 258.34 38.26 257.20 40.74 256.24 43.12 C 253.40 50.75 253.44 58.98 252.95 66.99 C 253.37 76.15 253.59 85.75 257.71 94.16 C 259.19 97.53 263.64 99.44 266.96 97.60 C 269.47 96.29 270.66 93.54 271.58 91.01 C 274.37 82.64 274.95 73.70 274.85 64.94 C 274.36 56.15 273.95 46.92 269.74 38.97 C 268.10 35.64 263.45 34.40 260.48 36.69 Z" />
<path fill="#fefefd" opacity="1.00" d=" M 382.89 32.88 C 386.88 28.52 393.72 27.70 398.96 30.07 C 401.97 31.87 404.44 34.75 405.54 38.10 C 406.26 39.98 405.02 42.22 402.99 42.51 C 400.58 42.65 399.72 40.05 398.43 38.54 C 396.99 36.10 393.82 34.76 391.11 35.65 C 387.78 36.35 385.94 39.56 384.63 42.41 C 381.63 49.88 380.99 58.05 380.93 66.04 C 380.83 74.12 381.37 82.35 383.95 90.07 C 385.06 92.99 386.40 96.32 389.43 97.69 C 392.36 99.20 396.32 97.87 397.65 94.83 C 401.29 87.60 401.07 79.25 400.87 71.37 C 397.53 71.28 394.19 71.49 390.87 71.23 C 387.73 70.28 388.60 64.88 391.89 64.97 C 396.28 64.90 400.68 64.77 405.07 65.05 C 407.04 65.03 407.66 67.30 407.67 68.90 C 407.88 79.06 408.18 89.93 403.15 99.13 C 401.33 102.76 397.40 104.34 393.62 105.00 L 390.87 105.00 C 385.05 104.42 380.15 100.29 378.19 94.85 C 373.01 81.45 372.98 66.64 374.82 52.58 C 376.05 45.59 377.92 38.21 382.89 32.88 Z" />
<path fill="#fefefd" opacity="1.00" d=" M 147.69 32.96 C 147.54 30.28 150.68 28.65 152.96 29.68 C 155.08 29.92 155.63 32.32 156.39 33.92 C 163.14 50.87 168.91 68.21 175.46 85.23 C 175.64 67.84 175.46 50.44 175.55 33.05 C 175.20 29.77 179.51 28.33 181.71 30.41 C 183.56 32.91 182.13 36.13 182.32 38.96 C 182.28 59.67 182.37 80.39 182.28 101.10 C 182.24 103.58 179.17 104.78 177.06 104.08 C 175.56 103.16 174.50 101.70 173.97 100.04 C 167.80 83.73 161.69 67.39 155.93 50.93 C 155.57 49.80 154.99 48.76 154.29 47.81 C 154.44 49.55 154.72 51.28 154.73 53.03 C 154.70 69.03 154.72 85.04 154.74 101.04 C 155.34 104.73 149.89 105.26 148.10 102.90 C 147.53 101.34 147.66 99.66 147.63 98.04 C 147.71 76.34 147.60 54.65 147.69 32.96 Z" />
<path fill="#fefefd" opacity="1.00" d=" M 290.02 41.02 C 290.28 37.35 288.38 32.20 292.12 29.79 C 299.40 29.51 306.71 29.65 313.99 29.72 C 317.56 29.81 317.31 35.50 313.98 35.96 C 308.28 36.27 302.56 35.91 296.86 36.14 C 296.75 44.68 296.83 53.22 296.80 61.75 C 301.97 62.06 307.29 61.04 312.34 62.50 C 313.69 64.53 313.43 67.86 310.67 68.46 C 306.06 68.68 301.44 68.39 296.83 68.60 C 296.76 79.88 296.84 91.16 296.77 102.44 C 296.33 102.89 295.43 103.79 294.99 104.25 C 292.73 104.51 289.47 103.97 289.96 100.92 C 289.35 80.97 289.74 60.97 290.02 41.02 Z" />
<path fill="#fefefd" opacity="1.00" d=" M 347.63 32.06 C 348.28 28.62 354.02 28.48 355.22 31.62 C 360.26 54.74 365.90 77.76 370.57 100.97 C 371.83 105.13 364.48 105.44 363.61 102.06 C 362.28 95.71 360.90 89.35 359.75 82.95 C 354.25 82.39 348.74 82.62 343.23 82.72 C 342.01 89.01 340.60 95.27 339.32 101.55 C 339.17 105.30 331.66 105.25 332.71 101.06 C 333.54 94.64 335.28 88.38 336.33 82.00 C 336.43 79.76 336.20 75.92 333.09 76.17 C 325.72 76.00 322.16 68.09 321.85 61.69 C 326.23 61.54 331.10 62.38 334.33 65.59 C 337.09 68.63 336.67 72.92 337.65 76.63 C 338.83 73.91 339.18 70.94 339.84 68.07 C 342.26 56.03 345.05 44.06 347.63 32.06 M 351.63 41.95 C 349.03 53.44 346.85 65.02 344.47 76.55 C 349.12 76.45 353.76 76.07 358.41 76.20 C 356.00 64.82 353.53 53.44 351.63 41.95 Z" />
<path fill="#fefefd" opacity="1.00" d=" M 414.86 31.89 C 415.88 31.17 416.54 29.62 417.97 29.73 C 425.23 29.61 432.51 29.58 439.77 29.74 C 442.72 30.95 442.06 35.58 438.91 35.94 C 433.33 36.30 427.72 35.90 422.13 36.14 C 422.01 44.68 422.08 53.22 422.08 61.76 C 426.64 62.03 431.36 61.18 435.81 62.23 C 438.92 63.06 438.46 67.68 435.56 68.47 C 431.06 68.66 426.56 68.45 422.07 68.53 C 422.07 78.15 422.06 87.78 422.06 97.40 C 428.02 97.43 433.99 97.29 439.96 97.43 C 443.42 97.45 443.66 103.63 440.12 103.89 C 434.79 104.52 429.38 103.97 424.02 104.17 C 420.93 104.02 417.01 104.84 414.86 102.04 C 414.92 78.66 414.91 55.27 414.86 31.89 Z" />
<path fill="#fefefd" opacity="1.00" d=" M 430.55 83.02 C 432.18 84.14 433.03 85.89 433.68 87.70 C 435.89 86.08 438.11 86.07 440.34 87.68 C 440.92 85.78 441.54 83.75 443.53 82.90 C 443.01 85.02 442.06 87.07 442.07 89.30 C 444.15 88.70 446.16 87.86 448.20 87.12 C 447.34 88.11 446.48 89.09 445.61 90.06 L 444.70 88.80 C 444.40 89.66 444.11 90.53 443.85 91.40 C 444.26 92.43 444.66 93.47 445.04 94.52 C 439.74 94.63 434.44 94.58 429.14 94.55 C 429.37 92.64 430.14 90.67 429.42 88.78 L 428.31 90.39 C 427.48 89.37 426.65 88.35 425.83 87.33 C 427.81 87.66 429.80 89.69 431.80 88.78 C 432.61 86.87 430.50 85.05 430.55 83.02 Z" />
<path fill="#fefefd" opacity="1.00" d=" M 445.74 93.65 C 446.40 92.02 448.65 92.87 450.00 92.79 L 450.00 93.35 C 448.97 94.32 446.57 95.33 445.74 93.65 Z" />
</g>
</svg>
