<?xml version="1.0" encoding="UTF-8" ?>
<!DOCTYPE svg PUBLIC "-//W3C//DTD SVG 1.1//EN" "http://www.w3.org/Graphics/SVG/1.1/DTD/svg11.dtd">
<svg width="376pt" height="112pt" viewBox="0 0 376 112" version="1.1" xmlns="http://www.w3.org/2000/svg">
<g id="#fefefeff">
<path fill="#fefefe" opacity="1.00" d=" M 308.38 0.00 L 308.64 0.00 C 308.37 3.47 310.73 6.00 314.15 6.07 C 312.65 6.53 310.75 6.45 309.74 7.83 C 309.03 9.16 308.81 10.67 308.46 12.12 C 308.29 10.55 308.41 8.83 307.46 7.48 C 306.30 6.83 305.02 6.45 303.77 6.03 C 306.88 5.68 309.05 3.26 308.38 0.00 Z" />
<path fill="#fefefe" opacity="1.00" d=" M 11.53 7.83 C 20.46 5.73 30.06 9.15 36.54 15.44 C 42.99 21.52 46.41 29.88 49.97 37.81 C 55.88 50.82 61.78 63.84 67.92 76.74 C 75.98 57.89 84.21 39.11 92.48 20.34 C 93.16 19.33 93.48 17.29 95.07 17.46 C 100.32 17.59 105.70 16.84 110.86 18.01 C 108.22 19.19 104.75 19.41 103.12 22.14 C 100.66 26.42 101.94 31.53 102.29 36.16 C 104.15 51.46 107.01 66.62 110.21 81.68 C 112.49 91.12 116.62 101.50 125.87 106.03 C 131.58 108.99 138.16 108.02 144.23 106.97 C 140.44 110.52 135.19 111.63 130.17 112.00 L 130.10 112.00 C 122.23 111.66 113.98 109.41 108.44 103.49 C 102.76 98.08 99.85 90.49 97.99 83.03 C 94.69 67.91 92.74 52.54 90.20 37.28 C 81.72 56.01 73.96 75.05 65.57 93.82 C 64.93 93.83 63.64 93.86 63.00 93.87 C 54.12 75.24 45.64 56.43 37.00 37.70 C 35.40 49.76 34.00 61.85 32.76 73.96 C 32.45 78.44 31.60 83.23 33.52 87.48 C 35.17 90.60 39.00 91.07 41.82 92.66 C 33.32 92.87 24.81 92.92 16.31 92.62 C 19.17 90.84 22.72 89.58 24.18 86.27 C 26.63 80.54 26.84 74.20 27.99 68.14 C 29.50 57.11 31.06 46.08 32.35 35.02 C 33.31 27.68 28.13 21.58 22.92 17.15 C 18.69 13.40 12.83 11.60 7.23 12.59 C 4.72 13.17 2.40 14.34 0.00 15.24 L 0.00 13.81 C 3.43 11.14 7.23 8.75 11.53 7.83 Z" />
<path fill="#fefefe" opacity="1.00" d=" M 122.29 11.70 C 122.77 14.48 123.15 17.61 125.39 19.61 C 127.28 21.22 129.80 21.65 132.17 22.07 C 129.63 22.50 126.72 22.78 124.92 24.84 C 122.94 27.20 122.60 30.40 122.34 33.35 C 122.06 30.49 121.93 27.31 120.01 24.99 C 118.26 22.75 115.21 22.57 112.63 22.12 C 115.24 21.47 118.26 21.19 120.10 19.01 C 121.86 17.01 121.97 14.21 122.29 11.70 Z" />
<path fill="#fefefe" opacity="1.00" d=" M 154.60 17.27 C 155.27 15.83 157.28 16.60 158.53 16.27 C 166.82 36.93 175.01 57.63 183.66 78.14 C 185.20 81.53 186.50 85.17 189.09 87.94 C 191.08 90.22 194.08 91.08 196.57 92.67 C 189.73 92.94 182.89 92.71 176.05 92.79 C 172.62 92.71 169.14 93.11 165.75 92.35 C 168.45 90.86 172.99 89.90 172.59 85.89 C 172.27 81.24 169.78 77.08 168.15 72.78 C 167.38 70.01 164.44 69.06 162.18 67.83 C 155.49 64.54 147.96 63.66 140.60 63.58 C 138.56 68.71 136.66 73.91 134.82 79.12 C 133.89 82.17 132.64 85.67 134.57 88.62 C 136.44 90.93 139.69 91.11 142.12 92.60 C 133.95 92.88 125.74 92.95 117.57 92.57 C 120.22 90.17 124.03 89.04 125.61 85.55 C 129.43 78.45 132.25 70.84 135.48 63.45 C 132.62 63.60 129.83 64.18 127.03 64.70 C 129.97 62.49 133.32 60.90 136.84 59.85 C 142.89 45.71 148.40 31.34 154.60 17.27 M 152.69 33.14 C 149.27 41.78 145.77 50.39 142.27 59.00 C 150.36 58.95 158.48 60.85 165.34 65.24 C 161.28 54.48 156.96 43.82 152.69 33.14 Z" />
<path fill="#fefefe" opacity="1.00" d=" M 203.99 24.77 C 211.51 18.59 221.39 15.98 230.98 15.68 C 239.86 15.60 248.62 17.59 256.99 20.41 C 256.97 26.40 257.64 32.36 257.38 38.35 C 256.90 38.21 255.94 37.93 255.46 37.79 C 253.80 33.92 252.23 29.89 249.25 26.82 C 242.51 19.68 231.29 18.12 222.34 21.57 C 215.04 24.20 209.48 30.38 206.59 37.47 C 202.24 48.15 202.58 60.45 206.63 71.16 C 209.85 79.75 216.91 87.05 225.89 89.46 C 233.09 91.34 242.16 90.39 247.16 84.31 C 247.06 78.86 247.20 73.41 247.11 67.97 C 246.91 65.30 246.81 62.27 244.75 60.28 C 243.12 58.22 240.03 58.39 238.41 56.34 C 247.31 56.01 256.22 56.22 265.12 56.23 C 265.74 56.38 266.97 56.70 267.59 56.86 C 264.35 58.22 260.01 59.57 259.79 63.81 C 259.23 71.31 259.12 78.86 259.20 86.39 C 250.60 91.95 240.18 94.68 229.96 94.23 C 219.05 94.82 207.88 90.64 200.46 82.54 C 192.99 75.14 190.18 64.25 190.28 53.99 C 190.07 42.84 195.30 31.75 203.99 24.77 Z" />
<path fill="#fefefe" opacity="1.00" d=" M 312.50 29.51 C 319.56 20.65 330.96 16.37 342.02 15.68 C 349.47 15.36 357.24 16.40 363.77 20.23 C 370.72 24.12 375.19 31.69 376.00 39.53 L 376.00 43.17 C 375.14 49.55 372.50 56.22 366.97 59.94 C 360.18 65.10 350.40 65.82 342.80 62.05 C 335.57 58.44 332.76 48.58 336.28 41.48 C 339.29 35.39 347.54 32.54 353.58 35.71 C 357.11 37.55 359.10 42.20 357.08 45.83 C 355.96 48.40 352.89 48.71 350.52 49.39 C 352.64 48.09 356.15 47.16 355.83 43.99 C 356.03 38.72 349.54 36.25 345.27 38.14 C 338.42 40.70 337.35 50.96 342.54 55.66 C 349.79 63.04 363.65 59.98 368.03 50.86 C 372.46 41.55 368.41 29.59 359.86 24.13 C 348.78 16.40 332.27 19.64 324.20 30.22 C 317.94 38.36 316.14 49.11 317.10 59.13 C 317.97 67.73 321.23 76.40 327.51 82.51 C 333.20 87.90 341.19 90.81 349.01 90.23 C 358.07 89.32 366.51 83.80 371.11 75.95 C 371.67 74.80 372.51 73.91 373.91 74.37 C 373.41 79.44 371.35 84.20 370.10 89.11 C 362.91 92.51 354.96 93.99 347.06 94.47 C 336.55 95.07 325.44 92.72 317.22 85.81 C 300.76 72.51 298.96 45.49 312.50 29.51 Z" />
<path fill="#fefefe" opacity="1.00" d=" M 270.03 17.56 C 279.85 17.54 289.78 16.94 299.55 17.89 C 297.09 19.19 293.91 19.64 292.33 22.18 C 290.56 25.12 290.73 28.70 290.45 32.00 C 290.41 46.02 290.42 60.04 290.45 74.06 C 290.90 78.56 290.19 83.36 292.20 87.56 C 293.53 90.38 296.84 91.04 299.26 92.59 C 292.51 93.01 285.74 92.70 278.99 92.80 C 275.80 92.72 272.55 93.12 269.43 92.30 C 271.70 90.97 274.75 90.57 276.20 88.15 C 277.96 85.46 277.92 82.08 278.03 78.98 C 278.05 62.29 278.10 45.59 278.00 28.90 C 277.94 25.28 276.99 20.65 272.92 19.60 C 272.16 18.89 268.60 19.01 270.03 17.56 Z" />
<path fill="#fefefe" opacity="1.00" d=" M 18.61 41.86 C 19.17 41.03 19.71 40.17 20.22 39.30 C 20.69 40.12 21.16 40.93 21.64 41.74 C 21.36 41.94 20.81 42.33 20.54 42.53 C 20.06 42.36 19.09 42.03 18.61 41.86 Z" />
<path fill="#fefefe" opacity="1.00" d=" M 224.01 50.68 C 224.54 49.42 224.76 48.06 225.06 46.73 C 224.92 50.72 228.19 53.20 231.92 53.17 C 230.21 53.52 227.96 53.10 226.73 54.61 C 225.43 55.80 225.51 57.71 225.04 59.27 C 224.70 57.61 224.67 55.78 223.61 54.37 C 222.22 53.34 220.42 53.41 218.80 53.17 C 220.63 52.62 222.87 52.44 224.01 50.68 Z" />
<path fill="#fefefe" opacity="1.00" d=" M 118.01 53.62 C 120.42 53.64 121.46 51.65 121.71 49.55 C 121.16 52.11 123.01 53.79 125.52 53.40 C 123.11 53.86 121.18 55.59 121.62 58.25 C 121.41 56.01 120.49 53.90 118.01 53.62 Z" />
<path fill="#fefefe" opacity="1.00" d=" M 10.52 56.26 C 10.78 59.98 13.39 62.91 17.27 62.92 C 15.59 63.32 13.85 63.62 12.36 64.53 C 11.08 66.14 10.94 68.29 10.48 70.23 C 10.29 68.36 10.61 66.18 9.14 64.74 C 7.77 63.19 5.53 63.28 3.66 62.88 C 5.34 62.52 7.17 62.47 8.63 61.48 C 10.23 60.25 10.23 58.06 10.52 56.26 Z" />
<path fill="#fefefe" opacity="1.00" d=" M 156.49 97.76 C 156.83 101.00 158.89 103.67 162.36 103.84 C 161.04 104.08 159.69 104.28 158.45 104.82 C 157.09 106.07 157.09 108.05 156.61 109.70 C 156.10 108.23 156.18 106.34 154.99 105.19 C 153.81 104.28 152.28 104.11 150.89 103.71 C 154.22 103.57 156.59 101.12 156.49 97.76 Z" />
<path fill="#fefefe" opacity="1.00" d=" M 207.86 102.02 C 208.23 103.90 209.24 105.36 211.34 105.52 C 210.68 105.62 209.37 105.81 208.72 105.90 C 208.46 106.95 208.22 108.00 207.99 109.05 C 207.70 106.82 206.81 104.90 204.10 105.60 C 206.07 105.45 208.00 104.20 207.86 102.02 Z" />
</g>
</svg>
