<?xml version="1.0" encoding="UTF-8" ?>
<!DOCTYPE svg PUBLIC "-//W3C//DTD SVG 1.1//EN" "http://www.w3.org/Graphics/SVG/1.1/DTD/svg11.dtd">
<svg width="537pt" height="117pt" viewBox="0 0 537 117" version="1.1" xmlns="http://www.w3.org/2000/svg">
<g id="#fefffcff">
<path fill="#fefffc" opacity="1.00" d=" M 511.89 0.00 L 513.34 0.00 C 514.86 1.18 516.35 2.41 517.89 3.57 C 513.25 9.71 509.00 16.18 503.54 21.65 C 503.16 16.63 506.18 12.41 507.97 7.97 C 509.08 5.22 510.39 2.56 511.89 0.00 Z" />
<path fill="#fefffc" opacity="1.00" d=" M 527.93 6.87 C 529.29 5.57 530.99 4.72 532.68 3.91 C 534.07 5.49 535.36 7.15 536.59 8.85 C 530.62 13.51 524.43 17.89 518.08 22.01 C 514.92 22.72 512.44 24.79 509.97 26.75 C 509.54 26.58 508.68 26.22 508.25 26.04 C 513.79 18.68 521.22 13.08 527.93 6.87 Z" />
<path fill="#fefffc" opacity="1.00" d=" M 280.86 28.03 C 284.79 25.94 288.95 24.23 292.58 21.59 C 290.66 43.35 288.50 65.10 286.53 86.86 C 285.09 87.92 283.63 88.95 282.22 90.04 C 291.96 89.10 301.76 88.63 311.56 88.89 C 308.52 92.51 306.27 96.71 303.29 100.36 C 297.58 101.11 291.77 100.24 286.02 100.54 C 281.56 100.50 277.02 101.41 272.64 100.23 C 274.15 95.30 273.05 90.14 273.48 85.08 C 274.80 66.22 276.50 47.38 278.45 28.58 C 278.98 30.89 279.05 33.28 279.39 35.62 C 279.90 33.10 279.90 30.45 280.86 28.03 Z" />
<path fill="#fefffc" opacity="1.00" d=" M 511.00 33.01 C 517.59 28.41 525.41 26.22 532.96 23.76 C 534.09 26.02 534.20 28.47 533.80 30.94 C 528.54 31.19 523.42 33.28 518.14 32.46 C 515.76 32.82 513.40 33.93 511.00 33.01 Z" />
<path fill="#fefffc" opacity="1.00" d=" M 49.30 28.31 C 54.60 27.45 59.91 26.54 65.24 25.90 C 62.90 27.41 60.08 27.83 57.60 29.04 C 60.97 28.80 64.21 27.76 67.45 26.89 C 66.24 37.61 65.59 48.43 63.49 59.03 C 63.16 69.08 61.80 79.07 60.65 89.05 C 60.57 91.42 58.54 93.06 58.20 95.35 C 57.71 96.69 57.76 98.37 56.67 99.40 C 53.22 100.36 49.62 100.55 46.05 100.49 C 48.04 83.84 50.01 67.19 51.92 50.54 C 48.38 60.74 45.30 71.10 42.50 81.52 C 40.66 87.77 38.22 93.82 36.23 100.03 C 32.49 100.06 28.83 100.90 25.12 101.20 C 23.08 84.39 21.86 67.49 20.21 50.63 C 18.08 67.41 16.46 84.27 14.75 101.10 C 8.62 103.58 5.08 109.38 0.18 113.42 C 1.79 98.30 4.00 83.24 5.72 68.14 C 6.67 62.07 8.09 56.09 8.50 49.97 C 8.16 46.89 9.67 43.96 9.15 40.89 C 8.96 38.59 9.55 36.32 9.44 34.02 C 8.36 31.57 6.86 29.33 5.55 27.00 C 13.19 27.09 20.83 27.39 28.47 27.61 C 29.95 44.21 32.15 60.73 33.35 77.35 C 38.60 60.99 43.04 44.31 49.30 28.31 M 58.51 93.89 C 60.96 90.21 59.76 85.64 59.64 81.53 C 59.28 85.65 58.82 89.77 58.51 93.89 Z" />
<path fill="#fefffc" opacity="1.00" d=" M 211.44 28.69 C 215.16 27.84 218.78 26.32 222.63 26.17 C 222.23 41.45 220.07 56.73 218.92 72.00 C 218.58 71.67 217.91 71.01 217.57 70.68 C 217.84 71.08 218.38 71.86 218.65 72.25 C 218.74 77.39 217.74 82.51 217.63 87.66 C 217.16 86.70 216.68 85.74 216.22 84.78 C 216.34 88.80 217.36 92.81 216.78 96.84 C 216.19 94.71 215.97 92.50 215.45 90.35 C 215.37 93.58 215.40 96.85 213.91 99.82 C 210.33 100.46 206.73 100.99 203.30 102.24 C 203.20 100.34 203.09 98.43 203.26 96.53 C 204.91 77.05 206.70 57.58 208.22 38.09 C 208.52 38.24 209.14 38.54 209.44 38.69 C 209.36 35.23 210.80 32.04 211.44 28.69 Z" />
<path fill="#fefffc" opacity="1.00" d=" M 470.21 33.32 C 473.51 28.60 479.20 25.55 485.02 26.13 C 489.62 24.86 494.17 27.07 498.48 28.46 C 504.86 31.83 505.65 40.16 504.45 46.52 C 500.30 47.75 496.05 48.62 491.81 49.46 C 491.73 46.19 492.72 42.71 491.39 39.59 C 489.57 35.80 483.68 36.22 481.48 39.42 C 479.22 42.76 478.79 47.48 481.09 50.91 C 486.39 58.54 495.85 62.37 500.36 70.65 C 504.05 77.65 503.12 86.39 499.16 93.07 C 496.31 97.80 491.08 100.61 485.78 101.62 C 479.44 101.67 472.25 102.46 467.14 97.87 C 461.98 93.14 462.12 85.49 463.15 79.12 C 467.58 77.77 472.05 76.55 476.61 75.66 C 475.97 79.49 474.75 83.47 475.72 87.33 C 477.35 91.32 483.16 91.81 486.12 89.06 C 488.95 86.50 489.04 82.15 488.25 78.68 C 486.30 72.57 480.34 69.29 475.93 65.12 C 470.25 60.58 465.26 53.88 466.07 46.23 C 467.30 41.89 467.23 36.97 470.21 33.32 Z" />
<path fill="#fefffc" opacity="1.00" d=" M 84.48 26.97 C 90.05 27.65 95.59 26.51 101.15 26.48 C 103.98 31.40 102.33 37.83 102.03 43.33 C 102.71 41.57 103.18 39.74 103.93 38.01 C 104.05 42.13 103.47 46.22 103.10 50.32 C 103.66 48.95 104.13 47.56 104.67 46.18 C 106.62 64.45 109.64 82.58 111.69 100.83 C 107.84 101.01 103.99 101.57 100.14 101.28 C 98.99 99.58 98.96 97.41 98.41 95.49 C 98.04 97.15 97.76 98.83 97.21 100.45 C 97.11 98.04 97.64 95.62 97.34 93.22 C 96.44 90.83 96.09 88.30 95.83 85.77 C 90.75 86.52 85.49 86.27 80.53 87.54 C 79.46 92.02 76.92 95.87 75.49 100.21 C 71.57 100.49 67.71 101.40 63.77 101.19 C 70.43 76.39 77.93 51.81 84.48 26.97 M 91.64 43.43 C 88.75 54.14 87.08 65.21 83.14 75.63 C 87.11 75.21 91.09 74.90 95.07 74.62 C 93.67 64.25 93.11 53.78 91.64 43.43 Z" />
<path fill="#fefffc" opacity="1.00" d=" M 162.42 27.23 C 176.75 27.46 191.08 27.03 205.41 26.80 C 204.91 29.74 203.49 32.47 203.46 35.49 C 202.17 35.71 200.89 35.99 199.60 36.20 C 201.08 36.50 202.54 36.92 203.95 37.45 C 199.26 38.11 194.52 38.32 189.80 38.64 C 187.41 44.90 189.54 51.58 188.62 58.02 C 186.97 76.82 185.36 95.62 183.77 114.42 C 180.35 110.06 177.33 105.37 173.27 101.57 C 171.12 93.77 173.29 85.82 173.32 77.94 C 174.23 64.79 175.48 51.67 176.66 38.55 C 172.02 38.41 167.39 38.74 162.75 38.72 C 163.05 35.45 163.44 32.19 163.85 28.93 C 165.45 28.80 167.06 28.62 168.66 28.40 C 166.60 27.91 164.48 27.75 162.42 27.23 Z" />
<path fill="#fefffc" opacity="1.00" d=" M 241.00 26.96 C 246.79 27.63 252.55 26.50 258.34 26.46 C 259.31 30.42 258.44 34.42 257.99 38.38 C 258.66 36.97 259.27 35.53 259.98 34.14 C 259.84 38.17 259.54 42.21 259.04 46.22 C 259.68 44.81 260.28 43.37 260.99 41.99 C 260.95 45.76 260.49 49.52 260.12 53.27 C 260.63 51.90 261.06 50.50 261.57 49.13 C 263.47 66.47 266.46 83.66 268.37 101.00 C 264.60 100.97 260.84 101.51 257.08 101.29 C 255.09 99.65 255.45 96.41 254.71 94.04 C 254.37 94.27 253.69 94.73 253.35 94.95 C 253.27 91.89 252.84 88.85 252.52 85.80 C 247.42 86.31 242.31 86.68 237.22 87.25 C 236.07 91.84 233.62 95.89 231.97 100.29 C 228.06 100.52 224.21 101.41 220.28 101.28 C 227.01 76.46 234.31 51.79 241.00 26.96 M 240.01 75.49 C 243.93 75.26 247.85 74.88 251.77 74.69 C 250.39 64.10 249.34 53.47 248.22 42.86 C 245.65 53.78 243.25 64.75 240.01 75.49 Z" />
<path fill="#fefffc" opacity="1.00" d=" M 343.13 27.31 C 348.46 27.42 353.90 26.43 359.12 27.95 C 360.24 36.93 362.23 45.78 363.47 54.74 C 363.98 58.67 365.59 62.33 366.37 66.19 C 368.09 77.41 370.08 88.58 371.62 99.82 C 367.44 100.71 363.22 101.56 358.92 101.40 C 358.18 96.14 357.26 90.91 356.12 85.73 C 350.89 86.16 345.68 86.78 340.50 87.59 C 338.99 92.94 337.54 98.31 336.51 103.78 C 336.34 103.07 336.01 101.65 335.84 100.94 C 334.71 104.13 334.32 108.23 331.07 110.05 C 327.55 112.48 324.01 114.90 320.28 117.00 L 319.66 117.00 C 326.66 92.95 331.36 68.23 339.59 44.54 C 339.57 38.61 341.42 32.93 343.13 27.31 M 343.49 73.55 C 343.35 75.24 341.77 76.09 340.74 77.21 C 345.46 76.50 350.24 75.91 354.78 74.35 C 353.09 64.11 352.14 53.77 350.76 43.49 C 348.49 53.56 345.70 63.48 343.49 73.55 Z" />
<path fill="#fefffc" opacity="1.00" d=" M 374.97 27.55 C 382.33 27.66 389.64 26.74 396.99 27.00 C 402.82 26.95 409.53 26.60 414.13 30.86 C 419.53 35.48 419.33 43.36 418.53 49.79 C 417.87 55.78 414.32 61.26 408.98 64.10 C 412.94 66.35 415.61 70.41 415.92 74.98 C 416.53 84.77 415.99 95.21 420.91 104.08 C 422.71 108.01 426.43 110.44 429.56 113.23 C 427.38 112.80 425.18 112.46 423.05 111.85 C 419.29 110.89 416.50 107.72 412.56 107.27 C 408.37 104.76 405.45 100.42 404.19 95.74 C 402.48 89.04 403.51 82.02 402.41 75.24 C 402.00 72.84 400.26 70.68 397.85 70.11 C 395.43 69.74 392.97 69.96 390.54 70.00 C 389.76 79.65 389.35 89.32 388.47 98.96 C 387.40 98.29 386.34 97.63 385.31 96.90 C 384.91 97.93 384.57 98.99 384.26 100.05 C 381.28 100.45 378.28 100.70 375.28 100.48 C 375.12 92.95 376.80 85.54 376.78 78.03 C 377.33 62.76 378.90 47.56 379.82 32.32 C 378.23 30.70 376.58 29.15 374.97 27.55 M 392.75 38.17 C 392.33 40.83 392.41 43.53 392.09 46.21 C 391.75 43.71 391.61 41.18 391.32 38.68 C 389.89 39.03 388.48 39.44 387.09 39.90 C 387.24 40.55 387.53 41.86 387.68 42.52 C 387.40 42.17 386.84 41.48 386.57 41.14 C 385.52 42.62 384.58 44.17 383.57 45.68 C 385.53 48.82 387.66 51.92 391.59 52.63 C 391.41 54.93 391.32 57.23 391.28 59.54 C 395.10 59.40 399.47 60.27 402.76 57.78 C 404.82 56.04 406.91 54.33 409.11 52.75 C 409.00 50.08 408.61 47.42 407.76 44.87 C 408.52 42.53 408.60 39.84 405.99 38.62 C 403.55 39.00 404.11 41.98 403.32 43.74 C 404.40 44.09 406.54 44.79 407.61 45.14 C 404.59 46.37 400.30 43.41 398.08 46.29 C 397.63 50.29 402.36 49.96 404.92 51.06 C 403.13 51.26 401.32 51.24 399.54 51.49 C 398.76 50.25 397.69 49.17 397.17 47.80 C 397.29 44.46 397.63 41.14 397.62 37.80 C 395.97 37.61 394.05 36.64 392.75 38.17 M 398.33 36.60 C 398.22 39.19 398.11 41.77 397.90 44.35 C 399.52 44.17 401.15 44.01 402.79 43.83 C 403.07 41.77 403.39 39.71 403.68 37.65 C 401.96 37.00 400.17 36.59 398.33 36.60 Z" />
<path fill="#fefffc" opacity="1.00" d=" M 421.60 27.24 C 436.15 27.43 450.70 27.08 465.24 26.78 C 464.55 29.87 463.45 32.85 462.22 35.76 C 461.25 35.98 459.31 36.43 458.34 36.65 C 459.89 36.72 461.45 36.64 463.02 36.58 L 463.05 37.69 C 459.01 37.70 455.02 38.37 450.99 38.54 C 449.35 38.28 448.95 40.31 448.73 41.48 C 448.27 46.61 449.22 51.77 448.44 56.88 C 447.01 76.10 445.15 95.27 443.78 114.49 C 440.40 110.42 437.71 105.76 433.72 102.24 C 432.50 101.19 432.79 99.43 432.64 98.00 C 432.66 94.99 432.21 91.99 432.36 88.98 C 433.48 72.15 434.82 55.34 436.40 38.54 C 431.73 38.41 427.06 38.73 422.38 38.75 C 422.73 35.48 423.05 32.21 423.49 28.95 C 424.63 28.80 426.89 28.52 428.03 28.37 C 425.91 27.85 423.72 27.74 421.60 27.24 Z" />
<path fill="#fefffc" opacity="1.00" d=" M 123.02 29.91 C 124.45 28.83 126.26 28.30 128.03 28.16 C 134.68 27.83 141.34 27.04 148.01 27.62 C 152.82 28.24 157.23 31.77 158.65 36.45 C 160.37 42.00 159.86 47.99 158.41 53.54 C 157.20 58.21 153.61 61.78 149.57 64.17 C 154.30 66.58 156.54 71.83 156.61 76.94 C 156.85 86.05 156.61 95.68 161.10 103.94 C 163.21 108.19 167.09 111.20 171.01 113.70 C 165.66 112.54 160.24 111.34 155.77 107.98 C 151.19 107.60 148.15 103.50 146.14 99.75 C 141.92 91.64 144.76 82.13 142.43 73.61 C 140.61 69.19 135.22 69.77 131.33 70.03 C 130.19 80.04 129.60 90.11 128.54 100.12 C 124.03 99.85 119.55 100.75 115.04 100.36 C 116.94 80.89 118.71 61.41 120.61 41.95 C 121.08 37.88 121.94 33.85 123.02 29.91 M 129.25 39.25 C 130.80 39.64 132.35 40.02 133.91 40.37 C 133.29 46.72 132.69 53.09 132.19 59.45 C 135.93 59.66 140.15 59.69 143.22 57.20 C 146.08 54.26 146.30 49.82 146.60 45.95 C 146.83 42.98 145.95 39.18 142.70 38.25 C 138.26 37.33 133.52 37.74 129.25 39.25 Z" />
<path fill="#fefffc" opacity="1.00" d=" M 335.06 105.35 C 338.35 105.43 333.53 108.39 335.06 105.35 Z" />
</g>
</svg>
