<?xml version="1.0" encoding="UTF-8" ?>
<!DOCTYPE svg PUBLIC "-//W3C//DTD SVG 1.1//EN" "http://www.w3.org/Graphics/SVG/1.1/DTD/svg11.dtd">
<svg width="477pt" height="145pt" viewBox="0 0 477 145" version="1.1" xmlns="http://www.w3.org/2000/svg">
<g id="#fefefeff">
<path fill="#fefefe" opacity="1.00" d=" M 326.13 0.00 L 326.27 0.00 C 328.83 11.60 333.26 23.04 332.20 35.14 C 333.17 35.17 335.13 35.23 336.10 35.26 C 335.24 36.82 333.87 38.22 333.66 40.07 C 333.06 46.40 334.17 52.74 333.61 59.07 C 334.15 81.62 333.94 104.22 333.87 126.79 C 327.82 119.53 322.45 111.74 316.90 104.10 C 305.86 89.00 295.08 73.72 284.24 58.49 C 284.23 75.02 284.25 91.55 284.24 108.08 C 279.35 108.06 274.45 108.14 269.56 108.00 C 269.62 93.33 269.56 78.67 269.60 64.00 C 268.95 47.78 269.21 31.52 269.21 15.28 C 285.92 37.99 302.24 61.00 318.39 84.12 C 318.49 69.76 318.44 55.39 318.44 41.03 C 318.73 38.66 316.95 36.94 315.64 35.24 C 316.67 35.20 318.75 35.13 319.79 35.09 C 319.14 23.07 322.52 11.33 326.13 0.00 Z" />
<path fill="#fefefe" opacity="1.00" d=" M 358.48 39.59 C 368.30 32.00 382.04 30.68 393.62 34.55 C 402.81 37.71 409.49 46.23 411.10 55.73 C 406.02 56.80 400.85 57.46 395.69 57.88 C 394.26 53.22 391.63 48.20 386.63 46.68 C 380.25 44.87 372.23 45.31 367.54 50.56 C 362.01 56.17 360.75 64.58 361.05 72.14 C 360.76 78.88 362.12 86.13 366.74 91.30 C 371.09 95.95 377.90 97.48 384.05 96.86 C 388.81 96.18 393.93 95.07 397.41 91.51 C 397.68 88.03 397.43 84.52 397.56 81.03 C 392.80 80.76 388.04 80.97 383.28 80.91 C 383.31 76.65 383.31 72.39 383.28 68.13 C 392.86 68.16 402.44 68.05 412.02 68.19 C 411.85 78.48 413.04 88.94 411.15 99.12 C 402.43 106.88 390.56 110.61 378.99 110.17 C 369.18 109.73 359.31 105.72 353.04 97.98 C 345.73 88.82 344.19 76.35 345.43 65.03 C 346.44 55.34 350.66 45.66 358.48 39.59 Z" />
<path fill="#fefefe" opacity="1.00" d=" M 0.00 33.81 C 10.02 33.81 20.05 33.80 30.07 33.81 C 36.99 34.08 44.27 35.65 49.69 40.21 C 56.74 46.12 58.13 56.56 55.86 65.05 C 54.42 70.87 49.97 75.40 44.72 78.04 C 49.66 88.07 54.72 98.04 59.69 108.07 C 54.08 108.09 48.47 108.07 42.86 108.08 C 38.16 99.10 34.67 89.49 29.27 80.89 C 24.55 80.92 19.82 80.88 15.09 80.87 C 15.09 89.94 15.09 99.01 15.09 108.08 C 10.06 108.08 5.03 108.08 0.00 108.08 L 0.00 33.81 M 15.09 46.69 C 15.10 53.83 15.09 60.97 15.09 68.11 C 22.00 67.94 29.19 69.61 35.84 67.06 C 41.22 64.89 42.32 58.17 40.87 53.17 C 39.61 49.02 35.18 46.51 30.99 46.68 C 25.69 46.69 20.39 46.67 15.09 46.69 Z" />
<path fill="#fefefe" opacity="1.00" d=" M 68.41 33.81 C 85.53 33.88 102.66 33.68 119.78 33.91 C 119.86 38.17 119.81 42.44 119.82 46.70 C 107.86 46.69 95.89 46.71 83.93 46.71 C 83.98 52.38 83.81 58.05 84.02 63.71 C 95.07 63.70 106.12 63.54 117.17 63.69 C 117.23 67.95 117.19 72.21 117.21 76.48 C 106.21 76.55 95.21 76.42 84.22 76.53 C 83.53 82.70 84.01 89.32 84.00 95.66 C 96.43 95.59 108.86 95.63 121.29 95.64 C 120.71 99.77 120.77 103.95 120.25 108.09 C 103.12 108.06 85.98 108.09 68.84 108.08 C 68.80 89.05 68.80 70.02 68.84 50.99 C 68.82 45.26 69.01 39.52 68.41 33.81 Z" />
<path fill="#fefefe" opacity="1.00" d=" M 127.26 33.83 C 132.70 33.78 138.15 33.88 143.59 33.75 C 147.82 44.14 150.73 55.01 154.64 65.53 C 156.62 71.69 158.99 77.77 160.65 84.03 C 161.00 95.02 160.59 106.03 160.83 117.02 C 161.46 122.79 160.77 128.71 162.26 134.38 C 164.39 119.70 163.09 104.82 163.43 90.05 C 163.11 84.78 165.22 79.85 166.96 75.01 C 171.87 61.36 176.64 47.67 181.39 33.97 C 186.86 33.57 192.36 33.91 197.84 33.83 C 188.74 57.79 179.60 81.73 170.87 105.83 C 169.59 109.40 168.08 112.94 167.35 116.68 C 168.08 117.39 168.93 117.93 169.91 118.30 C 168.69 127.54 164.67 136.02 162.44 145.00 L 162.39 145.00 C 159.63 136.11 156.20 127.38 154.89 118.11 C 155.53 117.87 156.80 117.39 157.44 117.15 C 157.09 112.81 155.10 108.91 153.61 104.91 C 145.00 81.15 135.75 57.63 127.26 33.83 Z" />
<path fill="#fefefe" opacity="1.00" d=" M 205.65 33.81 C 222.63 33.79 239.60 33.84 256.58 33.78 C 256.69 38.09 256.60 42.39 256.63 46.70 C 244.68 46.72 232.72 46.65 220.77 46.74 C 220.71 52.47 220.71 58.19 220.78 63.91 C 231.68 64.10 242.59 63.32 253.51 63.72 C 253.60 67.98 253.55 72.24 253.55 76.50 C 242.61 76.52 231.67 76.46 220.73 76.51 C 220.71 82.87 220.75 89.23 220.70 95.59 C 233.00 95.68 245.29 95.62 257.59 95.62 C 257.62 99.74 257.58 103.87 257.62 107.99 C 240.31 108.28 222.98 107.84 205.67 108.21 C 205.62 83.41 205.66 58.61 205.65 33.81 Z" />
<path fill="#fefefe" opacity="1.00" d=" M 424.60 33.82 C 437.86 33.83 451.11 33.76 464.37 33.85 C 463.54 37.32 460.86 39.79 458.14 41.88 C 457.71 43.49 457.33 45.11 456.92 46.73 C 451.16 46.68 445.40 46.72 439.64 46.70 C 439.62 52.33 439.66 57.97 439.62 63.60 C 441.97 63.62 444.31 63.62 446.67 63.65 C 446.52 65.45 446.83 67.93 444.91 68.89 C 442.17 68.87 439.45 66.61 436.82 68.16 C 435.21 68.63 434.74 71.02 432.91 70.76 C 430.09 69.99 427.38 68.87 424.61 67.94 C 424.57 56.56 424.60 45.19 424.60 33.82 Z" />
<path fill="#fefefe" opacity="1.00" d=" M 464.97 33.83 C 468.52 33.80 472.07 33.82 475.63 33.81 C 475.64 38.11 475.64 42.40 475.64 46.70 C 469.89 46.48 464.07 47.15 458.36 46.35 C 460.09 41.91 464.06 38.68 464.97 33.83 Z" />
<path fill="#fefefe" opacity="1.00" d=" M 453.57 65.40 C 454.14 64.97 455.27 64.10 455.84 63.67 C 461.54 63.49 467.25 63.68 472.96 63.61 C 472.93 67.92 473.00 72.22 472.91 76.53 C 468.58 76.43 464.26 76.57 459.93 76.43 C 458.40 74.31 455.12 74.26 453.99 71.93 C 455.65 68.94 458.92 68.20 462.09 68.01 C 459.20 66.99 455.08 68.89 453.57 65.40 Z" />
<path fill="#fefefe" opacity="1.00" d=" M 424.64 68.64 C 427.47 69.38 429.94 70.95 432.61 72.09 C 434.89 72.90 435.78 70.21 437.06 68.93 C 440.33 69.29 443.42 70.72 446.79 70.33 C 445.55 73.45 443.42 76.90 439.61 76.73 C 439.63 83.03 439.63 89.33 439.63 95.63 C 452.08 95.62 464.54 95.63 477.00 95.63 L 477.00 105.45 C 476.89 106.11 476.66 107.43 476.55 108.08 C 459.23 108.07 441.92 108.08 424.60 108.08 C 424.61 94.93 424.54 81.79 424.64 68.64 Z" />
<path fill="#fefefe" opacity="1.00" d=" M 447.19 72.06 C 449.86 71.97 454.46 72.73 454.02 76.29 C 451.10 76.58 448.16 76.55 445.24 76.43 C 445.69 74.89 446.45 73.47 447.19 72.06 Z" />
<path fill="#fefefe" opacity="1.00" d=" M 455.40 75.12 L 456.16 74.61 L 456.77 75.12 C 456.68 75.46 456.51 76.12 456.42 76.46 L 455.54 76.10 L 455.40 75.12 Z" />
</g>
</svg>
