<?xml version="1.0" encoding="UTF-8" ?>
<!DOCTYPE svg PUBLIC "-//W3C//DTD SVG 1.1//EN" "http://www.w3.org/Graphics/SVG/1.1/DTD/svg11.dtd">
<svg width="497pt" height="108pt" viewBox="0 0 497 108" version="1.1" xmlns="http://www.w3.org/2000/svg">
<g id="#fefefeff">
<path fill="#fefefe" opacity="1.00" d=" M 487.28 0.00 L 487.75 0.00 C 489.71 1.41 492.54 0.93 494.29 2.74 C 496.15 4.21 496.35 6.84 496.64 9.00 L 497.00 6.45 L 497.00 70.32 C 495.92 78.35 482.74 79.22 480.55 71.56 C 480.21 57.58 480.56 43.57 480.39 29.58 C 476.24 36.16 472.93 43.22 468.90 49.87 C 467.36 52.24 466.42 55.42 463.57 56.54 C 460.08 58.50 455.38 56.89 453.54 53.41 C 448.79 45.67 444.76 37.49 439.78 29.88 C 439.45 43.50 439.90 57.13 439.56 70.75 C 438.44 78.21 426.03 79.01 423.69 71.98 C 422.53 67.07 423.58 62.04 423.57 57.07 C 423.55 41.39 423.59 25.71 423.54 10.03 C 423.48 7.76 423.73 5.22 425.44 3.54 C 428.47 0.53 433.45 0.25 437.24 1.84 C 440.95 3.38 442.87 7.14 444.74 10.44 C 449.82 19.43 455.01 28.35 460.25 37.25 C 464.66 29.90 468.54 22.25 472.85 14.84 C 475.17 10.90 477.04 6.56 480.34 3.30 C 482.25 1.45 485.10 1.38 487.28 0.00 Z" />
<path fill="#fefefe" opacity="1.00" d=" M 3.35 2.24 C 6.33 0.72 9.75 1.01 12.98 1.02 C 20.00 1.22 27.03 0.84 34.04 1.34 C 40.96 1.39 48.08 4.01 52.69 9.31 C 59.08 16.22 59.61 26.87 56.62 35.41 C 54.44 41.88 48.49 45.95 42.54 48.64 C 48.11 57.62 52.75 67.27 59.71 75.31 C 66.97 84.33 79.12 90.19 90.74 87.43 C 93.90 86.85 97.42 84.39 100.45 86.67 C 104.32 88.90 103.91 94.93 100.10 96.98 C 93.04 100.64 84.82 100.98 77.05 100.22 C 65.47 98.84 55.14 92.16 47.51 83.58 C 38.58 73.82 32.99 61.68 26.51 50.29 C 23.05 50.16 19.58 50.19 16.11 50.20 C 15.96 57.50 16.40 64.82 15.91 72.09 C 13.49 78.70 1.99 78.43 0.00 71.51 L 0.00 7.46 C 0.46 5.40 1.48 3.37 3.35 2.24 M 16.11 15.14 C 16.16 22.38 15.99 29.62 16.21 36.87 C 22.27 36.79 28.46 37.53 34.44 36.27 C 41.02 34.85 43.78 26.55 41.05 20.86 C 39.60 17.34 35.82 15.00 32.03 15.14 C 26.72 15.11 21.42 15.15 16.11 15.14 Z" />
<path fill="#fefefe" opacity="1.00" d=" M 91.41 1.56 C 101.57 -1.48 112.98 0.35 121.81 6.17 C 130.97 11.88 136.23 22.35 137.70 32.81 C 138.22 39.25 137.90 45.83 135.93 52.02 C 132.53 63.19 123.45 72.62 112.08 75.66 C 102.88 78.01 92.64 77.63 84.15 73.09 C 74.90 68.28 68.33 59.10 65.99 49.02 C 63.79 39.42 64.69 29.03 69.03 20.15 C 73.32 11.11 81.73 4.11 91.41 1.56 M 95.42 15.60 C 87.79 18.26 83.04 26.03 81.75 33.72 C 80.71 40.94 81.94 48.74 86.16 54.80 C 92.92 64.73 109.79 64.76 116.63 54.90 C 121.22 48.64 122.12 40.48 121.00 32.99 C 120.00 27.34 117.25 21.76 112.59 18.26 C 107.81 14.55 101.10 13.60 95.42 15.60 Z" />
<path fill="#fefefe" opacity="1.00" d=" M 146.93 7.82 C 147.64 -0.86 160.98 -1.42 164.70 5.39 C 171.18 15.72 176.99 26.47 183.30 36.91 C 189.52 26.84 194.75 16.17 200.88 6.04 C 203.84 1.01 210.85 -0.44 215.92 2.05 C 218.83 3.45 219.96 6.97 219.82 9.99 C 219.81 30.33 219.89 50.67 219.80 71.00 C 218.70 77.84 208.31 78.73 204.65 73.58 C 202.95 70.69 204.00 67.18 203.73 64.02 C 203.48 52.57 204.21 41.04 203.38 29.64 C 199.16 37.31 194.85 44.93 190.60 52.58 C 188.90 55.95 184.95 58.38 181.17 56.94 C 177.30 55.95 176.06 51.80 174.19 48.78 C 170.52 42.45 167.01 36.01 163.17 29.78 C 162.65 43.57 163.31 57.41 162.83 71.20 C 162.01 76.61 155.23 77.84 150.91 76.16 C 147.63 74.95 146.13 71.28 146.43 67.99 C 146.61 57.98 146.14 47.94 146.88 37.95 C 146.91 27.91 146.79 17.86 146.93 7.82 Z" />
<path fill="#fefefe" opacity="1.00" d=" M 304.15 1.20 C 312.40 -1.13 321.31 0.53 328.95 4.09 C 332.66 6.05 337.09 9.32 336.42 14.08 C 336.49 19.20 329.98 23.64 325.53 20.21 C 321.20 16.80 315.84 13.80 310.12 14.78 C 302.59 15.73 297.11 22.18 294.70 28.99 C 292.40 36.17 292.62 44.26 295.70 51.19 C 298.22 56.86 303.66 61.31 309.93 61.93 C 315.95 62.83 322.21 60.68 326.43 56.31 C 330.55 52.46 337.29 57.03 337.46 62.02 C 337.89 64.88 336.64 67.72 334.40 69.49 C 326.81 76.34 315.83 78.10 306.00 76.65 C 296.39 75.36 287.45 69.51 282.57 61.11 C 275.51 49.46 274.66 34.28 279.86 21.76 C 283.88 11.41 293.31 3.51 304.15 1.20 Z" />
<path fill="#fefefe" opacity="1.00" d=" M 368.42 1.62 C 378.38 -1.26 389.43 0.34 398.27 5.73 C 406.38 10.85 412.10 19.45 413.83 28.87 C 415.71 38.99 415.13 50.01 409.99 59.14 C 404.69 68.95 394.30 76.07 383.08 76.74 C 372.31 78.24 360.63 74.87 353.14 66.76 C 343.44 57.34 340.81 42.67 343.39 29.78 C 345.62 16.73 355.40 4.93 368.42 1.62 M 372.47 15.64 C 363.66 19.06 358.90 28.97 359.09 38.04 C 358.80 44.91 360.59 52.36 365.78 57.18 C 373.13 64.63 386.98 63.94 393.35 55.52 C 401.34 44.62 400.32 27.19 389.59 18.42 C 384.85 14.67 378.16 13.63 372.47 15.64 Z" />
<path fill="#fefefe" opacity="1.00" d=" M 88.82 38.25 C 86.58 34.08 90.38 28.60 95.00 28.83 C 97.58 28.71 99.65 30.37 101.59 31.83 C 103.92 28.17 109.28 27.58 112.50 30.38 C 115.41 33.02 115.49 37.90 112.96 40.82 C 109.68 45.02 105.62 48.56 101.35 51.72 C 96.70 47.74 91.51 43.89 88.82 38.25 Z" />
<path fill="#fefefe" opacity="1.00" d=" M 231.44 33.48 C 232.87 32.77 234.24 31.66 235.92 31.74 C 244.61 31.73 253.31 31.71 262.00 31.76 C 264.38 31.43 265.88 33.45 267.16 35.10 C 268.17 39.02 267.70 44.87 262.86 45.83 C 254.21 46.03 245.55 45.88 236.89 45.90 C 234.27 45.98 231.39 44.59 230.53 41.97 C 229.97 39.14 229.94 36.04 231.44 33.48 Z" />
<path fill="#fefefe" opacity="1.00" d=" M 339.64 92.48 C 338.01 91.07 339.25 89.13 339.87 87.56 C 343.05 87.09 345.08 89.83 347.54 91.28 C 360.03 99.17 375.68 102.20 390.15 98.95 C 398.57 97.23 406.43 93.31 413.15 87.99 C 415.66 86.33 417.53 89.83 417.05 92.05 C 408.25 102.02 395.00 106.48 382.13 108.00 L 374.48 108.00 C 361.74 106.54 348.45 102.25 339.64 92.48 Z" />
</g>
</svg>
