<?xml version="1.0" encoding="UTF-8" ?>
<!DOCTYPE svg PUBLIC "-//W3C//DTD SVG 1.1//EN" "http://www.w3.org/Graphics/SVG/1.1/DTD/svg11.dtd">
<svg width="309pt" height="83pt" viewBox="0 0 309 83" version="1.1" xmlns="http://www.w3.org/2000/svg">
<g id="#fefefeff">
<path fill="#fefefe" opacity="1.00" d=" M 162.82 0.00 L 163.08 0.00 C 163.55 3.82 164.05 7.63 164.53 11.45 C 157.63 12.54 150.70 13.48 143.79 14.59 C 145.38 29.90 146.98 45.22 148.66 60.52 C 144.45 61.10 140.25 61.78 136.03 62.34 C 134.58 47.05 133.15 31.76 131.57 16.49 C 125.05 17.43 118.53 18.41 112.02 19.41 C 111.49 15.54 111.00 11.67 110.49 7.80 C 127.93 5.19 145.39 2.65 162.82 0.00 Z" />
<path fill="#fefefe" opacity="1.00" d=" M 4.19 13.29 C 8.31 6.43 16.44 2.99 24.19 2.68 C 33.06 1.89 41.63 5.68 48.35 11.24 C 46.10 14.67 43.94 18.16 41.85 21.68 C 37.25 16.84 30.66 13.55 23.86 14.25 C 20.29 14.61 16.27 16.16 14.79 19.70 C 13.40 23.18 13.92 27.57 16.68 30.26 C 20.72 34.44 26.65 35.69 31.70 38.19 C 38.34 41.24 45.91 44.88 48.38 52.35 C 50.14 58.44 50.21 65.47 47.21 71.20 C 44.15 76.79 38.35 80.61 32.13 81.72 C 23.60 83.37 14.19 82.05 7.08 76.83 C 11.69 74.88 16.28 72.85 20.98 71.12 C 24.59 70.78 28.49 71.63 31.80 69.72 C 37.99 66.84 38.00 57.13 32.80 53.27 C 24.88 47.31 14.36 45.79 7.01 38.94 C 0.17 32.42 -0.45 21.23 4.19 13.29 Z" />
<path fill="#fefefe" opacity="1.00" d=" M 199.21 4.71 C 209.02 2.96 219.10 1.56 229.04 3.08 C 235.75 4.22 242.62 7.79 245.66 14.18 C 249.29 21.83 249.04 31.39 244.58 38.65 C 242.26 42.77 238.23 45.45 234.24 47.75 C 240.97 56.59 247.50 65.58 254.15 74.47 C 250.50 76.67 246.80 78.80 243.14 80.99 C 236.05 71.14 229.22 61.09 221.98 51.35 C 219.13 51.38 216.29 51.73 213.44 51.88 C 213.92 59.97 214.52 68.05 214.70 76.16 C 210.37 76.49 206.04 76.77 201.73 77.19 C 201.11 53.02 200.12 28.87 199.21 4.71 M 211.76 14.28 C 212.08 23.13 212.55 31.97 212.96 40.81 C 218.35 40.95 224.05 40.57 228.87 37.89 C 236.51 33.85 238.03 21.41 231.03 16.09 C 225.38 12.26 218.11 13.40 211.76 14.28 Z" />
<path fill="#fefefe" opacity="1.00" d=" M 258.19 8.49 C 272.41 6.50 286.60 4.28 300.83 2.36 C 301.32 6.26 301.86 10.16 302.31 14.06 C 292.02 15.37 281.79 17.06 271.50 18.38 C 271.99 24.13 272.58 29.87 273.13 35.61 C 280.65 34.51 288.17 33.44 295.69 32.39 C 295.93 36.16 296.44 39.90 296.81 43.66 C 289.30 44.86 281.76 45.84 274.22 46.82 C 274.74 53.67 275.52 60.50 276.21 67.34 C 286.68 66.26 297.03 64.24 307.48 63.05 C 307.95 66.91 308.48 70.77 308.92 74.64 C 294.13 76.58 279.37 78.77 264.57 80.58 C 262.38 56.55 260.47 32.50 258.19 8.49 Z" />
<path fill="#fefefe" opacity="1.00" d=" M 79.72 6.02 C 84.03 5.28 88.29 4.30 92.57 3.42 C 96.83 17.29 101.08 31.16 105.44 45.00 C 108.11 44.65 110.78 44.28 113.45 43.97 C 113.93 47.84 114.92 51.65 115.20 55.54 C 113.18 55.96 111.13 56.20 109.09 56.49 C 111.37 64.22 113.90 71.87 116.17 79.61 C 112.18 80.71 108.21 81.92 104.21 83.00 L 103.48 83.00 C 101.13 74.83 98.78 66.65 96.49 58.46 C 88.65 59.55 80.80 60.61 72.96 61.76 C 71.01 67.74 69.13 73.75 67.13 79.71 C 62.78 78.84 58.45 77.87 54.09 77.01 C 62.69 53.37 71.21 29.70 79.72 6.02 M 76.70 49.73 C 82.23 48.76 87.78 47.87 93.34 47.09 C 91.12 37.97 88.74 28.88 86.37 19.79 C 83.25 29.81 79.98 39.77 76.70 49.73 Z" />
<path fill="#fefefe" opacity="1.00" d=" M 174.70 5.23 C 178.91 5.56 183.14 5.53 187.36 5.73 C 186.22 30.67 184.87 55.60 183.73 80.54 C 179.57 80.48 175.42 80.17 171.27 80.03 C 172.34 55.10 173.39 30.16 174.70 5.23 Z" />
<path fill="#fefefe" opacity="1.00" d=" M 0.00 44.45 C 6.85 52.69 13.73 60.91 20.52 69.21 C 13.71 72.14 6.80 74.84 0.01 77.81 L 0.00 77.10 L 0.00 44.45 M 5.78 69.28 C 7.30 71.21 9.90 70.27 11.55 69.09 C 11.27 68.53 10.98 67.97 10.70 67.40 C 10.16 67.82 9.09 68.65 8.56 69.06 C 7.69 68.22 5.83 67.55 6.50 65.97 C 7.34 64.99 8.98 64.77 9.50 63.52 C 6.17 61.73 3.13 66.90 5.78 69.28 Z" />
<path fill="#fefefe" opacity="1.00" d=" M 125.92 67.09 C 136.13 76.36 154.65 74.38 161.89 62.31 C 165.24 61.89 163.05 65.43 162.65 66.91 C 160.26 72.82 156.15 78.54 150.03 80.95 C 144.17 83.45 137.17 82.48 131.91 79.00 C 126.79 75.69 123.36 70.28 121.35 64.62 C 123.59 63.48 124.49 66.07 125.92 67.09 Z" />
</g>
</svg>
