<?xml version="1.0" encoding="UTF-8" ?>
<!DOCTYPE svg PUBLIC "-//W3C//DTD SVG 1.1//EN" "http://www.w3.org/Graphics/SVG/1.1/DTD/svg11.dtd">
<svg width="213pt" height="87pt" viewBox="0 0 213 87" version="1.1" xmlns="http://www.w3.org/2000/svg">
<g id="#fffffcff">
<path fill="#fffffc" opacity="1.00" d=" M 42.24 0.00 L 44.24 0.00 C 44.27 2.51 44.27 5.01 44.26 7.52 C 52.86 8.03 61.47 11.24 67.65 17.36 C 74.61 23.81 78.61 33.16 79.00 42.61 C 81.53 42.61 84.05 42.61 86.57 42.61 L 86.47 44.59 C 84.01 44.59 81.56 44.60 79.10 44.55 C 78.58 55.15 73.41 65.49 64.92 71.92 C 59.09 76.63 51.70 78.99 44.28 79.47 C 44.30 81.98 44.30 84.49 44.30 87.00 L 42.25 87.00 C 42.24 84.48 42.24 81.95 42.25 79.43 C 31.29 79.10 20.62 73.59 14.28 64.61 C 9.93 58.86 7.81 51.74 7.37 44.60 C 4.91 44.61 2.46 44.59 0.00 44.57 L 0.00 42.65 C 2.46 42.62 4.92 42.61 7.39 42.61 C 7.87 31.59 13.28 20.72 22.36 14.33 C 28.10 10.07 35.18 8.00 42.24 7.53 C 42.24 5.02 42.24 2.51 42.24 0.00 M 44.31 11.67 C 44.26 14.16 44.26 16.64 44.29 19.13 C 56.61 19.48 67.22 30.38 67.62 42.63 C 70.04 42.61 72.46 42.61 74.88 42.65 C 74.51 33.29 70.02 24.12 62.60 18.34 C 57.42 14.23 50.89 12.03 44.31 11.67 M 24.03 18.17 C 16.44 23.87 11.99 33.19 11.49 42.59 C 13.92 42.63 16.35 42.63 18.78 42.56 C 19.06 30.23 29.89 19.35 42.24 19.12 C 42.23 16.64 42.24 14.17 42.24 11.70 C 35.73 12.07 29.18 14.08 24.03 18.17 M 21.59 42.61 C 24.36 42.62 27.13 42.61 29.90 42.60 C 29.89 43.10 29.88 44.11 29.87 44.62 C 27.11 44.63 24.35 44.51 21.59 44.39 C 22.08 55.22 31.31 64.76 42.23 65.15 C 42.24 62.91 42.25 60.68 42.33 58.44 C 42.82 58.49 43.80 58.57 44.29 58.61 C 44.29 60.76 44.29 62.92 44.29 65.08 C 55.06 64.72 64.26 55.27 64.72 44.58 C 62.01 44.63 59.30 44.63 56.59 44.53 C 56.63 44.05 56.71 43.10 56.74 42.62 C 59.43 42.61 62.11 42.62 64.79 42.63 C 64.19 31.87 55.15 22.40 44.27 21.88 C 44.28 24.41 44.28 26.94 44.28 29.47 C 43.79 29.52 42.79 29.63 42.29 29.69 C 42.23 27.07 42.23 24.46 42.25 21.85 C 31.34 22.31 22.04 31.73 21.59 42.61 M 67.63 44.61 C 67.18 56.83 56.59 67.64 44.28 67.88 C 44.27 70.37 44.28 72.86 44.35 75.35 C 60.47 74.86 74.84 60.59 74.82 44.36 C 72.43 44.54 70.03 44.63 67.63 44.61 M 11.49 44.64 C 11.86 52.40 15.00 59.99 20.40 65.61 C 26.09 71.47 34.07 75.09 42.26 75.32 C 42.26 72.84 42.26 70.36 42.26 67.88 C 29.87 67.73 19.17 56.88 18.72 44.59 C 16.31 44.60 13.90 44.61 11.49 44.64 Z" />
<path fill="#fffffc" opacity="1.00" d=" M 94.08 8.07 C 100.69 1.92 111.89 1.77 119.02 7.09 C 124.49 11.31 124.94 18.86 124.81 25.21 C 121.04 25.21 117.26 25.21 113.49 25.21 C 113.31 21.81 114.04 17.42 111.00 15.02 C 108.18 13.31 103.52 13.74 102.00 17.01 C 100.53 20.84 100.98 25.34 103.20 28.80 C 107.57 35.98 115.28 40.17 120.15 46.94 C 125.01 53.51 126.05 62.32 124.07 70.12 C 123.19 74.22 120.49 77.96 116.69 79.81 C 112.78 81.84 108.23 81.48 103.98 81.41 C 99.02 81.29 94.15 78.64 91.74 74.24 C 88.65 69.35 89.07 63.37 89.11 57.84 C 92.88 57.84 96.65 57.86 100.43 57.83 C 100.69 61.56 99.74 65.78 101.98 69.06 C 104.42 71.45 108.73 71.45 111.35 69.36 C 113.25 67.42 113.12 64.45 113.00 61.95 C 112.72 55.27 107.51 50.34 102.80 46.23 C 96.84 40.77 90.33 34.44 89.68 25.89 C 89.26 19.78 89.37 12.64 94.08 8.07 Z" />
<path fill="#fffffc" opacity="1.00" d=" M 132.04 4.42 C 138.66 4.47 145.27 4.38 151.89 4.44 C 157.15 4.56 162.82 6.70 165.57 11.45 C 168.88 17.38 168.15 24.42 168.27 30.95 C 168.24 37.09 167.46 44.21 162.30 48.32 C 157.28 52.63 150.21 51.69 144.08 51.81 C 144.06 61.45 144.10 71.09 144.06 80.73 C 140.06 80.73 136.05 80.73 132.04 80.74 C 132.02 55.30 132.02 29.86 132.04 4.42 M 142.74 19.92 C 141.72 23.21 143.64 26.44 146.23 28.35 C 145.42 32.89 144.30 37.37 143.32 41.88 C 147.61 41.69 152.07 42.31 156.25 41.61 C 155.35 37.22 154.26 32.87 153.50 28.46 C 157.63 25.83 158.52 19.30 154.72 16.02 C 150.83 12.48 143.80 14.82 142.74 19.92 Z" />
<path fill="#fffffc" opacity="1.00" d=" M 170.06 4.47 C 174.17 4.43 178.27 4.42 182.38 4.45 C 185.70 15.97 188.84 27.54 192.18 39.05 C 195.24 27.49 198.31 15.94 201.51 4.42 C 205.33 4.44 209.16 4.45 212.99 4.42 C 208.74 18.93 204.28 33.39 199.74 47.83 C 198.94 50.51 197.63 53.14 197.68 56.00 C 197.66 64.24 197.69 72.49 197.68 80.73 C 193.65 80.71 189.62 80.81 185.59 80.66 C 185.59 71.92 185.83 63.15 185.49 54.42 C 180.34 37.78 175.01 21.18 170.06 4.47 Z" />
<path fill="#fffffc" opacity="1.00" d=" M 32.25 42.76 C 32.78 37.39 37.21 32.87 42.63 32.48 C 42.66 35.92 42.63 39.36 42.64 42.81 C 39.18 42.81 35.71 42.82 32.25 42.76 Z" />
<path fill="#fffffc" opacity="1.00" d=" M 43.89 42.81 C 43.97 39.35 43.61 35.86 44.10 32.41 C 49.39 33.11 53.81 37.39 54.19 42.79 C 50.76 42.81 47.32 42.80 43.89 42.81 Z" />
<path fill="#fffffc" opacity="1.00" d=" M 32.31 44.25 C 35.76 44.18 39.20 44.19 42.65 44.19 C 42.64 47.64 42.66 51.09 42.61 54.55 C 37.20 54.12 32.89 49.56 32.31 44.25 Z" />
<path fill="#fffffc" opacity="1.00" d=" M 43.87 44.20 C 47.31 44.19 50.76 44.19 54.21 44.22 C 53.86 49.65 49.35 54.29 43.89 54.60 C 43.86 51.13 43.87 47.67 43.87 44.20 Z" />
</g>
</svg>
