<?xml version="1.0" encoding="UTF-8" ?>
<!DOCTYPE svg PUBLIC "-//W3C//DTD SVG 1.1//EN" "http://www.w3.org/Graphics/SVG/1.1/DTD/svg11.dtd">
<svg width="675pt" height="128pt" viewBox="0 0 675 128" version="1.1" xmlns="http://www.w3.org/2000/svg">
<g id="#fefefeff">
<path fill="#fefefe" opacity="1.00" d=" M 39.68 0.00 L 40.05 0.00 C 41.64 6.95 43.26 13.90 44.97 20.83 C 41.65 20.75 38.33 20.75 35.00 20.81 C 36.28 13.81 38.29 6.98 39.68 0.00 Z" />
<path fill="#fefefe" opacity="1.00" d=" M 479.26 26.39 C 486.06 26.75 492.77 25.56 499.52 26.44 C 499.50 28.13 499.59 29.83 499.43 31.52 C 498.25 34.06 495.53 35.90 495.61 38.96 C 495.50 49.97 495.59 60.98 495.56 71.99 C 495.50 75.13 496.57 78.26 495.72 81.38 C 496.30 84.56 495.42 87.83 496.19 91.01 C 497.18 92.99 499.20 94.49 499.43 96.84 C 499.53 98.61 499.48 100.38 499.47 102.16 C 493.24 102.10 487.01 102.25 480.79 102.11 C 478.22 98.94 480.45 94.24 482.46 91.23 C 482.90 83.47 482.59 75.63 482.55 67.84 C 477.89 67.92 473.23 67.87 468.57 67.89 C 468.58 74.93 468.51 81.97 468.58 89.01 C 468.53 91.85 471.42 93.47 472.10 96.06 C 472.62 98.05 472.39 100.13 472.44 102.16 C 465.72 102.17 458.99 102.15 452.27 102.17 C 452.26 100.15 452.16 98.13 452.32 96.11 C 452.97 93.49 456.17 91.93 455.65 88.97 C 455.56 71.78 455.72 54.58 455.56 37.40 C 454.54 35.30 452.50 33.80 451.80 31.51 C 451.65 29.84 451.72 28.16 451.71 26.48 C 458.46 25.62 465.24 25.73 471.98 26.46 C 472.31 27.98 472.62 29.57 472.05 31.09 C 471.70 33.81 468.41 35.18 468.56 38.02 C 468.53 44.45 468.58 50.88 468.57 57.31 C 473.06 57.54 477.54 57.96 482.04 57.71 C 482.18 57.52 482.44 57.13 482.57 56.93 C 482.70 50.10 482.71 43.25 482.59 36.42 C 481.79 34.63 480.33 33.26 479.39 31.57 C 479.17 29.85 479.28 28.11 479.26 26.39 Z" />
<path fill="#fefefe" opacity="1.00" d=" M 16.80 28.65 C 18.38 25.42 22.10 26.52 25.00 26.38 C 36.26 26.37 47.51 26.44 58.77 26.35 C 59.58 27.38 60.73 28.38 60.70 29.81 C 60.84 34.08 60.72 38.37 60.74 42.64 C 58.48 42.54 56.25 42.25 54.00 42.06 C 52.44 40.30 51.13 38.34 49.77 36.43 C 48.19 36.46 46.62 36.47 45.04 36.47 C 45.12 45.65 44.61 54.87 45.43 64.02 C 45.48 72.35 45.43 80.68 45.46 89.01 C 45.09 91.62 47.40 93.31 48.86 95.13 C 48.95 97.47 48.95 99.82 48.94 102.17 C 42.20 102.17 35.46 102.16 28.72 102.16 C 28.70 100.33 28.65 98.50 28.74 96.68 C 29.43 93.81 32.92 92.15 32.64 89.02 C 32.61 71.49 32.65 53.96 32.61 36.43 C 30.76 36.45 28.90 36.47 27.08 36.81 C 26.32 38.54 25.34 40.14 24.31 41.71 C 21.84 41.89 19.26 42.85 16.83 41.94 C 16.88 37.51 16.94 33.08 16.80 28.65 Z" />
<path fill="#fefefe" opacity="1.00" d=" M 68.61 26.40 C 76.75 26.35 84.88 26.41 93.02 26.38 C 98.69 26.26 104.86 28.73 107.54 34.01 C 110.75 40.29 109.47 47.53 109.62 54.30 C 108.89 58.35 106.95 62.00 103.78 64.68 C 105.86 66.51 107.89 68.62 108.51 71.41 C 109.78 77.22 109.59 83.21 109.64 89.12 C 109.52 91.61 112.65 92.62 112.94 95.01 C 113.44 97.37 113.94 99.90 112.93 102.21 C 109.27 102.07 105.60 102.34 101.94 102.05 C 98.93 101.70 96.74 98.87 96.27 96.03 C 96.02 89.30 96.35 82.57 96.11 75.84 C 95.99 73.87 94.45 72.55 93.16 71.26 C 90.41 71.26 87.67 71.24 84.92 71.25 C 84.92 77.17 84.89 83.09 84.88 89.01 C 84.49 91.85 86.82 93.79 88.30 95.86 C 88.30 97.95 88.30 100.05 88.30 102.15 C 81.57 102.16 74.85 102.15 68.12 102.16 C 68.10 100.18 68.09 98.20 68.07 96.22 C 69.41 94.53 70.77 92.86 72.04 91.12 C 71.93 73.72 72.07 56.31 71.98 38.91 C 71.97 37.08 70.63 35.66 69.75 34.17 C 67.83 32.02 68.87 28.98 68.61 26.40 M 84.85 36.57 C 84.84 44.41 84.83 52.24 84.86 60.08 C 88.39 59.78 93.15 61.35 95.40 57.70 C 96.95 54.02 96.01 49.89 96.27 46.01 C 96.06 43.39 96.94 40.28 94.90 38.18 C 92.07 35.88 88.22 36.51 84.85 36.57 Z" />
<path fill="#fefefe" opacity="1.00" d=" M 120.42 26.39 C 132.84 26.37 145.27 26.40 157.69 26.37 C 158.05 26.75 158.77 27.50 159.13 27.87 C 159.94 32.62 159.40 37.45 159.30 42.19 C 156.30 42.30 153.18 42.27 150.56 40.62 C 149.91 39.25 149.33 37.83 148.44 36.61 C 144.71 36.31 140.97 36.56 137.24 36.48 C 137.22 43.59 137.23 50.71 137.23 57.82 C 142.22 57.83 147.22 57.81 152.22 57.84 C 152.54 60.99 152.44 64.16 152.44 67.32 C 147.49 68.60 142.29 67.61 137.24 67.92 C 137.24 75.79 137.24 83.67 137.24 91.54 C 140.98 91.54 144.71 91.54 148.45 91.53 C 148.84 89.01 149.92 86.58 152.30 85.37 C 154.78 85.38 157.29 84.50 159.73 85.35 C 159.75 90.57 159.71 95.79 159.75 101.01 C 158.56 101.49 157.44 102.37 156.09 102.16 C 144.60 102.21 133.10 102.04 121.61 102.25 C 119.19 98.26 120.57 92.80 124.34 90.15 C 124.29 73.08 124.34 56.01 124.32 38.93 C 124.56 36.45 122.41 34.76 121.22 32.84 C 119.79 31.01 120.62 28.53 120.42 26.39 Z" />
<path fill="#fefefe" opacity="1.00" d=" M 180.06 26.39 C 185.60 26.46 191.14 26.25 196.67 26.47 C 199.39 26.91 200.77 29.67 201.28 32.11 C 202.54 38.07 203.77 44.04 205.12 49.98 C 207.96 62.94 210.52 75.97 213.59 88.89 C 213.88 91.48 216.68 92.55 217.56 94.84 C 217.80 97.27 217.67 99.72 217.67 102.17 C 211.23 101.92 204.64 102.65 198.31 101.81 C 197.62 98.46 197.44 94.52 200.32 92.11 C 200.52 88.84 199.85 85.62 198.94 82.50 C 194.58 82.57 190.23 82.44 185.88 82.61 C 185.52 86.07 183.10 90.18 185.93 93.13 C 188.16 95.63 187.10 99.13 187.29 102.15 C 180.74 102.16 174.19 102.15 167.64 102.16 C 167.62 100.01 167.55 97.86 167.67 95.71 C 168.12 92.99 171.56 91.97 171.87 89.19 C 175.02 72.42 178.84 55.79 182.63 39.15 C 183.52 36.98 181.58 35.32 180.62 33.62 C 180.46 31.21 180.15 28.80 180.06 26.39 M 190.84 49.74 C 189.83 57.20 187.96 64.56 187.34 72.07 C 190.89 72.47 194.47 72.58 198.03 72.24 C 196.93 66.17 196.11 60.04 194.83 54.01 C 194.11 50.03 193.63 45.99 192.47 42.10 C 191.58 44.56 191.50 47.22 190.84 49.74 Z" />
<path fill="#fefefe" opacity="1.00" d=" M 226.58 37.09 C 227.81 31.12 233.17 26.68 239.07 25.76 C 246.03 24.43 254.30 25.32 259.42 30.69 C 263.15 34.52 262.84 40.26 263.21 45.21 C 262.79 46.78 262.55 48.38 262.25 49.97 C 259.03 49.85 255.35 50.57 252.64 48.35 C 249.15 45.14 252.14 38.84 247.72 36.33 C 244.83 35.17 241.30 35.72 239.19 38.11 C 238.99 39.34 238.79 40.57 238.58 41.81 C 239.42 45.15 237.95 49.48 241.11 51.89 C 247.40 57.43 255.75 60.41 261.23 66.95 C 263.71 70.05 264.54 74.14 264.42 78.04 C 265.02 83.73 265.20 90.01 262.26 95.13 C 258.66 100.82 251.50 103.14 245.05 102.83 C 238.04 103.32 230.26 100.75 226.56 94.41 C 224.59 90.26 224.32 85.51 224.53 80.99 C 224.68 79.44 225.03 77.23 226.93 76.98 C 230.23 76.86 234.49 76.31 236.73 79.35 C 239.22 82.32 236.80 86.70 238.85 89.90 C 242.34 93.36 249.53 92.71 251.36 87.82 C 251.22 83.41 252.36 78.60 250.29 74.51 C 243.76 66.80 232.39 64.44 227.19 55.40 C 224.77 49.64 225.36 43.07 226.58 37.09 Z" />
<path fill="#fefefe" opacity="1.00" d=" M 272.25 26.38 C 278.81 26.39 285.37 26.40 291.92 26.38 C 291.92 28.18 291.92 29.98 291.90 31.79 C 290.45 34.01 288.11 36.12 288.54 39.03 C 288.61 49.03 288.49 59.03 288.61 69.03 C 289.50 75.01 288.84 81.06 289.22 87.08 C 290.19 92.19 296.73 93.43 300.60 90.70 C 301.32 89.32 302.01 87.92 302.66 86.51 C 302.57 70.35 302.67 54.20 302.61 38.04 C 302.62 35.61 300.49 33.97 299.25 32.10 C 299.25 30.19 299.26 28.29 299.26 26.38 C 305.64 26.40 312.01 26.36 318.39 26.40 C 319.04 30.16 317.82 33.71 315.02 36.28 C 314.94 52.87 315.01 69.46 314.99 86.05 C 314.87 92.61 311.06 99.63 304.48 101.62 C 297.80 103.75 290.09 103.59 283.85 100.18 C 278.38 97.33 275.56 90.98 275.64 85.01 C 275.66 69.68 275.64 54.35 275.68 39.02 C 276.10 36.38 273.87 34.59 272.31 32.83 C 272.25 30.68 272.25 28.53 272.25 26.38 Z" />
<path fill="#fefefe" opacity="1.00" d=" M 325.67 26.42 C 334.12 26.34 342.57 26.40 351.02 26.39 C 355.33 26.60 359.96 27.74 362.99 31.00 C 367.08 35.62 367.45 42.15 367.32 48.02 C 367.51 53.87 366.54 60.32 362.07 64.54 C 368.85 71.27 366.18 81.58 366.74 90.11 C 367.98 91.37 369.32 92.56 370.31 94.04 C 371.05 96.67 370.56 99.46 370.64 102.16 C 366.77 102.08 362.89 102.36 359.04 102.03 C 356.07 101.65 354.60 98.83 353.88 96.23 C 353.62 89.62 354.03 82.99 353.72 76.39 C 353.64 74.22 352.27 72.58 350.72 71.23 C 347.98 71.26 345.24 71.24 342.51 71.25 C 342.57 77.70 342.37 84.16 342.62 90.61 C 343.57 92.37 344.93 93.87 346.02 95.55 C 345.93 97.75 345.92 99.95 345.93 102.14 C 339.19 102.19 332.46 102.15 325.72 102.16 C 325.71 100.08 325.61 98.00 325.79 95.92 C 326.79 93.54 329.66 91.99 329.16 89.04 C 329.22 72.35 329.13 55.67 329.14 38.98 C 329.60 36.11 326.58 34.60 325.80 32.11 C 325.62 30.22 325.68 28.32 325.67 26.42 M 342.42 59.93 C 344.98 60.07 347.59 60.30 350.14 59.87 C 353.12 59.14 354.27 55.76 354.35 53.01 C 354.39 48.68 354.64 44.31 353.81 40.04 C 351.87 35.53 346.49 36.49 342.51 36.49 C 342.41 44.30 342.55 52.12 342.42 59.93 Z" />
<path fill="#fefefe" opacity="1.00" d=" M 378.03 26.37 C 389.99 26.42 401.96 26.37 413.92 26.39 C 415.72 26.29 416.76 28.44 416.74 30.00 C 416.86 34.03 416.73 38.07 416.78 42.11 C 413.63 42.17 410.33 42.44 407.58 40.62 C 407.07 39.33 406.56 38.04 406.07 36.74 C 402.16 36.28 398.22 36.56 394.30 36.49 C 394.29 43.60 394.28 50.71 394.28 57.82 C 398.98 57.82 403.68 57.87 408.37 57.78 C 408.79 58.12 409.64 58.80 410.06 59.14 C 409.63 61.95 411.19 65.64 408.83 67.80 C 403.99 68.11 399.13 67.79 394.28 67.93 C 394.28 75.80 394.29 83.66 394.30 91.53 C 397.98 91.53 401.66 91.51 405.35 91.55 C 406.02 89.66 406.16 87.25 408.07 86.11 C 410.57 84.63 413.60 84.83 416.41 84.74 C 417.29 90.04 416.59 95.47 416.83 100.82 C 416.43 101.16 415.62 101.84 415.22 102.19 C 402.82 102.11 390.42 102.18 378.03 102.17 C 378.05 99.85 377.80 97.50 378.18 95.21 C 378.97 93.67 380.21 92.44 381.39 91.19 C 381.43 73.43 381.39 55.66 381.40 37.90 C 381.62 35.34 378.54 34.29 378.10 31.96 C 377.90 30.11 378.01 28.23 378.03 26.37 Z" />
<path fill="#fefefe" opacity="1.00" d=" M 506.29 26.39 C 513.02 26.40 519.75 26.37 526.48 26.40 C 527.12 30.14 525.63 33.52 523.11 36.21 C 523.10 51.80 523.13 67.39 523.11 82.98 C 523.08 85.37 523.48 87.96 525.02 89.87 C 527.34 92.91 532.60 93.04 535.06 90.11 C 536.89 88.25 536.52 85.43 537.13 83.09 C 537.24 68.74 537.18 54.38 537.19 40.03 C 537.35 37.45 536.30 35.06 534.65 33.13 C 533.11 31.24 533.34 28.68 533.33 26.39 C 539.85 26.36 546.37 26.42 552.90 26.35 C 552.76 28.56 553.58 31.17 551.96 33.01 C 551.01 34.57 549.20 35.90 549.51 37.93 C 549.54 53.64 549.55 69.34 549.56 85.05 C 549.64 88.48 548.70 91.90 547.04 94.89 C 543.82 100.37 537.19 103.10 531.01 102.75 C 527.00 102.90 522.85 102.68 519.23 100.77 C 513.43 97.99 509.69 91.47 510.17 85.08 C 510.21 69.70 510.21 54.32 510.17 38.95 C 510.35 35.80 506.87 34.19 506.35 31.25 C 506.24 29.63 506.28 28.01 506.29 26.39 Z" />
<path fill="#fefefe" opacity="1.00" d=" M 590.08 26.38 C 596.46 26.44 602.85 26.29 609.24 26.47 C 609.19 28.34 609.18 30.20 609.17 32.07 C 607.75 34.20 605.35 36.15 605.80 38.99 C 605.81 59.60 605.81 80.20 605.82 100.81 C 605.42 101.15 604.61 101.84 604.21 102.18 C 601.72 102.15 599.24 102.25 596.76 102.11 C 593.78 101.78 592.84 98.51 591.73 96.21 C 586.35 83.17 581.52 69.90 576.14 56.85 C 575.98 67.61 575.71 78.40 576.34 89.14 C 576.17 91.94 579.22 93.24 579.89 95.73 C 580.01 97.87 579.92 100.02 579.90 102.16 C 573.35 102.16 566.80 102.16 560.25 102.17 C 560.23 99.84 560.23 97.52 560.34 95.20 C 561.57 93.78 562.64 92.23 563.65 90.65 C 563.58 73.45 563.65 56.25 563.62 39.06 C 563.70 36.46 560.83 35.18 560.22 32.82 C 559.42 30.79 559.82 28.56 559.71 26.44 C 562.47 26.49 565.21 26.21 567.94 25.88 C 570.62 26.07 573.28 26.55 575.99 26.40 C 581.95 40.38 587.29 54.63 592.49 68.91 C 592.76 69.32 593.30 70.16 593.57 70.57 C 593.47 59.72 593.50 48.87 593.51 38.02 C 593.78 35.96 591.95 34.56 591.07 32.90 C 589.72 31.00 590.12 28.57 590.08 26.38 Z" />
<path fill="#fefefe" opacity="1.00" d=" M 616.11 29.08 C 616.37 27.25 618.22 26.21 619.97 26.39 C 631.94 26.38 643.91 26.37 655.88 26.40 C 657.60 26.31 659.42 27.32 659.72 29.15 C 659.95 33.46 659.73 37.78 659.80 42.10 C 657.63 42.03 655.41 42.34 653.27 41.91 C 651.43 40.48 650.46 38.27 649.07 36.46 C 647.39 36.48 645.72 36.48 644.06 36.49 C 644.07 54.03 644.06 71.57 644.06 89.12 C 643.70 92.12 647.40 93.38 647.86 96.11 C 648.08 98.02 648.11 99.99 647.71 101.88 C 641.11 102.52 634.41 101.97 627.77 102.15 C 627.75 100.35 627.69 98.54 627.81 96.73 C 628.41 94.32 630.51 92.72 631.63 90.58 C 631.75 72.54 631.68 54.49 631.66 36.45 C 630.07 36.44 628.48 36.47 626.91 36.56 C 625.16 38.23 624.32 40.68 622.31 42.16 C 620.18 42.10 618.05 42.10 615.94 42.09 C 616.05 37.76 615.69 33.40 616.11 29.08 Z" />
<path fill="#fefefe" opacity="1.00" d=" M 0.00 59.26 C 8.15 56.95 16.52 55.53 24.71 53.37 C 24.66 57.16 24.70 60.95 24.66 64.74 C 16.41 63.21 8.23 61.29 0.00 59.67 L 0.00 59.26 Z" />
<path fill="#fefefe" opacity="1.00" d=" M 670.49 66.16 C 672.18 66.85 673.47 68.25 675.00 69.24 L 675.00 69.72 C 672.07 71.89 669.68 74.67 667.08 77.20 C 669.73 79.76 672.32 82.38 674.85 85.06 L 675.00 83.21 L 675.00 85.02 C 673.71 86.36 672.36 87.64 671.03 88.92 C 668.46 86.42 665.94 83.86 663.39 81.35 C 660.93 83.89 658.42 86.39 655.92 88.89 C 654.47 87.80 653.05 86.67 651.66 85.53 C 653.78 82.39 656.67 79.89 659.34 77.24 C 656.78 74.63 653.77 72.46 651.66 69.43 C 653.02 68.22 654.40 67.03 655.83 65.89 C 658.23 68.40 660.71 70.82 663.13 73.32 C 665.62 70.97 667.86 68.36 670.49 66.16 Z" />
<path fill="#fefefe" opacity="1.00" d=" M 35.12 107.78 C 38.46 107.79 41.81 107.79 45.15 107.79 C 43.24 114.49 41.63 121.27 39.85 128.00 L 39.64 128.00 C 38.48 121.19 36.55 114.53 35.12 107.78 Z" />
</g>
</svg>
