<?xml version="1.0" encoding="UTF-8" ?>
<!DOCTYPE svg PUBLIC "-//W3C//DTD SVG 1.1//EN" "http://www.w3.org/Graphics/SVG/1.1/DTD/svg11.dtd">
<svg width="410pt" height="94pt" viewBox="0 0 410 94" version="1.1" xmlns="http://www.w3.org/2000/svg">
<g id="#fefefeff">
<path fill="#fefefe" opacity="1.00" d=" M 85.20 0.00 L 86.39 0.00 C 94.75 21.29 102.65 42.76 111.01 64.05 C 112.79 68.63 114.88 73.38 119.12 76.23 C 111.97 76.23 104.83 76.16 97.68 76.27 C 99.72 74.47 101.85 71.93 101.09 69.01 C 99.55 63.09 97.06 57.47 94.98 51.73 C 86.91 52.18 78.85 51.27 70.78 51.61 C 68.99 57.13 66.82 62.58 65.83 68.32 C 65.30 71.57 67.28 74.45 69.81 76.27 C 64.51 76.16 59.21 76.22 53.90 76.22 C 59.33 72.19 61.31 65.49 63.57 59.44 C 70.88 39.66 77.99 19.81 85.20 0.00 M 82.43 18.83 C 78.95 28.64 75.41 38.42 72.00 48.25 C 79.21 48.33 86.42 48.23 93.63 48.28 C 90.78 40.23 87.73 32.26 84.86 24.22 C 84.15 22.38 83.75 20.36 82.43 18.83 Z" />
<path fill="#fefefe" opacity="1.00" d=" M 0.00 1.82 C 7.25 1.79 14.49 1.87 21.74 1.79 C 20.50 3.05 18.94 4.20 18.51 6.01 C 17.87 9.41 19.34 12.68 20.36 15.85 C 25.65 30.53 30.91 45.22 36.54 59.78 C 36.73 59.78 37.11 59.78 37.30 59.78 C 42.42 45.14 47.73 30.56 52.65 15.84 C 54.13 11.26 55.37 4.91 50.42 1.95 C 55.91 1.70 61.40 1.84 66.89 1.87 C 62.66 3.94 60.28 8.13 58.64 12.35 C 50.53 33.82 42.80 55.44 34.88 76.97 C 34.65 78.67 32.65 78.23 32.36 76.86 C 26.67 62.93 21.66 48.72 16.15 34.72 C 12.77 26.09 9.89 17.25 6.05 8.81 C 4.88 5.94 2.75 3.61 0.00 2.18 L 0.00 1.82 Z" />
<path fill="#fefefe" opacity="1.00" d=" M 125.78 1.86 C 130.62 1.79 135.45 1.86 140.29 1.79 C 148.00 21.07 155.52 40.44 163.60 59.56 C 170.04 41.38 176.87 23.33 183.31 5.15 C 183.85 4.10 183.86 2.60 184.91 1.91 C 189.35 1.66 193.80 1.90 198.25 1.83 C 196.19 3.76 194.05 5.99 193.81 8.97 C 193.51 12.95 194.31 16.89 194.59 20.84 C 195.97 36.24 197.63 51.62 199.10 67.00 C 198.20 77.05 194.26 87.28 186.48 94.00 L 186.23 94.00 C 188.95 85.14 189.15 75.75 188.56 66.57 C 186.83 49.89 185.29 33.19 183.71 16.50 C 176.16 35.83 169.24 55.41 162.10 74.90 C 161.66 76.09 160.94 77.06 159.92 77.83 C 151.26 57.74 143.65 37.20 135.11 17.06 C 133.86 32.71 132.43 48.35 131.35 64.01 C 131.18 67.95 132.50 71.94 135.48 74.61 C 135.31 81.15 135.91 87.70 137.72 94.00 L 137.40 94.00 C 130.22 87.06 125.63 77.16 126.56 67.05 C 128.28 48.67 129.94 30.29 131.54 11.90 C 132.06 7.67 128.79 4.33 125.78 1.86 Z" />
<path fill="#fefefe" opacity="1.00" d=" M 210.14 1.83 C 218.78 1.80 227.41 1.83 236.05 1.81 C 242.92 1.91 250.17 3.92 255.14 8.90 C 263.64 18.42 261.61 35.79 250.26 42.22 C 242.92 46.26 233.76 46.84 225.92 43.87 C 225.79 52.90 226.33 61.96 225.26 70.95 C 224.42 78.68 225.60 86.42 227.08 94.00 L 226.85 94.00 C 219.24 86.85 215.40 76.32 215.13 66.02 C 215.20 47.68 215.22 29.35 215.14 11.02 C 215.31 7.23 213.48 3.68 210.14 1.83 M 225.92 5.65 C 225.95 17.11 225.86 28.56 225.98 40.01 C 230.79 42.74 237.08 42.94 241.92 40.20 C 247.32 36.80 248.97 29.95 249.12 23.97 C 248.96 18.68 247.96 12.83 244.02 8.96 C 239.20 4.51 232.00 4.50 225.92 5.65 Z" />
<path fill="#fefefe" opacity="1.00" d=" M 267.16 2.02 C 274.16 1.62 281.18 1.82 288.18 1.91 C 285.05 3.92 283.15 7.32 283.18 11.06 C 282.97 28.36 283.16 45.67 283.08 62.96 C 282.99 67.76 283.76 73.18 287.94 76.20 C 281.26 76.19 274.57 76.26 267.89 76.17 C 273.36 72.25 272.22 64.90 272.32 59.06 C 273.17 43.36 271.99 27.67 272.32 11.96 C 272.65 7.98 270.97 3.74 267.16 2.02 Z" />
<path fill="#fefefe" opacity="1.00" d=" M 296.23 1.88 C 305.16 1.77 314.10 1.82 323.03 1.83 C 329.32 2.13 335.99 3.78 340.60 8.33 C 346.68 14.40 347.29 24.71 343.05 31.96 C 340.43 36.73 335.48 39.70 330.40 41.20 C 337.29 45.42 340.47 53.14 343.89 60.07 C 348.02 69.18 353.08 78.48 361.52 84.29 C 364.64 86.57 368.35 87.78 372.08 88.66 C 361.66 90.02 350.74 86.11 343.62 78.38 C 334.29 69.13 331.58 55.60 323.49 45.47 C 320.96 41.87 316.22 41.72 312.39 40.53 C 312.31 49.04 312.31 57.55 312.36 66.06 C 312.33 69.91 313.77 73.82 316.96 76.14 C 310.34 76.31 303.72 76.16 297.10 76.22 C 300.46 73.47 301.60 69.20 301.54 65.00 C 301.49 47.04 301.64 29.08 301.46 11.13 C 301.50 7.29 299.66 3.72 296.23 1.88 M 312.40 6.16 C 312.20 16.39 312.45 26.63 312.27 36.86 C 318.63 40.66 328.70 39.53 332.39 32.49 C 335.37 26.54 335.21 19.16 332.83 13.03 C 329.77 5.23 319.36 3.45 312.40 6.16 Z" />
<path fill="#fefefe" opacity="1.00" d=" M 359.75 1.84 C 374.90 1.80 390.05 1.84 405.20 1.82 C 405.61 7.15 406.60 12.47 406.21 17.83 C 404.83 14.40 403.47 10.66 400.13 8.65 C 392.89 3.76 383.76 5.79 375.58 5.44 C 375.60 14.14 375.59 22.83 375.57 31.53 C 377.65 30.80 379.76 30.13 381.90 29.56 C 382.93 32.48 385.31 34.55 388.41 35.03 C 388.31 34.34 388.12 32.97 388.03 32.28 C 389.43 32.93 390.90 33.01 392.38 32.44 C 392.38 33.12 392.37 34.50 392.37 35.19 C 395.39 34.50 397.83 32.55 398.85 29.58 C 403.17 30.40 407.93 31.76 409.99 36.09 C 405.28 35.60 400.82 37.70 398.18 41.59 C 394.42 41.11 391.63 43.62 390.40 46.94 C 388.96 43.77 386.22 40.67 382.38 41.84 C 381.05 39.11 378.42 37.56 375.64 36.64 C 375.52 48.62 375.62 60.60 375.58 72.58 C 383.63 72.08 392.19 74.11 399.82 70.78 C 405.27 68.47 408.01 62.83 410.00 57.60 L 410.00 61.56 C 409.31 66.51 408.74 71.49 408.04 76.44 C 392.18 75.93 376.30 76.33 360.43 76.23 C 363.52 73.77 364.97 69.91 364.83 66.02 C 364.80 47.36 364.92 28.69 364.76 10.03 C 364.79 6.53 362.72 3.54 359.75 1.84 Z" />
</g>
</svg>
