<?xml version="1.0" encoding="UTF-8" standalone="no"?>
<svg
   width="200"
   height="200"
   viewBox="0 0 200 200"
   version="1.1"
   id="svg2"
   sodipodi:docname="lightning (favicon).svg"
   inkscape:version="1.4.2 (ebf0e940d0, 2025-05-08)"
   xmlns:inkscape="http://www.inkscape.org/namespaces/inkscape"
   xmlns:sodipodi="http://sodipodi.sourceforge.net/DTD/sodipodi-0.dtd"
   xmlns="http://www.w3.org/2000/svg"
   xmlns:svg="http://www.w3.org/2000/svg">
  <defs
     id="defs2" />
  <sodipodi:namedview
     id="namedview2"
     pagecolor="#ffffff"
     bordercolor="#000000"
     borderopacity="0.25"
     inkscape:showpageshadow="2"
     inkscape:pageopacity="0.0"
     inkscape:pagecheckerboard="0"
     inkscape:deskcolor="#d1d1d1"
     inkscape:zoom="4.875"
     inkscape:cx="100.10256"
     inkscape:cy="100"
     inkscape:window-width="1600"
     inkscape:window-height="1215"
     inkscape:window-x="0"
     inkscape:window-y="0"
     inkscape:window-maximized="1"
     inkscape:current-layer="svg2" />
  <!-- 圆角黄色背景 -->
  <rect
     width="200"
     height="200"
     rx="30"
     ry="30"
     fill="#ffe141"
     id="rect1"
     style="fill:#ffdf41;fill-opacity:1" />
  <!-- 放大的黑色图标，线条加粗 -->
  <g
     transform="matrix(0.5802259,0,0,0.57154549,25.814057,27.384344)"
     id="g2">
    <g
       fill="none"
       stroke="#000000"
       stroke-miterlimit="10"
       stroke-width="2"
       transform="matrix(2.81,0,0,2.81,1.407,1.407)"
       id="g1">
      <path
         d="M 79.967,34.901 C 78.355,26.618 71.185,20.673 62.685,20.673 c -3.277,0 -6.442,0.901 -9.223,2.617 -4.063,-7.597 -12.083,-12.445 -20.744,-12.445 -12.963,0 -23.509,10.546 -23.509,23.509 0,0.277 0.006,0.552 0.018,0.826 C 3.677,37.333 0,42.657 0,48.661 0,56.639 6.49,63.129 14.468,63.129 h 21.711 l -5.147,14.695 c -0.156,0.446 0.021,0.941 0.427,1.187 0.161,0.097 0.339,0.144 0.517,0.144 0.271,0 0.538,-0.109 0.732,-0.318 L 47.337,63.13 H 75.533 C 83.51,63.129 90,56.639 90,48.661 90,42.381 85.905,36.813 79.967,34.901 Z M 40.495,56.854 c 0.107,-0.306 0.059,-0.645 -0.128,-0.908 -0.188,-0.265 -0.491,-0.422 -0.815,-0.422 h -5.817 l 4.52,-12.519 h 14.3 l -4.417,6.842 c -0.201,0.311 -0.214,0.707 -0.033,1.03 0.182,0.323 0.52,0.513 0.896,0.512 L 55.68,51.238 34.5,73.979 Z m 35.037,4.275 H 49.199 l 9.557,-10.262 c 0.274,-0.294 0.346,-0.724 0.181,-1.091 -0.164,-0.367 -0.54,-0.586 -0.935,-0.591 l -7.163,0.162 4.39,-6.799 c 0.199,-0.308 0.214,-0.699 0.038,-1.021 -0.175,-0.321 -0.512,-0.521 -0.878,-0.521 H 37.551 c -0.421,0 -0.797,0.264 -0.94,0.661 l -5.242,14.518 c -0.111,0.307 -0.065,0.647 0.122,0.914 0.187,0.267 0.493,0.426 0.818,0.426 h 5.832 l -1.262,3.604 H 14.468 C 7.593,61.129 2,55.536 2,48.661 c 0,-5.396 3.447,-10.155 8.577,-11.84 0.434,-0.143 0.716,-0.561 0.686,-1.016 -0.032,-0.48 -0.054,-0.962 -0.054,-1.45 0,-11.86 9.649,-21.509 21.509,-21.509 8.276,0 15.912,4.839 19.453,12.328 0.127,0.267 0.365,0.465 0.651,0.54 0.284,0.074 0.59,0.019 0.832,-0.152 2.661,-1.889 5.784,-2.888 9.03,-2.888 7.723,0 14.207,5.538 15.418,13.167 0.062,0.388 0.345,0.704 0.724,0.808 5.402,1.477 9.174,6.417 9.174,12.012 0,6.875 -5.593,12.468 -12.468,12.468 z"
         fill="#000000"
         id="path1" />
    </g>
  </g>
</svg>
