<?xml version="1.0" encoding="UTF-8" standalone="yes"?>
<svg width="1000" height="1000" viewBox="0 0 1000 1000" version="1.2" baseProfile="tiny-ps" xmlns="http://www.w3.org/2000/svg">
  <title>Debrid-Link</title>
  <path d="M 52.249 266.247 L 48 270.576 48 317.575 L 48 364.575 52.784 369.288 L 57.569 374 167.733 374 C 287.266 374, 290.761 374.136, 309.635 379.533 C 349.452 390.919, 372.358 418.223, 381.244 464.893 C 383.185 475.084, 383.457 479.854, 383.476 504 C 383.494 528.036, 383.221 533.011, 381.307 543.500 C 371.630 596.520, 344.241 624.801, 294 633.650 C 284.448 635.333, 277.137 635.500, 213 635.500 L 142.500 635.500 142 547.178 L 141.500 458.856 137.289 454.928 L 133.077 451 94.827 451 L 56.576 451 52.288 455.208 L 48 459.416 48 598.996 L 48 738.575 52.784 743.288 L 57.569 748 162.534 747.974 C 220.265 747.960, 274.475 747.519, 283 746.995 C 355.108 742.564, 406.198 716.595, 438.621 667.892 C 458.007 638.772, 469.277 605.347, 475.676 558 C 478.007 540.749, 478.326 472.270, 476.158 454.500 C 470.812 410.682, 459.527 375.080, 442.096 347.039 C 416.782 306.316, 376.159 278.568, 326.500 268.080 C 299.715 262.422, 307.056 262.706, 176.999 262.297 L 56.497 261.918 52.249 266.247 M 529.338 266.399 L 524.940 270.797 525.278 457.649 C 525.616 644.307, 525.619 644.511, 527.775 655.500 C 531.032 672.108, 533.623 680.463, 539.051 691.862 C 553.951 723.157, 576.735 739.891, 615 747.643 C 622.789 749.221, 637.004 749.395, 784.931 749.717 L 946.361 750.069 951.181 745.322 L 956 740.575 956 693.496 L 956 646.416 951.458 641.958 L 946.915 637.500 800.208 637 L 653.500 636.500 647.718 634.166 C 636.737 629.734, 629.025 621.973, 624.980 611.282 C 619.978 598.065, 620.072 601.518, 620.035 430.618 L 620 270.737 615.632 266.368 L 611.263 262 572.500 262 L 533.737 262 529.338 266.399" stroke="none" fill="#fafafa" fill-rule="evenodd"/>
  <path d="M 0 500.001 L 0 1000.002 500.250 999.751 L 1000.500 999.500 1000.751 499.750 L 1001.002 0 500.501 0 L 0 0 0 500.001 M 0.496 500.500 C 0.496 775.500, 0.610 887.851, 0.750 750.168 C 0.890 612.486, 0.890 387.486, 0.750 250.168 C 0.610 112.851, 0.496 225.500, 0.496 500.500 M 52.249 266.247 L 48 270.576 48 317.575 L 48 364.575 52.784 369.288 L 57.569 374 167.733 374 C 287.266 374, 290.761 374.136, 309.635 379.533 C 349.452 390.919, 372.358 418.223, 381.244 464.893 C 383.185 475.084, 383.457 479.854, 383.476 504 C 383.494 528.036, 383.221 533.011, 381.307 543.500 C 371.630 596.520, 344.241 624.801, 294 633.650 C 284.448 635.333, 277.137 635.500, 213 635.500 L 142.500 635.500 142 547.178 L 141.500 458.856 137.289 454.928 L 133.077 451 94.827 451 L 56.576 451 52.288 455.208 L 48 459.416 48 598.996 L 48 738.575 52.784 743.288 L 57.569 748 162.534 747.974 C 220.265 747.960, 274.475 747.519, 283 746.995 C 355.108 742.564, 406.198 716.595, 438.621 667.892 C 458.007 638.772, 469.277 605.347, 475.676 558 C 478.007 540.749, 478.326 472.270, 476.158 454.500 C 470.812 410.682, 459.527 375.080, 442.096 347.039 C 416.782 306.316, 376.159 278.568, 326.500 268.080 C 299.715 262.422, 307.056 262.706, 176.999 262.297 L 56.497 261.918 52.249 266.247 M 529.338 266.399 L 524.940 270.797 525.278 457.649 C 525.616 644.307, 525.619 644.511, 527.775 655.500 C 531.032 672.108, 533.623 680.463, 539.051 691.862 C 553.951 723.157, 576.735 739.891, 615 747.643 C 622.789 749.221, 637.004 749.395, 784.931 749.717 L 946.361 750.069 951.181 745.322 L 956 740.575 956 693.496 L 956 646.416 951.458 641.958 L 946.915 637.500 800.208 637 L 653.500 636.500 647.718 634.166 C 636.737 629.734, 629.025 621.973, 624.980 611.282 C 619.978 598.065, 620.072 601.518, 620.035 430.618 L 620 270.737 615.632 266.368 L 611.263 262 572.500 262 L 533.737 262 529.338 266.399" stroke="none" fill="#00506d" fill-rule="evenodd"/>
</svg>