<?xml version="1.0" encoding="UTF-8" standalone="no"?>
<svg
   width="820pt"
   height="200pt"
   viewBox="0 0 820 200"
   version="1.1"
   id="svg10"
   sodipodi:docname="popular.svg"
   inkscape:version="1.4.2 (f4327f4, 2025-05-13)"
   xmlns:inkscape="http://www.inkscape.org/namespaces/inkscape"
   xmlns:sodipodi="http://sodipodi.sourceforge.net/DTD/sodipodi-0.dtd"
   xmlns="http://www.w3.org/2000/svg"
   xmlns:svg="http://www.w3.org/2000/svg">
  <defs
     id="defs10" />
  <sodipodi:namedview
     id="namedview10"
     pagecolor="#ffffff"
     bordercolor="#000000"
     borderopacity="0.25"
     inkscape:showpageshadow="2"
     inkscape:pageopacity="0.0"
     inkscape:pagecheckerboard="true"
     inkscape:deskcolor="#d1d1d1"
     inkscape:document-units="pt"
     inkscape:zoom="0.83323171"
     inkscape:cx="516.66301"
     inkscape:cy="166.82034"
     inkscape:window-width="1920"
     inkscape:window-height="1130"
     inkscape:window-x="-6"
     inkscape:window-y="-6"
     inkscape:window-maximized="1"
     inkscape:current-layer="svg10" />
  <g
     id="#fefffcff"
     transform="translate(98,18)">
    <path
       fill="#fefffc"
       opacity="1.00"
       d=" M 114.39 0.00 L 147.78 0.00 C 150.85 0.90 153.57 3.66 153.50 7.00 C 153.55 12.66 153.45 18.32 153.52 23.97 C 153.47 26.36 153.94 29.16 151.87 30.88 C 148.86 34.70 143.50 33.01 139.34 33.31 C 136.62 35.99 133.99 38.75 131.20 41.36 C 128.55 38.71 125.89 36.06 123.27 33.38 C 120.41 33.33 117.54 33.47 114.69 33.27 C 111.42 32.70 108.74 29.54 109.02 26.16 C 109.02 19.67 108.91 13.16 109.09 6.67 C 109.20 3.52 111.96 1.51 114.39 0.00 M 130.96 8.10 C 130.16 11.81 125.73 13.86 126.23 17.94 C 126.69 20.67 125.13 24.42 127.32 26.49 C 131.62 26.77 136.07 27.08 140.30 26.04 C 141.67 22.74 142.43 19.22 143.02 15.71 C 142.18 12.04 137.99 12.74 135.15 12.77 C 134.99 10.02 136.00 6.08 133.11 4.46 C 131.28 4.55 131.75 6.94 130.96 8.10 M 119.60 16.01 C 120.15 18.99 119.94 22.00 119.97 25.01 C 120.00 27.16 122.34 26.59 123.80 26.78 C 124.14 26.40 124.81 25.65 125.14 25.28 C 125.13 22.00 125.12 18.72 125.18 15.43 C 124.86 15.05 124.21 14.29 123.89 13.91 C 123.10 13.89 121.50 13.85 120.71 13.83 C 120.43 14.37 119.88 15.46 119.60 16.01 Z"
       id="path1" />
    <path
       fill="#fefffc"
       opacity="1.00"
       d=" M 89.22 31.20 C 93.00 29.13 97.83 25.77 102.00 28.86 C 105.44 32.49 106.79 37.50 109.08 41.84 C 110.24 44.32 112.30 47.16 110.70 49.93 C 108.92 53.58 104.48 54.11 101.75 56.68 C 100.50 59.07 99.71 61.65 98.69 64.14 C 95.31 63.77 92.29 61.79 88.88 61.74 C 85.85 63.16 82.90 65.38 79.35 64.41 C 75.27 62.68 74.64 57.72 72.70 54.22 C 70.61 49.88 66.91 44.28 71.04 39.95 C 76.48 35.91 83.54 34.90 89.22 31.20 M 85.28 42.10 C 87.29 42.86 86.56 44.69 86.04 46.29 C 84.21 47.22 82.29 48.01 81.44 50.06 C 82.15 51.55 83.02 52.94 84.26 54.05 C 84.87 53.99 86.11 53.86 86.73 53.80 C 87.57 52.91 88.42 52.01 89.26 51.12 C 90.70 51.13 92.13 51.13 93.57 51.15 C 94.54 51.83 95.54 52.47 96.57 53.09 C 98.61 52.03 101.00 50.39 100.12 47.69 C 98.62 44.69 93.89 44.79 93.12 48.28 C 91.44 48.60 89.74 48.85 88.03 48.77 C 87.75 45.56 89.82 43.33 92.30 41.68 C 92.31 41.06 92.33 39.81 92.34 39.19 C 91.48 38.33 90.62 37.46 89.77 36.59 C 86.57 35.97 84.14 39.10 85.28 42.10 Z"
       id="path2" />
    <path
       fill="#fefffc"
       opacity="1.00"
       d=" M 159.57 30.40 C 162.02 27.46 166.46 27.91 169.57 29.48 C 174.30 31.74 178.72 34.62 183.52 36.76 C 186.65 38.46 190.63 39.45 192.38 42.86 C 194.58 47.58 190.18 51.60 188.69 55.80 C 186.65 59.22 185.85 64.22 181.50 65.46 C 177.98 66.50 175.35 63.38 172.24 62.42 C 168.85 61.34 165.65 64.17 162.39 63.78 C 161.33 61.33 160.68 58.72 159.56 56.29 C 157.02 55.18 154.55 53.90 152.20 52.43 C 151.15 50.49 149.94 48.19 151.07 46.00 C 153.93 40.82 156.67 35.56 159.57 30.40 M 165.76 39.78 C 165.47 40.33 164.89 41.42 164.59 41.96 C 164.30 46.39 165.47 51.33 168.73 54.47 C 174.14 54.35 182.58 52.17 181.92 45.23 C 181.21 44.34 180.52 43.43 179.83 42.53 C 178.25 41.90 176.63 41.43 175.02 42.26 C 173.95 38.22 168.68 36.88 165.76 39.78 Z"
       id="path3" />
    <path
       fill="#fefffc"
       opacity="1.00"
       d=" M 109.76 67.02 C 120.14 62.79 131.90 62.32 142.71 65.13 C 155.25 68.37 166.29 77.56 170.96 89.76 C 175.89 102.74 176.60 117.33 173.07 130.75 C 169.64 142.92 161.58 154.24 149.89 159.62 C 144.58 162.06 138.81 163.13 133.08 164.00 L 124.85 164.00 C 120.28 163.12 115.62 162.55 111.26 160.85 C 99.78 156.83 90.79 147.06 86.89 135.63 C 82.14 122.03 82.29 106.85 86.56 93.15 C 90.00 81.63 98.58 71.61 109.76 67.02 M 125.24 90.25 C 121.26 91.71 118.34 95.38 117.57 99.52 C 115.45 107.90 125.01 116.58 133.12 113.43 C 137.17 112.19 139.97 108.47 140.93 104.47 C 143.08 96.01 133.75 86.42 125.24 90.25 M 117.48 117.56 C 112.09 120.50 109.29 126.55 109.15 132.52 C 109.39 133.74 109.61 134.96 109.83 136.19 C 122.99 136.23 136.14 136.17 149.30 136.23 C 149.69 134.01 149.65 131.75 149.60 129.51 C 148.25 123.55 144.01 118.26 138.10 116.36 C 131.41 114.37 123.80 114.34 117.48 117.56 Z"
       id="path4" />
    <path
       fill="#fefffc"
       opacity="1.00"
       d=" M 6.52 67.67 C 15.24 64.11 24.85 63.95 34.12 63.84 C 46.74 62.86 60.69 65.81 69.60 75.42 C 83.01 89.57 79.87 115.88 62.85 125.79 C 52.26 131.99 39.58 131.28 27.78 131.17 C 27.05 140.99 27.28 150.85 27.26 160.69 C 24.92 161.52 22.53 162.43 20.00 162.33 C 14.66 162.32 8.74 163.24 4.13 159.85 C 1.33 158.24 0.55 154.91 0.00 151.98 L 0.00 73.44 C 1.19 70.63 3.73 68.73 6.52 67.67 M 27.66 85.25 C 27.97 93.54 26.46 101.86 27.60 110.13 C 33.39 109.87 39.61 110.98 44.92 108.00 C 51.13 104.15 51.72 94.69 47.64 89.12 C 42.55 83.76 34.39 83.78 27.66 85.25 Z"
       id="path5" />
    <path
       fill="#fefffc"
       opacity="1.00"
       d=" M 191.57 68.27 C 200.79 64.11 211.13 64.18 221.01 63.42 C 232.63 63.83 245.41 65.38 254.25 73.75 C 259.64 78.34 262.82 85.01 264.10 91.88 C 264.20 95.30 264.22 98.72 264.09 102.14 C 262.68 111.73 257.53 121.16 248.86 125.94 C 238.62 131.83 226.43 131.29 215.02 131.22 C 212.82 130.92 213.76 133.79 213.54 135.03 C 213.63 143.32 213.46 151.61 213.62 159.91 C 208.46 163.46 201.59 162.77 195.66 162.26 C 190.95 161.42 186.51 157.94 186.39 152.83 C 186.24 127.20 186.38 101.57 186.34 75.95 C 186.28 72.59 188.40 69.42 191.57 68.27 M 213.76 85.21 C 213.29 93.49 213.69 101.80 213.57 110.10 C 219.64 109.85 226.44 111.24 231.80 107.62 C 237.67 103.36 237.92 93.89 233.44 88.56 C 228.12 83.76 220.37 84.02 213.76 85.21 Z"
       id="path6" />
    <path
       fill="#fefffc"
       opacity="1.00"
       d=" M 272.52 66.25 C 279.28 64.49 286.80 62.83 293.57 65.31 C 299.00 67.96 299.33 74.76 299.63 80.03 C 299.75 95.67 299.69 111.31 299.62 126.94 C 299.49 130.26 300.73 133.51 302.71 136.14 C 307.91 142.58 318.61 143.02 324.78 137.77 C 328.48 134.67 329.06 129.54 329.24 125.02 C 329.29 105.39 329.19 85.76 329.29 66.13 C 335.28 64.36 341.73 63.75 347.90 64.88 C 352.55 65.82 356.15 70.13 355.94 74.92 C 355.95 92.27 355.91 109.63 355.95 126.98 C 356.53 137.47 351.59 147.93 343.69 154.72 C 336.86 160.90 327.54 162.89 318.67 164.00 L 310.58 164.00 C 305.68 163.29 300.73 162.67 296.10 160.80 C 287.42 157.77 280.20 151.14 276.00 143.01 C 273.48 137.71 272.56 131.80 272.53 125.97 C 272.55 106.06 272.54 86.16 272.52 66.25 Z"
       id="path7" />
    <path
       fill="#fefffc"
       opacity="1.00"
       d=" M 469.12 69.22 C 480.48 62.47 496.43 61.60 507.10 70.17 C 510.87 78.01 513.63 86.32 516.05 94.67 C 522.33 113.34 527.90 132.23 534.08 150.93 C 534.83 153.11 535.08 155.41 535.00 157.71 C 531.37 162.07 525.34 162.92 520.03 163.42 C 515.07 163.65 509.04 161.88 506.97 156.90 C 505.23 151.82 504.54 146.46 503.07 141.30 C 495.06 141.07 487.04 141.28 479.02 141.19 C 476.94 141.10 474.89 141.38 472.86 141.75 C 470.80 147.73 469.17 153.90 468.16 160.13 C 463.42 163.74 457.18 162.82 451.63 162.83 C 448.85 161.98 445.69 161.50 443.74 159.14 C 441.61 156.40 440.94 152.60 442.10 149.31 C 448.38 127.80 455.56 106.58 462.92 85.42 C 465.16 80.09 466.54 74.39 469.12 69.22 M 487.83 88.24 C 485.64 92.26 485.07 96.90 483.40 101.13 C 481.56 107.85 478.96 114.38 477.50 121.18 C 484.50 121.21 491.50 121.22 498.50 121.16 C 495.92 113.40 493.86 105.46 491.17 97.73 C 490.06 94.58 489.62 91.07 487.83 88.24 Z"
       id="path8" />
    <path
       fill="#fefffc"
       opacity="1.00"
       d=" M 548.11 68.04 C 556.59 64.47 565.91 64.08 574.96 63.46 C 585.49 63.22 596.47 64.04 605.92 69.10 C 614.37 73.54 620.27 82.41 621.04 91.93 C 621.67 99.93 619.94 108.50 614.80 114.86 C 612.03 118.64 607.88 120.97 604.24 123.79 C 609.55 130.85 614.82 137.94 620.15 144.99 C 621.63 146.96 623.02 149.02 624.00 151.29 L 624.00 151.50 C 621.57 163.52 604.39 167.29 596.49 158.43 C 590.00 149.17 584.86 139.07 578.85 129.52 C 575.81 129.51 572.77 129.50 569.74 129.49 C 569.10 139.97 569.82 150.49 569.36 160.99 C 563.08 162.77 556.32 163.73 549.94 161.84 C 546.20 160.58 542.82 157.26 542.83 153.11 C 542.78 126.68 542.80 100.24 542.82 73.82 C 542.79 70.86 545.65 69.01 548.11 68.04 M 569.96 85.20 C 569.40 93.13 569.44 101.08 569.51 109.02 C 575.53 108.86 581.88 109.79 587.55 107.26 C 595.11 104.32 596.45 92.71 590.59 87.55 C 584.50 83.71 576.78 84.03 569.96 85.20 Z"
       id="path9" />
    <path
       fill="#fefffc"
       opacity="1.00"
       d=" M 369.36 66.05 C 373.31 64.27 377.78 64.38 382.01 63.91 C 388.33 63.53 395.87 67.14 396.48 74.12 C 396.73 96.11 396.25 118.12 396.71 140.10 C 408.78 139.65 421.02 141.16 432.96 138.95 C 437.85 143.79 438.11 152.04 435.17 158.00 C 433.76 161.09 430.03 161.71 427.06 162.28 C 412.36 162.38 397.66 162.33 382.97 162.30 C 379.49 161.56 375.65 160.61 373.25 157.75 C 370.04 154.79 369.57 150.17 369.33 146.06 C 369.36 119.39 369.29 92.72 369.36 66.05 Z"
       id="path10" />
  </g>
</svg>
