<?xml version="1.0" encoding="UTF-8" standalone="no"?>
<svg
   width="820pt"
   height="200pt"
   viewBox="0 0 820 200"
   version="1.1"
   id="svg12"
   sodipodi:docname="recommended.svg"
   inkscape:version="1.4.2 (f4327f4, 2025-05-13)"
   inkscape:export-filename="recommended.png"
   inkscape:export-xdpi="191.98"
   inkscape:export-ydpi="191.98"
   xmlns:inkscape="http://www.inkscape.org/namespaces/inkscape"
   xmlns:sodipodi="http://sodipodi.sourceforge.net/DTD/sodipodi-0.dtd"
   xmlns="http://www.w3.org/2000/svg"
   xmlns:svg="http://www.w3.org/2000/svg">
  <defs
     id="defs12" />
  <sodipodi:namedview
     id="namedview12"
     pagecolor="#ffffff"
     bordercolor="#000000"
     borderopacity="0.25"
     inkscape:showpageshadow="2"
     inkscape:pageopacity="0.0"
     inkscape:pagecheckerboard="true"
     inkscape:deskcolor="#d1d1d1"
     inkscape:document-units="pt"
     inkscape:zoom="0.40428994"
     inkscape:cx="90.281742"
     inkscape:cy="821.19283"
     inkscape:window-width="1920"
     inkscape:window-height="1130"
     inkscape:window-x="-6"
     inkscape:window-y="-6"
     inkscape:window-maximized="1"
     inkscape:current-layer="svg12" />
  <g
     id="#fefefeff"
     transform="matrix(0.47879486,0,0,0.47879486,5.4183433,81)">
    <path
       fill="#fefefe"
       opacity="1"
       d="m 1640.32,0 h 0.48 c 1.79,11.16 2.38,22.99 8.29,32.95 6.96,15.76 26.48,15.96 40.91,19.33 v 0.5 c -12,1.97 -24.99,3.46 -34.58,11.65 -11.17,10.9 -12.64,27.24 -15.05,41.78 -3.77,-15.92 -4.24,-36.21 -19.73,-45.83 -9.78,-5.3 -20.97,-6.77 -31.77,-8.62 15.21,-1.69 33.77,-4.08 42.14,-18.77 5.63,-10.08 7.63,-21.69 9.31,-32.99 z"
       id="path1" />
    <path
       fill="#fefefe"
       opacity="1"
       d="m 48.66,28.27 c 29.11,-0.59 58.23,-0.1 87.34,-0.36 16.01,0.04 32.4,-0.55 47.89,4.23 9.14,3.2 17.34,9.7 21.38,18.66 2.9,6.84 1.55,14.55 1.14,21.72 -2.04,16.72 -12.38,31.33 -25.57,41.33 -13.1,10.01 -29.33,14.24 -44.84,18.99 19.66,23.64 40.25,46.49 60.6,69.54 5.85,6.88 12.69,12.8 19.55,18.65 -17.63,-0.57 -35.26,-1.03 -52.9,-0.37 -3.48,0.25 -6.72,-1.33 -8.86,-4.04 -22.53,-25.51 -45,-51.08 -66.95,-77.09 -3.1,-3.78 -6.41,-7.48 -8.6,-11.89 -0.48,-4.7 0.01,-9.43 0.33,-14.11 16.43,-2.95 32.75,-6.48 48.93,-10.56 10.57,-2.95 21.96,-6.85 28.82,-16.02 3.57,-3.98 5.26,-9.92 3.16,-15.02 -2.32,-3.44 -6.05,-6.17 -10.27,-6.55 -22.67,-2.44 -45.53,-1.29 -68.27,-1.04 -4.26,16.03 -8.03,32.2 -13,48.02 -8.09,27.93 -15.39,56.09 -23.02,84.15 -15.11,4.4 -30.45,7.96 -45.52,12.5 v -2.32 C 5.87,189.9 9.27,172.4 14.43,155.4 25.69,112.99 37.68,70.76 48.66,28.27 Z"
       id="path2" />
    <path
       fill="#fefefe"
       opacity="1"
       d="m 504.45,53.58 c 25.6,-2.89 54.67,8.52 66.58,32.41 13.79,28.07 6.26,63.66 -15.48,85.58 -10.53,9.85 -22.98,18.43 -37.26,21.64 -18.7,4.5 -39.13,3.85 -56.48,-5.07 -8.58,-4.63 -16.22,-11 -22.39,-18.54 -9.28,-13.44 -12.61,-30.53 -10.36,-46.59 4.34,-28.5 24.62,-54.25 51.84,-64.15 7.57,-2.77 15.55,-4.36 23.55,-5.28 m -23.48,38.38 c -3.14,12.43 -4.48,25.22 -7.34,37.7 -2.13,9.25 -4.33,18.54 -5.01,28.03 1.41,1.23 4.22,3.69 5.62,4.92 9.9,-2.15 18.75,-7.23 27.75,-11.63 12.26,-6.25 24.96,-11.57 37.2,-17.85 2.83,-1.65 5.89,-3.86 6.73,-7.21 -0.11,-3.29 -2.7,-5.81 -5.22,-7.6 -10.13,-6.93 -20.45,-13.58 -30.68,-20.35 -6.69,-4.31 -12.78,-9.6 -20.08,-12.91 -5.01,-1.9 -7.92,3.03 -8.97,6.9 z"
       id="path3" />
    <path
       fill="#fefefe"
       opacity="1"
       d="m 929.91,56.03 c 14.78,-2.26 30.03,-0.68 45.01,-0.99 -6.18,18.23 -12.08,36.58 -16.69,55.27 -5.86,17.05 -9.03,34.87 -14.71,51.97 -3.1,10.35 -5.82,20.8 -8.64,31.22 -14.38,-0.49 -28.75,0.58 -43.12,0.5 3.73,-14.96 9.64,-29.36 12.39,-44.55 -18.7,13.99 -34.58,31.4 -53.53,45.09 -11.82,-13.08 -18.85,-29.7 -30.1,-43.21 -5.29,13.49 -7.4,27.97 -12.89,41.39 -14.14,0.63 -28.3,1.66 -42.45,1.04 12.94,-44.11 25.05,-88.46 38.29,-132.47 1.08,-0.91 2.56,-0.98 3.92,-1.09 13.18,-0.57 26.39,-0.19 39.59,-0.16 8.45,15 17.94,29.44 25.21,45.08 C 891.53,88.88 910.37,72 929.91,56.03 m -73.04,78.07 c -10.4,-7.17 -18.62,-17.04 -29.27,-23.84 -1.26,1.5 -3.77,4.49 -5.02,5.99 9.94,17.2 21.54,33.45 33.97,48.94 30.28,-32.66 62.92,-63.1 92.82,-96.12 -31.23,21.11 -60.73,44.72 -92.5,65.03 z"
       id="path4" />
    <path
       fill="#fefefe"
       opacity="1"
       d="M 229.05,60.37 C 264.69,59.59 300.35,60.18 336,60 c -8.23,9.92 -15.41,20.62 -23.05,30.98 -18.29,0.04 -36.58,-0.02 -54.86,0.08 -2.3,7.03 -4.06,14.2 -6.23,21.27 17.68,1.06 35.4,0.67 53.09,0.65 -3.43,9.3 -6.97,18.56 -10.37,27.88 -16.45,0.21 -32.9,0.1 -49.34,0.23 -2.09,7.24 -4.41,14.43 -5.63,21.89 20.28,-0.03 40.55,-0.96 60.83,0.26 4.62,10.95 10.55,21.9 19.28,30.11 -38.28,0.31 -76.58,-0.95 -114.83,0.36 -2.51,-3 -5.56,-5.69 -7.24,-9.29 -1,-7.3 2.11,-14.3 3.54,-21.3 C 210.97,129 219.6,94.57 229.05,60.37 Z"
       id="path5" />
    <path
       fill="#fefefe"
       opacity="1"
       d="m 348.01,75.01 c 12.95,-10.9 30.34,-15.12 46.99,-14.74 15.03,0.43 30.1,-0.97 45.1,0.46 -8.54,9.18 -16.19,19.21 -22.57,30.01 -14.97,0.95 -32.02,-2.72 -44.98,6.78 -9.8,7.81 -15,20.03 -16.91,32.14 -0.82,8.63 -1.84,19 5.04,25.65 3.7,4.39 9.32,6.51 14.91,7.05 11.29,1.26 22.68,0.55 34.01,0.14 5.75,11.85 14.26,22.14 24.51,30.38 -18.35,0.94 -36.73,-0.18 -55.08,0.9 -12.04,-0.92 -25.09,0.24 -36.03,-5.81 -8.64,-4.15 -15.94,-11.15 -20.15,-19.77 -5.59,-13.43 -7.45,-28.75 -3.62,-42.91 4.78,-18.82 12.96,-38.1 28.78,-50.28 z"
       id="path6" />
    <path
       fill="#fefefe"
       opacity="1"
       d="m 619.41,60.1 c 13.44,-0.14 26.89,-0.14 40.34,-0.02 6.76,21.36 14.59,42.38 22.63,63.28 18.87,-21.19 38.78,-41.48 57.03,-63.19 13.8,0.39 27.59,0.64 41.38,-0.25 -12.56,44.49 -24.77,89.07 -37.43,133.54 -12.55,0.25 -25.11,-0.29 -37.66,-0.58 5.82,-23.95 13.11,-47.53 19.23,-71.4 -9.49,7.64 -16.81,17.5 -25.27,26.19 -12.36,12.42 -22.87,26.65 -36.36,37.93 -6.92,-21.54 -14.52,-42.85 -22.55,-63.99 -7.84,23.49 -13.91,47.51 -20.98,71.22 -13.19,0.53 -26.41,1.37 -39.59,0.18 13.23,-44.26 26.85,-88.41 39.23,-132.91 z"
       id="path7" />
    <path
       fill="#fefefe"
       opacity="1"
       d="m 992.43,60.1 c 26.52,-0.23 53.04,0 79.57,-0.17 9.32,0.12 18.76,-0.29 28.04,1.03 -6.09,9.98 -11.8,20.19 -18.2,29.97 -19.99,0.13 -39.97,0.07 -59.95,0.04 -2.1,7.1 -3.86,14.28 -6.04,21.35 19.78,1.21 39.62,0.51 59.43,0.75 -4.4,9.34 -9.13,18.52 -13.56,27.84 -17.78,0.21 -35.6,-0.5 -53.33,0.95 -1.84,7.03 -3.94,14 -5.69,21.06 24.15,0.2 48.31,-0.04 72.47,0.15 -3.49,9.92 -6.73,19.92 -9.5,30.07 -23.54,1.2 -47.13,-0.65 -70.68,0.53 -13.05,-0.25 -26.1,0 -39.14,0.32 4.79,-21.25 11.79,-41.91 16.95,-63.06 5.76,-23.83 14.2,-46.92 19.63,-70.83 z"
       id="path8" />
    <path
       fill="#fefefe"
       opacity="1"
       d="m 1117.41,60.08 c 12.18,-0.1 24.37,-0.09 36.57,-0.08 7.13,17.57 15.5,34.59 23.03,51.99 3.17,6.42 5.25,13.45 9.37,19.36 7.23,-23.5 12.79,-47.5 18.93,-71.3 12.52,-0.05 25.08,-0.3 37.62,0.44 -11.51,44.24 -23.56,88.33 -35.01,132.58 -11.97,1.14 -23.99,0.06 -35.96,-0.15 -6.91,-13.7 -12.79,-27.89 -18.93,-41.95 -4.26,-10.22 -8.96,-20.27 -12.43,-30.8 -0.57,-0.02 -1.7,-0.08 -2.27,-0.1 -5.87,24.43 -12.89,48.57 -19.53,72.8 -12.71,0.07 -25.42,0.11 -38.1,0.94 6.75,-25.36 14.14,-50.55 21.1,-75.86 4.41,-19.5 11.17,-38.38 15.61,-57.87 z"
       id="path9" />
    <path
       fill="#fefefe"
       opacity="1"
       d="m 1259.33,60.09 c 24.47,1.06 49.55,-3.17 73.58,3.01 9.47,2.28 18.03,8.97 21.99,17.95 4.54,8.85 4.19,19.24 3.96,28.91 -2.35,20.2 -6.74,40.82 -17.58,58.3 -8.23,12.9 -22.19,21.43 -37.27,23.63 -18.46,2.31 -37.14,1.27 -55.69,1.5 -7.52,0.62 -15.06,-0.13 -22.55,-0.49 3.91,-18 8.08,-35.98 13.49,-53.6 4.59,-16.37 7.54,-33.17 12.69,-49.39 2.73,-9.87 4.8,-19.91 7.38,-29.82 m 25.69,30.88 c -5.01,24.51 -11.48,48.68 -17.17,73.03 10.11,-0.8 20.46,0.32 30.48,-1.67 8.56,-2.05 13.79,-10.19 17.42,-17.6 3.75,-9.27 6.51,-18.98 7.84,-28.91 1.04,-7.52 -0.59,-15.87 -5.87,-21.54 -9.72,-6.15 -21.94,-2.34 -32.7,-3.31 z"
       id="path10" />
    <path
       fill="#fefefe"
       opacity="1"
       d="m 1386.08,60.06 c 31.77,-0.07 63.55,-0.2 95.33,0.09 -4.56,10.75 -10.83,20.66 -16.51,30.82 -17.65,0.04 -35.28,0.03 -52.91,0.03 -1.75,7.31 -3.5,14.61 -5.17,21.94 17.19,0.1 34.38,-0.01 51.58,0.19 -3.77,9.44 -8.14,18.62 -12.41,27.83 -15.07,0.93 -30.15,0.21 -45.22,-0.08 -2.09,7.26 -3.61,14.66 -5.1,22.05 20.83,0.19 41.68,0.22 62.52,-0.58 -3.65,10.38 -6.7,20.94 -10.03,31.41 -32.04,-0.68 -64.13,-0.49 -96.17,0.09 6.4,-17.28 9.52,-35.57 14.44,-53.29 6.42,-26.87 12.69,-53.77 19.65,-80.5 z"
       id="path11" />
    <path
       fill="#fefefe"
       opacity="1"
       d="m 1495.08,60.32 c 25.94,-0.37 51.91,-0.72 77.87,-0.07 15.13,0.47 31.63,2.68 42.92,13.88 13.82,12.95 14.9,34 11.74,51.45 -6.48,29.7 -28.35,54.16 -54.56,68.51 -45.57,26.33 -98.78,34.43 -150.54,37.91 h -57.64 c -0.01,-1.88 -2.7,-1.88 -2.68,0 h -0.74 c -17.94,-2.26 -36.04,-2.77 -53.97,-5.04 20.55,-2.26 41.3,-2.15 61.84,-4.71 50.25,-6.53 101.32,-12.95 148.51,-32.48 20.21,-7.95 39.7,-19.33 53.55,-36.39 10.7,-12.38 17.42,-29.05 14.83,-45.55 -2.26,-9.56 -11.84,-15.94 -21.35,-16.6 -14.22,-0.88 -28.48,-0.15 -42.7,-0.13 -6.43,28.37 -13.47,56.59 -20.29,84.86 -12.57,6.05 -25.31,11.91 -38.91,15.27 5.61,-22.46 10.65,-45.06 16.75,-67.39 5.51,-21.08 10.02,-42.4 15.37,-63.52 z"
       id="path12" />
  </g>
</svg>
