<?xml version="1.0" encoding="UTF-8" standalone="no"?>
<svg
   width="820pt"
   height="200pt"
   viewBox="0 0 820 200"
   version="1.1"
   id="svg8"
   sodipodi:docname="top-rated.svg"
   inkscape:version="1.4.2 (f4327f4, 2025-05-13)"
   xmlns:inkscape="http://www.inkscape.org/namespaces/inkscape"
   xmlns:sodipodi="http://sodipodi.sourceforge.net/DTD/sodipodi-0.dtd"
   xmlns="http://www.w3.org/2000/svg"
   xmlns:svg="http://www.w3.org/2000/svg">
  <defs
     id="defs8" />
  <sodipodi:namedview
     id="namedview8"
     pagecolor="#ffffff"
     bordercolor="#000000"
     borderopacity="0.25"
     inkscape:showpageshadow="2"
     inkscape:pageopacity="0.0"
     inkscape:pagecheckerboard="true"
     inkscape:deskcolor="#d1d1d1"
     inkscape:document-units="pt"
     inkscape:zoom="0.83323171"
     inkscape:cx="550.26711"
     inkscape:cy="127.21551"
     inkscape:window-width="1920"
     inkscape:window-height="1130"
     inkscape:window-x="-6"
     inkscape:window-y="-6"
     inkscape:window-maximized="1"
     inkscape:current-layer="svg8" />
  <g
     id="#fefef8ff"
     transform="translate(8.5,80)">
    <path
       fill="#fefef8"
       opacity="1"
       d="m 139.79,0 h 4.19 c 9.01,1.17 18.39,2.1 26.47,6.67 13.94,6.99 21.2,22.38 23.65,37.14 0.36,8.97 0.85,18.23 -2.55,26.74 -5.29,18.41 -23.66,31.41 -42.56,31.77 -1.37,0.04 -2.71,0.26 -4.01,0.68 h -4.89 c -1.32,-0.38 -2.67,-0.61 -4.04,-0.68 -10.71,-0.7 -21.23,-4.89 -29.24,-12.07 C 96.05,79.93 90.09,64.83 90.98,49.94 91.69,44.51 91.52,38.89 93.61,33.72 97.16,21.43 106.25,10.92 117.82,5.51 124.68,2.12 132.29,0.97 139.79,0 m -6.27,38.6 c -4.3,1.52 -9.01,0.29 -13.42,1.42 -4.82,-0.16 -9.57,0.61 -14.37,0.81 6.97,5.71 13.61,11.91 21.09,16.97 -0.44,2.47 -1.14,4.88 -1.7,7.33 -1.6,6.49 -3.24,12.96 -4.79,19.45 7.3,-4.39 14.29,-9.29 21.39,-14 1.3,-0.7 2.82,0.06 3.92,0.81 6.51,4.54 13.24,8.77 19.7,13.38 0.01,-1.71 0.08,-3.45 -0.46,-5.09 -1.95,-7.3 -3.45,-14.73 -5.99,-21.86 7.5,-5.06 13.67,-11.83 21.2,-16.84 -4.36,-0.8 -8.76,-0.96 -13.18,-0.97 -4.56,-0.97 -9.22,-0.42 -13.82,-0.78 -1.19,-0.81 -1.29,-2.42 -1.79,-3.65 -1.71,-5.45 -3.87,-10.74 -5.82,-16.1 -0.71,-1.97 -1.53,-3.9 -2.36,-5.83 -3.53,8.18 -6.92,16.44 -9.6,24.95 z"
       id="path1" />
    <path
       fill="#fefef8"
       opacity="1"
       d="m 218.91,2.97 c 11.93,-2.03 24.05,-1.61 36.11,-1.55 5.78,0.66 11.69,1.26 17.13,3.47 7.99,2.84 15.08,9.27 17.35,17.61 1.03,2.29 0.94,4.85 1.7,7.21 0.15,2.8 0.16,5.61 0,8.4 -1.56,6.89 -3.14,14.51 -8.64,19.43 -4.07,4.47 -9.88,6.91 -15.63,8.38 -6.85,1.95 -13.98,1.9 -21.04,1.92 -1.62,0.61 -3.35,0.59 -5.05,0.45 -1.69,-0.68 -3.53,-0.54 -5.3,-0.68 -0.58,1.4 -0.85,2.89 -0.73,4.4 0.06,9.63 0.02,19.25 0.03,28.87 -7.8,-0.01 -15.59,0.03 -23.38,-0.01 -0.03,-32.18 -0.03,-64.36 -0.02,-96.54 2.47,-0.54 5,-0.81 7.47,-1.36 m 16.36,19.51 c 0.35,8.63 0.11,17.27 0.23,25.91 5.74,-0.29 11.6,0.59 17.27,-0.46 5.21,-0.72 11.31,-2.75 13.23,-8.19 1.39,-5.12 0.66,-11.36 -3.47,-15.06 -5.6,-4.05 -12.98,-4.05 -19.6,-3.82 -2.51,0.73 -5.2,0.68 -7.66,1.62 z"
       id="path2" />
    <path
       fill="#fefef8"
       opacity="1"
       d="m 357.08,1.37 c 7.63,-1.07 15.39,-0.66 23.08,-0.54 6.83,0.85 13.85,1.8 20.13,4.91 6.91,3.47 12.6,9.39 14.9,16.88 2.44,8.61 1.97,18.2 -2.52,26.07 -2.89,5.74 -9.06,8.46 -13.94,12.2 1.03,1.21 2.05,2.44 2.97,3.74 5.6,7.49 10.32,15.6 15.11,23.63 1.9,4.29 4.87,8.04 6.34,12.52 -8.37,0.13 -16.75,0.08 -25.12,0.07 -1.36,0.26 -2.15,-0.97 -2.69,-1.97 -6.49,-11.22 -12.59,-22.74 -20.19,-33.27 -4.53,0.03 -9.06,-0.01 -13.59,0.02 0.01,11.73 -0.03,23.46 0,35.2 -7.6,0.04 -15.21,-0.06 -22.81,0.05 -0.37,-1.25 -0.58,-2.54 -0.51,-3.84 -0.01,-31.02 0.01,-62.03 -0.06,-93.05 6.15,-1.7 12.49,-2.9 18.9,-2.62 m 5.14,19.37 c -0.03,8.52 -0.03,17.05 -0.01,25.57 6.76,-0.09 13.55,0.42 20.24,-0.76 2.34,-0.86 4.7,-1.79 6.8,-3.17 2.73,-1.87 2.94,-5.47 3.31,-8.46 -0.37,-4.29 -1.83,-9.37 -6.18,-11.21 -7.5,-3.69 -16.14,-2.68 -24.16,-1.97 z"
       id="path3" />
    <path
       fill="#fefef8"
       opacity="1"
       d="m 526.15,1.41 c 28.47,0.06 56.93,0.03 85.4,-0.01 -0.01,6.68 0,13.35 -0.01,20.03 -10.34,-0.01 -20.68,-0.02 -31.02,-0.01 0.01,26.48 0,52.96 0,79.43 -7.77,0.02 -15.54,0.01 -23.31,0.02 -0.03,-26.48 -0.04,-52.96 -0.05,-79.44 -10.34,-0.02 -20.67,-0.01 -31.01,0 0,-6.68 0,-13.35 0,-20.02 z"
       id="path4" />
    <path
       fill="#fefef8"
       opacity="1"
       d="m 721.92,1.79 c 4.85,-0.94 9.86,0.17 14.71,-0.86 4.45,-0.41 8.95,-0.21 13.41,-0.08 1.92,0.79 4,0.49 6.03,0.55 11.86,0.67 23.87,4.59 32.89,12.53 7.25,7.22 11.97,16.91 12.86,27.14 0.97,6.89 1.04,13.97 0.01,20.86 -1.23,11.04 -7.21,21.21 -15.53,28.43 l -0.87,0.29 c -10.14,8.29 -23.75,10.2 -36.4,10.97 -6.97,-0.21 -13.99,0.49 -20.9,-0.61 -5.16,-0.07 -10.2,-1.25 -15.32,-1.59 0,-31.93 0,-63.86 -0.03,-95.8 3.09,-0.37 6.04,-1.45 9.14,-1.83 m 14.26,19.68 c 0.11,19.78 -0.14,39.57 0.12,59.34 0.24,0.17 0.72,0.52 0.96,0.69 7.84,0.38 15.75,0.19 23.34,-2.07 4.66,-1.79 9.36,-4.3 12.2,-8.57 4.37,-5.28 5.28,-12.23 6.09,-18.79 -0.27,-9.3 -2.36,-19.69 -10.12,-25.72 -6.12,-5 -14.29,-6.08 -21.91,-6.27 -3.51,0.92 -7.25,0.17 -10.68,1.39 z"
       id="path5" />
    <path
       fill="#fefef8"
       opacity="1"
       d="M 0,2.1 C 28.47,2.07 56.93,2.08 85.4,2.07 85.38,8.75 85.43,15.43 85.37,22.1 75.04,22.11 64.72,22.1 54.4,22.11 54.41,48.38 54.39,74.65 54.41,100.92 46.6,100.91 38.79,100.89 30.99,100.89 30.94,74.94 31.14,48.98 30.9,23.03 30.66,22.83 30.18,22.42 29.94,22.22 19.97,21.93 9.98,22.2 0,22.11 Z"
       id="path6" />
    <path
       fill="#fefef8"
       opacity="1"
       d="m 469.83,1.97 c 8.03,0.29 16.07,-0.1 24.1,0.23 1.07,3.85 3.31,7.22 4.94,10.85 13.05,28.67 24.88,57.92 35.91,87.43 -8.52,0.84 -17.14,0.14 -25.69,0.37 -2.56,-7.15 -5.25,-14.25 -7.93,-21.36 -13.42,0.02 -26.83,0 -40.25,0.02 -2.66,7.1 -4.91,14.37 -7.75,21.39 -8.31,-0.08 -16.62,0 -24.93,-0.05 5.78,-16.87 13,-33.2 19.5,-49.79 7.08,-16.49 14,-33.07 22.1,-49.09 m 11.37,22.87 c -4.97,11.74 -9.53,23.66 -13.92,35.6 9.12,0.75 18.41,0.48 27.57,0.14 -3.96,-12.14 -8.5,-24.06 -13.65,-35.74 z"
       id="path7" />
    <path
       fill="#fefef8"
       opacity="1"
       d="m 623.94,1.43 c 23.65,0.09 47.29,0.04 70.93,0.03 -0.02,6.66 0.14,13.33 -0.79,19.94 -15.58,-0.04 -31.16,-0.04 -46.75,-0.04 -0.01,6.04 -0.01,12.07 -0.01,18.11 13.79,-0.03 27.57,0 41.36,-0.01 0.05,6.39 -0.12,12.79 0.11,19.18 -1.19,-0.5 -2.46,-0.66 -3.72,-0.6 -12.58,0.05 -25.16,0.01 -37.74,0.03 -0.01,7.6 -0.02,15.2 -0.02,22.81 16.99,0.01 33.99,-0.01 50.98,0 -0.02,6.67 0.03,13.33 0.03,20 -24.79,0 -49.58,-0.01 -74.38,0 0,-33.15 0,-66.3 0,-99.45 z"
       id="path8" />
  </g>
</svg>
