<?xml version="1.0" encoding="UTF-8" standalone="no"?>
<svg
   width="820pt"
   height="200pt"
   viewBox="0 0 820 200"
   version="1.1"
   id="svg10"
   sodipodi:docname="trending.svg"
   inkscape:version="1.4.2 (f4327f4, 2025-05-13)"
   xmlns:inkscape="http://www.inkscape.org/namespaces/inkscape"
   xmlns:sodipodi="http://sodipodi.sourceforge.net/DTD/sodipodi-0.dtd"
   xmlns="http://www.w3.org/2000/svg"
   xmlns:svg="http://www.w3.org/2000/svg">
  <defs
     id="defs10" />
  <sodipodi:namedview
     id="namedview10"
     pagecolor="#ffffff"
     bordercolor="#000000"
     borderopacity="0.25"
     inkscape:showpageshadow="2"
     inkscape:pageopacity="0.0"
     inkscape:pagecheckerboard="true"
     inkscape:deskcolor="#d1d1d1"
     inkscape:document-units="pt"
     inkscape:zoom="0.83323171"
     inkscape:cx="411.05013"
     inkscape:cy="180.02195"
     inkscape:window-width="1920"
     inkscape:window-height="1130"
     inkscape:window-x="-6"
     inkscape:window-y="-6"
     inkscape:window-maximized="1"
     inkscape:current-layer="svg10" />
  <g
     id="#fefffcff"
     transform="translate(24.5,23.5)">
    <path
       fill="#fefffc"
       opacity="1"
       d="m 564.45,0 h 0.82 c 5.67,17.53 10.97,35.18 16.62,52.72 -6.03,-3.02 -11.96,-6.28 -18.16,-8.94 -7.24,37.88 -15.26,75.63 -23.48,113.31 -6.8,-0.12 -13.61,0.07 -20.4,-0.13 8.03,-36.12 14.9,-72.5 22.7,-108.68 0.48,-2.08 0.81,-4.2 1.01,-6.33 -7.2,1.87 -14.53,3.17 -21.72,5.04 C 535.35,30.71 550.28,15.69 564.45,0 Z"
       id="path1" />
    <path
       fill="#fefffc"
       opacity="1"
       d="m 685.66,77.68 c 10.05,-11.66 24.97,-18.21 40.12,-19.78 10.22,-0.66 20.63,0.42 30.3,3.9 5.74,2.26 10.76,6.19 14.92,10.7 v 0.62 c -5,3.73 -9.05,8.49 -13.59,12.73 -4.3,-3.59 -8.88,-7.1 -14.29,-8.83 -10.18,-3.39 -21.55,-1.81 -30.92,3.17 -9.92,5.49 -17.15,15.56 -19.09,26.74 -1.28,7.37 -1.06,15.47 3.03,21.98 3.21,5.26 8.43,9.27 14.37,10.96 9.41,3.17 20.04,1.46 28.65,-3.22 1.71,-9.24 4.07,-18.35 5.73,-27.61 6.59,-0.01 13.19,-0.04 19.79,0.02 -2.28,11.47 -4.61,22.92 -6.85,34.4 -0.44,1.23 -0.23,2.86 -1.39,3.72 -9.57,7.41 -21.62,10.46 -33.43,11.82 h -11.1 c -5.88,-1.1 -11.99,-1.73 -17.39,-4.52 -5.74,-2.94 -11.22,-6.73 -15.12,-11.96 -7.67,-9.76 -9.59,-23.08 -7.41,-35.07 1.63,-10.96 6.41,-21.4 13.67,-29.77 z"
       id="path2" />
    <path
       fill="#fefffc"
       opacity="1"
       d="m 429.77,60.69 c 0.56,-1.79 2.74,-1.44 4.19,-1.53 5.8,0.17 11.65,-0.4 17.42,0.37 9.82,0.71 19.77,-0.53 29.53,0.61 9.95,1.26 20.18,5.28 26.63,13.26 8.18,8.22 9.87,20.57 9.25,31.66 -1.7,14.74 -8.63,29.27 -20.39,38.58 -10.13,8.55 -23.38,12.51 -36.43,13.41 -16.54,0.01 -33.08,0 -49.62,0 4.95,-24.02 9.6,-48.12 14.63,-72.13 0.74,-3.57 1.34,-7.17 2.19,-10.72 0.91,-4.49 1.35,-9.1 2.6,-13.51 m 12.26,40.49 c -0.68,3.29 -1.31,6.6 -1.99,9.89 -0.6,3.04 -1.34,6.05 -1.92,9.1 -1.08,6.7 -2.69,13.3 -3.81,20 10.27,-0.22 20.61,0.62 30.83,-0.73 15.38,-2.51 27.93,-15.65 30.5,-30.9 1.29,-8.25 0.5,-17.6 -5.17,-24.16 -4.68,-5.69 -12.27,-8.09 -19.41,-8.45 -8.06,-0.01 -16.12,0.01 -24.17,-0.01 -1.29,8.48 -3.27,16.84 -4.86,25.26 z"
       id="path3" />
    <path
       fill="#fefffc"
       opacity="1"
       d="m 579.61,59.68 c 5.65,0.43 11.21,-0.87 16.86,-0.49 13.11,21.42 25.65,43.17 38.42,64.79 2.24,-8.74 3.38,-17.82 5.63,-26.6 2.37,-12.62 5.18,-25.17 7.38,-37.82 6.67,-1.14 13.43,0.1 20.12,0.19 -0.35,1.46 -0.7,2.92 -0.98,4.4 -0.64,3.31 -1.35,6.62 -1.95,9.95 -0.78,3.56 -1.41,7.16 -2.19,10.72 -2.86,14.79 -5.73,29.58 -8.82,44.32 -0.79,3.58 -1.41,7.2 -2.2,10.79 -1.16,5.72 -2.09,11.51 -3.6,17.16 -5.76,-0.09 -11.51,0 -17.26,-0.05 -12.96,-21.34 -25.34,-43.01 -37.96,-64.54 -1,3.42 -1.49,6.94 -2.07,10.45 -2.26,11.37 -4.49,22.76 -7.01,34.09 -1.13,5.52 -2,11.1 -3.49,16.54 -0.12,1.07 -0.22,2.14 -0.32,3.22 -6.8,0.48 -13.64,0.21 -20.45,0.2 2.82,-14.7 6.32,-29.4 9.16,-44.16 0.81,-3.55 1.44,-7.15 2.2,-10.72 2.83,-14.15 5.55,-28.32 8.53,-42.44 z"
       id="path4" />
    <path
       fill="#fefffc"
       opacity="1"
       d="m 0,61.76 c 5.48,-1.93 11.35,-1.13 17.01,-1.99 36.08,-0.14 72.17,-0.03 108.25,-0.06 -1.28,5.39 -2.57,10.78 -3.56,16.24 -10.56,-0.07 -21.12,-0.02 -31.68,-0.01 -1.09,7.37 -2.81,14.62 -4.25,21.92 -3.88,19.65 -7.67,39.31 -12.29,58.8 -6.67,0.96 -13.57,0.09 -20.32,0.41 C 58.93,130.09 64.18,103 69.56,75.94 49.33,75.9 29.1,75.93 8.87,75.93 6.6,76.08 4.61,74.86 2.82,73.63 c 7.68,-3.01 16.1,-2 24.15,-2.23 4.48,-0.27 9.2,0.82 13.42,-1.13 0.48,-1.78 0.95,-3.56 1.36,-5.35 C 31.82,64.84 21.89,64.99 11.97,64.84 7.95,64.45 3.75,64.57 0,62.83 Z"
       id="path5" />
    <path
       fill="#fefffc"
       opacity="1"
       d="m 135.72,59.71 c 16.15,0.06 32.31,-0.15 48.47,0.11 9.31,1.37 19.34,5.06 24.01,13.87 8.35,15.19 2.65,36.19 -11.62,45.8 -3.59,2.64 -7.73,4.33 -11.68,6.31 5.16,10.62 11.19,20.81 16.76,31.23 -7.45,0.04 -14.9,0.02 -22.36,0.01 -5.32,-9.43 -10.3,-19.04 -15.38,-28.6 -7.23,0.24 -14.49,-0.31 -21.71,0.28 -0.28,2.07 -0.77,4.1 -1.32,6.12 -1.4,7.17 -3.63,14.16 -4.97,21.35 -0.23,0.2 -0.67,0.59 -0.9,0.78 -6.35,0.21 -12.71,0.02 -19.06,0.08 0.48,-5.68 2.05,-11.19 3.22,-16.76 3.77,-17.67 7.07,-35.46 10.99,-53.1 1.2,-6.33 2.41,-12.67 3.88,-18.94 0.55,-2.85 1.21,-5.67 1.67,-8.54 m 10.1,51.93 c 10.06,-0.31 20.29,0.87 30.17,-1.47 9.89,-2.49 16.45,-13.22 14.98,-23.12 -1.08,-5.29 -5.44,-9.32 -10.69,-10.34 -9.07,-1.55 -18.32,-0.45 -27.48,-0.77 -2.15,11.93 -5.29,23.69 -6.98,35.7 z"
       id="path6" />
    <path
       fill="#fefffc"
       opacity="1"
       d="m 225.91,95.92 c 2.45,-12.11 4.79,-24.26 7.74,-36.25 24.19,0.09 48.38,0 72.57,0.04 -1.28,5.38 -2.78,10.72 -3.55,16.19 -17.22,0.06 -34.43,0.05 -51.65,-0.01 -0.48,1.64 -0.84,3.31 -1.22,4.97 -0.66,6.2 -2.97,12.23 -3.14,18.44 2.8,0 5.61,0.04 8.41,-0.11 2.24,-0.74 4.63,-0.45 6.95,-0.49 10.19,0 20.38,-0.01 30.57,0.01 -1.02,5.63 -2.36,11.19 -3.48,16.8 -15.48,0.01 -30.97,0 -46.46,-0.02 -1.3,5.85 -2.4,11.74 -3.59,17.62 -0.52,2.36 -1.01,4.74 -1.28,7.15 18.06,0.01 36.12,-0.06 54.18,0.05 -1.13,5.18 -1.76,10.47 -3.06,15.61 -0.5,1.73 -2.6,0.95 -3.88,1.15 -23.82,-0.04 -47.65,-0.02 -71.47,-0.01 0.55,-2.31 1.09,-4.61 1.56,-6.94 2,-11.81 4.65,-23.51 6.86,-35.29 0.66,-3.03 1.22,-6.07 1.91,-9.09 0.79,-3.25 1.36,-6.55 2.03,-9.82 z"
       id="path7" />
    <path
       fill="#fefffc"
       opacity="1"
       d="m 321.81,59.67 c 5.6,0.05 11.21,0.08 16.82,-0.01 12.79,20.84 25.2,41.91 37.79,62.87 0.35,0.29 1.06,0.87 1.41,1.16 0.2,-2.31 0.58,-4.59 1.01,-6.87 0.79,-3.27 1.4,-6.59 2.04,-9.89 3.19,-15.75 6.4,-31.5 9.65,-47.23 6.7,0.03 13.41,-0.03 20.11,0.03 -2.08,9.07 -3.57,18.25 -5.61,27.34 -0.75,3.57 -1.36,7.18 -2.18,10.74 -3.86,19.78 -8.29,39.43 -12.01,59.24 -5.88,0 -11.75,0 -17.63,0 -9.68,-16.07 -18.94,-32.39 -28.67,-48.44 -3.22,-5.37 -5.75,-11.18 -9.5,-16.21 -0.54,3.61 -1.24,7.19 -1.92,10.77 -0.82,3.58 -1.41,7.2 -2.18,10.8 -0.69,3.26 -1.29,6.55 -2.01,9.81 -1.49,7.86 -3.39,15.64 -4.89,23.49 -0.61,3.27 -1.64,6.45 -1.92,9.77 -6.7,0.02 -13.39,0.01 -20.08,0.01 1.33,-8.46 3.33,-16.8 4.85,-25.23 0.73,-3.29 1.38,-6.61 1.98,-9.93 3.92,-18.23 7.18,-36.59 11.26,-54.79 0.45,-2.5 0.84,-5.02 1.68,-7.43 z"
       id="path8" />
    <path
       fill="#fefffc"
       opacity="1"
       d="m 19.13,98.99 c 2.06,-1.31 4.37,-2.46 6.88,-2.29 10.01,0.03 20.01,-0.06 30.02,0.06 -0.5,1.5 -1.02,2.99 -1.55,4.48 -9.51,-0.06 -19.02,-0.02 -28.52,-0.03 -2.45,0.03 -4.81,-0.89 -6.83,-2.22 z"
       id="path9" />
    <path
       fill="#fefffc"
       opacity="1"
       d="m 35.49,110.31 c 5.84,0.16 11.7,-0.32 17.54,0.09 0.46,1.49 -0.76,2.99 -1.06,4.43 -5,0.06 -10,0.04 -15.01,0.05 -1.81,0.19 -3.41,-0.73 -5.01,-1.41 0.86,-1.37 2.24,-2.25 3.54,-3.16 z"
       id="path10" />
  </g>
</svg>
