<?xml version="1.0" encoding="UTF-8" standalone="no"?>
<svg
   width="1024pt"
   height="1024pt"
   viewBox="0 0 1024 1024"
   version="1.1"
   id="svg3"
   sodipodi:docname="aiometa.svg"
   inkscape:version="1.4.2 (f4327f4, 2025-05-13)"
   xmlns:inkscape="http://www.inkscape.org/namespaces/inkscape"
   xmlns:sodipodi="http://sodipodi.sourceforge.net/DTD/sodipodi-0.dtd"
   xmlns="http://www.w3.org/2000/svg"
   xmlns:svg="http://www.w3.org/2000/svg">
  <defs
     id="defs3" />
  <sodipodi:namedview
     id="namedview3"
     pagecolor="#ffffff"
     bordercolor="#000000"
     borderopacity="0.25"
     inkscape:showpageshadow="2"
     inkscape:pageopacity="0.0"
     inkscape:pagecheckerboard="0"
     inkscape:deskcolor="#d1d1d1"
     inkscape:document-units="pt"
     inkscape:zoom="0.32446289"
     inkscape:cx="614.8623"
     inkscape:cy="927.68698"
     inkscape:window-width="1920"
     inkscape:window-height="1130"
     inkscape:window-x="-6"
     inkscape:window-y="-6"
     inkscape:window-maximized="1"
     inkscape:current-layer="svg3" />
  <g
     id="g3">
    <g
       id="#33b2b8ff">
      <path
         fill="#33b2b8"
         opacity="1.00"
         d=" M 456.14 160.28 C 465.35 158.86 474.65 158.03 483.94 157.28 C 495.63 156.99 507.34 157.22 519.04 157.21 C 541.11 158.31 563.14 161.51 584.41 167.65 C 622.96 178.65 659.01 197.79 690.38 222.67 C 705.48 235.11 719.92 248.46 732.24 263.70 C 757.79 293.56 775.77 329.37 786.96 366.92 C 794.50 392.22 798.67 418.61 798.97 445.01 C 799.83 453.36 798.62 461.70 798.76 470.06 C 797.67 490.96 794.61 511.83 788.83 531.98 C 776.54 577.89 753.08 620.86 720.64 655.64 C 700.07 677.34 677.44 697.46 651.39 712.38 C 621.39 730.58 587.72 742.62 553.05 747.94 C 532.21 751.50 511.02 751.37 489.97 750.56 C 456.18 747.84 422.45 740.12 391.78 725.43 C 380.18 744.04 368.78 762.78 357.56 781.62 C 337.41 814.24 317.82 847.19 297.86 879.92 C 293.65 886.39 290.25 893.41 285.35 899.41 C 270.03 915.67 241.83 916.57 225.29 901.71 C 214.80 892.61 210.74 877.63 213.36 864.23 C 214.40 856.06 219.43 849.35 223.52 842.47 C 233.32 826.63 243.31 810.91 253.09 795.06 C 275.70 758.03 299.34 721.65 322.56 685.01 C 295.72 663.99 272.96 637.92 255.05 608.95 C 234.88 575.56 221.40 538.14 215.55 499.58 C 211.33 471.46 211.52 442.80 214.47 414.57 C 221.33 358.29 244.77 303.87 282.06 261.04 C 296.29 243.96 312.96 229.13 330.31 215.33 C 367.01 187.26 410.38 167.49 456.14 160.28 M 488.37 211.38 C 481.54 211.86 474.74 212.68 467.99 213.79 C 419.95 220.94 374.61 244.03 340.07 278.09 C 324.78 292.69 311.28 309.19 300.13 327.15 C 258.93 392.48 252.07 478.17 282.89 549.05 C 304.64 600.78 344.90 644.28 394.27 670.79 C 419.81 684.18 447.70 693.26 476.38 696.63 C 511.82 701.03 548.24 697.44 582.20 686.37 C 614.89 675.70 644.67 657.11 670.21 634.24 C 683.10 622.36 694.34 608.80 704.56 594.59 C 716.42 577.48 726.62 559.10 733.53 539.41 C 743.78 512.49 748.49 483.70 749.23 454.99 C 749.26 426.03 744.23 397.03 734.17 369.85 C 719.56 331.69 695.55 297.09 664.52 270.45 C 635.08 245.01 599.79 226.01 561.85 217.04 C 537.81 211.59 512.95 209.49 488.37 211.38 Z"
         id="path1" />
      <path
         fill="#33b2b8"
         opacity="1.00"
         d=" M 483.31 277.26 C 494.75 270.73 508.87 270.18 521.38 273.62 C 540.01 278.83 554.09 296.08 556.66 315.07 C 556.87 321.89 557.44 328.91 555.33 335.51 C 550.78 351.89 537.57 365.75 521.07 370.27 C 521.20 384.82 521.41 399.42 521.30 414.00 C 521.37 420.23 521.27 426.47 520.56 432.67 C 518.61 441.03 512.03 448.25 503.76 450.68 C 498.63 452.19 493.25 451.35 488.00 451.51 C 463.04 451.58 438.08 451.30 413.12 451.64 C 406.69 473.23 383.39 488.43 360.98 485.05 C 348.44 483.58 336.73 476.98 328.92 467.08 C 313.18 447.94 315.54 416.63 334.17 400.23 C 341.82 393.41 351.66 388.83 361.93 388.18 C 367.57 388.16 373.32 387.76 378.84 389.19 C 395.50 393.19 409.32 406.71 413.89 423.20 C 440.11 423.27 466.33 423.21 492.55 423.22 C 492.63 405.48 492.72 387.74 492.53 370.01 C 473.91 364.65 459.28 347.30 457.25 328.02 C 457.16 321.21 456.44 314.20 458.67 307.63 C 462.17 294.63 471.30 283.34 483.31 277.26 M 501.31 301.18 C 496.67 302.65 492.04 305.16 489.38 309.38 C 484.74 316.04 484.30 325.46 488.49 332.44 C 492.13 338.61 499.04 342.26 506.01 343.15 C 516.10 343.57 526.12 336.38 528.50 326.47 C 530.82 318.64 527.12 310.06 521.03 304.99 C 515.56 300.67 508.01 299.22 501.31 301.18 M 361.35 417.38 C 351.13 419.97 344.02 432.10 347.82 442.17 C 349.80 448.20 354.47 453.64 360.75 455.35 C 366.29 456.86 372.71 456.95 377.70 453.74 C 383.69 450.04 387.96 443.17 387.46 435.99 C 387.60 430.61 385.07 425.44 381.18 421.82 C 375.81 417.25 368.16 415.54 361.35 417.38 Z"
         id="path2" />
      <path
         fill="#33b2b8"
         opacity="1.00"
         d=" M 630.00 357.03 C 638.03 353.69 646.92 353.61 655.43 354.59 C 668.52 356.53 680.21 364.43 687.83 375.10 C 695.34 386.48 697.57 401.07 694.16 414.24 C 690.37 430.00 677.52 442.77 662.30 447.86 C 662.26 461.35 662.62 474.85 662.15 488.33 C 661.79 501.74 649.21 512.83 636.05 512.80 C 597.63 512.75 559.22 512.77 520.81 512.78 C 520.80 530.62 520.86 548.46 520.72 566.31 C 542.81 566.39 564.91 566.52 587.00 566.23 C 588.62 566.49 589.07 564.71 589.68 563.64 C 594.84 551.93 606.88 544.07 619.43 542.66 C 637.97 539.96 657.35 552.40 662.58 570.38 C 665.17 581.47 664.18 594.01 657.54 603.57 C 651.63 612.69 641.69 619.14 630.93 620.73 C 623.81 621.05 616.35 621.27 609.76 618.14 C 599.90 613.87 591.56 605.50 588.69 594.99 C 572.47 594.48 556.23 594.90 540.01 594.76 C 510.99 594.77 481.98 594.76 452.97 594.78 C 447.96 594.78 442.71 593.49 438.85 590.14 C 434.23 586.09 430.11 581.51 425.40 577.57 C 424.22 576.49 422.47 576.92 421.04 576.78 C 402.38 576.74 383.72 576.83 365.06 576.74 C 356.11 576.31 350.11 566.07 352.88 557.85 C 354.72 551.88 360.48 546.79 366.96 547.21 C 385.63 547.31 404.31 547.26 422.99 547.23 C 427.69 547.31 432.73 546.60 437.02 549.00 C 444.90 553.25 449.22 561.84 457.13 566.06 C 468.96 566.55 480.84 566.39 492.68 566.11 C 492.45 546.08 492.61 526.03 492.58 506.00 C 492.73 495.20 502.07 485.44 512.98 485.32 C 553.72 485.24 594.46 485.47 635.20 485.19 C 635.31 472.82 635.36 460.45 635.19 448.08 C 621.04 444.04 609.00 433.23 603.57 419.54 C 599.89 409.78 599.22 398.89 601.92 388.79 C 605.34 374.47 616.25 362.23 630.00 357.03 M 643.36 381.40 C 634.31 383.14 627.47 391.82 627.70 400.99 C 627.23 409.95 633.76 418.41 642.30 420.79 C 648.64 422.34 655.74 421.09 660.80 416.85 C 665.12 413.14 667.57 407.58 668.15 401.99 C 668.55 389.55 655.57 378.46 643.36 381.40 M 622.35 567.34 C 617.97 568.10 613.92 570.91 611.98 574.95 C 608.32 581.74 611.61 591.29 618.91 594.07 C 626.01 597.99 635.88 593.96 638.20 586.20 C 642.62 576.58 632.52 564.81 622.35 567.34 Z"
         id="path3" />
    </g>
    <g
       id="g1"
       transform="matrix(5.5795503,0,0,5.5795503,-1507.9964,-634.37801)">
      <circle
         cx="361"
         cy="195"
         r="44"
         fill="#6d3af2"
         id="circle1" />
      <circle
         cx="361"
         cy="195"
         r="31"
         fill="#7a4bff"
         id="circle2" />
      <path
         d="m 353,181 23,14 -23,14 z"
         fill="#ffffff"
         id="path2-0" />
    </g>
  </g>
</svg>
