<?xml version="1.0" encoding="UTF-8" standalone="no"?>
<svg
   width="800pt"
   height="200pt"
   viewBox="0 0 800 200"
   version="1.1"
   id="svg14"
   sodipodi:docname="coming-of-age.svg"
   inkscape:version="1.4.2 (f4327f4, 2025-05-13)"
   xmlns:inkscape="http://www.inkscape.org/namespaces/inkscape"
   xmlns:sodipodi="http://sodipodi.sourceforge.net/DTD/sodipodi-0.dtd"
   xmlns="http://www.w3.org/2000/svg"
   xmlns:svg="http://www.w3.org/2000/svg">
  <defs
     id="defs14" />
  <sodipodi:namedview
     id="namedview14"
     pagecolor="#ffffff"
     bordercolor="#000000"
     borderopacity="0.25"
     inkscape:showpageshadow="2"
     inkscape:pageopacity="0.0"
     inkscape:pagecheckerboard="true"
     inkscape:deskcolor="#d1d1d1"
     inkscape:document-units="pt"
     inkscape:zoom="1.2078268"
     inkscape:cx="461.98678"
     inkscape:cy="129.98553"
     inkscape:window-width="1920"
     inkscape:window-height="1130"
     inkscape:window-x="-6"
     inkscape:window-y="-6"
     inkscape:window-maximized="1"
     inkscape:current-layer="svg14" />
  <g
     id="#fefefdff"
     transform="translate(175,35.5)">
    <path
       fill="#fefefd"
       opacity="1"
       d="m 151.47,0 h 0.86 c -0.46,5.7 -1.89,12.05 -6.74,15.64 -2.41,1.9 -5.59,2.1 -8.51,1.65 -1.02,3.59 -1.73,7.25 -2.33,10.92 1.17,1.72 2.4,3.55 2.1,5.75 -0.05,22.97 0.03,45.94 -0.05,68.92 -0.44,0.36 -1.32,1.08 -1.77,1.44 -2.11,0.15 -5.14,-0.57 -4.93,-3.26 -0.11,-22.35 0,-44.71 -0.06,-67.07 -0.34,-2.33 1.48,-4.1 1.76,-6.3 0.14,-1.25 0.51,-2.51 1.68,-3.16 l -1.12,0.15 c 1.62,-3.06 2.76,-6.69 5.86,-8.62 1.58,-2.47 3.29,-4.84 4.96,-7.25 -3.25,1.48 -5.44,4.45 -8.33,6.45 -0.23,-3.44 0.24,-7.19 2.72,-9.79 3.47,-3.96 8.92,-4.92 13.9,-5.47 z"
       id="path1" />
    <path
       fill="#fefefd"
       opacity="1"
       d="m 118.42,11.93 c 3.59,0.24 7.65,0.59 10.29,3.34 2.13,2.12 2.31,5.27 3.07,8 -3.12,2.42 -7.79,1.05 -10.13,-1.84 -2.4,-2.55 -3.07,-6.12 -3.23,-9.5 z"
       id="path2" />
    <path
       fill="#fefefd"
       opacity="1"
       d="m 3.92,40.83 c 2.12,-5.65 6.45,-11.46 12.94,-11.95 6.48,-1.11 13.02,3.84 14.11,10.21 -0.05,2.33 -2.72,3.91 -4.73,2.66 -1.8,-1.87 -2.92,-4.48 -5.32,-5.69 -2.64,-1.12 -6.1,-0.53 -7.82,1.9 -3.92,4.97 -4.59,11.57 -5.43,17.62 -0.85,9.49 -0.88,19.13 0.78,28.54 0.85,4.12 1.79,8.52 4.66,11.77 2.14,2.49 6.26,3.3 8.94,1.2 2.19,-1.57 2.63,-4.5 4.42,-6.38 1.66,-1.42 3.42,0.26 4.88,1.08 -0.27,3.22 -1.37,6.37 -3.44,8.88 C 22.47,106.94 11.3,106.06 6.72,99.19 1.51,91.6 1.06,82.13 0,73.3 V 61.79 C 0.82,54.73 1.28,47.51 3.92,40.83 Z"
       id="path3" />
    <path
       fill="#fefefd"
       opacity="1"
       d="m 45.21,31.1 c 4.12,-2.78 9.87,-3.07 14.2,-0.6 4.58,3.13 6.76,8.52 8.2,13.67 3.31,12.34 3.65,25.37 1.9,37.99 -1.21,6.2 -2.54,12.76 -6.51,17.86 -2.31,3.09 -6.03,4.45 -9.73,4.98 h -1.48 c -3.21,-0.56 -6.6,-1.48 -8.89,-3.96 C 38.81,96.71 37.24,90.71 36.08,85.03 33.92,71.9 33.99,58.22 37.18,45.26 38.56,39.98 40.71,34.48 45.21,31.1 m 4.16,5.39 c -1.75,1.2 -2.85,3.07 -3.73,4.94 -3.12,7.44 -3.36,15.62 -3.75,23.56 -0.11,8.99 0.38,18.19 3.37,26.75 1.21,3.72 4.7,7.31 8.94,6.43 3.8,-1.19 5.34,-5.35 6.41,-8.79 3.36,-12.45 3.5,-25.6 1.47,-38.28 -0.9,-4.43 -1.75,-9.07 -4.35,-12.86 -1.7,-2.73 -5.73,-3.55 -8.36,-1.75 z"
       id="path4" />
    <path
       fill="#fefefd"
       opacity="1"
       d="m 111.23,31.29 c 1.93,-3.83 8.24,-1.43 7.32,2.74 0.53,22.99 1.64,45.96 1.96,68.97 -1.93,1.71 -4.77,1.55 -6.79,0.12 -1.03,-18.46 -1.19,-37 -1.87,-55.47 -3.4,9.45 -6.24,19.08 -9.67,28.52 -2.11,1.8 -6.09,1.74 -7.01,-1.29 -3.15,-9.05 -5.82,-18.3 -9.7,-27.08 -0.02,11.41 -0.54,22.81 -0.59,34.22 -0.69,6.69 0.15,13.45 -0.87,20.11 -0.38,2.82 -4.83,2.73 -6.33,0.92 -0.9,-6.34 0.38,-12.73 0.11,-19.1 C 78.43,71.99 78.39,60 79,48.03 c 0.1,-5.62 -0.36,-11.27 0.48,-16.85 2.29,-2.98 7.18,-1.78 7.85,1.93 3.54,11.11 7.82,21.97 11.39,33.07 0.94,-1.24 1.36,-2.75 1.87,-4.19 3.57,-10.23 6.64,-20.63 10.64,-30.7 z"
       id="path5" />
    <path
       fill="#fefefd"
       opacity="1"
       d="m 201.35,31.36 c 6.65,-5.11 17.68,-2.41 20.46,5.74 1.73,2.51 -0.84,6.37 -3.8,5.12 -2.65,-2.16 -4.01,-6.5 -7.98,-6.62 -4.06,-0.7 -7.02,2.91 -8.43,6.25 -3.55,8.22 -3.7,17.36 -4.13,26.16 0.45,8.45 0.64,17.32 4.42,25.08 1.27,2.78 3.88,5.36 7.15,5.19 2.81,0.21 5.11,-2.02 6.02,-4.51 2.88,-7.1 2.9,-14.91 2.75,-22.44 -3.35,-0.03 -6.7,0.15 -10.05,-0.09 -2.75,-1.18 -2.09,-6.45 1.14,-6.28 4.6,0.02 9.26,-0.37 13.82,0.25 2.68,2.07 1.68,5.85 1.91,8.77 -0.27,8.65 -0.25,18.01 -5.06,25.56 -1.94,3.29 -5.61,4.88 -9.24,5.46 h -2.73 c -6.14,-0.49 -11,-5.14 -12.97,-10.79 -4.85,-12.74 -4.92,-26.8 -3.22,-40.16 1.38,-8.13 3.09,-17.3 9.94,-22.69 z"
       id="path6" />
    <path
       fill="#fefefd"
       opacity="1"
       d="m 253.77,33.84 c 3.78,-5.03 11.26,-6.53 16.74,-3.57 5.07,3.26 7.29,9.22 8.77,14.79 3.2,12.4 3.43,25.46 1.45,38.08 -0.97,5.88 -2.57,11.84 -6.04,16.78 -2.13,3.06 -5.82,4.43 -9.34,5.08 h -2.75 c -4.94,-0.52 -9.37,-3.6 -11.35,-8.2 -5.52,-11.41 -5.36,-24.49 -5.01,-36.88 0.77,-9 1.88,-18.68 7.53,-26.08 m 6.71,2.85 c -2.14,1.57 -3.28,4.05 -4.24,6.43 -2.84,7.63 -2.8,15.86 -3.29,23.87 0.42,9.16 0.64,18.76 4.76,27.17 1.48,3.37 5.93,5.28 9.25,3.44 2.51,-1.31 3.7,-4.06 4.62,-6.59 2.79,-8.37 3.37,-17.31 3.27,-26.07 -0.49,-8.79 -0.9,-18.02 -5.11,-25.97 -1.64,-3.33 -6.29,-4.57 -9.26,-2.28 z"
       id="path7" />
    <path
       fill="#fefefd"
       opacity="1"
       d="m 382.89,32.88 c 3.99,-4.36 10.83,-5.18 16.07,-2.81 3.01,1.8 5.48,4.68 6.58,8.03 0.72,1.88 -0.52,4.12 -2.55,4.41 -2.41,0.14 -3.27,-2.46 -4.56,-3.97 -1.44,-2.44 -4.61,-3.78 -7.32,-2.89 -3.33,0.7 -5.17,3.91 -6.48,6.76 -3,7.47 -3.64,15.64 -3.7,23.63 -0.1,8.08 0.44,16.31 3.02,24.03 1.11,2.92 2.45,6.25 5.48,7.62 2.93,1.51 6.89,0.18 8.22,-2.86 3.64,-7.23 3.42,-15.58 3.22,-23.46 -3.34,-0.09 -6.68,0.12 -10,-0.14 -3.14,-0.95 -2.27,-6.35 1.02,-6.26 4.39,-0.07 8.79,-0.2 13.18,0.08 1.97,-0.02 2.59,2.25 2.6,3.85 0.21,10.16 0.51,21.03 -4.52,30.23 -1.82,3.63 -5.75,5.21 -9.53,5.87 h -2.75 c -5.82,-0.58 -10.72,-4.71 -12.68,-10.15 -5.18,-13.4 -5.21,-28.21 -3.37,-42.27 1.23,-6.99 3.1,-14.37 8.07,-19.7 z"
       id="path8" />
    <path
       fill="#fefefd"
       opacity="1"
       d="m 147.69,32.96 c -0.15,-2.68 2.99,-4.31 5.27,-3.28 2.12,0.24 2.67,2.64 3.43,4.24 6.75,16.95 12.52,34.29 19.07,51.31 0.18,-17.39 0,-34.79 0.09,-52.18 -0.35,-3.28 3.96,-4.72 6.16,-2.64 1.85,2.5 0.42,5.72 0.61,8.55 -0.04,20.71 0.05,41.43 -0.04,62.14 -0.04,2.48 -3.11,3.68 -5.22,2.98 -1.5,-0.92 -2.56,-2.38 -3.09,-4.04 -6.17,-16.31 -12.28,-32.65 -18.04,-49.11 -0.36,-1.13 -0.94,-2.17 -1.64,-3.12 0.15,1.74 0.43,3.47 0.44,5.22 -0.03,16 -0.01,32.01 0.01,48.01 0.6,3.69 -4.85,4.22 -6.64,1.86 -0.57,-1.56 -0.44,-3.24 -0.47,-4.86 0.08,-21.7 -0.03,-43.39 0.06,-65.08 z"
       id="path9" />
    <path
       fill="#fefefd"
       opacity="1"
       d="m 290.02,41.02 c 0.26,-3.67 -1.64,-8.82 2.1,-11.23 7.28,-0.28 14.59,-0.14 21.87,-0.07 3.57,0.09 3.32,5.78 -0.01,6.24 -5.7,0.31 -11.42,-0.05 -17.12,0.18 -0.11,8.54 -0.03,17.08 -0.06,25.61 5.17,0.31 10.49,-0.71 15.54,0.75 1.35,2.03 1.09,5.36 -1.67,5.96 -4.61,0.22 -9.23,-0.07 -13.84,0.14 -0.07,11.28 0.01,22.56 -0.06,33.84 -0.44,0.45 -1.34,1.35 -1.78,1.81 -2.26,0.26 -5.52,-0.28 -5.03,-3.33 -0.61,-19.95 -0.22,-39.95 0.06,-59.9 z"
       id="path10" />
    <path
       fill="#fefefd"
       opacity="1"
       d="m 347.63,32.06 c 0.65,-3.44 6.39,-3.58 7.59,-0.44 5.04,23.12 10.68,46.14 15.35,69.35 1.26,4.16 -6.09,4.47 -6.96,1.09 -1.33,-6.35 -2.71,-12.71 -3.86,-19.11 -5.5,-0.56 -11.01,-0.33 -16.52,-0.23 -1.22,6.29 -2.63,12.55 -3.91,18.83 -0.15,3.75 -7.66,3.7 -6.61,-0.49 0.83,-6.42 2.57,-12.68 3.62,-19.06 0.1,-2.24 -0.13,-6.08 -3.24,-5.83 -7.37,-0.17 -10.93,-8.08 -11.24,-14.48 4.38,-0.15 9.25,0.69 12.48,3.9 2.76,3.04 2.34,7.33 3.32,11.04 1.18,-2.72 1.53,-5.69 2.19,-8.56 2.42,-12.04 5.21,-24.01 7.79,-36.01 m 4,9.89 c -2.6,11.49 -4.78,23.07 -7.16,34.6 4.65,-0.1 9.29,-0.48 13.94,-0.35 C 356,64.82 353.53,53.44 351.63,41.95 Z"
       id="path11" />
    <path
       fill="#fefefd"
       opacity="1"
       d="m 414.86,31.89 c 1.02,-0.72 1.68,-2.27 3.11,-2.16 7.26,-0.12 14.54,-0.15 21.8,0.01 2.95,1.21 2.29,5.84 -0.86,6.2 -5.58,0.36 -11.19,-0.04 -16.78,0.2 -0.12,8.54 -0.05,17.08 -0.05,25.62 4.56,0.27 9.28,-0.58 13.73,0.47 3.11,0.83 2.65,5.45 -0.25,6.24 -4.5,0.19 -9,-0.02 -13.49,0.06 0,9.62 -0.01,19.25 -0.01,28.87 5.96,0.03 11.93,-0.11 17.9,0.03 3.46,0.02 3.7,6.2 0.16,6.46 -5.33,0.63 -10.74,0.08 -16.1,0.28 -3.09,-0.15 -7.01,0.67 -9.16,-2.13 0.06,-23.38 0.05,-46.77 0,-70.15 z"
       id="path12" />
    <path
       fill="#fefefd"
       opacity="1"
       d="m 430.55,83.02 c 1.63,1.12 2.48,2.87 3.13,4.68 2.21,-1.62 4.43,-1.63 6.66,-0.02 0.58,-1.9 1.2,-3.93 3.19,-4.78 -0.52,2.12 -1.47,4.17 -1.46,6.4 2.08,-0.6 4.09,-1.44 6.13,-2.18 -0.86,0.99 -1.72,1.97 -2.59,2.94 L 444.7,88.8 c -0.3,0.86 -0.59,1.73 -0.85,2.6 0.41,1.03 0.81,2.07 1.19,3.12 -5.3,0.11 -10.6,0.06 -15.9,0.03 0.23,-1.91 1,-3.88 0.28,-5.77 l -1.11,1.61 c -0.83,-1.02 -1.66,-2.04 -2.48,-3.06 1.98,0.33 3.97,2.36 5.97,1.45 0.81,-1.91 -1.3,-3.73 -1.25,-5.76 z"
       id="path13" />
    <path
       fill="#fefefd"
       opacity="1"
       d="m 445.74,93.65 c 0.66,-1.63 2.91,-0.78 4.26,-0.86 v 0.56 c -1.03,0.97 -3.43,1.98 -4.26,0.3 z"
       id="path14" />
  </g>
</svg>
