<?xml version="1.0" encoding="UTF-8" standalone="no"?>
<svg
   width="800pt"
   height="200pt"
   viewBox="0 0 800 200"
   version="1.1"
   id="svg15"
   sodipodi:docname="martial-arts.svg"
   inkscape:version="1.4.2 (f4327f4, 2025-05-13)"
   xmlns:inkscape="http://www.inkscape.org/namespaces/inkscape"
   xmlns:sodipodi="http://sodipodi.sourceforge.net/DTD/sodipodi-0.dtd"
   xmlns="http://www.w3.org/2000/svg"
   xmlns:svg="http://www.w3.org/2000/svg">
  <defs
     id="defs15" />
  <sodipodi:namedview
     id="namedview15"
     pagecolor="#ffffff"
     bordercolor="#000000"
     borderopacity="0.25"
     inkscape:showpageshadow="2"
     inkscape:pageopacity="0.0"
     inkscape:pagecheckerboard="true"
     inkscape:deskcolor="#d1d1d1"
     inkscape:document-units="pt"
     inkscape:zoom="1.708125"
     inkscape:cx="533.33333"
     inkscape:cy="133.47969"
     inkscape:window-width="1920"
     inkscape:window-height="1130"
     inkscape:window-x="-6"
     inkscape:window-y="-6"
     inkscape:window-maximized="1"
     inkscape:current-layer="svg15" />
  <g
     id="#fefffcff"
     transform="translate(131.5,37)">
    <path
       fill="#fefffc"
       opacity="1"
       d="m 511.89,0 h 1.45 c 1.52,1.18 3.01,2.41 4.55,3.57 -4.64,6.14 -8.89,12.61 -14.35,18.08 -0.38,-5.02 2.64,-9.24 4.43,-13.68 1.11,-2.75 2.42,-5.41 3.92,-7.97 z"
       id="path1" />
    <path
       fill="#fefffc"
       opacity="1"
       d="m 527.93,6.87 c 1.36,-1.3 3.06,-2.15 4.75,-2.96 1.39,1.58 2.68,3.24 3.91,4.94 -5.97,4.66 -12.16,9.04 -18.51,13.16 -3.16,0.71 -5.64,2.78 -8.11,4.74 -0.43,-0.17 -1.29,-0.53 -1.72,-0.71 5.54,-7.36 12.97,-12.96 19.68,-19.17 z"
       id="path2" />
    <path
       fill="#fefffc"
       opacity="1"
       d="m 280.86,28.03 c 3.93,-2.09 8.09,-3.8 11.72,-6.44 -1.92,21.76 -4.08,43.51 -6.05,65.27 -1.44,1.06 -2.9,2.09 -4.31,3.18 9.74,-0.94 19.54,-1.41 29.34,-1.15 -3.04,3.62 -5.29,7.82 -8.27,11.47 -5.71,0.75 -11.52,-0.12 -17.27,0.18 -4.46,-0.04 -9,0.87 -13.38,-0.31 1.51,-4.93 0.41,-10.09 0.84,-15.15 1.32,-18.86 3.02,-37.7 4.97,-56.5 0.53,2.31 0.6,4.7 0.94,7.04 0.51,-2.52 0.51,-5.17 1.47,-7.59 z"
       id="path3" />
    <path
       fill="#fefffc"
       opacity="1"
       d="m 511,33.01 c 6.59,-4.6 14.41,-6.79 21.96,-9.25 1.13,2.26 1.24,4.71 0.84,7.18 -5.26,0.25 -10.38,2.34 -15.66,1.52 -2.38,0.36 -4.74,1.47 -7.14,0.55 z"
       id="path4" />
    <path
       fill="#fefffc"
       opacity="1"
       d="m 49.3,28.31 c 5.3,-0.86 10.61,-1.77 15.94,-2.41 -2.34,1.51 -5.16,1.93 -7.64,3.14 3.37,-0.24 6.61,-1.28 9.85,-2.15 -1.21,10.72 -1.86,21.54 -3.96,32.14 -0.33,10.05 -1.69,20.04 -2.84,30.02 -0.08,2.37 -2.11,4.01 -2.45,6.3 -0.49,1.34 -0.44,3.02 -1.53,4.05 -3.45,0.96 -7.05,1.15 -10.62,1.09 1.99,-16.65 3.96,-33.3 5.87,-49.95 -3.54,10.2 -6.62,20.56 -9.42,30.98 -1.84,6.25 -4.28,12.3 -6.27,18.51 -3.74,0.03 -7.4,0.87 -11.11,1.17 C 23.08,84.39 21.86,67.49 20.21,50.63 18.08,67.41 16.46,84.27 14.75,101.1 8.62,103.58 5.08,109.38 0.18,113.42 1.79,98.3 4,83.24 5.72,68.14 6.67,62.07 8.09,56.09 8.5,49.97 8.16,46.89 9.67,43.96 9.15,40.89 8.96,38.59 9.55,36.32 9.44,34.02 8.36,31.57 6.86,29.33 5.55,27 c 7.64,0.09 15.28,0.39 22.92,0.61 1.48,16.6 3.68,33.12 4.88,49.74 C 38.6,60.99 43.04,44.31 49.3,28.31 m 9.21,65.58 c 2.45,-3.68 1.25,-8.25 1.13,-12.36 -0.36,4.12 -0.82,8.24 -1.13,12.36 z"
       id="path5" />
    <path
       fill="#fefffc"
       opacity="1"
       d="m 211.44,28.69 c 3.72,-0.85 7.34,-2.37 11.19,-2.52 -0.4,15.28 -2.56,30.56 -3.71,45.83 -0.34,-0.33 -1.01,-0.99 -1.35,-1.32 0.27,0.4 0.81,1.18 1.08,1.57 0.09,5.14 -0.91,10.26 -1.02,15.41 -0.47,-0.96 -0.95,-1.92 -1.41,-2.88 0.12,4.02 1.14,8.03 0.56,12.06 -0.59,-2.13 -0.81,-4.34 -1.33,-6.49 -0.08,3.23 -0.05,6.5 -1.54,9.47 -3.58,0.64 -7.18,1.17 -10.61,2.42 -0.1,-1.9 -0.21,-3.81 -0.04,-5.71 1.65,-19.48 3.44,-38.95 4.96,-58.44 0.3,0.15 0.92,0.45 1.22,0.6 -0.08,-3.46 1.36,-6.65 2,-10 z"
       id="path6" />
    <path
       fill="#fefffc"
       opacity="1"
       d="m 470.21,33.32 c 3.3,-4.72 8.99,-7.77 14.81,-7.19 4.6,-1.27 9.15,0.94 13.46,2.33 6.38,3.37 7.17,11.7 5.97,18.06 -4.15,1.23 -8.4,2.1 -12.64,2.94 -0.08,-3.27 0.91,-6.75 -0.42,-9.87 -1.82,-3.79 -7.71,-3.37 -9.91,-0.17 -2.26,3.34 -2.69,8.06 -0.39,11.49 5.3,7.63 14.76,11.46 19.27,19.74 3.69,7 2.76,15.74 -1.2,22.42 -2.85,4.73 -8.08,7.54 -13.38,8.55 -6.34,0.05 -13.53,0.84 -18.64,-3.75 -5.16,-4.73 -5.02,-12.38 -3.99,-18.75 4.43,-1.35 8.9,-2.57 13.46,-3.46 -0.64,3.83 -1.86,7.81 -0.89,11.67 1.63,3.99 7.44,4.48 10.4,1.73 2.83,-2.56 2.92,-6.91 2.13,-10.38 -1.95,-6.11 -7.91,-9.39 -12.32,-13.56 -5.68,-4.54 -10.67,-11.24 -9.86,-18.89 1.23,-4.34 1.16,-9.26 4.14,-12.91 z"
       id="path7" />
    <path
       fill="#fefffc"
       opacity="1"
       d="m 84.48,26.97 c 5.57,0.68 11.11,-0.46 16.67,-0.49 2.83,4.92 1.18,11.35 0.88,16.85 0.68,-1.76 1.15,-3.59 1.9,-5.32 0.12,4.12 -0.46,8.21 -0.83,12.31 0.56,-1.37 1.03,-2.76 1.57,-4.14 1.95,18.27 4.97,36.4 7.02,54.65 -3.85,0.18 -7.7,0.74 -11.55,0.45 -1.15,-1.7 -1.18,-3.87 -1.73,-5.79 -0.37,1.66 -0.65,3.34 -1.2,4.96 -0.1,-2.41 0.43,-4.83 0.13,-7.23 -0.9,-2.39 -1.25,-4.92 -1.51,-7.45 -5.08,0.75 -10.34,0.5 -15.3,1.77 -1.07,4.48 -3.61,8.33 -5.04,12.67 -3.92,0.28 -7.78,1.19 -11.72,0.98 6.66,-24.8 14.16,-49.38 20.71,-74.22 m 7.16,16.46 c -2.89,10.71 -4.56,21.78 -8.5,32.2 3.97,-0.42 7.95,-0.73 11.93,-1.01 -1.4,-10.37 -1.96,-20.84 -3.43,-31.19 z"
       id="path8" />
    <path
       fill="#fefffc"
       opacity="1"
       d="m 162.42,27.23 c 14.33,0.23 28.66,-0.2 42.99,-0.43 -0.5,2.94 -1.92,5.67 -1.95,8.69 -1.29,0.22 -2.57,0.5 -3.86,0.71 1.48,0.3 2.94,0.72 4.35,1.25 -4.69,0.66 -9.43,0.87 -14.15,1.19 -2.39,6.26 -0.26,12.94 -1.18,19.38 -1.65,18.8 -3.26,37.6 -4.85,56.4 -3.42,-4.36 -6.44,-9.05 -10.5,-12.85 -2.15,-7.8 0.02,-15.75 0.05,-23.63 0.91,-13.15 2.16,-26.27 3.34,-39.39 -4.64,-0.14 -9.27,0.19 -13.91,0.17 0.3,-3.27 0.69,-6.53 1.1,-9.79 1.6,-0.13 3.21,-0.31 4.81,-0.53 -2.06,-0.49 -4.18,-0.65 -6.24,-1.17 z"
       id="path9" />
    <path
       fill="#fefffc"
       opacity="1"
       d="m 241,26.96 c 5.79,0.67 11.55,-0.46 17.34,-0.5 0.97,3.96 0.1,7.96 -0.35,11.92 0.67,-1.41 1.28,-2.85 1.99,-4.24 -0.14,4.03 -0.44,8.07 -0.94,12.08 0.64,-1.41 1.24,-2.85 1.95,-4.23 -0.04,3.77 -0.5,7.53 -0.87,11.28 0.51,-1.37 0.94,-2.77 1.45,-4.14 1.9,17.34 4.89,34.53 6.8,51.87 -3.77,-0.03 -7.53,0.51 -11.29,0.29 -1.99,-1.64 -1.63,-4.88 -2.37,-7.25 -0.34,0.23 -1.02,0.69 -1.36,0.91 -0.08,-3.06 -0.51,-6.1 -0.83,-9.15 -5.1,0.51 -10.21,0.88 -15.3,1.45 -1.15,4.59 -3.6,8.64 -5.25,13.04 -3.91,0.23 -7.76,1.12 -11.69,0.99 6.73,-24.82 14.03,-49.49 20.72,-74.32 m -0.99,48.53 c 3.92,-0.23 7.84,-0.61 11.76,-0.8 -1.38,-10.59 -2.43,-21.22 -3.55,-31.83 -2.57,10.92 -4.97,21.89 -8.21,32.63 z"
       id="path10" />
    <path
       fill="#fefffc"
       opacity="1"
       d="m 343.13,27.31 c 5.33,0.11 10.77,-0.88 15.99,0.64 1.12,8.98 3.11,17.83 4.35,26.79 0.51,3.93 2.12,7.59 2.9,11.45 1.72,11.22 3.71,22.39 5.25,33.63 -4.18,0.89 -8.4,1.74 -12.7,1.58 -0.74,-5.26 -1.66,-10.49 -2.8,-15.67 -5.23,0.43 -10.44,1.05 -15.62,1.86 -1.51,5.35 -2.96,10.72 -3.99,16.19 -0.17,-0.71 -0.5,-2.13 -0.67,-2.84 -1.13,3.19 -1.52,7.29 -4.77,9.11 -3.52,2.43 -7.06,4.85 -10.79,6.95 h -0.62 c 7,-24.05 11.7,-48.77 19.93,-72.46 -0.02,-5.93 1.83,-11.61 3.54,-17.23 m 0.36,46.24 c -0.14,1.69 -1.72,2.54 -2.75,3.66 4.72,-0.71 9.5,-1.3 14.04,-2.86 -1.69,-10.24 -2.64,-20.58 -4.02,-30.86 -2.27,10.07 -5.06,19.99 -7.27,30.06 z"
       id="path11" />
    <path
       fill="#fefffc"
       opacity="1"
       d="m 374.97,27.55 c 7.36,0.11 14.67,-0.81 22.02,-0.55 5.83,-0.05 12.54,-0.4 17.14,3.86 5.4,4.62 5.2,12.5 4.4,18.93 -0.66,5.99 -4.21,11.47 -9.55,14.31 3.96,2.25 6.63,6.31 6.94,10.88 0.61,9.79 0.07,20.23 4.99,29.1 1.8,3.93 5.52,6.36 8.65,9.15 -2.18,-0.43 -4.38,-0.77 -6.51,-1.38 -3.76,-0.96 -6.55,-4.13 -10.49,-4.58 -4.19,-2.51 -7.11,-6.85 -8.37,-11.53 -1.71,-6.7 -0.68,-13.72 -1.78,-20.5 -0.41,-2.4 -2.15,-4.56 -4.56,-5.13 -2.42,-0.37 -4.88,-0.15 -7.31,-0.11 -0.78,9.65 -1.19,19.32 -2.07,28.96 -1.07,-0.67 -2.13,-1.33 -3.16,-2.06 -0.4,1.03 -0.74,2.09 -1.05,3.15 -2.98,0.4 -5.98,0.65 -8.98,0.43 -0.16,-7.53 1.52,-14.94 1.5,-22.45 0.55,-15.27 2.12,-30.47 3.04,-45.71 -1.59,-1.62 -3.24,-3.17 -4.85,-4.77 m 17.78,10.62 c -0.42,2.66 -0.34,5.36 -0.66,8.04 -0.34,-2.5 -0.48,-5.03 -0.77,-7.53 -1.43,0.35 -2.84,0.76 -4.23,1.22 0.15,0.65 0.44,1.96 0.59,2.62 -0.28,-0.35 -0.84,-1.04 -1.11,-1.38 -1.05,1.48 -1.99,3.03 -3,4.54 1.96,3.14 4.09,6.24 8.02,6.95 -0.18,2.3 -0.27,4.6 -0.31,6.91 3.82,-0.14 8.19,0.73 11.48,-1.76 2.06,-1.74 4.15,-3.45 6.35,-5.03 -0.11,-2.67 -0.5,-5.33 -1.35,-7.88 0.76,-2.34 0.84,-5.03 -1.77,-6.25 -2.44,0.38 -1.88,3.36 -2.67,5.12 1.08,0.35 3.22,1.05 4.29,1.4 -3.02,1.23 -7.31,-1.73 -9.53,1.15 -0.45,4 4.28,3.67 6.84,4.77 -1.79,0.2 -3.6,0.18 -5.38,0.43 -0.78,-1.24 -1.85,-2.32 -2.37,-3.69 0.12,-3.34 0.46,-6.66 0.45,-10 -1.65,-0.19 -3.57,-1.16 -4.87,0.37 m 5.58,-1.57 c -0.11,2.59 -0.22,5.17 -0.43,7.75 1.62,-0.18 3.25,-0.34 4.89,-0.52 0.28,-2.06 0.6,-4.12 0.89,-6.18 -1.72,-0.65 -3.51,-1.06 -5.35,-1.05 z"
       id="path12" />
    <path
       fill="#fefffc"
       opacity="1"
       d="m 421.6,27.24 c 14.55,0.19 29.1,-0.16 43.64,-0.46 -0.69,3.09 -1.79,6.07 -3.02,8.98 -0.97,0.22 -2.91,0.67 -3.88,0.89 1.55,0.07 3.11,-0.01 4.68,-0.07 l 0.03,1.11 c -4.04,0.01 -8.03,0.68 -12.06,0.85 -1.64,-0.26 -2.04,1.77 -2.26,2.94 -0.46,5.13 0.49,10.29 -0.29,15.4 -1.43,19.22 -3.29,38.39 -4.66,57.61 -3.38,-4.07 -6.07,-8.73 -10.06,-12.25 -1.22,-1.05 -0.93,-2.81 -1.08,-4.24 0.02,-3.01 -0.43,-6.01 -0.28,-9.02 1.12,-16.83 2.46,-33.64 4.04,-50.44 -4.67,-0.13 -9.34,0.19 -14.02,0.21 0.35,-3.27 0.67,-6.54 1.11,-9.8 1.14,-0.15 3.4,-0.43 4.54,-0.58 -2.12,-0.52 -4.31,-0.63 -6.43,-1.13 z"
       id="path13" />
    <path
       fill="#fefffc"
       opacity="1"
       d="m 123.02,29.91 c 1.43,-1.08 3.24,-1.61 5.01,-1.75 6.65,-0.33 13.31,-1.12 19.98,-0.54 4.81,0.62 9.22,4.15 10.64,8.83 1.72,5.55 1.21,11.54 -0.24,17.09 -1.21,4.67 -4.8,8.24 -8.84,10.63 4.73,2.41 6.97,7.66 7.04,12.77 0.24,9.11 0,18.74 4.49,27 2.11,4.25 5.99,7.26 9.91,9.76 -5.35,-1.16 -10.77,-2.36 -15.24,-5.72 -4.58,-0.38 -7.62,-4.48 -9.63,-8.23 -4.22,-8.11 -1.38,-17.62 -3.71,-26.14 -1.82,-4.42 -7.21,-3.84 -11.1,-3.58 -1.14,10.01 -1.73,20.08 -2.79,30.09 -4.51,-0.27 -8.99,0.63 -13.5,0.24 1.9,-19.47 3.67,-38.95 5.57,-58.41 0.47,-4.07 1.33,-8.1 2.41,-12.04 m 6.23,9.34 c 1.55,0.39 3.1,0.77 4.66,1.12 -0.62,6.35 -1.22,12.72 -1.72,19.08 3.74,0.21 7.96,0.24 11.03,-2.25 2.86,-2.94 3.08,-7.38 3.38,-11.25 0.23,-2.97 -0.65,-6.77 -3.9,-7.7 -4.44,-0.92 -9.18,-0.51 -13.45,1 z"
       id="path14" />
    <path
       fill="#fefffc"
       opacity="1"
       d="m 335.06,105.35 c 3.29,0.08 -1.53,3.04 0,0 z"
       id="path15" />
  </g>
</svg>
