<?xml version="1.0" encoding="UTF-8" standalone="no"?>
<svg
   width="800pt"
   height="200pt"
   viewBox="0 0 800 200"
   version="1.1"
   id="svg9"
   sodipodi:docname="romantic-comedy.svg"
   inkscape:version="1.4.2 (f4327f4, 2025-05-13)"
   xmlns:inkscape="http://www.inkscape.org/namespaces/inkscape"
   xmlns:sodipodi="http://sodipodi.sourceforge.net/DTD/sodipodi-0.dtd"
   xmlns="http://www.w3.org/2000/svg"
   xmlns:svg="http://www.w3.org/2000/svg">
  <defs
     id="defs9" />
  <sodipodi:namedview
     id="namedview9"
     pagecolor="#ffffff"
     bordercolor="#000000"
     borderopacity="0.25"
     inkscape:showpageshadow="2"
     inkscape:pageopacity="0.0"
     inkscape:pagecheckerboard="true"
     inkscape:deskcolor="#d1d1d1"
     inkscape:document-units="pt"
     inkscape:zoom="1.708125"
     inkscape:cx="533.33333"
     inkscape:cy="133.47969"
     inkscape:window-width="1920"
     inkscape:window-height="1130"
     inkscape:window-x="-6"
     inkscape:window-y="-6"
     inkscape:window-maximized="1"
     inkscape:current-layer="svg9" />
  <g
     id="#fefefeff"
     transform="translate(151.5,55)">
    <path
       fill="#fefefe"
       opacity="1"
       d="m 487.28,0 h 0.47 c 1.96,1.41 4.79,0.93 6.54,2.74 1.86,1.47 2.06,4.1 2.35,6.26 L 497,6.45 v 63.87 c -1.08,8.03 -14.26,8.9 -16.45,1.24 -0.34,-13.98 0.01,-27.99 -0.16,-41.98 -4.15,6.58 -7.46,13.64 -11.49,20.29 -1.54,2.37 -2.48,5.55 -5.33,6.67 -3.49,1.96 -8.19,0.35 -10.03,-3.13 -4.75,-7.74 -8.78,-15.92 -13.76,-23.53 -0.33,13.62 0.12,27.25 -0.22,40.87 -1.12,7.46 -13.53,8.26 -15.87,1.23 -1.16,-4.91 -0.11,-9.94 -0.12,-14.91 -0.02,-15.68 0.02,-31.36 -0.03,-47.04 -0.06,-2.27 0.19,-4.81 1.9,-6.49 3.03,-3.01 8.01,-3.29 11.8,-1.7 3.71,1.54 5.63,5.3 7.5,8.6 5.08,8.99 10.27,17.91 15.51,26.81 4.41,-7.35 8.29,-15 12.6,-22.41 2.32,-3.94 4.19,-8.28 7.49,-11.54 1.91,-1.85 4.76,-1.92 6.94,-3.3 z"
       id="path1" />
    <path
       fill="#fefefe"
       opacity="1"
       d="M 3.35,2.24 C 6.33,0.72 9.75,1.01 12.98,1.02 20,1.22 27.03,0.84 34.04,1.34 c 6.92,0.05 14.04,2.67 18.65,7.97 6.39,6.91 6.92,17.56 3.93,26.1 -2.18,6.47 -8.13,10.54 -14.08,13.23 5.57,8.98 10.21,18.63 17.17,26.67 7.26,9.02 19.41,14.88 31.03,12.12 3.16,-0.58 6.68,-3.04 9.71,-0.76 3.87,2.23 3.46,8.26 -0.35,10.31 -7.06,3.66 -15.28,4 -23.05,3.24 C 65.47,98.84 55.14,92.16 47.51,83.58 38.58,73.82 32.99,61.68 26.51,50.29 23.05,50.16 19.58,50.19 16.11,50.2 15.96,57.5 16.4,64.82 15.91,72.09 13.49,78.7 1.99,78.43 0,71.51 V 7.46 C 0.46,5.4 1.48,3.37 3.35,2.24 m 12.76,12.9 c 0.05,7.24 -0.12,14.48 0.1,21.73 6.06,-0.08 12.25,0.66 18.23,-0.6 6.58,-1.42 9.34,-9.72 6.61,-15.41 -1.45,-3.52 -5.23,-5.86 -9.02,-5.72 -5.31,-0.03 -10.61,0.01 -15.92,0 z"
       id="path2" />
    <path
       fill="#fefefe"
       opacity="1"
       d="m 91.41,1.56 c 10.16,-3.04 21.57,-1.21 30.4,4.61 9.16,5.71 14.42,16.18 15.89,26.64 0.52,6.44 0.2,13.02 -1.77,19.21 -3.4,11.17 -12.48,20.6 -23.85,23.64 -9.2,2.35 -19.44,1.97 -27.93,-2.57 C 74.9,68.28 68.33,59.1 65.99,49.02 63.79,39.42 64.69,29.03 69.03,20.15 73.32,11.11 81.73,4.11 91.41,1.56 m 4.01,14.04 c -7.63,2.66 -12.38,10.43 -13.67,18.12 -1.04,7.22 0.19,15.02 4.41,21.08 6.76,9.93 23.63,9.96 30.47,0.1 4.59,-6.26 5.49,-14.42 4.37,-21.91 -1,-5.65 -3.75,-11.23 -8.41,-14.73 C 107.81,14.55 101.1,13.6 95.42,15.6 Z"
       id="path3" />
    <path
       fill="#fefefe"
       opacity="1"
       d="m 146.93,7.82 c 0.71,-8.68 14.05,-9.24 17.77,-2.43 6.48,10.33 12.29,21.08 18.6,31.52 6.22,-10.07 11.45,-20.74 17.58,-30.87 2.96,-5.03 9.97,-6.48 15.04,-3.99 2.91,1.4 4.04,4.92 3.9,7.94 -0.01,20.34 0.07,40.68 -0.02,61.01 -1.1,6.84 -11.49,7.73 -15.15,2.58 -1.7,-2.89 -0.65,-6.4 -0.92,-9.56 -0.25,-11.45 0.48,-22.98 -0.35,-34.38 -4.22,7.67 -8.53,15.29 -12.78,22.94 -1.7,3.37 -5.65,5.8 -9.43,4.36 -3.87,-0.99 -5.11,-5.14 -6.98,-8.16 -3.67,-6.33 -7.18,-12.77 -11.02,-19 -0.52,13.79 0.14,27.63 -0.34,41.42 -0.82,5.41 -7.6,6.64 -11.92,4.96 -3.28,-1.21 -4.78,-4.88 -4.48,-8.17 0.18,-10.01 -0.29,-20.05 0.45,-30.04 0.03,-10.04 -0.09,-20.09 0.05,-30.13 z"
       id="path4" />
    <path
       fill="#fefefe"
       opacity="1"
       d="m 304.15,1.2 c 8.25,-2.33 17.16,-0.67 24.8,2.89 3.71,1.96 8.14,5.23 7.47,9.99 0.07,5.12 -6.44,9.56 -10.89,6.13 -4.33,-3.41 -9.69,-6.41 -15.41,-5.43 -7.53,0.95 -13.01,7.4 -15.42,14.21 -2.3,7.18 -2.08,15.27 1,22.2 2.52,5.67 7.96,10.12 14.23,10.74 6.02,0.9 12.28,-1.25 16.5,-5.62 4.12,-3.85 10.86,0.72 11.03,5.71 0.43,2.86 -0.82,5.7 -3.06,7.47 -7.59,6.85 -18.57,8.61 -28.4,7.16 -9.61,-1.29 -18.55,-7.14 -23.43,-15.54 -7.06,-11.65 -7.91,-26.83 -2.71,-39.35 4.02,-10.35 13.45,-18.25 24.29,-20.56 z"
       id="path5" />
    <path
       fill="#fefefe"
       opacity="1"
       d="m 368.42,1.62 c 9.96,-2.88 21.01,-1.28 29.85,4.11 8.11,5.12 13.83,13.72 15.56,23.14 1.88,10.12 1.3,21.14 -3.84,30.27 -5.3,9.81 -15.69,16.93 -26.91,17.6 -10.77,1.5 -22.45,-1.87 -29.94,-9.98 -9.7,-9.42 -12.33,-24.09 -9.75,-36.98 2.23,-13.05 12.01,-24.85 25.03,-28.16 m 4.05,14.02 c -8.81,3.42 -13.57,13.33 -13.38,22.4 -0.29,6.87 1.5,14.32 6.69,19.14 7.35,7.45 21.2,6.76 27.57,-1.66 7.99,-10.9 6.97,-28.33 -3.76,-37.1 -4.74,-3.75 -11.43,-4.79 -17.12,-2.78 z"
       id="path6" />
    <path
       fill="#fefefe"
       opacity="1"
       d="m 88.82,38.25 c -2.24,-4.17 1.56,-9.65 6.18,-9.42 2.58,-0.12 4.65,1.54 6.59,3 2.33,-3.66 7.69,-4.25 10.91,-1.45 2.91,2.64 2.99,7.52 0.46,10.44 -3.28,4.2 -7.34,7.74 -11.61,10.9 C 96.7,47.74 91.51,43.89 88.82,38.25 Z"
       id="path7" />
    <path
       fill="#fefefe"
       opacity="1"
       d="m 231.44,33.48 c 1.43,-0.71 2.8,-1.82 4.48,-1.74 8.69,-0.01 17.39,-0.03 26.08,0.02 2.38,-0.33 3.88,1.69 5.16,3.34 1.01,3.92 0.54,9.77 -4.3,10.73 -8.65,0.2 -17.31,0.05 -25.97,0.07 -2.62,0.08 -5.5,-1.31 -6.36,-3.93 -0.56,-2.83 -0.59,-5.93 0.91,-8.49 z"
       id="path8" />
    <path
       fill="#fefefe"
       opacity="1"
       d="m 339.64,92.48 c -1.63,-1.41 -0.39,-3.35 0.23,-4.92 3.18,-0.47 5.21,2.27 7.67,3.72 12.49,7.89 28.14,10.92 42.61,7.67 8.42,-1.72 16.28,-5.64 23,-10.96 2.51,-1.66 4.38,1.84 3.9,4.06 -8.8,9.97 -22.05,14.43 -34.92,15.95 h -7.65 c -12.74,-1.46 -26.03,-5.75 -34.84,-15.52 z"
       id="path9" />
  </g>
</svg>
