<?xml version="1.0" encoding="UTF-8" standalone="no"?>
<svg
   width="800pt"
   height="200pt"
   viewBox="0 0 800 200"
   version="1.1"
   id="svg14"
   sodipodi:docname="space.svg"
   inkscape:version="1.4.2 (f4327f4, 2025-05-13)"
   xmlns:inkscape="http://www.inkscape.org/namespaces/inkscape"
   xmlns:sodipodi="http://sodipodi.sourceforge.net/DTD/sodipodi-0.dtd"
   xmlns="http://www.w3.org/2000/svg"
   xmlns:svg="http://www.w3.org/2000/svg">
  <defs
     id="defs14" />
  <sodipodi:namedview
     id="namedview14"
     pagecolor="#ffffff"
     bordercolor="#000000"
     borderopacity="0.25"
     inkscape:showpageshadow="2"
     inkscape:pageopacity="0.0"
     inkscape:pagecheckerboard="true"
     inkscape:deskcolor="#d1d1d1"
     inkscape:document-units="pt"
     inkscape:zoom="1.708125"
     inkscape:cx="533.33333"
     inkscape:cy="133.47969"
     inkscape:window-width="1920"
     inkscape:window-height="1130"
     inkscape:window-x="-6"
     inkscape:window-y="-6"
     inkscape:window-maximized="1"
     inkscape:current-layer="svg14" />
  <g
     id="#fefefeff"
     transform="translate(171,62.5)">
    <path
       fill="#fefefe"
       opacity="1.00"
       d=" M 42.62 0.00 L 84.57 0.00 C 85.24 0.21 86.59 0.62 87.26 0.83 C 87.33 3.87 87.51 6.93 87.22 9.97 C 85.34 11.97 82.45 10.70 80.09 10.82 C 67.73 10.75 55.37 10.75 43.01 10.79 C 39.17 11.11 34.74 10.95 31.79 13.85 C 28.60 16.82 28.63 21.69 29.52 25.62 C 30.75 29.84 35.63 30.95 39.44 31.40 C 48.93 31.76 58.45 31.33 67.95 31.63 C 75.53 32.13 84.19 33.74 88.79 40.46 C 92.59 46.59 92.60 54.35 91.14 61.19 C 89.91 67.10 85.00 71.30 79.64 73.48 C 76.77 74.34 73.64 73.88 70.84 75.00 L 17.65 75.00 C 16.62 71.37 16.88 67.48 17.55 63.81 C 34.37 63.90 51.18 63.80 68.00 63.86 C 71.78 63.96 76.24 63.07 78.31 59.54 C 80.51 55.21 80.52 49.52 77.54 45.54 C 74.93 42.63 70.74 41.89 67.01 41.78 C 58.33 41.76 49.65 41.83 40.96 41.75 C 34.54 41.59 27.76 40.60 22.55 36.54 C 17.79 32.58 16.93 25.88 17.07 20.06 C 17.08 14.10 19.18 7.68 24.35 4.26 C 29.68 0.50 36.43 0.65 42.62 0.00 Z"
       id="path1" />
    <path
       fill="#fefefe"
       opacity="1.00"
       d=" M 106.07 0.00 L 160.61 0.00 C 165.38 1.29 170.53 2.19 174.36 5.58 C 179.96 10.28 181.32 18.04 181.35 24.98 C 181.18 31.37 179.79 38.38 174.81 42.85 C 170.21 47.58 163.33 48.65 157.03 48.85 C 143.78 48.99 130.52 48.70 117.27 48.94 C 117.30 54.94 117.25 60.93 117.30 66.93 C 117.26 69.52 117.66 72.29 116.23 74.62 C 112.81 74.52 109.37 74.77 105.96 74.43 C 104.84 73.28 105.40 71.50 105.22 70.07 C 105.27 48.39 105.24 26.70 105.24 5.02 C 105.12 3.05 105.64 0.88 107.74 0.01 L 106.07 0.00 M 117.28 11.17 C 117.46 20.30 116.97 29.47 117.54 38.58 C 128.06 38.48 138.56 38.29 149.07 38.54 C 154.54 38.04 160.79 39.01 165.40 35.38 C 169.18 32.07 169.04 26.60 168.89 22.01 C 168.86 17.67 166.19 13.35 161.90 12.08 C 155.17 9.99 148.01 10.93 141.08 10.94 C 133.16 11.33 125.22 11.06 117.28 11.17 Z"
       id="path2" />
    <path
       fill="#fefefe"
       opacity="1.00"
       d=" M 263.14 0.00 L 263.48 0.00 C 263.70 2.93 264.24 6.30 266.81 8.14 C 268.44 9.06 270.26 9.54 272.03 10.15 C 269.85 10.71 267.21 10.81 265.72 12.73 C 264.35 14.63 263.96 16.99 263.29 19.19 C 262.62 16.88 262.28 14.29 260.63 12.44 C 258.75 10.93 256.35 10.36 253.99 10.29 C 256.05 9.64 258.21 9.16 260.05 8.00 C 262.44 6.08 262.42 2.74 263.14 0.00 Z"
       id="path3" />
    <path
       fill="#fefefe"
       opacity="1.00"
       d=" M 310.89 0.00 L 350.68 0.00 C 351.29 0.18 352.51 0.53 353.11 0.71 C 353.20 4.05 353.23 7.40 352.99 10.74 C 343.35 10.85 333.70 10.71 324.05 10.80 C 317.99 11.28 311.70 10.84 305.93 13.08 C 298.92 15.59 293.00 21.51 291.37 28.88 C 289.24 37.66 290.00 47.86 296.01 55.00 C 300.75 60.95 308.50 63.61 315.91 63.80 C 327.95 63.95 340.00 63.67 352.04 63.92 C 352.29 64.16 352.81 64.65 353.07 64.89 C 353.36 68.26 353.28 71.67 352.64 75.00 L 313.34 75.00 C 308.11 73.43 302.49 73.08 297.57 70.50 C 288.31 66.49 281.66 57.66 279.50 47.91 C 277.01 37.31 278.01 25.44 284.14 16.21 C 290.13 6.65 301.23 1.17 312.34 0.61 L 310.89 0.00 Z"
       id="path4" />
    <path
       fill="#fefefe"
       opacity="1.00"
       d=" M 394.05 0.00 L 436.53 0.00 C 439.22 2.52 437.79 6.67 437.84 9.95 C 437.58 10.13 437.05 10.49 436.79 10.67 C 425.21 10.94 413.61 10.67 402.03 10.80 C 396.00 11.04 389.46 11.53 384.56 15.45 C 379.83 19.35 378.38 25.67 377.61 31.46 C 392.08 31.58 406.55 31.49 421.02 31.54 C 424.37 31.81 427.13 29.60 429.98 28.21 C 437.84 23.69 445.87 18.96 451.88 12.03 C 453.41 10.35 454.33 7.35 452.32 5.65 C 449.14 3.09 444.74 3.57 440.94 3.10 C 442.19 1.08 444.92 1.84 446.89 1.77 C 450.99 2.04 456.31 2.55 458.00 7.02 L 458.00 9.52 C 453.75 18.73 444.54 24.19 436.32 29.46 C 416.64 40.96 395.27 49.96 372.82 54.27 C 364.39 55.59 355.32 57.42 347.17 53.93 C 343.72 52.49 343.22 47.97 345.12 45.09 C 348.72 38.94 354.72 34.61 360.78 31.11 C 360.75 31.52 360.70 32.35 360.67 32.76 C 355.47 37.16 349.09 41.23 347.01 48.12 C 351.95 53.52 360.11 51.68 366.58 51.29 C 364.46 39.47 364.36 26.60 369.54 15.53 C 373.83 6.51 383.50 1.74 393.00 0.40 L 394.05 0.00 M 377.60 41.41 C 377.74 43.91 378.15 46.39 378.56 48.87 C 386.26 47.05 393.98 44.83 401.13 41.38 C 393.28 41.37 385.44 41.37 377.60 41.41 Z"
       id="path5" />
    <path
       fill="#fefefe"
       opacity="1.00"
       d=" M 214.33 6.51 C 215.90 3.10 219.21 0.42 223.08 0.43 C 226.71 0.40 230.87 -0.41 233.92 2.08 C 236.94 4.68 238.48 8.49 240.41 11.88 C 250.86 30.91 261.68 49.74 272.25 68.72 C 273.28 70.54 274.06 72.49 274.69 74.48 C 270.49 74.65 266.28 74.59 262.08 74.54 C 258.77 68.94 255.80 63.14 252.49 57.53 C 250.82 56.81 248.85 57.28 247.08 57.14 C 231.15 57.36 215.19 56.80 199.30 57.41 C 196.45 62.85 193.07 68.03 190.52 73.62 C 186.61 75.54 181.76 73.21 177.71 75.00 L 177.30 75.00 C 177.34 74.38 177.41 73.13 177.45 72.51 C 189.68 50.47 202.46 28.75 214.33 6.51 M 204.90 47.66 C 218.90 47.64 232.91 47.77 246.92 47.60 C 242.83 39.40 237.93 31.65 233.71 23.52 C 231.38 19.47 229.54 15.16 227.03 11.21 C 226.53 11.22 225.54 11.24 225.04 11.25 C 218.19 23.29 211.42 35.43 204.90 47.66 Z"
       id="path6" />
    <path
       fill="#fefefe"
       opacity="1.00"
       d=" M 89.44 19.25 C 90.02 20.12 90.72 20.88 91.59 21.47 C 90.78 22.45 89.99 23.46 89.51 24.65 C 89.44 22.78 87.81 21.97 86.26 21.44 C 87.81 21.64 89.16 20.86 89.44 19.25 Z"
       id="path7" />
    <path
       fill="#fefefe"
       opacity="1.00"
       d=" M 138.38 25.58 C 139.73 25.43 140.27 24.41 140.62 23.23 C 141.10 24.33 141.88 25.22 142.79 25.99 C 141.78 26.78 140.98 27.76 140.46 28.94 C 140.24 27.54 139.42 26.47 138.38 25.58 Z"
       id="path8" />
    <path
       fill="#fefefe"
       opacity="1.00"
       d=" M 320.22 34.18 C 321.35 32.26 321.51 29.95 322.35 27.90 C 322.69 30.38 323.00 33.16 324.95 34.95 C 326.87 36.62 329.55 36.83 331.92 37.46 C 329.23 37.73 326.26 38.17 324.37 40.30 C 322.78 42.15 322.75 44.70 322.54 46.99 C 321.96 44.33 321.02 41.75 319.55 39.45 C 317.68 38.60 315.75 37.91 313.80 37.29 C 316.04 36.60 318.81 36.32 320.22 34.18 Z"
       id="path9" />
    <path
       fill="#fefefe"
       opacity="1.00"
       d=" M 225.36 34.13 C 226.17 34.76 226.99 35.43 227.80 36.08 C 226.62 36.64 225.78 37.49 225.60 38.83 C 224.95 37.85 224.23 36.90 223.55 35.93 C 224.00 35.48 224.91 34.58 225.36 34.13 Z"
       id="path10" />
    <path
       fill="#fefefe"
       opacity="1.00"
       d=" M 421.15 41.09 C 426.21 38.61 431.03 35.58 436.25 33.45 C 436.40 35.97 436.39 38.50 436.09 41.00 C 431.14 41.72 426.11 41.36 421.15 41.09 Z"
       id="path11" />
    <path
       fill="#fefefe"
       opacity="1.00"
       d=" M 6.34 49.42 C 7.80 47.59 8.19 45.20 8.89 43.02 C 9.42 44.90 9.87 46.81 10.71 48.57 C 12.23 51.01 15.27 51.38 17.82 52.08 C 15.44 52.81 12.52 53.05 10.96 55.26 C 9.90 57.00 9.45 59.01 8.82 60.93 C 8.41 56.58 5.01 51.41 0.00 52.75 L 0.00 51.99 C 2.09 51.12 4.67 51.11 6.34 49.42 Z"
       id="path12" />
    <path
       fill="#fefefe"
       opacity="1.00"
       d=" M 368.82 58.21 C 372.74 57.58 376.65 56.82 380.54 55.96 C 384.43 60.96 390.61 63.77 396.90 63.83 C 409.28 63.84 421.66 63.85 434.04 63.80 C 435.56 63.86 437.18 63.64 438.60 64.36 C 438.59 67.82 440.04 72.20 437.44 75.00 L 395.49 75.00 C 391.73 73.86 387.75 73.55 384.07 72.14 C 377.22 69.96 371.62 64.83 368.82 58.21 Z"
       id="path13" />
    <path
       fill="#fefefe"
       opacity="1.00"
       d=" M 149.30 66.92 C 152.18 66.85 153.62 64.47 154.42 62.04 C 154.04 65.02 156.59 66.50 159.05 67.18 C 156.71 67.54 154.99 68.92 154.18 71.17 C 153.67 68.68 151.49 67.60 149.30 66.92 Z"
       id="path14" />
  </g>
</svg>
