<?xml version="1.0" encoding="UTF-8" standalone="no"?>
<svg
   width="800pt"
   height="200pt"
   viewBox="0 0 800 200"
   version="1.1"
   id="svg10"
   sodipodi:docname="superhero.svg"
   inkscape:version="1.4.2 (f4327f4, 2025-05-13)"
   xmlns:inkscape="http://www.inkscape.org/namespaces/inkscape"
   xmlns:sodipodi="http://sodipodi.sourceforge.net/DTD/sodipodi-0.dtd"
   xmlns="http://www.w3.org/2000/svg"
   xmlns:svg="http://www.w3.org/2000/svg">
  <defs
     id="defs10" />
  <sodipodi:namedview
     id="namedview10"
     pagecolor="#ffffff"
     bordercolor="#000000"
     borderopacity="0.25"
     inkscape:showpageshadow="2"
     inkscape:pageopacity="0.0"
     inkscape:pagecheckerboard="true"
     inkscape:deskcolor="#d1d1d1"
     inkscape:document-units="pt"
     inkscape:zoom="1.7429847"
     inkscape:cx="524.38785"
     inkscape:cy="48.766923"
     inkscape:window-width="1920"
     inkscape:window-height="1130"
     inkscape:window-x="-6"
     inkscape:window-y="-6"
     inkscape:window-maximized="1"
     inkscape:current-layer="#fefefeff" />
  <g
     id="#fefefeff"
     style="fill:#1a1a1a"
     transform="translate(204,62)">
    <g
       id="g10"
       style="fill:#ffffff">
      <path
         fill="#fefefe"
         opacity="1.00"
         d=" M 26.00 0.00 L 32.45 0.00 C 33.40 4.69 34.08 9.43 34.82 14.16 C 28.55 14.27 22.26 13.92 15.99 14.29 C 14.98 15.62 15.41 17.40 15.28 18.95 C 15.36 22.58 15.10 26.24 15.49 29.86 C 20.04 32.56 26.22 29.35 30.98 32.09 C 33.99 33.39 35.14 36.82 35.07 39.87 C 35.18 46.90 35.05 53.94 35.12 60.97 C 35.13 64.96 34.93 69.29 32.45 72.61 C 30.52 75.02 27.29 75.66 24.39 76.00 L 3.91 76.00 C 2.88 71.43 1.97 66.84 0.94 62.27 C 6.65 62.05 12.39 62.52 18.08 62.02 C 20.10 61.95 19.93 59.63 20.10 58.17 C 20.02 53.50 20.57 48.73 19.59 44.13 C 14.33 41.78 7.65 45.22 2.91 41.24 C -0.42 38.57 0.63 33.86 0.00 30.16 L 0.00 13.00 C 0.16 9.10 0.70 4.63 4.22 2.24 C 10.62 -1.96 18.96 1.88 26.00 0.00 Z"
         id="path1"
         style="fill:#ffffff" />
      <path
         fill="#fefefe"
         opacity="1.00"
         d=" M 41.43 0.00 L 56.96 0.00 C 57.17 19.71 56.96 39.43 57.06 59.15 C 57.10 60.30 57.18 61.64 58.14 62.43 C 60.82 62.76 63.57 62.76 66.24 62.35 C 66.55 60.94 66.60 59.49 66.62 58.05 C 66.58 38.82 66.62 19.59 66.59 0.36 C 71.73 0.37 76.87 0.35 82.01 0.37 C 81.78 19.24 81.97 38.11 81.92 56.98 C 81.83 61.95 82.63 67.38 79.75 71.79 C 78.01 74.85 74.25 75.52 71.06 76.00 L 52.03 76.00 C 46.34 75.65 41.55 70.85 41.73 65.06 C 41.67 43.36 41.34 21.70 41.43 0.00 Z"
         id="path2"
         style="fill:#ffffff" />
      <path
         fill="#fefefe"
         opacity="1"
         d="M 134.63,0 H 153 c 11.97706,-0.14582743 12.06,-0.24 13.03,5.13 0.5,3 1.03,6 1.59,9 -5.77,-0.49 -11.58,-0.46 -17.35,0.02 0.03,5.59 0.01,11.18 0.02,16.76 h 13.17 c 0,4.24 -0.01,8.49 -0.01,12.73 -4.38,0 -8.76,-0.03 -13.14,0.05 -0.05,6.18 -0.01,12.36 -0.02,18.55 5.65,0 11.3,-0.04 16.95,-0.02 -0.74,4.6 -1.49,9.21 -2.41,13.78 h -30.25 c 0.03,-25.33 -0.08,-50.67 0.05,-76 z"
         id="path3"
         style="fill:#ffffff"
         sodipodi:nodetypes="cccccccccccccc" />
      <path
         fill="#fefefe"
         opacity="1.00"
         d=" M 183.34 0.00 L 204.92 0.00 C 209.09 1.10 212.73 4.49 212.98 8.97 C 213.44 17.98 213.06 27.00 213.20 36.02 C 213.14 39.69 213.58 43.59 211.88 46.99 C 210.79 49.28 208.32 50.30 206.29 51.55 C 209.30 59.62 211.68 67.91 214.66 76.00 L 198.70 76.00 C 196.15 67.76 193.61 59.52 191.10 51.27 C 190.48 51.27 189.24 51.27 188.62 51.27 C 188.56 59.51 188.64 67.76 188.61 76.00 L 173.33 76.00 C 173.31 50.85 173.35 25.70 173.32 0.56 L 183.34 0.00 M 188.62 13.09 C 188.61 21.82 188.61 30.56 188.61 39.29 C 191.38 39.29 194.16 39.30 196.93 39.24 C 197.25 38.75 197.88 37.77 198.20 37.28 C 198.20 29.87 198.19 22.45 198.20 15.04 C 197.86 14.56 197.19 13.61 196.85 13.14 C 194.10 13.07 191.36 13.08 188.62 13.09 Z"
         id="path4"
         style="fill:#ffffff" />
      <path
         fill="#fefefe"
         opacity="1.00"
         d=" M 267.21 0.00 L 297.36 0.00 C 298.24 4.61 298.94 9.26 299.87 13.87 C 294.12 13.77 288.38 13.83 282.63 13.81 C 282.65 19.51 282.64 25.21 282.63 30.91 C 286.99 30.91 291.34 30.91 295.71 30.92 C 295.80 35.16 295.84 39.40 295.49 43.63 C 291.21 43.65 286.92 43.64 282.64 43.64 C 282.62 49.84 282.64 56.03 282.64 62.22 C 288.29 62.22 293.94 62.20 299.59 62.23 C 298.77 66.81 298.07 71.41 297.25 75.99 L 298.29 76.00 L 266.94 76.00 C 266.94 52.67 266.95 29.34 266.93 6.01 C 266.94 4.00 267.02 2.00 267.21 0.00 Z"
         id="path5"
         style="fill:#ffffff" />
      <path
         fill="#fefefe"
         opacity="1.00"
         d=" M 313.66 0.00 L 315.26 0.00 C 321.05 0.15 332.64 0.46 338.43 0.61 C 342.74 1.84 345.34 6.08 345.46 10.41 C 345.70 18.93 345.42 27.47 345.54 36.00 C 345.54 39.75 345.84 43.72 344.15 47.20 C 343.20 49.52 340.64 50.32 338.68 51.53 C 341.59 59.62 344.11 67.84 346.79 76.00 L 331.11 76.00 C 328.35 67.80 325.98 59.48 323.35 51.24 C 322.47 51.27 321.60 51.31 320.73 51.34 C 320.65 59.56 320.70 67.78 320.69 76.00 L 305.37 76.00 C 305.36 50.85 305.39 25.70 305.34 0.56 L 313.66 0.00 M 320.69 13.09 C 320.69 21.82 320.68 30.55 320.69 39.28 C 323.85 38.86 327.67 40.34 330.36 38.26 C 330.70 30.02 330.73 21.71 330.31 13.47 C 327.13 12.90 323.90 13.09 320.69 13.09 Z"
         id="path6"
         style="fill:#ffffff" />
      <path
         fill="#fefefe"
         opacity="1.00"
         d=" M 363.82 0.00 L 381.62 0.00 C 380.92 1.47 380.20 2.93 379.37 4.33 C 371.36 17.58 363.67 31.02 355.28 44.03 C 360.03 44.02 364.77 44.00 369.52 44.06 C 366.32 54.53 362.91 64.95 359.43 75.34 C 355.48 73.44 352.25 69.76 352.19 65.20 C 352.06 47.43 352.21 29.66 352.12 11.89 C 351.95 8.73 352.80 5.41 355.05 3.08 C 357.38 0.85 360.74 0.37 363.82 0.00 Z"
         id="path7"
         style="fill:#ffffff" />
      <path
         fill="#fefefe"
         opacity="1.00"
         d=" M 88.56 0.15 C 98.72 0.65 108.90 0.12 119.07 0.41 C 122.73 0.49 126.50 2.84 127.60 6.44 C 128.84 10.86 128.19 15.51 128.33 20.04 C 128.10 28.78 128.81 37.56 127.77 46.26 C 127.53 50.30 124.17 53.65 120.16 54.00 C 114.87 54.46 109.54 54.03 104.23 54.23 C 104.11 61.49 104.21 68.74 104.16 76.00 L 88.52 76.00 C 88.54 50.72 88.51 25.43 88.56 0.15 M 105.90 24.67 C 103.18 24.73 100.46 24.97 97.74 25.20 C 99.79 26.83 101.83 28.46 103.85 30.12 C 103.18 32.66 102.55 35.20 101.95 37.75 C 104.26 36.40 106.55 35.03 108.85 33.67 C 110.96 35.07 113.08 36.46 115.18 37.89 C 114.56 35.32 113.98 32.74 113.40 30.17 C 115.42 28.50 117.44 26.84 119.48 25.20 C 116.72 24.89 113.96 24.69 111.18 24.63 C 110.34 22.06 109.48 19.49 108.64 16.92 C 107.74 19.51 106.84 22.10 105.90 24.67 Z"
         id="path8"
         style="fill:#ffffff" />
      <path
         fill="#fefefe"
         opacity="1.00"
         d=" M 219.83 0.38 C 225.05 0.36 230.27 0.36 235.49 0.37 C 235.49 10.55 235.49 20.73 235.49 30.91 C 238.54 30.91 241.60 30.91 244.66 30.91 C 244.65 20.73 244.65 10.55 244.64 0.36 C 249.86 0.36 255.09 0.37 260.31 0.38 C 260.36 25.58 260.33 50.79 260.34 76.00 L 244.66 76.00 C 244.66 65.21 244.65 54.43 244.65 43.64 C 241.60 43.64 238.56 43.63 235.51 43.68 C 235.46 54.45 235.51 65.23 235.48 76.00 L 220.14 76.00 C 220.04 59.92 220.37 43.83 219.85 27.76 C 220.64 18.64 219.61 9.51 219.83 0.38 Z"
         id="path9"
         style="fill:#ffffff" />
      <path
         fill="#fefefe"
         opacity="1.00"
         d=" M 374.17 31.29 C 377.55 21.04 380.53 10.63 384.45 0.57 C 387.34 2.21 390.29 4.25 391.26 7.63 C 391.44 11.52 391.81 19.28 392.00 23.16 L 392.00 61.95 C 391.58 65.65 391.34 69.79 388.64 72.64 C 386.75 74.83 383.81 75.58 381.08 76.00 L 361.80 76.00 C 370.07 60.86 379.24 46.22 387.90 31.29 C 383.32 31.26 378.74 31.27 374.17 31.29 Z"
         id="path10"
         style="fill:#ffffff" />
    </g>
  </g>
</svg>
