<?xml version="1.0" encoding="UTF-8" standalone="no"?>
<svg
   width="800pt"
   height="200pt"
   viewBox="0 0 800 200"
   version="1.1"
   id="svg19"
   sodipodi:docname="time-travel.svg"
   inkscape:version="1.4.2 (f4327f4, 2025-05-13)"
   xmlns:inkscape="http://www.inkscape.org/namespaces/inkscape"
   xmlns:sodipodi="http://sodipodi.sourceforge.net/DTD/sodipodi-0.dtd"
   xmlns="http://www.w3.org/2000/svg"
   xmlns:svg="http://www.w3.org/2000/svg">
  <defs
     id="defs19" />
  <sodipodi:namedview
     id="namedview19"
     pagecolor="#ffffff"
     bordercolor="#000000"
     borderopacity="0.25"
     inkscape:showpageshadow="2"
     inkscape:pageopacity="0.0"
     inkscape:pagecheckerboard="true"
     inkscape:deskcolor="#d1d1d1"
     inkscape:document-units="pt"
     inkscape:zoom="1.708125"
     inkscape:cx="533.33333"
     inkscape:cy="133.47969"
     inkscape:window-width="1920"
     inkscape:window-height="1130"
     inkscape:window-x="-6"
     inkscape:window-y="-6"
     inkscape:window-maximized="1"
     inkscape:current-layer="svg19" />
  <g
     id="#fefefeff"
     transform="translate(48.5,61.5)">
    <path
       fill="#fefefe"
       opacity="1.00"
       d=" M 352.26 0.00 L 352.66 0.00 C 353.24 3.43 353.35 6.91 353.21 10.38 C 351.53 10.93 349.82 11.51 348.03 11.38 C 340.78 11.31 333.53 11.44 326.28 11.24 C 326.14 33.16 326.45 55.08 326.13 77.00 L 315.26 77.00 C 314.93 75.03 314.81 73.04 314.83 71.04 C 314.89 51.13 314.81 31.21 314.87 11.29 C 312.34 11.12 309.82 11.06 307.29 10.90 C 303.31 10.91 299.31 10.74 295.34 11.19 C 293.02 11.43 290.58 11.49 288.43 10.43 C 287.62 7.26 288.70 3.86 288.67 0.61 C 307.46 0.60 326.26 0.59 345.05 0.62 C 347.44 0.48 350.05 1.22 352.26 0.00 Z"
       id="path1" />
    <path
       fill="#fefefe"
       opacity="1.00"
       d=" M 0.76 0.66 C 21.85 0.64 42.96 0.41 64.04 0.77 C 65.86 3.20 64.47 7.28 64.92 10.33 C 63.63 10.73 62.38 11.41 61.00 11.34 C 53.29 11.41 45.59 11.31 37.89 11.34 C 37.86 21.91 37.78 32.49 37.90 43.06 C 38.38 48.37 38.64 53.72 38.08 59.03 C 37.42 65.00 38.36 71.05 37.52 77.00 L 26.70 77.00 C 26.09 55.14 26.61 33.24 26.44 11.36 C 19.29 11.33 12.14 11.35 4.99 11.37 C 3.27 11.47 1.62 10.94 0.00 10.43 L 0.00 1.68 C 0.19 1.42 0.57 0.91 0.76 0.66 Z"
       id="path2" />
    <path
       fill="#fefefe"
       opacity="1.00"
       d=" M 74.62 0.69 C 78.31 0.67 82.05 0.26 85.70 0.94 C 86.22 21.60 85.76 42.30 85.92 62.97 C 85.81 67.65 86.28 72.36 85.54 77.00 L 74.72 77.00 C 74.31 51.57 74.50 26.12 74.62 0.69 Z"
       id="path3" />
    <path
       fill="#fefefe"
       opacity="1.00"
       d=" M 100.94 11.04 C 100.99 7.56 100.57 3.99 101.70 0.63 C 106.14 0.69 110.58 0.39 115.01 0.75 C 118.11 1.71 119.02 5.13 120.25 7.75 C 127.17 22.97 134.17 38.15 141.33 53.25 C 148.54 37.49 155.98 21.84 163.10 6.05 C 164.21 3.99 165.06 1.07 167.77 0.70 C 171.84 0.52 175.94 0.48 180.00 0.73 C 182.04 1.79 181.33 4.18 181.48 6.03 C 181.34 29.68 181.63 53.35 181.33 77.00 L 170.46 77.00 C 170.14 75.34 170.03 73.66 170.04 71.97 C 170.06 55.98 170.04 39.99 170.07 23.99 C 170.07 21.62 169.91 19.26 169.67 16.90 C 164.58 29.42 158.09 41.30 152.53 53.61 C 150.68 57.07 149.33 60.83 147.07 64.04 C 143.68 65.87 139.49 64.57 135.79 64.94 C 133.88 62.52 132.81 59.62 131.46 56.88 C 124.96 43.79 119.16 30.37 112.66 17.28 C 111.98 22.49 112.49 27.74 112.82 32.96 C 112.87 45.61 112.83 58.27 112.89 70.93 C 112.86 72.99 113.12 75.20 111.91 77.00 L 101.26 77.00 C 100.78 72.68 100.96 68.32 100.94 63.98 C 100.94 46.33 100.95 28.68 100.94 11.04 Z"
       id="path4" />
    <path
       fill="#fefefe"
       opacity="1.00"
       d=" M 196.47 1.24 C 201.22 0.04 206.17 0.79 211.01 0.60 C 224.24 0.75 237.50 0.30 250.72 0.82 C 251.61 4.02 251.07 7.39 250.74 10.63 C 248.54 11.19 246.29 11.45 244.02 11.38 C 231.98 11.26 219.94 11.51 207.90 11.23 C 207.97 18.22 207.75 25.21 207.99 32.19 C 215.74 33.27 223.95 31.94 231.84 32.87 C 231.95 36.04 231.94 39.22 231.93 42.40 C 224.01 43.11 216.04 42.48 208.10 42.76 C 207.75 50.24 207.86 57.74 207.95 65.22 C 207.63 67.11 209.79 66.70 210.93 66.79 C 224.32 66.82 237.71 66.69 251.11 66.85 C 251.06 70.23 251.67 73.78 250.32 77.00 L 199.05 77.00 C 198.18 76.60 197.32 76.17 196.48 75.73 C 196.49 50.90 196.49 26.07 196.47 1.24 Z"
       id="path5" />
    <path
       fill="#fefefe"
       opacity="1.00"
       d=" M 362.40 4.99 C 362.31 3.44 362.91 2.00 363.43 0.57 C 375.64 0.63 387.84 0.59 400.05 0.59 C 408.26 0.52 416.85 4.88 420.22 12.63 C 423.30 20.26 423.39 29.29 419.85 36.79 C 416.99 42.43 410.98 45.33 405.18 47.02 C 408.79 52.72 412.24 58.52 415.95 64.15 C 418.49 68.42 421.65 72.36 423.50 77.00 L 410.67 77.00 C 408.10 73.93 406.25 70.36 404.09 67.01 C 400.24 60.68 396.08 54.55 392.31 48.17 C 386.32 48.07 380.32 48.15 374.33 48.13 C 374.29 57.75 374.44 67.38 374.23 77.00 L 363.42 77.00 C 362.72 75.44 362.31 73.77 362.41 72.05 C 362.44 49.69 362.42 27.34 362.40 4.99 M 374.32 10.86 C 374.35 19.87 374.33 28.88 374.33 37.89 C 381.90 37.88 389.47 37.93 397.04 37.88 C 401.99 37.67 407.39 35.30 409.34 30.44 C 411.03 26.22 410.80 21.24 408.93 17.12 C 406.41 12.59 400.96 10.96 396.09 10.85 C 388.83 10.80 381.57 10.82 374.32 10.86 Z"
       id="path6" />
    <path
       fill="#fefefe"
       opacity="1.00"
       d=" M 453.00 18.25 C 455.52 12.33 457.43 6.09 460.84 0.58 C 465.54 -0.36 470.28 0.75 475.02 0.75 C 478.57 7.91 481.17 15.48 484.26 22.85 C 489.49 36.36 495.31 49.63 500.57 63.13 C 502.33 67.73 504.56 72.17 505.64 77.00 L 493.93 77.00 C 490.51 70.93 488.76 64.06 485.87 57.72 C 473.59 57.75 461.31 57.73 449.03 57.72 C 446.16 64.06 444.52 70.98 441.00 77.00 L 429.33 77.00 C 429.86 75.02 430.48 73.06 431.30 71.17 C 438.59 53.55 445.55 35.80 453.00 18.25 M 467.36 11.52 C 462.67 23.58 457.69 35.52 453.06 47.60 C 462.71 47.44 472.36 47.55 482.01 47.54 C 477.03 35.58 472.40 23.46 467.36 11.52 Z"
       id="path7" />
    <path
       fill="#fefefe"
       opacity="1.00"
       d=" M 498.18 0.96 C 502.15 0.30 506.20 0.73 510.21 0.66 C 518.95 22.25 527.45 43.95 536.66 65.34 C 545.64 43.86 553.97 22.11 562.95 0.63 C 566.90 0.79 570.96 0.17 574.85 1.05 C 575.13 2.47 574.30 3.74 573.86 5.02 C 563.61 28.91 553.92 53.05 543.81 77.00 L 529.43 77.00 C 526.57 72.56 525.26 67.34 523.13 62.54 C 515.53 44.79 508.48 26.82 500.87 9.07 C 499.85 6.42 498.21 3.87 498.18 0.96 Z"
       id="path8" />
    <path
       fill="#fefefe"
       opacity="1.00"
       d=" M 584.15 2.15 C 584.49 1.74 585.16 0.93 585.50 0.52 C 603.39 0.79 621.29 0.39 639.17 0.73 C 638.96 4.09 640.62 7.58 638.92 10.74 C 624.60 11.62 610.25 11.29 595.91 11.37 C 595.84 17.58 596.04 23.79 595.81 29.99 C 592.25 31.44 587.94 31.76 584.03 31.89 C 584.13 21.98 583.86 12.05 584.15 2.15 Z"
       id="path9" />
    <path
       fill="#fefefe"
       opacity="1.00"
       d=" M 652.11 0.73 C 655.81 0.52 659.53 0.54 663.23 0.74 C 663.39 14.85 663.42 28.97 663.21 43.08 C 659.51 43.96 655.75 44.67 651.93 44.50 C 652.04 29.91 651.70 15.31 652.11 0.73 Z"
       id="path10" />
    <path
       fill="#fefefe"
       opacity="1.00"
       d=" M 262.33 6.26 C 262.82 6.37 263.81 6.59 264.31 6.70 C 264.35 7.14 264.42 8.02 264.46 8.46 C 263.31 10.42 261.99 12.28 260.46 13.97 C 259.78 13.29 259.04 12.62 258.59 11.75 C 259.73 9.85 261.07 8.09 262.33 6.26 Z"
       id="path11" />
    <path
       fill="#fefefe"
       opacity="1.00"
       d=" M 244.56 20.39 C 245.90 20.04 247.27 19.86 248.65 19.71 C 248.88 26.14 248.70 32.58 248.75 39.02 C 253.18 41.66 257.22 44.92 261.83 47.25 C 261.28 48.46 260.68 49.63 260.02 50.78 C 254.84 47.57 249.75 44.25 244.63 40.96 C 244.53 34.11 244.64 27.25 244.56 20.39 Z"
       id="path12" />
    <path
       fill="#fefefe"
       opacity="1.00"
       d=" M 271.07 22.12 C 273.06 21.14 275.01 20.05 277.03 19.12 C 278.71 19.09 278.85 20.73 278.89 21.98 C 276.50 22.95 274.30 24.66 271.63 24.72 C 271.49 24.07 271.21 22.77 271.07 22.12 Z"
       id="path13" />
    <path
       fill="#fefefe"
       opacity="1.00"
       d=" M 668.18 27.00 C 670.46 27.00 672.75 27.27 674.97 27.83 C 676.78 29.47 679.09 30.97 679.44 33.60 C 680.02 37.52 678.11 41.90 674.58 43.83 C 664.33 50.03 651.87 52.35 640.04 50.66 C 630.41 49.68 621.89 44.77 613.31 40.71 C 602.23 35.29 588.43 35.30 577.79 41.78 C 575.35 43.11 574.05 45.61 572.88 48.00 C 573.64 50.36 575.45 52.04 577.54 53.26 C 577.13 53.85 576.30 55.03 575.88 55.62 C 572.50 53.58 568.69 50.54 569.60 46.06 C 572.59 39.85 579.00 36.39 585.25 34.22 C 592.92 31.76 601.23 32.41 608.84 34.80 C 618.10 37.21 625.77 43.65 635.18 45.64 C 641.00 47.43 647.14 46.96 653.14 46.84 C 660.16 45.91 667.34 44.32 673.29 40.28 C 675.10 38.99 675.90 36.89 676.66 34.89 C 676.02 30.83 671.61 29.87 668.17 29.94 C 668.17 29.20 668.18 27.73 668.18 27.00 Z"
       id="path14" />
    <path
       fill="#fefefe"
       opacity="1.00"
       d=" M 276.18 38.53 C 278.44 38.50 280.70 38.49 282.96 38.45 C 282.94 39.47 282.92 40.49 282.90 41.51 C 280.69 41.46 278.47 41.44 276.26 41.43 C 275.85 40.49 275.83 39.50 276.18 38.53 Z"
       id="path15" />
    <path
       fill="#fefefe"
       opacity="1.00"
       d=" M 584.06 41.01 C 587.84 39.53 591.86 38.82 595.94 39.05 C 595.96 48.29 595.88 57.53 595.98 66.76 C 610.51 66.79 625.04 66.79 639.57 66.76 C 639.69 70.13 640.91 74.06 638.74 77.00 L 585.50 77.00 C 584.27 76.05 583.90 74.60 584.03 73.12 C 584.05 62.42 583.99 51.72 584.06 41.01 Z"
       id="path16" />
    <path
       fill="#fefefe"
       opacity="1.00"
       d=" M 651.93 53.12 C 654.61 52.74 657.28 52.37 659.94 51.84 C 660.79 51.80 662.49 51.72 663.34 51.68 C 663.33 56.71 663.32 61.74 663.33 66.78 C 676.55 66.91 689.79 66.51 703.00 66.98 L 703.00 77.00 L 652.34 77.00 C 651.45 69.08 652.14 61.08 651.93 53.12 Z"
       id="path17" />
    <path
       fill="#fefefe"
       opacity="1.00"
       d=" M 271.32 56.28 C 271.83 55.50 271.81 53.81 273.18 54.14 C 274.91 54.92 276.52 55.93 278.14 56.93 C 279.51 57.41 278.29 58.89 278.08 59.74 C 275.82 58.59 273.56 57.46 271.32 56.28 Z"
       id="path18" />
    <path
       fill="#fefefe"
       opacity="1.00"
       d=" M 258.17 67.40 C 258.69 66.86 259.73 65.77 260.25 65.22 C 261.81 67.53 263.16 69.97 264.59 72.38 C 263.74 72.96 262.32 75.05 261.40 73.44 C 260.03 71.60 259.16 69.45 258.17 67.40 Z"
       id="path19" />
  </g>
</svg>
