<?xml version="1.0" encoding="UTF-8" standalone="no"?>
<svg
   width="800pt"
   height="200pt"
   viewBox="0 0 800 200"
   version="1.1"
   id="svg7"
   sodipodi:docname="vampire.svg"
   inkscape:version="1.4.2 (f4327f4, 2025-05-13)"
   xmlns:inkscape="http://www.inkscape.org/namespaces/inkscape"
   xmlns:sodipodi="http://sodipodi.sourceforge.net/DTD/sodipodi-0.dtd"
   xmlns="http://www.w3.org/2000/svg"
   xmlns:svg="http://www.w3.org/2000/svg">
  <defs
     id="defs7" />
  <sodipodi:namedview
     id="namedview7"
     pagecolor="#ffffff"
     bordercolor="#000000"
     borderopacity="0.25"
     inkscape:showpageshadow="2"
     inkscape:pageopacity="0.0"
     inkscape:pagecheckerboard="true"
     inkscape:deskcolor="#d1d1d1"
     inkscape:document-units="pt"
     inkscape:zoom="1.708125"
     inkscape:cx="533.33333"
     inkscape:cy="133.47969"
     inkscape:window-width="1920"
     inkscape:window-height="1130"
     inkscape:window-x="-6"
     inkscape:window-y="-6"
     inkscape:window-maximized="1"
     inkscape:current-layer="svg7" />
  <g
     id="#fefefeff"
     transform="translate(195,56)">
    <path
       fill="#fefefe"
       opacity="1"
       d="m 85.2,0 h 1.19 c 8.36,21.29 16.26,42.76 24.62,64.05 1.78,4.58 3.87,9.33 8.11,12.18 -7.15,0 -14.29,-0.07 -21.44,0.04 2.04,-1.8 4.17,-4.34 3.41,-7.26 -1.54,-5.92 -4.03,-11.54 -6.11,-17.28 -8.07,0.45 -16.13,-0.46 -24.2,-0.12 -1.79,5.52 -3.96,10.97 -4.95,16.71 -0.53,3.25 1.45,6.13 3.98,7.95 C 64.51,76.16 59.21,76.22 53.9,76.22 59.33,72.19 61.31,65.49 63.57,59.44 70.88,39.66 77.99,19.81 85.2,0 M 82.43,18.83 C 78.95,28.64 75.41,38.42 72,48.25 c 7.21,0.08 14.42,-0.02 21.63,0.03 -2.85,-8.05 -5.9,-16.02 -8.77,-24.06 -0.71,-1.84 -1.11,-3.86 -2.43,-5.39 z"
       id="path1" />
    <path
       fill="#fefefe"
       opacity="1"
       d="M 0,1.82 C 7.25,1.79 14.49,1.87 21.74,1.79 20.5,3.05 18.94,4.2 18.51,6.01 c -0.64,3.4 0.83,6.67 1.85,9.84 5.29,14.68 10.55,29.37 16.18,43.93 0.19,0 0.57,0 0.76,0 C 42.42,45.14 47.73,30.56 52.65,15.84 54.13,11.26 55.37,4.91 50.42,1.95 55.91,1.7 61.4,1.84 66.89,1.87 62.66,3.94 60.28,8.13 58.64,12.35 50.53,33.82 42.8,55.44 34.88,76.97 34.65,78.67 32.65,78.23 32.36,76.86 26.67,62.93 21.66,48.72 16.15,34.72 12.77,26.09 9.89,17.25 6.05,8.81 4.88,5.94 2.75,3.61 0,2.18 Z"
       id="path2" />
    <path
       fill="#fefefe"
       opacity="1"
       d="m 125.78,1.86 c 4.84,-0.07 9.67,0 14.51,-0.07 7.71,19.28 15.23,38.65 23.31,57.77 6.44,-18.18 13.27,-36.23 19.71,-54.41 0.54,-1.05 0.55,-2.55 1.6,-3.24 4.44,-0.25 8.89,-0.01 13.34,-0.08 -2.06,1.93 -4.2,4.16 -4.44,7.14 -0.3,3.98 0.5,7.92 0.78,11.87 1.38,15.4 3.04,30.78 4.51,46.16 -0.9,10.05 -4.84,20.28 -12.62,27 h -0.25 c 2.72,-8.86 2.92,-18.25 2.33,-27.43 -1.73,-16.68 -3.27,-33.38 -4.85,-50.07 -7.55,19.33 -14.47,38.91 -21.61,58.4 -0.44,1.19 -1.16,2.16 -2.18,2.93 -8.66,-20.09 -16.27,-40.63 -24.81,-60.77 -1.25,15.65 -2.68,31.29 -3.76,46.95 -0.17,3.94 1.15,7.93 4.13,10.6 -0.17,6.54 0.43,13.09 2.24,19.39 h -0.32 c -7.18,-6.94 -11.77,-16.84 -10.84,-26.95 1.72,-18.38 3.38,-36.76 4.98,-55.15 0.52,-4.23 -2.75,-7.57 -5.76,-10.04 z"
       id="path3" />
    <path
       fill="#fefefe"
       opacity="1"
       d="m 210.14,1.83 c 8.64,-0.03 17.27,0 25.91,-0.02 6.87,0.1 14.12,2.11 19.09,7.09 8.5,9.52 6.47,26.89 -4.88,33.32 -7.34,4.04 -16.5,4.62 -24.34,1.65 -0.13,9.03 0.41,18.09 -0.66,27.08 -0.84,7.73 0.34,15.47 1.82,23.05 h -0.23 c -7.61,-7.15 -11.45,-17.68 -11.72,-27.98 0.07,-18.34 0.09,-36.67 0.01,-55 0.17,-3.79 -1.66,-7.34 -5,-9.19 m 15.78,3.82 c 0.03,11.46 -0.06,22.91 0.06,34.36 4.81,2.73 11.1,2.93 15.94,0.19 5.4,-3.4 7.05,-10.25 7.2,-16.23 -0.16,-5.29 -1.16,-11.14 -5.1,-15.01 C 239.2,4.51 232,4.5 225.92,5.65 Z"
       id="path4" />
    <path
       fill="#fefefe"
       opacity="1"
       d="m 267.16,2.02 c 7,-0.4 14.02,-0.2 21.02,-0.11 -3.13,2.01 -5.03,5.41 -5,9.15 -0.21,17.3 -0.02,34.61 -0.1,51.9 -0.09,4.8 0.68,10.22 4.86,13.24 -6.68,-0.01 -13.37,0.06 -20.05,-0.03 5.47,-3.92 4.33,-11.27 4.43,-17.11 0.85,-15.7 -0.33,-31.39 0,-47.1 0.33,-3.98 -1.35,-8.22 -5.16,-9.94 z"
       id="path5" />
    <path
       fill="#fefefe"
       opacity="1"
       d="m 296.23,1.88 c 8.93,-0.11 17.87,-0.06 26.8,-0.05 6.29,0.3 12.96,1.95 17.57,6.5 6.08,6.07 6.69,16.38 2.45,23.63 -2.62,4.77 -7.57,7.74 -12.65,9.24 6.89,4.22 10.07,11.94 13.49,18.87 4.13,9.11 9.19,18.41 17.63,24.22 3.12,2.28 6.83,3.49 10.56,4.37 -10.42,1.36 -21.34,-2.55 -28.46,-10.28 -9.33,-9.25 -12.04,-22.78 -20.13,-32.91 -2.53,-3.6 -7.27,-3.75 -11.1,-4.94 -0.08,8.51 -0.08,17.02 -0.03,25.53 -0.03,3.85 1.41,7.76 4.6,10.08 -6.62,0.17 -13.24,0.02 -19.86,0.08 3.36,-2.75 4.5,-7.02 4.44,-11.22 -0.05,-17.96 0.1,-35.92 -0.08,-53.87 0.04,-3.84 -1.8,-7.41 -5.23,-9.25 m 16.17,4.28 c -0.2,10.23 0.05,20.47 -0.13,30.7 6.36,3.8 16.43,2.67 20.12,-4.37 2.98,-5.95 2.82,-13.33 0.44,-19.46 -3.06,-7.8 -13.47,-9.58 -20.43,-6.87 z"
       id="path6" />
    <path
       fill="#fefefe"
       opacity="1"
       d="m 359.75,1.84 c 15.15,-0.04 30.3,0 45.45,-0.02 0.41,5.33 1.4,10.65 1.01,16.01 -1.38,-3.43 -2.74,-7.17 -6.08,-9.18 -7.24,-4.89 -16.37,-2.86 -24.55,-3.21 0.02,8.7 0.01,17.39 -0.01,26.09 2.08,-0.73 4.19,-1.4 6.33,-1.97 1.03,2.92 3.41,4.99 6.51,5.47 -0.1,-0.69 -0.29,-2.06 -0.38,-2.75 1.4,0.65 2.87,0.73 4.35,0.16 0,0.68 -0.01,2.06 -0.01,2.75 3.02,-0.69 5.46,-2.64 6.48,-5.61 4.32,0.82 9.08,2.18 11.14,6.51 -4.71,-0.49 -9.17,1.61 -11.81,5.5 -3.76,-0.48 -6.55,2.03 -7.78,5.35 -1.44,-3.17 -4.18,-6.27 -8.02,-5.1 -1.33,-2.73 -3.96,-4.28 -6.74,-5.2 -0.12,11.98 -0.02,23.96 -0.06,35.94 8.05,-0.5 16.61,1.53 24.24,-1.8 5.45,-2.31 8.19,-7.95 10.18,-13.18 v 3.96 c -0.69,4.95 -1.26,9.93 -1.96,14.88 -15.86,-0.51 -31.74,-0.11 -47.61,-0.21 3.09,-2.46 4.54,-6.32 4.4,-10.21 -0.03,-18.66 0.09,-37.33 -0.07,-55.99 0.03,-3.5 -2.04,-6.49 -5.01,-8.19 z"
       id="path7" />
  </g>
</svg>
