<?xml version="1.0" encoding="UTF-8" standalone="no"?>
<svg
   version="1.1"
   width="595.27557pt"
   height="841.88977pt"
   id="svg3"
   viewBox="0 0 595.27557 841.88977"
   sodipodi:docname="Put.io_Logo_full.cdr"
   xmlns:inkscape="http://www.inkscape.org/namespaces/inkscape"
   xmlns:sodipodi="http://sodipodi.sourceforge.net/DTD/sodipodi-0.dtd"
   xmlns="http://www.w3.org/2000/svg"
   xmlns:svg="http://www.w3.org/2000/svg">
  <defs
     id="defs3" />
  <sodipodi:namedview
     id="namedview3"
     pagecolor="#ffffff"
     bordercolor="#000000"
     borderopacity="0.25"
     inkscape:showpageshadow="2"
     inkscape:pageopacity="0.0"
     inkscape:pagecheckerboard="0"
     inkscape:deskcolor="#d1d1d1"
     inkscape:document-units="pt" />
  <g
     id="Layer1000">
    <path
       d="m 287.8078,199.4448 h 19.76 c 32.9298,1.6302 65.5699,10.3102 94.6199,26.0002 29.4101,15.7 55.1299,38.2099 74.7499,65.1399 25.5702,34.8701 40.2401,77.3901 42.2003,120.5399 v 19.7601 c -1.9902,43.1101 -16.6502,85.6 -42.2102,120.4299 -22.71,31.2103 -53.6499,56.3904 -88.9299,72.1 -25.3301,11.3803 -52.8301,17.65 -80.5399,19.0301 h -19.7502 c -32.5,-1.61 -64.72,-10.08 -93.4698,-25.3899 -29.89,-15.73 -56.0302,-38.4602 -75.9104,-65.7499 C 92.7575,516.435 78.0979,473.9049 76.1377,430.7448 v -19.73 c 1.8803,-39.5197 14.2302,-78.5599 36.0899,-111.5898 18.8904,-28.8201 44.6,-53.1399 74.4301,-70.4001 30.67,-17.89 65.7301,-27.8901 101.1501,-29.5801 z"
       style="fill:#ffffff;fill-rule:evenodd"
       id="path1" />
    <path
       d="m 277.8177,220.2749 c 25.27,-2.3499 50.9901,-0.25 75.4001,6.77 32.0599,9.15 61.7701,26.4402 85.5099,49.8501 25.7602,25.0798 44.58,57.2301 53.7702,91.9899 12.4299,46.66 7.6399,97.8001 -13.8702,141.1002 -20.2099,41.2398 -54.98,75.1399 -96.7598,94.24 -44.2202,20.5095 -95.9701,23.8595 -142.6003,9.8 -28.9499,-8.7103 -55.8598,-24.1002 -78.0797,-44.5904 -41.2702,-37.5996 -65.8503,-93.0297 -65.05,-148.9397 -0.3303,-41.7801 13.2998,-83.45 37.7498,-117.28 20.7,-28.7802 49.07,-52.0101 81.47,-66.43 19.7402,-8.8599 40.9399,-14.4201 62.46,-16.5101 z"
       style="fill:#161617;fill-rule:evenodd"
       id="path2" />
    <path
       d="m 422.5677,403.0849 c 8.46,-2.34 15.8202,6.4199 15.1101,14.4201 0.2801,7.35 -5.76,14.73 -13.36,14.6501 -7.1101,-0.1401 -12.5801,-6.9203 -12.6901,-13.7501 -0.51,-6.7901 4.25,-13.75 10.94,-15.3201 z m -257.8901,0.0301 c 4.8402,-1.5401 10.4902,0.5 13.1902,4.7999 5.0199,7.0599 3.24,18.3401 -4.4904,22.7199 -5.6296,3.4901 -13.5794,1.0902 -16.7199,-4.6298 -5.2596,-7.9101 -1.3198,-20.2501 8.0201,-22.89 z m 172.62,25.41 c -7.9699,1.84 -9.9697,13.5301 -3.5399,18.29 5.83,4.9198 16.06,1.1398 16.8199,-6.6101 1.5001,-7.3298 -6.1999,-14.12 -13.28,-11.6799 z m 32,-13.8401 c -3.2099,0.9901 -5.2798,4.32 -5.1298,7.63 -0.07,6.0602 -0.04,12.1201 -0.01,18.1902 -0.0803,2.7499 1.0397,5.7299 3.49,7.2099 2.2099,1.4301 4.9498,0.93 7.4497,0.9899 3.78,0.0901 7.09,-3.3999 7.02,-7.14 0.0601,-6.3799 -0.01,-12.7598 0.0301,-19.15 0.2199,-3.31 -1.7499,-6.77 -5.0001,-7.7799 -2.5699,-0.62 -5.3098,-0.6701 -7.85,0.0499 z m 48.9901,-28.02 c -10.73,2.0401 -19.7901,10.48 -22.9198,20.9002 -4.1001,12.6297 0.2199,27.7897 11.1897,35.57 7.0101,5.1998 16.2601,6.7498 24.7102,4.9098 8.2899,-1.8201 15.62,-7.3099 19.91,-14.6001 5.4799,-9.18 5.7399,-21.2099 0.8099,-30.67 -5.98,-12.1099 -20.5098,-19.1098 -33.7,-16.1099 z m -137.7499,0.2002 c -5.0301,2.7099 -4.9601,10.2299 -2.27,14.5397 4.5099,4.9802 11.95,1.5801 17.6298,3.17 1.62,0.6401 1.7201,2.4602 1.7402,3.96 0.04,11.2703 -0.0502,22.5502 0.03,33.8202 0.2299,4.1099 4.4601,7.0699 8.4399,6.3799 4.1301,0.8101 8.9802,-1.7799 9.22,-6.2901 0.18,-11.6498 -0.0301,-23.29 0.0901,-34.9398 -0.11,-1.5801 1.1101,-3.17 2.7499,-3.24 4.82,-0.5001 9.9201,0.8098 14.5199,-1.1001 3.8401,-2.06 4.07,-6.88 3.6201,-10.7 -0.35,-3.5799 -3.6099,-6.52 -7.2099,-6.4599 -13.9802,-0.1601 -27.97,0.01 -41.9502,-0.07 -2.2198,0.01 -4.5898,-0.1701 -6.6098,0.9301 z M 159.548,387.015 c -8.5603,2.1799 -15.95,8.3398 -19.65,16.3599 -2.8602,5.55 -3.2803,11.91 -3.2703,18.04 0.0703,11.6501 -0.0797,23.3101 0.0703,34.9599 -0.2104,7.3902 10.6097,9.0902 14.7699,4.36 2.8097,-2.9999 0.25,-7.4699 2.1699,-10.7597 1.8198,-1.4701 4.2897,-1.2501 6.48,-1.3003 5.0899,-0.0899 10.3096,0.5301 15.2699,-0.9799 10.0302,-2.59 18.3201,-10.6501 21.46,-20.49 3.74,-11.16 0.62,-24.3198 -7.96,-32.43 -7.48,-7.5799 -19.1001,-10.51 -29.3397,-7.7599 z m 210.7698,-1.4301 c -8.1399,2.0002 -10.0202,14.19 -3.0101,18.6702 6.1501,4.7199 16.3301,0.0198 16.35,-7.8602 0.93,-7.0798 -6.6399,-13.1001 -13.3399,-10.81 z m -155.66,0.5602 c -3.02,0.9898 -5.4799,4.0198 -5.2702,7.2898 0,8.3299 0.0102,16.67 0,24.9999 0.0601,9.9601 4.6902,20.16 13.1103,25.7601 10.2498,7.1901 25.1798,6.38 34.7598,-1.61 7.1399,-5.6798 11.2201,-14.6798 11.5299,-23.7399 0.2302,-8.14 0.0403,-16.3001 0.1001,-24.4401 0.1301,-3.31 -1.59,-6.8099 -4.79,-8.0399 -4.8501,-1.8601 -12.3001,-0.6701 -13.3801,5.33 -0.2699,8.6499 0.1202,17.3299 -0.18,25.9798 -0.1199,6.1801 -4.8399,12.7602 -11.4199,12.8101 -6.41,0.1202 -11.1099,-6.1501 -11.45,-12.14 -0.1001,-8.3001 0.0201,-16.5999 -0.04,-24.8898 -0.0198,-1.98 -0.83,-3.9002 -2.0401,-5.4301 -2.8298,-2.8499 -7.2998,-2.73 -10.9298,-1.8799 z"
       style="fill:#ffffff;fill-rule:evenodd"
       id="path3" />
  </g>
</svg>
