<?xml version="1.0" encoding="UTF-8" ?>
<!DOCTYPE svg PUBLIC "-//W3C//DTD SVG 1.1//EN" "http://www.w3.org/Graphics/SVG/1.1/DTD/svg11.dtd">
<svg width="442pt" height="105pt" viewBox="0 0 442 105" version="1.1" xmlns="http://www.w3.org/2000/svg">
<g id="#fdfefdff">
<path fill="#fdfefd" opacity="1.00" d=" M 373.01 0.00 L 373.86 0.00 C 365.04 9.81 356.32 19.73 347.62 29.65 C 353.20 38.05 352.39 49.03 348.93 58.08 C 340.24 83.31 311.77 100.58 285.40 94.77 C 281.05 97.93 277.04 101.51 272.96 105.00 L 272.29 105.00 C 275.36 101.39 278.37 97.72 281.08 93.83 C 278.20 92.16 275.25 90.49 272.93 88.06 C 268.18 83.40 266.55 76.38 266.88 69.92 C 267.47 62.96 269.68 56.21 272.58 49.89 C 280.52 34.45 295.95 23.14 312.91 19.73 C 323.09 18.13 334.67 18.13 343.21 24.74 C 352.94 16.26 363.32 8.52 373.01 0.00 M 314.94 36.34 C 310.08 36.98 305.61 39.14 301.61 41.88 C 297.72 39.16 294.04 36.12 289.97 33.67 C 292.47 37.63 295.07 41.54 297.60 45.49 C 295.05 48.69 292.78 52.12 291.09 55.85 C 288.87 56.48 286.59 56.85 284.37 57.46 C 286.26 57.63 288.16 57.69 290.07 57.72 C 288.35 63.39 287.85 70.28 292.05 75.03 C 289.78 78.99 286.88 82.61 285.07 86.82 C 288.26 83.44 291.63 80.25 294.92 76.97 C 301.88 79.02 309.61 77.36 315.47 73.20 C 316.97 75.34 318.46 77.49 320.07 79.56 C 319.87 76.65 319.64 73.75 319.17 70.88 C 322.19 67.98 324.66 64.54 326.35 60.70 C 331.19 60.09 336.04 59.63 340.88 59.14 C 336.73 57.67 332.32 56.96 328.35 54.97 C 329.40 50.35 329.51 45.36 327.39 41.02 C 328.23 39.08 329.10 37.17 329.94 35.23 C 328.47 36.53 327.07 37.89 325.70 39.28 C 323.64 38.05 321.50 36.96 319.17 36.36 C 319.16 32.94 319.23 29.52 319.15 26.10 C 317.52 29.42 316.17 32.86 314.94 36.34 Z" />
<path fill="#fdfefd" opacity="1.00" d=" M 100.40 46.07 C 110.32 30.62 127.43 19.40 146.00 18.51 C 153.58 18.30 161.81 19.11 168.00 23.93 C 170.85 25.89 172.57 28.99 173.93 32.09 C 167.92 36.16 162.15 40.58 156.16 44.69 C 154.32 41.34 151.75 38.11 147.97 36.91 C 141.66 34.89 134.83 36.93 129.40 40.32 C 120.71 45.91 114.27 55.56 114.14 66.08 C 114.09 70.18 115.99 74.47 119.88 76.24 C 129.41 80.25 140.48 76.18 147.09 68.73 C 150.43 72.98 153.49 77.43 156.57 81.87 C 150.04 87.22 142.84 92.13 134.54 94.20 C 126.15 96.21 117.21 96.32 108.87 93.97 C 101.01 91.74 93.99 85.23 92.88 76.87 C 91.47 66.13 94.84 55.21 100.40 46.07 Z" />
<path fill="#fdfefd" opacity="1.00" d=" M 372.41 19.79 C 378.01 19.86 383.61 19.81 389.21 19.82 C 395.25 32.99 400.68 46.44 406.41 59.75 C 411.70 46.51 416.45 33.06 421.68 19.80 C 428.45 19.88 435.22 19.82 441.99 19.83 C 432.71 44.61 423.38 69.39 414.32 94.25 C 408.23 94.20 402.15 94.29 396.08 94.19 C 390.62 80.79 385.01 67.44 379.83 53.92 C 374.77 67.35 369.61 80.74 364.64 94.20 C 357.67 94.26 350.70 94.21 343.73 94.23 C 353.46 69.48 362.60 44.50 372.41 19.79 Z" />
<path fill="#fdfefd" opacity="1.00" d=" M 59.38 19.82 C 66.48 19.78 73.58 19.91 80.68 19.74 C 81.36 22.43 81.28 25.21 81.40 27.95 C 82.60 50.03 83.19 72.15 84.79 94.20 C 77.31 94.28 69.83 94.21 62.35 94.25 C 62.29 89.64 62.42 85.01 61.78 80.43 C 51.72 80.48 41.66 80.42 31.61 80.46 C 28.71 85.09 24.91 89.17 22.49 94.07 C 15.00 94.10 7.48 94.37 0.00 93.85 L 0.00 93.50 C 1.21 92.98 1.89 91.73 2.74 90.80 C 16.25 73.25 30.21 56.05 44.08 38.80 C 33.30 37.79 22.52 36.75 11.73 35.92 C 23.49 35.24 35.27 35.29 47.04 34.80 C 49.34 32.86 50.95 30.24 52.88 27.95 C 39.86 26.67 26.71 26.66 13.68 25.41 C 27.75 24.85 41.81 23.95 55.89 23.58 C 57.40 22.73 58.24 21.08 59.38 19.82 M 44.37 64.26 C 50.48 64.17 56.59 64.20 62.70 64.19 C 62.79 56.70 62.14 49.23 62.31 41.73 C 55.56 48.52 50.62 56.97 44.37 64.26 Z" />
<path fill="#fdfefd" opacity="1.00" d=" M 175.98 36.52 C 178.29 31.00 179.86 25.18 182.42 19.77 C 203.85 19.97 225.28 19.67 246.70 19.91 C 244.52 25.44 242.36 30.97 240.24 36.52 C 232.81 36.49 225.37 36.54 217.93 36.51 C 210.56 55.60 203.38 74.79 196.04 93.89 C 189.39 94.70 182.33 94.02 175.52 94.22 C 182.48 74.93 189.85 55.78 197.10 36.59 C 190.06 36.43 183.02 36.55 175.98 36.52 Z" />
<path fill="#fdfefd" opacity="1.00" d=" M 225.99 94.20 C 235.25 69.50 244.56 44.80 253.95 20.15 C 260.69 19.39 267.75 20.05 274.62 19.83 C 265.55 44.71 256.24 69.51 246.81 94.27 C 239.87 94.19 232.93 94.28 225.99 94.20 Z" />
<path fill="#fdfefd" opacity="1.00" d=" M 315.63 37.80 C 315.70 40.72 315.37 43.62 314.98 46.51 C 315.24 47.19 315.76 48.56 316.02 49.24 C 317.74 48.52 319.46 47.81 321.21 47.11 C 320.01 48.86 318.81 50.60 317.70 52.41 C 318.32 52.44 319.57 52.52 320.20 52.55 L 318.69 53.05 L 317.92 54.37 C 321.33 55.59 324.84 56.53 328.17 57.95 C 324.72 58.21 321.26 58.04 317.80 58.10 C 317.26 58.68 316.17 59.84 315.62 60.43 C 315.35 63.99 316.68 67.39 316.72 70.94 C 315.55 68.57 314.28 66.25 313.02 63.93 C 312.12 63.60 311.22 63.26 310.32 62.92 C 309.97 63.37 309.27 64.27 308.93 64.72 C 308.75 64.07 308.40 62.79 308.22 62.14 C 303.67 66.17 299.18 70.26 294.94 74.61 C 297.78 69.15 302.72 64.97 304.75 59.05 C 301.74 56.28 297.61 57.46 293.94 57.11 C 297.22 55.65 300.83 55.05 304.24 53.92 C 303.73 53.37 302.70 52.26 302.18 51.70 C 302.79 51.66 304.01 51.59 304.62 51.55 C 302.86 48.56 300.72 45.83 299.04 42.80 C 301.83 44.53 304.09 46.95 306.84 48.75 L 307.28 46.67 C 308.19 47.45 309.11 48.23 310.03 49.01 C 312.47 45.59 314.76 41.97 315.63 37.80 Z" />
</g>
</svg>
