<?xml version="1.0" encoding="UTF-8" ?>
<!DOCTYPE svg PUBLIC "-//W3C//DTD SVG 1.1//EN" "http://www.w3.org/Graphics/SVG/1.1/DTD/svg11.dtd">
<svg width="596pt" height="142pt" viewBox="0 0 596 142" version="1.1" xmlns="http://www.w3.org/2000/svg">
<g id="#fefefeff">
<path fill="#fefefe" opacity="1.00" d=" M 412.52 10.10 C 414.99 5.16 419.56 0.92 425.26 0.42 C 434.66 -1.30 443.40 6.67 444.95 15.61 C 448.70 13.73 453.41 14.07 456.35 17.26 C 454.37 18.51 452.68 16.85 450.82 16.50 C 449.54 16.49 448.31 16.88 447.07 17.12 C 448.48 17.57 450.04 17.76 451.25 18.72 C 452.88 19.72 451.02 21.59 450.19 22.45 C 450.90 22.72 452.30 23.26 453.00 23.53 C 453.00 24.08 453.01 25.17 453.01 25.72 C 451.95 26.41 450.90 27.11 449.87 27.84 C 452.69 27.78 455.47 27.26 458.29 27.24 C 457.17 32.87 451.24 35.18 446.09 35.13 C 431.37 35.33 416.64 35.13 401.91 35.19 C 397.44 35.15 391.81 34.09 390.16 29.27 C 388.11 24.22 392.49 19.15 397.57 18.91 C 398.26 14.65 400.67 9.98 405.30 9.11 C 407.74 8.28 410.24 9.22 412.52 10.10 Z" />
<path fill="#fefefe" opacity="1.00" d=" M 457.50 9.59 C 460.16 10.01 462.40 11.42 464.23 13.38 C 462.46 13.99 460.69 14.59 458.92 15.17 C 457.84 13.46 456.65 11.81 455.20 10.40 C 455.77 10.20 456.92 9.80 457.50 9.59 Z" />
<path fill="#fefefe" opacity="1.00" d=" M 459.53 15.81 C 466.29 13.31 474.74 12.59 480.62 17.52 C 474.57 25.26 464.03 26.42 454.90 25.58 C 454.40 23.77 453.79 22.00 453.22 20.22 C 455.43 18.93 457.80 17.77 459.53 15.81 M 470.88 16.31 C 470.45 17.04 470.02 17.78 469.60 18.52 C 469.90 18.96 470.51 19.85 470.81 20.30 C 471.63 20.27 472.46 20.25 473.30 20.22 C 473.79 18.21 473.32 16.19 470.88 16.31 Z" />
<path fill="#fefefe" opacity="1.00" d=" M 315.46 26.00 C 319.96 24.58 324.74 23.29 329.47 24.35 C 335.06 25.61 339.25 30.28 341.43 35.39 C 339.03 33.44 336.97 31.04 334.17 29.63 C 328.50 26.36 321.78 26.51 315.46 26.00 Z" />
<path fill="#fefefe" opacity="1.00" d=" M 461.11 26.75 C 462.96 26.68 464.81 26.47 466.66 26.18 C 465.97 27.66 465.28 29.14 464.51 30.57 C 462.99 31.30 461.49 32.05 460.00 32.82 C 460.50 30.82 460.92 28.80 461.11 26.75 Z" />
<path fill="#fefefe" opacity="1.00" d=" M 26.00 34.93 C 33.22 29.60 42.73 26.87 51.58 29.23 C 54.86 30.21 59.75 29.50 61.46 33.03 C 61.35 38.37 60.39 43.68 60.48 49.04 C 60.50 63.16 63.09 77.19 67.29 90.64 C 69.91 100.27 74.33 109.51 80.86 117.10 C 87.35 124.60 96.83 128.89 106.56 130.12 C 101.80 131.06 96.90 130.11 92.28 128.91 C 84.29 126.82 78.29 120.71 72.94 114.77 C 75.38 120.58 78.87 126.27 84.46 129.52 C 93.51 135.68 105.05 135.83 115.51 134.41 C 122.42 133.68 128.67 130.37 135.41 128.90 C 125.39 135.59 113.90 140.27 101.95 142.00 L 90.79 142.00 C 70.35 139.26 53.37 122.43 49.01 102.50 C 41.02 102.77 32.94 101.87 25.00 103.07 C 23.54 107.74 21.67 112.27 20.08 116.90 C 19.67 117.30 18.83 118.12 18.41 118.53 C 12.25 118.44 6.02 118.10 0.00 116.69 L 0.00 115.70 C 8.60 91.40 18.62 67.50 30.79 44.77 C 39.37 43.58 48.41 42.16 56.98 44.11 C 56.56 41.52 56.53 38.50 54.29 36.71 C 50.96 33.97 46.34 33.39 42.17 33.65 C 34.18 34.51 26.65 38.27 20.75 43.65 C 15.18 48.90 12.35 56.18 9.86 63.24 C 10.55 51.99 16.89 41.43 26.00 34.93 M 29.02 88.57 C 34.96 88.79 40.90 88.68 46.84 88.64 C 44.52 78.95 42.71 69.14 41.48 59.24 C 36.83 68.80 33.34 78.87 29.02 88.57 Z" />
<path fill="#fefefe" opacity="1.00" d=" M 79.13 35.26 C 84.17 30.57 91.81 27.90 98.49 30.34 C 102.73 31.64 105.71 35.12 108.19 38.60 C 103.60 36.16 98.60 34.07 93.31 34.35 C 86.88 34.84 80.10 37.98 77.18 44.03 C 74.59 48.48 74.73 53.77 75.57 58.68 C 71.46 51.25 72.79 41.05 79.13 35.26 Z" />
<path fill="#fefefe" opacity="1.00" d=" M 302.27 38.72 C 306.56 32.94 314.02 30.64 320.98 30.93 C 328.52 30.59 335.33 35.64 338.67 42.16 C 334.69 39.11 330.09 36.96 325.22 35.81 C 317.45 34.11 309.57 36.10 302.27 38.72 Z" />
<path fill="#fefefe" opacity="1.00" d=" M 161.76 45.26 C 167.72 43.46 174.90 42.70 180.48 45.89 C 180.28 69.98 180.90 94.09 179.88 118.15 C 176.02 119.65 171.92 118.53 167.93 118.48 C 165.72 118.46 163.52 118.08 161.41 117.45 C 160.97 99.98 161.42 82.45 161.26 64.96 C 161.44 58.40 160.84 51.79 161.76 45.26 Z" />
<path fill="#fefefe" opacity="1.00" d=" M 318.18 44.16 C 322.56 43.60 327.15 43.44 331.37 44.94 C 340.63 68.50 348.99 92.49 356.96 116.54 C 354.19 117.94 351.04 118.03 348.03 118.42 C 344.34 118.68 340.46 119.45 336.93 118.02 C 334.63 113.28 333.09 108.20 331.55 103.17 C 323.50 102.60 315.42 103.10 307.36 102.92 C 305.42 107.84 304.24 113.06 302.01 117.87 C 301.29 119.55 299.24 118.74 297.87 118.76 C 293.26 118.33 288.65 117.90 284.07 117.24 C 283.73 116.95 283.05 116.38 282.71 116.10 C 288.96 95.17 296.42 74.62 303.95 54.13 C 305.10 51.00 306.08 47.77 307.80 44.88 C 311.22 44.13 314.72 44.45 318.18 44.16 M 310.24 88.57 C 316.41 88.77 322.58 88.56 328.76 88.71 C 325.31 79.14 322.72 69.29 319.81 59.55 C 316.10 69.04 313.87 79.04 310.24 88.57 Z" />
<path fill="#fefefe" opacity="1.00" d=" M 351.36 45.46 C 370.23 43.13 389.35 45.26 408.28 43.76 C 409.73 48.96 410.30 54.64 408.19 59.76 C 401.89 59.79 395.60 59.79 389.30 59.79 C 389.29 77.55 389.27 95.30 389.25 113.06 C 389.33 114.68 388.94 116.26 388.53 117.82 C 383.61 118.94 378.45 118.68 373.50 117.87 C 372.23 117.58 369.82 117.38 370.55 115.35 C 370.87 108.21 369.95 101.13 370.07 94.00 C 370.03 82.56 370.06 71.12 370.13 59.68 C 364.38 60.71 358.52 60.19 352.71 60.31 C 352.37 60.01 351.69 59.39 351.35 59.08 C 351.39 54.52 350.15 49.97 351.36 45.46 Z" />
<path fill="#fefefe" opacity="1.00" d=" M 531.45 44.91 C 536.98 43.64 542.92 43.15 548.41 44.88 C 559.02 59.40 568.28 74.90 577.75 90.19 C 578.20 75.36 577.03 60.57 577.31 45.73 C 581.75 43.96 586.62 44.22 591.31 44.44 C 593.05 44.50 594.58 45.33 595.99 46.31 L 596.00 44.97 L 596.00 51.40 C 594.69 64.33 595.92 77.34 595.25 90.30 C 594.38 99.44 595.60 108.68 594.24 117.78 C 588.98 118.78 583.37 119.01 578.13 117.87 C 575.20 115.37 573.65 111.64 571.38 108.58 C 563.44 97.11 556.47 84.98 548.38 73.61 C 549.22 81.29 548.46 89.03 549.27 96.71 C 549.53 103.56 549.39 110.42 549.38 117.28 C 543.45 118.39 537.21 118.41 531.28 117.31 C 530.95 115.23 530.69 113.15 530.70 111.04 C 530.64 91.02 530.71 71.00 530.70 50.98 C 530.66 48.93 531.03 46.91 531.45 44.91 Z" />
<path fill="#fefefe" opacity="1.00" d=" M 84.13 45.86 C 85.76 44.64 87.74 44.21 89.68 43.79 C 93.07 43.68 96.44 44.01 99.80 44.44 C 101.17 44.33 101.94 45.48 102.62 46.48 C 112.22 60.67 121.70 74.94 130.70 89.52 C 129.70 74.96 130.34 60.34 130.13 45.75 C 136.10 44.01 142.93 43.37 148.79 45.76 C 148.80 49.77 148.89 53.79 148.39 57.78 C 148.23 68.56 148.41 79.34 148.26 90.11 C 147.30 98.94 148.10 107.85 147.67 116.70 C 146.45 118.47 143.97 118.52 142.03 118.52 C 138.43 118.42 134.80 118.76 131.22 118.30 C 130.91 117.98 130.28 117.35 129.96 117.03 C 119.95 102.85 111.22 87.78 101.29 73.56 C 101.77 80.39 101.68 87.25 101.84 94.10 C 102.73 101.82 102.05 109.64 102.28 117.40 C 96.47 119.26 90.46 117.69 84.52 117.78 C 83.21 115.39 83.60 112.64 83.55 110.03 C 83.55 91.36 83.50 72.68 83.58 54.00 C 83.54 51.27 83.87 48.57 84.13 45.86 Z" />
<path fill="#fefefe" opacity="1.00" d=" M 200.53 46.08 C 201.02 44.27 203.23 44.27 204.74 43.90 C 208.22 43.63 211.71 43.84 215.20 43.79 C 216.53 44.21 217.85 44.62 219.17 45.07 C 224.33 60.93 229.42 76.83 233.84 92.91 C 238.09 76.90 242.77 61.00 248.06 45.31 C 251.19 43.88 254.67 44.38 258.01 44.31 C 261.15 44.41 264.41 43.93 267.43 45.02 C 271.99 64.97 274.22 85.38 277.26 105.61 C 277.73 109.42 278.54 113.21 278.52 117.08 C 272.65 118.56 266.50 119.33 260.45 118.83 C 258.02 103.47 257.78 87.84 255.13 72.53 C 251.72 80.77 250.02 89.59 247.42 98.09 C 245.53 104.71 243.46 111.27 241.48 117.85 C 236.27 118.08 231.06 117.94 225.85 117.93 C 220.72 103.10 217.98 87.48 212.31 72.85 C 210.56 88.09 208.43 103.30 206.21 118.48 C 200.23 118.59 194.02 118.63 188.38 116.43 C 190.20 99.21 193.70 82.21 196.63 65.15 C 197.85 58.78 198.81 52.35 200.53 46.08 Z" />
<path fill="#fefefe" opacity="1.00" d=" M 417.76 46.14 C 418.43 44.62 420.30 44.39 421.76 44.34 C 425.82 44.32 429.89 44.21 433.95 44.41 C 435.86 44.42 437.08 46.19 436.85 48.00 C 436.88 63.03 436.92 78.05 436.85 93.07 C 436.01 101.09 436.68 109.17 436.30 117.22 C 435.23 118.85 433.02 118.82 431.30 118.88 C 426.61 118.22 421.65 118.95 417.18 117.12 C 417.21 99.44 417.19 81.76 417.29 64.08 C 418.04 58.13 417.46 52.12 417.76 46.14 Z" />
<path fill="#fefefe" opacity="1.00" d=" M 472.46 44.61 C 483.30 41.93 495.34 43.00 504.93 48.97 C 512.97 54.23 518.48 63.04 520.09 72.48 C 521.85 81.20 520.95 90.36 517.93 98.70 C 513.55 110.07 502.20 118.16 490.11 119.08 C 479.07 120.32 466.75 118.44 458.31 110.66 C 442.96 96.79 441.94 70.68 455.00 54.96 C 459.59 49.83 465.75 46.18 472.46 44.61 M 471.03 63.94 C 467.27 68.42 465.58 74.31 465.31 80.07 C 465.57 86.77 466.87 94.09 471.86 98.98 C 477.64 104.36 486.81 104.12 493.43 100.45 C 497.97 97.70 499.78 92.30 501.17 87.46 C 502.68 80.06 501.35 72.05 497.21 65.71 C 494.38 61.24 488.94 59.45 483.97 58.71 C 479.26 59.17 474.40 60.42 471.03 63.94 Z" />
<path fill="#fefefe" opacity="1.00" d=" M 483.35 69.83 C 483.70 72.72 484.43 75.67 486.10 78.10 C 488.16 80.67 491.73 80.76 494.63 81.78 C 491.88 82.54 489.00 83.11 486.61 84.74 C 484.21 86.94 483.86 90.33 483.27 93.35 C 482.53 90.48 482.19 87.24 480.17 84.93 C 477.82 83.02 474.74 82.53 471.89 81.85 C 475.20 80.86 479.14 80.36 481.24 77.26 C 482.42 74.95 482.86 72.36 483.35 69.83 Z" />
<path fill="#fefefe" opacity="1.00" d=" M 324.29 112.68 C 326.66 115.66 328.47 119.22 331.75 121.36 C 338.61 126.59 348.37 129.20 356.45 125.29 C 361.25 122.70 362.68 117.17 363.98 112.31 C 364.59 117.91 363.64 124.41 358.96 128.11 C 354.69 131.39 348.84 132.46 343.64 131.21 C 334.44 129.21 326.96 121.58 324.29 112.68 Z" />
<path fill="#fefefe" opacity="1.00" d=" M 329.01 128.97 C 337.27 135.31 348.61 136.84 358.38 133.40 C 352.58 137.46 344.86 139.26 338.15 136.42 C 334.61 134.72 331.04 132.44 329.01 128.97 Z" />
</g>
</svg>
