<?xml version="1.0" encoding="UTF-8" ?>
<!DOCTYPE svg PUBLIC "-//W3C//DTD SVG 1.1//EN" "http://www.w3.org/Graphics/SVG/1.1/DTD/svg11.dtd">
<svg width="392pt" height="132pt" viewBox="0 0 392 132" version="1.1" xmlns="http://www.w3.org/2000/svg">
<g id="#fefefbff">
<path fill="#fefefb" opacity="1.00" d=" M 224.46 0.00 L 237.43 0.00 C 222.70 1.24 208.22 5.41 195.13 12.29 C 189.89 14.91 185.51 19.50 179.47 20.25 C 179.56 15.50 183.60 12.42 187.43 10.42 C 198.80 4.26 211.61 0.98 224.46 0.00 Z" />
<path fill="#fefefb" opacity="1.00" d=" M 227.94 10.45 C 226.07 12.25 223.81 13.56 221.66 14.97 C 225.16 16.07 228.82 16.02 232.13 14.35 C 231.10 15.28 230.04 16.17 229.04 17.12 C 232.00 17.93 235.04 18.41 238.11 18.32 C 236.20 20.18 233.30 21.19 232.52 23.98 C 230.23 29.56 226.10 34.00 222.24 38.50 C 222.86 38.48 224.12 38.44 224.74 38.42 C 222.10 40.26 220.64 43.68 217.14 44.15 C 209.36 45.87 201.31 44.88 193.60 43.28 C 201.90 43.70 210.83 45.37 218.58 41.41 C 224.73 37.11 227.12 29.38 227.68 22.23 C 224.24 20.86 220.65 19.90 216.96 19.49 C 220.42 26.67 218.73 37.51 210.87 41.04 C 213.49 38.72 215.95 36.16 216.99 32.71 C 215.65 32.11 214.28 31.59 212.92 31.09 C 214.58 31.29 216.24 31.35 217.92 31.26 C 216.69 30.09 215.34 29.07 213.87 28.21 C 212.28 28.58 212.93 30.61 212.27 31.70 C 211.42 35.13 207.18 37.27 204.00 35.57 C 201.88 34.50 200.84 32.23 199.70 30.28 C 197.87 30.22 196.45 32.53 195.38 33.79 C 196.56 33.28 197.72 32.71 198.92 32.22 C 198.53 33.53 197.18 34.18 196.33 35.16 C 198.00 38.24 201.11 39.76 203.97 41.50 C 200.79 40.77 197.51 39.26 195.90 36.27 C 193.75 32.97 193.62 28.94 193.74 25.14 C 190.40 27.71 187.51 30.77 184.96 34.10 C 185.86 32.06 186.87 30.07 187.93 28.10 C 186.91 28.83 184.88 30.29 183.86 31.02 C 189.49 21.41 200.16 15.97 210.97 14.79 C 216.80 14.16 222.63 13.01 227.94 10.45 M 208.03 23.62 L 207.42 21.96 C 203.07 21.31 202.55 27.03 203.45 29.99 C 203.65 32.05 206.14 34.50 208.08 32.71 C 209.83 30.37 209.93 27.11 208.98 24.43 C 211.98 25.36 214.18 23.04 216.04 21.09 C 213.12 19.76 209.57 20.74 208.03 23.62 M 214.34 27.47 C 214.06 28.59 216.14 29.67 217.09 29.12 C 217.71 27.60 215.40 26.91 214.34 27.47 Z" />
<path fill="#fefefb" opacity="1.00" d=" M 56.99 41.29 C 47.46 41.47 37.88 37.83 30.86 31.39 C 39.51 36.71 49.97 39.39 60.07 37.73 C 67.13 36.76 73.80 33.97 80.90 33.17 C 89.15 31.89 98.33 33.62 104.71 39.27 C 106.91 40.74 105.08 43.42 104.62 45.36 C 100.97 54.44 98.59 63.96 96.54 73.50 C 101.66 73.35 106.65 74.71 111.36 76.60 C 106.06 76.38 100.74 76.84 95.65 78.41 C 94.45 84.21 94.06 90.14 93.79 96.04 C 93.68 104.32 95.11 113.54 101.62 119.33 C 109.60 126.36 121.06 126.97 131.11 125.55 C 122.17 128.78 112.69 131.42 103.09 130.45 C 94.15 129.24 84.95 124.37 81.21 115.79 C 76.49 105.88 78.03 94.58 79.40 84.09 C 70.47 86.57 61.51 89.03 52.36 90.51 C 47.26 98.92 41.94 107.23 35.89 115.00 C 34.18 117.02 32.45 119.18 30.02 120.35 C 25.61 121.25 19.95 119.67 18.46 114.94 C 21.63 110.28 26.65 107.45 30.22 103.17 C 33.53 99.37 36.58 95.35 39.67 91.38 C 36.57 90.58 32.19 92.44 29.90 89.82 C 32.13 89.70 34.37 89.67 36.61 89.60 C 32.97 88.58 28.12 89.50 25.45 86.50 C 24.59 88.72 27.07 89.48 27.94 91.12 C 24.04 89.31 19.66 88.66 15.93 86.43 C 18.32 87.05 20.67 87.79 23.01 88.56 C 23.60 88.08 24.19 87.60 24.78 87.12 C 14.26 85.51 5.77 78.16 0.00 69.58 L 0.00 68.18 C 0.71 68.89 1.36 69.65 1.95 70.46 C 12.54 81.75 29.41 83.76 44.08 82.60 C 47.39 82.84 48.55 79.34 50.19 77.16 C 57.62 66.25 65.72 55.65 75.58 46.81 C 63.81 50.41 50.54 51.93 39.19 46.11 C 44.00 47.21 48.89 48.35 53.87 47.89 C 63.62 47.60 72.22 42.50 81.45 40.01 C 73.25 39.30 65.17 41.46 56.99 41.29 M 59.77 79.83 C 66.85 78.34 73.81 76.33 80.94 75.04 C 82.35 66.59 84.27 58.22 86.56 49.96 C 75.87 58.13 67.53 68.95 59.77 79.83 Z" />
<path fill="#fefefb" opacity="1.00" d=" M 121.89 42.45 C 130.25 41.72 138.92 44.36 145.56 49.47 C 146.80 67.59 149.30 85.83 155.20 103.07 C 158.48 86.13 161.04 68.83 167.80 52.83 C 168.90 50.08 170.46 47.55 172.23 45.18 C 176.82 45.21 180.57 48.28 183.29 51.70 C 178.74 54.23 176.71 59.21 174.49 63.63 C 170.22 72.08 167.83 81.31 165.68 90.48 C 163.70 100.27 161.43 110.13 161.78 120.19 C 157.09 121.01 152.42 119.52 148.14 117.73 C 145.09 116.62 144.57 113.04 143.36 110.44 C 137.17 93.57 133.28 75.79 132.14 57.85 C 125.52 72.38 121.78 88.11 119.80 103.91 C 118.99 109.48 118.42 115.09 118.51 120.73 C 113.96 119.12 107.58 116.77 107.54 111.02 C 108.20 102.42 111.00 94.16 113.63 86.00 C 118.01 72.95 123.28 60.20 129.82 48.08 C 128.54 45.17 125.39 44.11 122.58 43.35 C 122.41 43.13 122.06 42.67 121.89 42.45 Z" />
<path fill="#fefefb" opacity="1.00" d=" M 238.79 62.78 C 243.72 55.26 249.49 48.00 257.16 43.12 C 262.87 43.94 269.77 44.69 273.45 49.66 C 267.11 64.10 261.77 79.32 260.20 95.09 C 264.21 84.87 270.31 75.66 276.21 66.45 C 281.73 58.13 287.12 49.33 295.08 43.09 C 300.38 43.13 305.82 44.98 310.17 47.99 L 310.57 48.98 C 307.79 57.90 304.91 66.83 303.08 76.01 C 300.69 90.02 298.76 104.31 300.45 118.53 C 295.45 119.47 289.66 118.60 285.62 115.42 C 284.80 111.00 285.29 106.43 285.27 101.95 C 285.99 90.87 286.91 79.68 290.02 68.97 C 290.99 64.68 292.18 60.45 293.11 56.16 C 286.45 61.67 281.68 69.01 277.38 76.41 C 269.69 89.66 263.18 103.83 260.41 119.00 C 260.18 120.77 257.86 119.47 256.77 119.58 C 252.75 118.86 249.01 117.12 245.30 115.50 C 244.15 95.58 248.73 75.80 254.95 57.00 C 243.38 69.45 234.91 84.46 227.88 99.85 C 226.13 97.99 224.42 96.11 222.88 94.08 C 223.26 92.81 223.68 91.56 224.11 90.31 C 223.53 90.53 222.37 90.96 221.79 91.17 C 220.08 90.31 217.66 87.98 216.64 90.94 C 217.88 93.13 219.37 95.15 220.74 97.26 C 220.59 96.15 220.29 93.92 220.13 92.80 C 220.74 94.04 222.16 95.17 221.50 96.72 L 222.20 96.58 C 222.15 98.33 223.65 98.54 224.98 98.84 C 225.24 99.24 225.76 100.05 226.02 100.45 C 222.47 99.53 218.95 98.51 215.48 97.32 C 215.55 95.50 215.32 92.80 213.03 92.48 C 210.59 91.66 209.32 94.37 207.25 94.99 C 207.73 95.43 208.67 96.31 209.15 96.75 C 208.21 97.59 207.15 97.96 206.01 97.23 C 205.82 97.71 205.44 98.66 205.25 99.14 C 204.62 100.83 203.96 102.51 203.26 104.16 C 203.09 100.62 203.25 97.05 203.76 93.54 C 203.90 91.69 205.94 91.54 206.92 90.36 C 206.42 89.17 205.83 88.02 205.16 86.93 C 203.50 86.56 202.15 85.66 201.11 84.24 L 201.50 86.89 C 200.64 86.60 198.91 86.02 198.05 85.73 L 198.54 87.46 C 195.79 97.75 193.40 108.19 192.76 118.86 C 188.03 116.67 183.83 112.81 181.92 107.90 C 181.20 102.56 182.40 97.20 183.69 92.04 C 186.09 82.85 189.30 73.87 193.10 65.17 C 195.05 61.30 196.63 56.83 199.94 53.94 C 204.66 54.41 209.09 56.65 212.43 60.00 C 209.33 63.80 206.57 67.87 204.40 72.28 C 202.33 71.20 200.24 70.17 198.10 69.25 C 198.78 70.88 199.49 72.48 200.17 74.11 C 200.58 73.31 200.98 72.51 201.40 71.71 C 203.88 73.91 209.67 73.86 209.19 78.18 C 210.44 79.49 211.83 80.93 213.86 80.42 C 215.08 78.89 216.29 77.29 218.07 76.33 C 217.22 76.45 215.52 76.69 214.67 76.81 C 215.63 75.85 216.57 74.88 217.48 73.87 L 218.91 76.28 L 218.28 73.08 C 218.56 72.92 219.11 72.59 219.39 72.42 C 220.07 70.78 221.17 69.38 222.32 68.04 C 221.87 72.37 221.37 76.70 220.31 80.93 C 214.79 80.53 219.38 85.95 221.45 87.19 L 221.82 84.89 C 221.93 85.43 222.14 86.50 222.25 87.04 C 225.06 85.76 228.25 86.97 231.18 86.12 C 229.80 85.85 227.04 85.33 225.66 85.07 C 229.69 77.44 233.94 69.92 238.79 62.78 M 200.79 75.28 C 202.60 77.07 200.61 79.35 200.21 81.30 C 196.85 82.24 193.23 83.29 190.69 85.79 C 195.63 84.27 200.74 79.50 205.90 82.92 C 206.30 82.48 207.10 81.60 207.49 81.16 C 206.95 79.89 206.40 78.63 205.85 77.37 C 205.46 77.42 204.68 77.51 204.30 77.56 L 205.10 75.40 L 203.34 76.99 C 203.42 76.47 203.57 75.42 203.65 74.90 L 201.82 72.92 C 201.46 73.70 201.11 74.49 200.79 75.28 M 209.77 83.73 C 209.59 84.30 209.23 85.45 209.05 86.02 C 209.24 86.61 209.62 87.77 209.81 88.36 C 212.12 89.87 215.28 88.88 215.43 85.85 C 215.10 85.29 214.45 84.18 214.12 83.63 C 212.67 83.23 211.20 83.35 209.77 83.73 Z" />
<path fill="#fefefb" opacity="1.00" d=" M 322.04 45.76 C 336.41 46.37 350.64 44.19 364.93 43.29 C 370.82 42.36 373.54 48.90 374.35 53.60 C 365.10 52.16 355.66 53.06 346.48 54.55 C 343.05 60.69 340.19 67.18 337.88 73.82 C 343.19 72.84 348.97 71.52 354.15 73.81 C 357.31 75.92 357.25 80.17 357.18 83.55 C 349.17 82.46 341.03 83.14 333.15 84.81 C 330.05 92.22 327.71 99.93 325.35 107.60 C 326.30 108.89 327.99 107.11 329.25 107.22 C 323.54 110.17 317.29 111.91 311.42 114.49 C 310.55 113.42 308.46 112.05 309.56 110.48 C 313.53 104.57 315.31 97.61 318.10 91.14 C 318.89 89.19 319.55 87.18 320.08 85.14 C 318.09 83.60 314.46 82.12 315.53 79.01 C 317.97 77.63 320.69 76.91 323.38 76.21 C 325.57 69.59 328.24 63.10 329.66 56.25 C 327.02 55.83 323.83 54.96 322.72 52.22 C 321.71 50.21 321.92 47.92 322.04 45.76 Z" />
<path fill="#fefefb" opacity="1.00" d=" M 371.52 69.76 C 376.41 68.42 382.00 66.88 386.85 69.12 C 389.41 70.17 389.35 73.44 388.43 75.61 C 386.57 80.03 383.11 83.56 379.49 86.60 C 375.10 90.05 370.66 93.54 365.61 95.99 C 370.71 89.95 377.08 84.90 381.20 78.08 C 382.43 75.94 383.92 72.53 381.48 70.68 C 378.63 68.49 374.79 69.92 371.52 69.76 Z" />
<path fill="#fefefb" opacity="1.00" d=" M 384.88 86.54 C 388.20 82.26 391.56 77.73 392.00 72.11 L 392.00 78.89 L 391.99 76.84 C 390.66 80.75 387.96 83.90 384.88 86.54 Z" />
<path fill="#fefefb" opacity="1.00" d=" M 341.15 103.33 C 353.40 97.31 364.86 89.87 375.89 81.88 C 364.93 93.38 350.93 101.26 337.71 109.77 C 344.09 108.32 350.56 106.96 357.12 106.93 C 360.77 109.35 360.37 114.70 360.38 118.61 C 351.08 117.44 341.70 117.96 332.40 118.58 C 324.21 121.72 316.56 126.92 307.66 127.89 C 314.68 125.07 321.99 122.73 328.46 118.75 C 324.97 118.67 321.32 117.93 317.92 119.05 C 306.99 123.30 295.72 127.20 283.95 128.16 C 280.23 128.21 276.07 128.33 272.90 126.09 C 270.02 122.28 272.92 117.59 275.82 114.79 C 275.29 116.53 274.46 118.27 274.85 120.14 C 275.53 121.69 277.23 122.52 278.83 122.75 C 284.28 123.60 289.82 122.85 295.15 121.67 C 311.39 118.13 326.51 110.98 341.15 103.33 Z" />
<path fill="#fefefb" opacity="1.00" d=" M 209.70 116.80 C 210.06 110.40 213.44 104.70 216.70 99.36 C 220.01 100.63 223.51 101.29 227.04 101.57 C 224.15 108.75 221.29 116.10 220.67 123.89 C 216.37 123.46 210.39 121.83 209.70 116.80 Z" />
<path fill="#fefefb" opacity="1.00" d=" M 268.02 126.09 C 266.71 122.89 269.19 119.86 270.80 117.28 C 269.90 120.10 267.47 122.90 268.65 125.98 C 269.64 129.07 273.15 129.93 275.69 131.36 C 285.20 132.10 294.33 129.28 303.44 127.08 C 298.38 129.33 292.97 130.57 287.64 132.00 L 275.69 132.00 C 272.77 130.71 269.08 129.49 268.02 126.09 Z" />
</g>
</svg>
