<?xml version="1.0" encoding="UTF-8" ?>
<!DOCTYPE svg PUBLIC "-//W3C//DTD SVG 1.1//EN" "http://www.w3.org/Graphics/SVG/1.1/DTD/svg11.dtd">
<svg width="454pt" height="111pt" viewBox="0 0 454 111" version="1.1" xmlns="http://www.w3.org/2000/svg">
<g id="#fefefeff">
<path fill="#fefefe" opacity="1.00" d=" M 155.37 0.00 L 156.46 0.00 C 156.73 1.15 157.35 2.11 158.32 2.87 C 157.45 3.80 156.60 4.75 155.76 5.71 C 154.75 4.67 153.73 3.64 152.67 2.66 C 153.63 1.84 154.65 1.06 155.37 0.00 Z" />
<path fill="#fefefe" opacity="1.00" d=" M 133.63 3.83 C 133.74 3.32 133.97 2.31 134.09 1.80 C 134.85 3.59 136.04 5.07 137.92 5.74 C 136.30 6.22 135.21 7.50 134.25 8.81 C 133.68 7.23 132.40 6.26 130.91 5.61 C 131.82 5.03 132.73 4.43 133.63 3.83 Z" />
<path fill="#fefefe" opacity="1.00" d=" M 146.23 11.33 C 147.99 15.14 150.99 17.96 155.05 19.18 C 151.07 20.29 148.04 23.28 146.63 27.11 C 145.04 23.69 142.83 20.18 138.77 19.55 C 142.03 17.60 144.78 14.91 146.23 11.33 Z" />
<path fill="#fefefe" opacity="1.00" d=" M 257.81 22.88 C 259.63 21.11 262.35 20.27 264.85 20.61 C 277.94 21.90 291.09 22.58 304.12 24.40 C 306.06 24.59 308.22 25.82 308.27 28.01 C 308.63 31.71 307.79 35.37 307.24 39.01 C 306.47 39.65 305.71 40.28 304.95 40.92 C 294.86 41.13 284.86 39.55 274.84 38.64 C 274.29 42.70 273.78 46.76 273.30 50.82 C 281.60 51.51 289.92 52.25 298.17 53.33 C 301.06 53.49 302.39 56.47 301.76 59.04 C 301.07 62.68 301.95 67.64 298.06 69.68 C 289.27 69.47 280.52 68.32 271.77 67.41 C 271.20 72.03 270.62 76.65 270.13 81.28 C 280.03 82.23 289.96 82.98 299.85 83.92 C 302.45 83.83 304.09 86.46 303.80 88.83 C 303.49 91.98 303.29 95.19 302.42 98.25 C 301.41 100.24 299.01 100.91 296.92 100.51 C 282.99 99.04 269.01 98.21 255.10 96.53 C 251.55 96.09 249.25 92.42 249.88 88.98 C 251.37 69.47 253.66 50.03 255.78 30.57 C 256.07 27.95 255.91 24.98 257.81 22.88 Z" />
<path fill="#fefefe" opacity="1.00" d=" M 31.64 26.68 C 39.98 25.41 48.74 26.02 56.55 29.37 C 59.69 30.85 62.72 32.96 64.49 36.02 C 64.94 39.61 62.03 42.41 60.72 45.52 C 59.52 47.51 58.43 51.17 55.36 50.01 C 48.44 42.81 35.94 41.27 28.02 47.74 C 19.95 55.04 18.51 68.04 23.30 77.56 C 26.12 83.50 32.48 87.22 38.95 87.56 C 44.57 87.95 50.03 85.60 54.42 82.23 C 55.51 81.36 56.83 80.86 58.08 80.28 C 61.34 84.46 65.64 89.19 64.91 94.88 C 63.08 98.70 58.84 100.63 55.18 102.35 C 44.49 106.52 32.11 106.22 21.59 101.67 C 13.34 97.70 6.46 90.67 3.08 82.11 C -0.87 72.58 -0.71 61.73 2.35 51.98 C 6.38 38.99 18.15 28.67 31.64 26.68 Z" />
<path fill="#fefefe" opacity="1.00" d=" M 216.12 30.02 C 218.52 26.44 223.46 26.69 227.29 26.43 C 229.91 26.26 233.54 26.43 234.52 29.40 C 235.50 34.18 235.63 39.09 236.19 43.93 C 237.66 61.98 239.64 80.00 240.75 98.08 C 241.03 100.03 240.17 102.42 237.94 102.66 C 232.89 103.38 227.25 104.74 222.46 102.37 C 221.09 98.02 221.33 93.40 220.89 88.91 C 220.50 79.74 219.67 70.60 219.21 61.43 C 214.82 70.35 211.47 79.80 206.49 88.43 C 204.47 91.75 200.12 90.94 196.85 91.00 C 194.66 91.16 192.71 89.72 191.54 87.98 C 186.29 80.32 182.07 71.99 176.66 64.43 C 177.08 76.64 177.75 88.84 178.37 101.04 C 178.35 103.13 178.94 106.56 176.11 107.04 C 171.94 107.98 167.59 108.09 163.33 108.04 C 161.15 108.33 159.53 106.30 159.29 104.33 C 158.54 82.21 157.58 60.10 157.43 37.96 C 157.03 34.99 158.99 31.81 162.09 31.46 C 166.79 30.90 172.58 29.71 176.31 33.46 C 183.77 45.34 191.15 57.29 198.62 69.17 C 204.29 56.05 210.42 43.12 216.12 30.02 Z" />
<path fill="#fefefe" opacity="1.00" d=" M 80.47 43.49 C 92.36 31.12 112.53 28.97 127.58 36.48 C 136.67 41.13 143.43 50.03 145.54 60.01 C 148.26 70.73 146.88 82.41 141.96 92.28 C 136.35 102.99 125.02 109.78 113.13 111.00 L 103.70 111.00 C 94.70 109.86 85.89 105.98 79.76 99.16 C 72.98 91.94 69.91 81.78 70.19 71.99 C 69.99 61.73 73.02 50.87 80.47 43.49 M 102.37 50.55 C 91.56 54.90 88.39 69.39 92.50 79.41 C 96.99 90.13 112.35 91.54 120.76 84.77 C 125.15 81.21 126.53 75.27 126.49 69.87 C 126.08 64.32 124.74 58.40 120.62 54.37 C 116.03 49.54 108.49 48.25 102.37 50.55 M 128.02 80.01 C 131.25 79.76 134.28 80.94 136.17 83.63 C 136.28 81.42 135.72 78.50 133.13 78.04 C 131.15 77.22 129.49 78.95 128.02 80.01 M 83.12 81.20 C 80.90 82.37 81.48 85.11 81.78 87.14 C 82.38 86.26 83.59 84.51 84.19 83.63 C 86.51 93.12 94.29 101.43 104.20 102.79 C 117.63 105.49 131.73 94.99 133.11 81.37 C 130.61 84.72 128.36 88.36 125.01 90.94 C 116.22 98.43 102.24 99.10 92.93 92.19 C 89.19 89.85 86.93 85.99 83.74 83.07 C 85.47 82.73 87.20 82.38 88.93 82.04 C 87.16 81.11 85.01 79.65 83.12 81.20 Z" />
<path fill="#fefefe" opacity="1.00" d=" M 322.39 32.41 C 323.73 31.51 325.39 31.35 326.96 31.34 C 335.37 31.25 343.80 31.51 352.17 32.43 C 363.65 33.80 375.32 39.60 380.94 50.13 C 386.12 60.62 386.05 73.02 383.05 84.13 C 380.19 94.30 372.24 102.91 362.15 106.20 C 350.94 110.41 338.81 108.49 327.20 107.64 C 323.82 107.32 319.77 107.46 317.37 104.61 C 314.52 101.90 315.38 97.57 315.60 94.06 C 316.11 80.11 317.09 66.17 317.64 52.22 C 318.17 47.18 317.66 42.05 318.70 37.05 C 319.28 35.11 320.62 33.40 322.39 32.41 M 337.61 48.69 C 336.65 62.75 335.71 76.82 335.27 90.91 C 342.54 91.94 350.88 92.88 357.11 88.13 C 362.21 84.48 364.47 78.21 364.87 72.16 C 365.32 65.05 363.58 56.83 357.37 52.53 C 351.70 48.36 344.28 48.73 337.61 48.69 Z" />
<path fill="#fefefe" opacity="1.00" d=" M 386.40 33.33 C 391.20 32.40 396.14 32.63 401.01 32.75 C 402.58 32.77 403.53 34.31 404.44 35.39 C 409.56 44.04 414.04 53.07 419.32 61.63 C 423.92 53.43 428.34 45.13 433.00 36.96 C 434.23 34.79 436.22 32.79 438.86 32.69 C 442.66 32.61 446.48 32.58 450.28 32.71 C 452.54 32.90 453.61 34.91 453.99 36.90 C 452.75 39.61 451.23 42.17 449.71 44.73 C 443.17 55.57 437.10 66.69 430.31 77.38 C 429.68 78.45 428.98 79.58 429.14 80.90 C 429.08 88.62 429.18 96.35 429.12 104.07 C 429.26 106.11 428.12 108.48 425.91 108.76 C 421.98 109.60 417.92 109.14 413.94 109.21 C 412.15 109.38 410.78 108.15 409.54 107.07 C 408.49 97.69 409.77 88.14 408.85 78.79 C 400.73 65.11 392.23 51.63 384.26 37.86 C 382.99 36.21 384.74 33.86 386.40 33.33 Z" />
</g>
</svg>
