<?xml version="1.0" encoding="UTF-8" ?>
<!DOCTYPE svg PUBLIC "-//W3C//DTD SVG 1.1//EN" "http://www.w3.org/Graphics/SVG/1.1/DTD/svg11.dtd">
<svg width="364pt" height="93pt" viewBox="0 0 364 93" version="1.1" xmlns="http://www.w3.org/2000/svg">
<g id="#fefefdff">
<path fill="#fefefd" opacity="1.00" d=" M 75.32 0.00 L 80.42 0.00 C 82.23 0.48 84.53 0.43 85.73 2.12 C 86.93 3.58 88.12 5.09 89.73 6.13 C 92.73 8.14 94.62 11.28 96.35 14.36 C 107.92 15.03 120.30 12.44 131.13 17.71 C 141.14 22.29 143.70 35.74 139.47 45.12 C 137.38 50.25 131.95 52.98 126.72 53.66 C 130.55 54.93 134.38 56.90 136.51 60.49 C 139.01 64.83 138.96 70.01 140.47 74.68 C 141.57 77.23 144.73 77.33 147.06 77.97 C 147.07 81.89 147.10 85.81 146.95 89.73 C 141.99 89.72 137.02 89.77 132.06 89.76 C 128.60 89.73 124.57 88.17 123.65 84.48 C 122.07 78.81 120.94 73.02 119.37 67.35 C 118.55 64.72 117.25 61.82 114.55 60.68 C 110.79 59.26 106.71 59.31 102.76 59.27 C 102.77 64.49 102.44 69.74 102.88 74.95 C 104.12 77.28 107.12 77.22 109.33 77.96 C 109.34 81.91 109.37 85.87 109.27 89.82 C 99.07 89.16 88.84 89.64 78.63 89.48 C 78.65 85.67 78.55 81.85 78.32 78.05 C 80.31 77.50 82.40 77.14 84.21 76.10 C 85.08 74.92 84.81 73.36 84.91 71.99 C 84.85 58.64 84.92 45.29 84.90 31.94 C 84.87 30.55 84.87 29.12 84.36 27.80 C 82.84 26.50 80.79 26.18 78.95 25.62 C 78.94 21.88 78.96 18.14 79.06 14.41 C 81.09 14.40 83.12 14.39 85.16 14.37 C 84.08 12.91 83.01 11.45 81.93 10.00 C 79.91 9.74 77.89 9.44 75.89 9.07 C 72.94 12.27 68.87 13.91 64.62 14.51 C 67.48 17.26 72.57 19.86 71.51 24.56 C 70.05 28.47 65.95 31.80 68.11 36.33 C 66.34 38.00 64.78 40.34 62.21 40.78 C 58.13 39.18 55.86 35.14 52.54 32.50 C 46.63 27.51 38.21 25.62 30.76 27.84 C 22.74 30.30 16.29 37.17 14.13 45.25 C 12.22 51.80 13.59 59.11 17.22 64.81 C 19.40 68.18 24.21 70.39 23.71 75.01 C 23.56 80.31 16.85 83.73 12.61 80.36 C 5.43 74.17 1.15 64.91 0.00 55.57 L 0.00 48.31 C 1.26 36.51 7.95 25.30 18.14 19.11 C 25.67 14.36 34.98 12.75 43.73 14.21 C 46.52 11.92 48.24 7.81 51.94 6.97 C 55.34 8.23 58.12 10.69 61.27 12.43 C 62.00 9.96 61.79 6.79 64.22 5.22 C 67.59 2.85 71.77 2.06 75.32 0.00 M 75.24 2.63 C 76.02 3.85 76.54 5.18 76.81 6.60 C 78.52 6.99 80.25 7.32 81.99 7.59 C 82.84 6.57 83.70 5.56 84.56 4.55 C 82.11 2.11 78.41 2.41 75.24 2.63 M 64.27 8.17 C 65.38 9.14 66.41 10.20 67.24 11.43 C 69.28 10.72 71.17 9.68 72.98 8.50 C 72.26 7.29 72.30 5.33 71.19 4.48 C 68.72 5.38 66.36 6.57 64.27 8.17 M 84.79 10.42 C 85.81 11.72 86.78 13.08 88.02 14.18 C 89.81 14.53 91.65 14.36 93.47 14.34 C 92.37 11.71 90.37 9.66 88.14 7.96 C 87.01 8.76 85.92 9.63 84.79 10.42 M 55.08 21.34 C 54.51 22.64 53.97 23.95 53.51 25.29 C 56.16 25.55 57.66 22.97 59.73 21.81 C 62.47 20.32 59.44 16.07 56.99 17.40 C 55.07 17.70 55.20 19.86 55.08 21.34 M 103.38 27.39 C 101.92 33.91 103.04 40.73 102.70 47.38 C 107.79 47.14 113.19 48.21 118.00 46.03 C 125.10 43.02 125.53 30.43 117.89 27.82 C 113.29 26.17 108.09 26.34 103.38 27.39 M 14.61 71.76 C 13.26 72.60 12.92 74.80 14.12 75.90 C 15.42 77.57 18.62 77.13 19.12 74.95 C 20.16 72.54 16.57 70.06 14.61 71.76 Z" />
<path fill="#fefefd" opacity="1.00" d=" M 152.25 25.68 C 152.39 22.03 152.30 18.39 152.34 14.74 C 162.45 14.74 172.55 14.74 182.66 14.73 C 182.65 18.51 182.93 22.28 182.80 26.06 C 180.69 26.23 178.70 26.90 176.77 27.72 C 175.95 43.10 176.60 58.53 176.42 73.93 C 176.22 77.29 180.41 77.16 182.69 77.87 C 183.07 81.71 182.94 85.58 182.92 89.43 C 172.72 89.55 162.52 89.47 152.33 89.49 C 152.30 85.62 152.30 81.75 152.32 77.88 C 154.52 77.03 158.75 77.14 158.62 73.89 C 158.69 59.26 158.71 44.63 158.59 30.01 C 158.76 26.69 154.59 26.39 152.25 25.68 Z" />
<path fill="#fefefd" opacity="1.00" d=" M 188.99 14.74 C 199.63 14.71 210.25 15.25 220.90 15.16 C 225.63 30.75 230.54 46.30 235.10 61.94 C 238.00 51.29 240.77 40.59 243.96 30.01 C 245.54 24.90 246.38 19.55 248.69 14.68 C 258.81 15.62 268.98 14.85 279.11 14.75 C 279.11 18.50 279.12 22.26 279.11 26.01 C 276.80 26.36 272.94 26.64 273.19 29.89 C 273.10 43.92 273.22 57.96 273.14 71.99 C 273.21 73.38 272.94 74.93 273.84 76.12 C 275.46 77.02 277.33 77.30 279.07 77.96 C 279.42 81.77 278.93 85.64 279.11 89.48 C 269.59 89.48 260.08 89.53 250.56 89.46 C 250.42 85.61 250.48 81.76 250.49 77.92 C 252.25 77.28 254.28 77.04 255.75 75.77 C 256.43 70.88 255.91 65.89 256.10 60.95 C 255.90 51.25 256.73 41.56 256.32 31.86 C 250.94 49.98 246.19 68.29 240.68 86.37 C 240.24 87.54 239.97 88.91 238.92 89.70 C 234.71 89.84 230.46 89.99 226.27 89.58 C 225.33 87.86 224.79 85.97 224.24 84.11 C 219.25 66.87 214.40 49.59 209.18 32.42 C 208.51 45.95 209.08 59.53 208.89 73.08 C 208.25 76.74 212.62 77.25 215.18 77.90 C 215.19 81.76 215.18 85.62 215.18 89.48 C 206.37 89.47 197.55 89.53 188.73 89.46 C 188.68 85.60 188.71 81.75 188.67 77.89 C 190.75 77.19 193.75 77.22 194.83 75.01 C 195.08 61.00 194.83 46.98 194.95 32.96 C 194.88 31.06 195.17 28.80 193.71 27.31 C 192.32 26.37 190.56 26.44 188.99 26.13 C 188.99 22.33 188.99 18.54 188.99 14.74 Z" />
<path fill="#fefefd" opacity="1.00" d=" M 284.83 14.72 C 296.57 13.95 308.33 15.32 320.08 14.51 C 327.37 14.84 334.67 14.59 341.97 14.80 C 342.01 22.15 342.05 29.49 341.98 36.84 C 337.73 36.86 333.49 36.86 329.24 36.82 C 328.57 33.74 329.70 29.51 326.76 27.43 C 320.94 26.57 314.93 26.44 309.16 27.74 C 309.06 33.23 309.30 38.74 308.81 44.22 C 315.79 44.17 322.75 44.38 329.72 44.67 C 329.80 48.85 329.82 53.05 329.19 57.20 C 322.49 57.40 315.82 56.64 309.12 56.86 C 309.13 63.37 309.10 69.89 309.16 76.41 C 315.13 77.22 321.50 78.10 327.33 76.16 C 330.38 73.80 329.07 69.16 329.79 65.78 C 333.87 65.72 338.11 65.14 342.04 66.62 C 344.15 64.67 345.42 62.11 346.18 59.37 C 344.13 58.49 339.24 59.10 339.56 55.77 C 340.17 52.69 341.37 49.68 342.86 46.91 C 344.03 46.38 345.35 46.49 346.61 46.39 C 346.31 48.90 345.49 51.31 344.67 53.69 C 346.38 53.70 348.10 53.72 349.82 53.74 C 349.92 52.16 350.12 50.59 350.42 49.04 C 351.66 46.50 355.73 46.21 357.32 48.54 C 358.86 50.49 357.49 52.93 356.99 55.00 C 360.11 56.85 362.01 59.99 364.00 62.90 L 364.00 73.74 L 363.99 72.07 C 363.34 73.98 360.65 75.85 358.96 74.04 C 356.90 72.08 359.10 69.18 359.39 66.92 C 360.21 64.66 357.76 63.24 356.69 61.65 C 355.27 64.32 353.88 67.06 353.26 70.03 C 352.83 73.30 353.76 76.61 353.20 79.86 C 352.27 82.99 349.76 85.27 347.65 87.63 C 347.76 89.41 347.78 91.21 347.74 93.00 L 344.95 93.00 C 343.89 91.58 343.00 90.05 342.06 88.56 C 340.09 89.12 338.08 89.57 336.03 89.50 C 318.94 89.45 301.86 89.53 284.78 89.45 C 284.74 85.62 284.75 81.78 284.75 77.94 C 286.77 77.34 288.99 77.07 290.74 75.79 C 291.45 62.20 290.82 48.56 291.09 34.95 C 290.94 32.50 291.49 29.82 290.41 27.55 C 288.74 26.47 286.70 26.27 284.84 25.71 C 284.72 22.04 284.72 18.38 284.83 14.72 M 340.61 55.01 C 339.83 58.54 345.03 57.46 347.11 58.39 C 346.79 62.57 344.51 66.18 340.96 68.36 C 340.94 69.89 340.93 71.42 340.93 72.96 C 342.88 71.99 344.90 71.15 346.99 70.50 C 347.68 73.35 348.14 76.30 347.85 79.23 C 346.43 82.35 343.82 84.74 342.30 87.81 C 343.64 89.58 344.84 91.56 346.84 92.69 C 347.37 90.75 345.71 88.12 347.44 86.56 C 348.95 84.73 350.75 83.08 351.80 80.92 C 353.41 77.13 351.46 72.99 352.52 69.11 C 353.32 66.32 354.66 63.73 355.70 61.03 C 357.84 61.44 359.87 62.87 360.45 65.06 C 360.99 67.50 359.40 69.63 359.02 71.96 C 359.45 73.76 360.55 74.20 362.31 73.27 C 363.40 69.94 362.83 66.38 362.95 62.94 C 360.83 60.03 358.92 56.83 355.48 55.30 C 356.09 53.42 357.88 51.32 356.50 49.38 C 355.70 47.60 353.03 47.65 351.77 48.88 C 350.12 50.30 352.09 53.58 349.99 54.61 C 347.77 54.81 345.54 54.65 343.33 54.61 C 344.12 52.09 345.15 49.64 345.62 47.02 C 342.09 47.91 341.77 52.13 340.61 55.01 M 340.94 73.98 C 340.91 78.66 340.94 83.34 340.81 88.02 C 342.88 85.04 345.34 82.24 346.86 78.93 C 347.08 76.47 346.78 74.00 346.46 71.57 C 344.58 72.29 342.74 73.10 340.94 73.98 Z" />
<path fill="#fefefd" opacity="1.00" d=" M 61.22 64.61 C 65.22 66.32 69.10 68.32 72.92 70.39 C 68.25 81.71 57.07 89.88 45.09 91.86 C 35.27 93.66 25.13 90.46 17.34 84.42 C 22.71 84.84 26.39 80.01 27.13 75.17 C 33.31 78.95 41.19 79.79 47.96 77.16 C 53.98 75.12 58.28 70.04 61.22 64.61 Z" />
</g>
</svg>
