<?xml version="1.0" encoding="UTF-8" ?>
<!DOCTYPE svg PUBLIC "-//W3C//DTD SVG 1.1//EN" "http://www.w3.org/Graphics/SVG/1.1/DTD/svg11.dtd">
<svg width="741pt" height="98pt" viewBox="0 0 741 98" version="1.1" xmlns="http://www.w3.org/2000/svg">
<g id="#fdfefdff">
<path fill="#fdfefd" opacity="1.00" d=" M 70.01 22.06 C 75.36 10.73 86.51 1.86 99.13 0.47 C 106.31 -0.75 113.69 0.99 120.22 3.99 C 130.71 9.54 138.66 20.16 140.12 32.05 C 142.20 42.47 137.79 52.87 131.43 60.96 C 132.90 62.83 134.39 64.69 135.93 66.51 C 140.47 64.99 143.01 69.68 145.96 72.14 C 150.59 76.10 154.69 80.64 159.38 84.53 C 160.85 86.00 163.08 87.44 162.78 89.82 C 162.13 93.50 159.32 96.56 155.93 98.00 L 153.55 98.00 C 145.52 91.25 138.31 83.51 131.27 75.74 C 131.24 74.38 131.22 73.02 131.23 71.66 C 129.50 69.92 127.77 68.18 126.04 66.44 C 122.52 68.10 119.07 69.96 115.35 71.15 C 104.50 74.79 91.93 72.96 82.60 66.34 C 75.35 60.69 68.73 53.07 67.70 43.57 C 67.16 36.39 66.75 28.72 70.01 22.06 M 100.40 7.14 C 96.64 8.63 94.92 13.07 95.97 16.84 C 97.13 19.74 99.90 21.79 102.92 22.43 C 106.21 22.43 109.59 20.22 110.60 17.02 C 112.17 13.64 110.18 9.53 107.19 7.64 C 105.09 6.67 102.63 6.70 100.40 7.14 M 81.52 18.60 C 77.16 20.49 75.43 26.62 78.37 30.41 C 79.58 32.40 81.96 33.24 84.14 33.59 C 89.29 33.83 93.99 27.81 91.61 22.98 C 90.28 18.98 85.31 17.25 81.52 18.60 M 114.61 23.91 C 114.18 27.66 116.28 31.71 119.93 32.98 C 123.78 34.94 128.88 32.23 129.90 28.14 C 131.59 23.27 127.16 17.34 121.92 18.22 C 118.28 17.79 116.14 21.18 114.61 23.91 M 101.75 28.53 C 101.69 29.53 101.63 30.53 101.57 31.54 C 102.39 31.94 103.21 32.34 104.03 32.75 C 104.69 32.16 105.35 31.56 106.00 30.97 C 105.81 30.29 105.41 28.92 105.22 28.23 C 104.06 28.32 102.91 28.42 101.75 28.53 M 97.62 33.47 C 97.15 33.85 96.22 34.61 95.76 34.99 C 95.76 35.66 95.77 36.33 95.77 37.00 C 96.22 37.38 97.11 38.12 97.55 38.50 C 98.02 38.42 98.96 38.26 99.43 38.18 C 99.69 36.84 99.86 35.49 99.94 34.12 C 99.16 33.90 98.39 33.69 97.62 33.47 M 108.45 33.60 C 108.06 33.98 107.28 34.76 106.90 35.15 C 107.09 35.83 107.47 37.18 107.67 37.86 C 108.79 37.79 109.92 37.70 111.05 37.61 C 111.19 36.99 111.48 35.75 111.63 35.13 C 111.31 34.75 110.68 33.98 110.37 33.60 C 109.89 33.60 108.93 33.60 108.45 33.60 M 122.49 39.58 C 116.76 39.75 112.48 46.87 116.20 51.64 C 119.05 57.33 128.26 55.72 129.79 49.84 C 131.66 45.06 127.61 39.30 122.49 39.58 M 80.55 40.73 C 75.76 43.45 75.72 50.94 80.29 53.92 C 85.67 57.86 94.10 51.88 91.95 45.51 C 91.10 40.52 84.72 37.83 80.55 40.73 M 101.76 40.31 C 101.72 41.22 101.70 42.14 101.67 43.06 C 102.43 43.57 103.19 44.07 103.95 44.58 C 104.62 44.04 105.29 43.50 105.96 42.96 C 105.86 42.25 105.66 40.84 105.56 40.14 C 104.29 40.17 103.02 40.23 101.76 40.31 M 95.66 56.62 C 94.58 62.61 100.88 67.93 106.57 65.52 C 107.41 64.98 108.26 64.45 109.11 63.94 C 110.28 61.80 111.90 59.42 110.98 56.88 C 110.29 53.15 106.60 50.50 102.87 50.72 C 99.50 50.83 96.75 53.55 95.66 56.62 Z" />
<path fill="#fdfefd" opacity="1.00" d=" M 150.48 17.77 C 154.90 7.98 165.19 0.99 176.03 1.15 C 181.65 0.82 187.54 2.01 192.02 5.60 C 192.47 4.32 192.95 3.06 193.42 1.79 C 195.85 1.80 198.30 1.65 200.74 1.87 C 202.88 3.13 202.49 5.93 202.74 8.03 C 202.70 14.39 202.88 20.76 202.56 27.11 C 199.64 27.15 196.73 27.14 193.82 27.15 C 193.49 26.84 192.82 26.23 192.48 25.93 C 191.91 22.79 191.40 19.36 189.07 16.98 C 183.39 10.43 171.87 10.69 166.24 17.21 C 161.74 21.52 160.91 28.03 160.29 33.91 C 159.96 41.01 160.58 49.03 165.86 54.38 C 168.50 57.05 171.99 58.64 175.56 59.63 C 183.31 61.00 189.97 56.24 195.70 51.71 C 197.61 49.87 201.67 49.10 202.95 52.03 C 204.16 53.98 205.54 56.78 203.75 58.83 C 192.90 74.33 167.21 75.07 154.86 61.01 C 150.27 56.09 148.16 49.44 146.91 42.97 C 146.14 34.47 146.47 25.50 150.48 17.77 Z" />
<path fill="#fdfefd" opacity="1.00" d=" M 1.10 3.30 C 10.68 2.48 20.36 3.20 29.98 2.93 C 36.30 2.64 42.79 4.08 48.01 7.76 C 55.20 12.37 59.04 20.75 60.06 29.01 C 60.87 38.27 60.78 48.26 55.58 56.37 C 50.93 64.73 41.27 69.00 32.05 69.64 C 24.05 69.73 16.05 69.62 8.04 69.67 C 5.35 69.59 2.48 69.98 0.00 68.67 L 0.00 59.77 L 0.01 62.27 C 0.18 58.02 4.99 60.13 7.67 59.24 C 7.80 46.49 7.67 33.73 7.71 20.98 C 7.74 18.41 7.64 15.84 7.23 13.31 C 5.05 12.83 2.85 12.44 0.63 12.15 C 0.74 9.21 0.18 6.15 1.10 3.30 M 20.58 12.95 C 20.58 28.34 20.60 43.73 20.60 59.11 C 26.79 59.21 33.55 59.60 38.86 55.81 C 44.99 52.19 46.77 44.57 47.32 37.99 C 47.66 30.09 46.25 20.48 38.78 16.11 C 33.42 12.50 26.74 12.90 20.58 12.95 Z" />
<path fill="#fdfefd" opacity="1.00" d=" M 210.55 2.95 C 219.40 3.13 228.29 2.57 237.12 3.27 C 237.13 5.93 237.12 8.60 237.13 11.26 C 236.83 11.67 236.21 12.50 235.90 12.92 C 234.12 12.93 232.33 12.94 230.55 12.95 C 229.45 20.24 230.33 27.68 230.05 35.03 C 230.24 41.32 229.20 48.04 232.09 53.89 C 235.28 59.76 243.42 61.28 249.00 58.06 C 252.20 55.76 254.43 52.06 254.37 48.05 C 255.30 39.05 254.72 30.00 254.90 20.98 C 254.79 18.50 255.28 15.89 254.24 13.55 C 252.46 11.99 249.95 12.49 247.80 12.30 C 247.79 9.28 247.78 6.25 247.84 3.23 C 256.42 2.75 265.05 2.87 273.65 3.16 C 273.80 6.31 274.01 9.48 273.62 12.62 C 271.70 13.03 269.72 12.91 267.77 13.02 C 266.99 16.63 267.38 20.35 267.30 24.01 C 267.25 33.03 267.39 42.05 267.25 51.06 C 266.34 56.02 264.80 61.31 260.79 64.69 C 254.81 70.55 245.70 71.50 237.75 70.64 C 230.10 69.61 221.80 65.74 219.03 58.00 C 216.21 51.70 217.19 44.69 217.03 38.00 C 216.94 29.94 217.32 21.85 216.83 13.80 C 215.31 11.87 212.63 12.50 210.52 12.32 C 210.53 9.20 210.52 6.08 210.55 2.95 Z" />
<path fill="#fdfefd" opacity="1.00" d=" M 278.66 3.98 C 279.69 3.53 280.67 2.80 281.87 2.98 C 287.91 2.93 293.95 2.87 299.99 3.07 C 304.65 13.79 308.79 24.74 313.48 35.45 C 318.34 24.81 321.96 13.65 326.70 2.95 C 333.67 2.95 340.64 2.95 347.61 2.95 C 347.71 6.07 348.25 9.16 348.33 12.29 C 346.64 12.35 344.95 12.39 343.26 12.40 C 342.90 12.75 342.17 13.45 341.81 13.80 C 341.79 28.61 341.84 43.41 341.81 58.22 C 342.18 58.57 342.92 59.29 343.29 59.65 C 344.98 59.64 346.68 59.64 348.39 59.66 C 348.63 62.77 350.09 67.07 347.63 69.46 C 339.41 69.70 331.14 69.77 322.92 69.40 C 322.89 66.78 322.90 64.16 322.87 61.54 C 323.16 61.09 323.72 60.19 324.01 59.74 C 326.10 59.49 330.26 60.49 329.97 57.09 C 329.95 45.15 330.14 33.20 329.86 21.26 C 325.16 30.89 321.42 41.04 318.24 51.28 C 315.00 51.30 311.72 51.47 308.57 50.63 C 304.45 41.00 301.18 30.97 296.55 21.57 C 295.66 33.80 296.78 46.03 296.83 58.27 C 297.18 58.58 297.89 59.21 298.24 59.53 C 300.15 59.55 302.04 59.82 303.80 60.60 C 304.16 63.58 304.67 66.58 304.13 69.57 C 295.62 69.53 287.05 70.11 278.58 69.20 C 278.52 66.04 278.50 62.89 278.65 59.74 C 280.11 59.68 281.58 59.63 283.06 59.59 C 283.40 59.28 284.10 58.64 284.45 58.32 C 284.57 45.54 284.55 32.76 284.51 19.98 C 284.47 17.42 284.84 14.68 283.39 12.39 C 281.98 12.39 280.57 12.39 279.16 12.40 C 279.17 9.58 279.16 6.76 278.66 3.98 Z" />
<path fill="#fdfefd" opacity="1.00" d=" M 355.47 2.95 C 373.10 2.95 390.72 2.94 408.35 2.96 C 408.65 8.97 408.46 14.99 408.53 21.01 C 408.62 22.52 408.13 23.94 407.67 25.35 C 404.43 25.42 401.08 25.67 398.04 24.32 C 398.13 20.55 397.87 16.78 397.17 13.07 C 389.78 12.83 382.37 13.00 374.98 12.94 C 373.94 18.64 374.45 24.45 374.35 30.20 C 377.29 30.24 380.24 30.24 383.18 30.21 C 383.50 28.29 382.62 25.88 383.97 24.29 C 386.71 24.08 389.47 24.21 392.21 24.27 C 393.11 31.39 392.58 38.63 392.56 45.79 C 390.37 47.61 386.89 46.21 384.19 46.52 C 383.32 44.56 383.20 42.42 383.06 40.31 C 380.35 40.13 377.63 40.14 374.93 40.12 C 373.91 46.32 374.40 52.64 374.42 58.89 C 374.62 59.05 375.03 59.39 375.23 59.55 C 383.00 59.53 390.84 60.05 398.58 59.22 C 398.91 54.71 397.73 49.91 399.81 45.68 C 403.11 45.38 406.51 45.24 409.68 46.40 C 409.66 54.08 410.00 61.79 409.50 69.44 C 391.75 69.89 373.96 69.66 356.21 69.55 C 356.03 69.35 355.67 68.94 355.49 68.73 C 355.46 65.79 355.00 62.70 355.84 59.84 C 357.92 59.38 362.14 60.50 361.90 57.09 C 361.65 42.64 362.61 28.12 361.26 13.71 C 360.90 13.38 360.16 12.71 359.79 12.38 C 358.33 12.39 356.88 12.40 355.43 12.40 C 355.41 9.25 355.40 6.10 355.47 2.95 Z" />
<path fill="#fdfefd" opacity="1.00" d=" M 417.56 4.41 C 417.91 4.05 418.61 3.32 418.96 2.95 C 424.95 2.95 430.94 2.98 436.93 2.93 C 439.82 6.63 441.91 10.86 444.23 14.93 C 450.30 25.81 456.57 36.58 462.70 47.43 C 463.40 40.65 462.89 33.82 463.05 27.02 C 462.92 22.67 463.39 18.26 462.78 13.93 C 461.18 11.31 457.43 12.75 454.91 12.38 C 454.72 9.24 453.95 6.08 454.68 2.95 C 463.56 2.95 472.45 2.96 481.35 2.95 C 481.36 6.09 481.36 9.23 481.35 12.37 C 479.32 12.38 477.29 12.39 475.27 12.45 C 474.86 13.59 474.22 14.71 474.29 15.96 C 474.27 33.85 474.30 51.73 474.28 69.62 C 470.38 69.65 466.48 69.66 462.59 69.60 C 453.26 54.32 444.92 38.45 435.67 23.13 C 435.76 34.82 435.73 46.52 435.83 58.21 C 436.19 58.55 436.92 59.24 437.28 59.59 C 439.44 59.57 441.62 59.65 443.68 60.40 C 444.00 62.95 444.13 65.52 444.17 68.09 C 443.80 68.47 443.06 69.24 442.69 69.62 C 434.32 69.36 425.89 70.12 417.56 69.20 C 417.49 66.05 417.47 62.89 417.64 59.74 C 419.46 59.66 421.30 59.61 423.13 59.55 C 424.38 56.86 423.97 53.85 424.03 50.97 C 424.03 39.97 424.01 28.98 424.03 17.98 C 424.07 16.31 423.88 14.64 423.30 13.08 C 421.56 12.03 419.52 12.87 417.65 12.83 C 417.50 10.02 417.53 7.22 417.56 4.41 Z" />
<path fill="#fdfefd" opacity="1.00" d=" M 487.90 3.03 C 506.64 2.84 525.39 3.01 544.14 2.95 C 544.96 7.92 544.43 12.98 544.59 18.00 C 544.51 20.86 545.11 23.95 543.51 26.52 C 540.52 26.26 537.08 27.37 534.47 25.47 C 533.43 21.80 534.41 17.90 533.85 14.15 C 530.98 11.62 526.39 13.42 522.84 13.17 C 522.64 28.33 522.73 43.50 522.78 58.67 C 526.25 60.31 530.17 59.36 533.87 59.74 C 534.04 62.86 534.02 65.99 534.03 69.12 C 525.76 70.29 517.34 69.37 509.02 69.64 C 505.56 69.33 501.76 70.45 498.61 68.62 C 498.61 65.62 498.32 62.55 499.18 59.62 C 502.69 59.40 506.45 60.34 509.73 58.66 C 509.85 45.45 509.74 32.23 509.78 19.01 C 509.84 16.97 509.61 14.95 509.19 12.96 C 505.99 13.40 501.71 11.66 499.26 14.22 C 498.91 18.28 499.39 22.39 498.64 26.42 C 495.06 27.12 490.89 28.05 487.87 25.36 C 487.93 17.91 487.87 10.47 487.90 3.03 Z" />
<path fill="#fdfefd" opacity="1.00" d=" M 558.26 12.30 C 558.26 9.18 558.19 6.06 558.51 2.96 C 567.63 2.94 576.74 2.95 585.85 2.95 C 592.19 18.82 597.33 35.14 603.15 51.20 C 604.23 54.05 604.95 57.07 606.67 59.63 C 608.22 59.66 609.78 59.70 611.34 59.75 C 611.53 63.04 611.49 66.33 611.48 69.63 C 603.09 69.67 594.70 69.64 586.31 69.63 C 585.95 69.25 585.23 68.49 584.88 68.11 C 584.83 65.29 584.85 62.45 585.48 59.68 C 587.78 59.65 590.09 59.61 592.39 59.34 C 591.57 55.97 590.19 52.77 588.68 49.66 C 581.69 48.55 574.58 48.98 567.54 49.18 C 566.42 52.54 565.53 55.98 564.62 59.41 C 566.94 59.60 569.27 59.64 571.61 59.76 C 572.28 62.65 572.47 65.60 572.43 68.56 C 571.37 69.16 570.26 69.76 569.00 69.62 C 562.64 69.64 556.29 69.65 549.93 69.61 C 548.48 69.69 547.16 69.07 545.84 68.59 C 545.77 65.61 545.79 62.62 546.44 59.70 C 548.03 59.63 549.65 59.71 551.24 59.45 C 556.81 45.81 560.68 31.53 565.89 17.75 C 566.50 16.31 566.55 14.74 566.57 13.21 C 563.82 12.69 561.05 12.33 558.26 12.30 M 571.02 38.90 C 575.92 39.00 580.83 39.00 585.74 38.90 C 583.27 31.45 580.87 23.99 578.25 16.60 C 575.54 23.93 573.45 31.47 571.02 38.90 Z" />
<path fill="#fdfefd" opacity="1.00" d=" M 616.86 3.24 C 628.21 2.61 639.60 3.12 650.97 2.94 C 658.19 2.78 665.77 5.98 669.64 12.26 C 672.92 17.96 673.08 25.23 670.22 31.13 C 667.89 35.16 663.66 37.49 659.61 39.45 C 666.07 44.84 666.91 54.42 673.32 59.72 C 674.67 59.67 676.02 59.62 677.39 59.58 C 677.75 59.94 678.46 60.65 678.82 61.00 C 678.82 63.80 678.83 66.60 678.80 69.40 C 674.21 69.84 669.61 69.62 665.02 69.66 C 663.31 69.81 661.55 68.97 660.66 67.50 C 657.88 63.51 656.77 58.67 654.46 54.43 C 652.21 50.32 650.68 45.45 646.69 42.63 C 643.53 41.42 640.09 42.00 636.81 41.88 C 636.84 47.73 636.78 53.57 636.91 59.41 C 638.94 59.58 640.97 59.65 643.02 59.71 C 643.56 60.00 644.64 60.58 645.18 60.86 C 645.20 63.73 645.21 66.59 645.16 69.46 C 636.08 69.88 626.98 69.56 617.89 69.61 C 616.32 66.51 616.56 62.87 617.73 59.69 C 619.40 59.64 621.08 59.67 622.76 59.48 C 623.62 58.31 623.47 56.73 623.80 55.38 C 624.36 41.50 623.35 27.65 623.36 13.77 C 622.96 13.42 622.16 12.73 621.77 12.38 C 620.11 12.39 618.46 12.39 616.83 12.38 C 616.82 9.33 616.80 6.29 616.86 3.24 M 636.82 12.96 C 636.87 19.19 636.70 25.42 636.87 31.65 C 642.18 31.91 647.73 32.47 652.85 30.72 C 655.73 29.82 657.09 26.92 658.27 24.39 C 658.24 22.87 658.23 21.36 658.25 19.84 C 657.18 16.53 654.69 13.45 651.03 13.09 C 646.30 12.77 641.55 13.05 636.82 12.96 Z" />
<path fill="#fdfefd" opacity="1.00" d=" M 679.34 3.13 C 688.05 2.76 696.77 3.03 705.48 2.95 C 705.51 6.04 705.50 9.13 705.51 12.21 C 703.61 12.39 701.73 12.59 699.85 12.87 C 702.88 19.59 706.77 25.87 710.94 31.94 C 714.84 25.97 718.00 19.56 721.13 13.17 C 719.28 12.87 717.43 12.54 715.60 12.21 C 715.59 9.18 715.58 6.14 715.72 3.11 C 724.14 2.86 732.58 2.83 741.00 3.15 L 741.00 12.04 C 739.37 12.67 737.66 13.02 735.97 13.37 C 731.44 19.25 727.89 25.79 723.79 31.95 C 721.58 35.40 719.18 38.76 717.46 42.48 C 717.06 48.07 717.37 53.69 717.36 59.30 C 720.43 59.79 723.68 59.18 726.64 60.15 C 726.97 63.23 726.80 66.34 726.74 69.44 C 715.80 69.64 704.79 69.97 693.89 69.30 C 692.30 66.39 693.30 62.85 693.49 59.70 C 696.72 59.63 699.97 59.69 703.20 59.28 C 703.19 54.47 703.31 49.66 703.14 44.86 C 703.10 42.70 701.67 40.92 700.65 39.13 C 695.49 31.25 691.17 22.84 685.84 15.06 C 684.58 12.76 681.62 13.04 679.45 12.30 C 679.05 9.26 678.97 6.18 679.34 3.13 Z" />
</g>
</svg>
