<?xml version="1.0" encoding="UTF-8" ?>
<!DOCTYPE svg PUBLIC "-//W3C//DTD SVG 1.1//EN" "http://www.w3.org/Graphics/SVG/1.1/DTD/svg11.dtd">
<svg width="388pt" height="112pt" viewBox="0 0 388 112" version="1.1" xmlns="http://www.w3.org/2000/svg">
<g id="#fdfefbff">
<path fill="#fdfefb" opacity="1.00" d=" M 60.38 4.47 C 69.17 1.07 78.82 1.46 88.08 1.44 C 91.21 1.53 95.32 1.81 96.85 5.07 C 98.23 9.16 97.72 15.69 92.51 16.65 C 85.56 17.51 78.18 15.27 71.40 17.69 C 66.68 20.92 67.86 27.71 68.23 32.62 C 73.14 32.86 78.01 31.56 82.91 31.99 C 89.30 32.78 89.47 43.56 83.57 45.27 C 78.62 46.93 73.35 46.82 68.20 46.81 C 68.35 54.58 69.80 62.35 69.07 70.12 C 68.48 77.52 55.68 78.15 53.89 71.10 C 51.76 62.95 52.15 54.41 51.61 46.06 C 51.54 36.04 51.24 25.97 52.58 16.01 C 53.35 11.38 55.50 6.01 60.38 4.47 Z" />
<path fill="#fdfefb" opacity="1.00" d=" M 231.70 9.48 C 230.21 5.71 232.39 0.04 237.05 0.32 C 239.84 -0.21 242.13 1.66 243.50 3.89 C 245.17 1.06 248.68 -0.72 251.89 0.53 C 255.70 1.83 256.65 6.88 255.17 10.22 C 252.52 15.10 247.64 18.12 243.39 21.46 C 239.20 17.83 233.76 14.93 231.70 9.48 Z" />
<path fill="#fdfefb" opacity="1.00" d=" M 108.85 8.96 C 111.53 3.60 118.13 0.27 123.95 2.28 C 128.68 3.91 131.08 8.65 133.26 12.78 C 137.34 21.14 140.36 29.99 142.73 38.97 C 145.47 48.44 147.77 58.09 148.49 67.94 C 149.18 74.91 139.63 79.93 134.31 75.60 C 131.22 71.39 132.25 65.58 129.73 61.09 C 128.57 59.68 126.54 59.89 124.92 59.88 C 119.84 60.08 114.77 60.49 109.75 61.22 C 107.39 65.45 107.50 70.39 106.18 74.91 C 102.79 80.63 92.63 77.88 91.07 71.88 C 90.49 65.91 91.96 60.00 93.21 54.22 C 97.00 38.72 100.99 22.98 108.85 8.96 M 111.45 46.26 C 116.75 47.52 122.29 47.34 127.59 46.16 C 125.82 37.53 124.64 28.29 119.80 20.74 C 115.05 28.42 113.38 37.55 111.45 46.26 Z" />
<path fill="#fdfefb" opacity="1.00" d=" M 267.48 2.69 C 270.39 1.25 274.02 1.46 277.02 2.57 C 280.56 4.23 280.48 8.63 280.35 11.95 C 279.42 26.02 277.34 40.10 278.28 54.22 C 278.55 56.79 279.05 60.26 281.98 61.05 C 288.46 62.90 294.66 59.15 300.99 58.46 C 303.96 57.91 307.16 60.05 307.36 63.15 C 308.01 67.03 306.52 71.68 302.62 73.24 C 292.35 77.60 279.84 79.43 269.53 74.29 C 263.78 71.01 262.03 64.01 261.64 57.86 C 260.97 42.27 262.39 26.69 263.66 11.16 C 263.99 8.08 264.36 4.27 267.48 2.69 Z" />
<path fill="#fdfefb" opacity="1.00" d=" M 298.51 12.10 C 296.83 4.96 308.32 -1.21 312.59 5.27 C 316.38 14.89 318.95 25.22 325.10 33.73 C 331.36 25.73 334.04 15.68 337.61 6.34 C 338.35 4.63 339.90 3.32 341.70 2.85 C 346.65 2.09 351.43 6.10 352.26 10.91 C 350.46 20.83 345.22 29.63 340.14 38.19 C 338.05 41.93 334.92 45.11 333.38 49.14 C 332.15 57.00 332.85 65.07 331.48 72.91 C 329.79 76.75 325.07 78.11 321.20 77.52 C 317.80 76.83 315.82 73.35 315.59 70.10 C 315.21 63.12 316.21 56.17 316.50 49.21 C 315.05 44.89 311.90 41.44 309.52 37.62 C 304.41 29.86 300.16 21.29 298.51 12.10 Z" />
<path fill="#fdfefb" opacity="1.00" d=" M 164.31 6.40 C 168.32 1.40 176.71 2.89 179.49 8.45 C 184.54 18.22 187.02 29.08 191.15 39.24 C 194.39 30.63 196.95 21.78 200.08 13.13 C 201.50 9.54 203.17 5.33 207.17 3.97 C 210.89 2.91 215.80 3.29 218.01 6.94 C 220.67 11.46 221.42 16.78 222.44 21.84 C 225.00 37.46 227.59 53.24 227.31 69.10 C 227.33 75.11 219.60 78.39 214.94 75.06 C 211.72 73.24 211.14 69.34 210.89 66.01 C 209.98 54.56 210.19 42.99 207.93 31.68 C 205.24 40.80 202.36 49.88 198.79 58.70 C 197.47 62.98 192.36 65.22 188.19 64.03 C 185.03 62.76 183.51 59.43 182.28 56.50 C 179.14 48.32 176.45 39.99 173.62 31.70 C 171.97 43.00 171.62 54.42 171.12 65.80 C 170.66 69.70 170.86 74.71 166.92 76.95 C 163.44 78.46 158.81 77.55 156.46 74.46 C 154.58 72.50 154.56 69.59 154.57 67.04 C 155.19 52.02 156.87 37.05 159.47 22.24 C 160.59 16.89 160.95 10.92 164.31 6.40 Z" />
<path fill="#fdfefb" opacity="1.00" d=" M 240.10 26.04 C 243.53 25.06 248.30 25.06 250.49 28.38 C 252.56 32.33 251.40 36.84 251.58 41.08 C 252.11 48.38 251.66 55.72 252.25 63.03 C 252.00 66.87 253.21 71.29 250.77 74.63 C 247.15 79.74 237.79 78.14 236.39 71.90 C 234.31 60.71 235.54 49.25 235.22 37.94 C 235.23 33.68 235.07 27.57 240.10 26.04 Z" />
<path fill="#fdfefb" opacity="1.00" d=" M 17.42 37.52 C 24.10 34.81 32.16 40.94 31.25 48.13 C 31.28 54.39 24.92 59.46 18.83 57.93 C 12.31 56.98 8.40 49.06 11.23 43.20 C 12.36 40.53 14.66 38.42 17.42 37.52 Z" />
<path fill="#fdfefb" opacity="1.00" d=" M 363.46 37.65 C 368.42 35.54 374.88 38.12 376.77 43.24 C 378.85 48.13 376.95 54.88 371.90 57.11 C 367.14 59.50 360.45 57.78 358.01 52.88 C 354.93 47.49 357.35 39.60 363.46 37.65 Z" />
<path fill="#fdfefb" opacity="1.00" d=" M 33.77 57.63 C 36.44 54.61 37.67 49.75 41.93 48.54 C 44.90 47.95 46.44 51.53 45.77 53.96 C 44.77 58.10 41.52 61.51 41.52 65.94 C 41.35 71.30 44.73 75.98 48.76 79.19 C 55.37 84.50 63.30 87.84 71.21 90.71 C 90.63 97.39 110.79 101.77 131.12 104.49 C 105.20 104.15 79.49 99.62 54.58 92.58 C 41.20 88.36 27.96 83.33 15.79 76.29 C 9.93 72.39 3.49 68.38 0.00 62.07 L 0.00 59.79 C 1.17 58.44 3.02 57.30 4.85 57.99 C 9.69 59.58 13.84 63.16 19.08 63.50 C 24.53 64.10 30.55 62.31 33.77 57.63 Z" />
<path fill="#fdfefb" opacity="1.00" d=" M 342.39 53.96 C 341.76 51.83 342.75 49.37 344.90 48.56 C 348.38 48.22 350.14 51.72 351.78 54.16 C 354.63 58.93 359.14 63.23 364.96 63.60 C 371.54 64.63 377.18 60.66 382.89 58.17 C 384.76 57.06 386.65 58.19 388.00 59.51 L 388.00 62.03 C 387.15 64.00 385.88 65.77 384.31 67.22 C 378.65 72.53 371.97 76.64 365.08 80.14 C 351.35 86.94 336.81 92.02 321.95 95.69 C 300.66 101.31 278.63 104.53 256.60 104.43 C 273.38 102.58 289.97 99.08 306.17 94.38 C 317.22 90.74 328.73 87.39 338.12 80.23 C 342.36 77.06 346.24 72.52 346.48 66.98 C 346.80 62.22 343.55 58.36 342.39 53.96 Z" />
<path fill="#fdfefb" opacity="1.00" d=" M 181.40 71.51 C 185.65 69.47 191.21 71.51 193.24 75.73 C 195.84 80.55 193.95 87.33 188.99 89.82 C 184.36 91.93 178.39 89.24 176.60 84.54 C 174.57 79.86 176.35 73.38 181.40 71.51 Z" />
<path fill="#fdfefb" opacity="1.00" d=" M 212.16 80.99 C 218.58 78.20 225.42 85.59 223.08 91.88 C 221.77 97.36 214.11 100.36 209.91 96.17 C 204.76 92.30 205.91 83.03 212.16 80.99 Z" />
<path fill="#fdfefb" opacity="1.00" d=" M 158.22 100.14 C 165.25 98.24 170.71 92.43 178.05 91.58 C 182.27 94.70 188.13 94.75 192.23 91.39 C 197.79 92.46 201.71 96.97 207.01 98.69 C 204.46 100.16 202.44 102.30 200.97 104.84 C 199.62 104.40 198.31 103.64 196.84 103.76 C 194.84 105.92 195.47 108.95 195.81 111.57 C 188.43 112.30 181.06 111.50 173.67 111.60 C 173.93 108.56 174.52 105.41 173.39 102.46 C 169.71 103.09 166.49 105.12 162.85 105.86 C 156.04 107.42 148.48 108.05 142.04 104.82 C 142.20 103.58 142.38 102.15 143.90 101.94 C 148.59 100.76 153.65 102.11 158.22 100.14 Z" />
<path fill="#fdfefb" opacity="1.00" d=" M 209.66 100.21 C 214.74 102.78 220.41 100.70 224.73 97.66 C 229.21 100.27 232.35 104.65 234.06 109.49 C 232.53 109.67 230.99 109.81 229.45 109.88 C 228.27 108.50 226.88 107.34 225.20 106.63 C 225.27 107.59 225.40 109.51 225.46 110.48 C 217.55 110.63 209.64 111.09 201.73 111.28 C 202.80 106.73 205.41 102.40 209.66 100.21 Z" />
</g>
</svg>
