<?xml version="1.0" encoding="UTF-8" ?>
<!DOCTYPE svg PUBLIC "-//W3C//DTD SVG 1.1//EN" "http://www.w3.org/Graphics/SVG/1.1/DTD/svg11.dtd">
<svg width="512pt" height="114pt" viewBox="0 0 512 114" version="1.1" xmlns="http://www.w3.org/2000/svg">
<g id="#fdfefbff">
<path fill="#fdfefb" opacity="1.00" d=" M 290.72 0.00 L 291.10 0.00 C 292.10 0.87 293.09 1.78 294.08 2.67 C 295.64 3.14 297.13 3.81 298.59 4.52 C 298.44 4.93 298.14 5.74 297.99 6.15 C 299.09 6.22 301.30 6.34 302.40 6.41 C 301.24 6.63 300.09 6.84 298.93 7.02 C 299.10 7.33 299.45 7.94 299.62 8.24 C 296.01 10.67 294.73 15.16 291.36 17.83 L 291.91 19.09 C 291.50 18.69 290.66 17.90 290.25 17.50 C 290.00 17.93 289.50 18.80 289.25 19.23 C 288.35 15.61 286.89 12.16 285.51 8.70 C 286.73 8.38 287.97 8.06 289.20 7.72 C 288.26 7.67 286.38 7.56 285.44 7.50 C 285.92 6.40 286.88 4.21 287.36 3.11 C 286.04 4.33 285.15 5.89 284.26 7.42 C 283.42 7.33 281.74 7.16 280.90 7.07 C 282.80 5.16 284.70 3.27 286.64 1.41 C 287.02 2.19 287.41 2.97 287.79 3.75 C 288.19 2.82 289.00 0.95 289.41 0.01 C 290.24 1.51 291.07 3.02 291.98 4.48 C 291.61 2.97 291.19 1.47 290.72 0.00 Z" />
<path fill="#fdfefb" opacity="1.00" d=" M 5.98 31.18 C 12.15 17.50 23.82 6.21 37.97 1.07 C 39.64 0.17 41.44 0.63 43.16 1.08 C 41.13 4.35 38.89 8.13 40.24 12.12 C 41.38 19.27 50.21 22.82 56.46 20.53 C 57.24 16.92 56.23 12.03 52.43 10.49 C 50.53 9.60 48.31 9.64 46.49 8.54 C 50.50 7.07 54.81 7.75 58.98 7.66 C 70.99 7.68 83.00 7.74 95.01 7.58 C 100.52 7.46 105.84 6.02 111.23 5.03 C 111.05 12.98 113.51 21.83 108.76 28.96 C 108.13 22.08 103.04 15.78 96.14 14.49 C 88.65 13.86 81.13 13.91 73.61 13.89 C 73.50 26.17 73.60 38.45 73.55 50.73 C 78.74 50.66 83.94 50.91 89.13 50.61 C 94.93 49.56 99.14 43.93 98.69 38.06 C 99.04 38.11 99.73 38.20 100.08 38.25 C 99.52 48.58 100.18 58.95 99.71 69.28 L 98.93 70.06 C 98.31 65.89 97.41 61.05 93.45 58.72 C 87.40 55.24 80.17 57.01 73.55 56.58 C 73.48 67.55 73.70 78.53 73.45 89.50 C 73.27 96.67 68.44 102.64 63.02 106.85 C 56.04 112.25 46.51 113.40 38.08 111.41 C 41.62 110.37 45.51 109.92 48.48 107.54 C 54.01 103.14 56.71 95.99 56.73 89.05 C 56.76 72.69 56.76 56.33 56.76 39.97 C 57.06 37.21 54.86 34.60 52.13 34.29 C 47.63 33.62 43.65 37.56 43.23 41.92 C 39.51 35.13 37.33 27.65 36.40 19.99 C 34.95 28.30 37.65 36.75 42.10 43.72 C 39.80 41.80 37.17 39.39 33.89 40.18 C 28.58 41.29 25.13 46.93 25.43 52.17 C 23.87 46.54 24.55 40.60 25.30 34.89 C 26.26 27.54 28.86 20.54 31.93 13.84 C 23.14 24.24 21.56 38.64 22.50 51.75 L 22.20 51.81 C 20.95 48.35 19.61 44.11 15.85 42.71 C 11.76 41.79 8.01 44.65 5.90 47.90 C 4.02 51.04 2.38 54.44 1.88 58.11 C 1.35 57.26 0.83 56.40 0.30 55.54 C 1.08 47.22 2.54 38.85 5.98 31.18 Z" />
<path fill="#fdfefb" opacity="1.00" d=" M 498.92 14.01 C 499.23 7.96 505.34 5.46 509.93 3.02 C 506.31 6.92 499.16 9.16 500.48 15.82 C 502.01 15.15 503.84 14.46 503.90 12.46 C 504.96 12.06 506.04 11.66 507.12 11.28 C 506.32 13.75 509.14 16.87 506.62 18.68 C 505.67 19.51 504.65 20.26 503.58 20.93 C 502.66 19.57 501.13 18.36 501.39 16.51 C 499.88 16.69 497.32 16.75 498.92 14.01 Z" />
<path fill="#fdfefb" opacity="1.00" d=" M 281.16 8.09 C 282.32 8.24 283.49 8.39 284.66 8.54 C 285.90 12.13 287.53 15.61 288.13 19.40 C 285.60 15.76 283.28 11.98 281.16 8.09 Z" />
<path fill="#fdfefb" opacity="1.00" d=" M 507.14 21.01 C 510.00 16.90 511.84 12.29 512.00 7.23 L 512.00 16.93 L 511.99 14.97 C 511.57 17.86 509.63 19.79 507.14 21.01 Z" />
<path fill="#fdfefb" opacity="1.00" d=" M 495.87 21.16 C 496.09 19.99 496.73 19.14 497.80 18.59 C 497.97 20.21 498.13 21.82 498.27 23.43 C 498.88 23.46 500.09 23.50 500.70 23.53 C 500.61 23.16 500.41 22.42 500.32 22.05 C 500.95 21.85 502.20 21.45 502.83 21.25 C 502.93 21.56 503.12 22.18 503.22 22.49 C 504.23 22.23 506.24 21.70 507.25 21.44 C 506.68 23.09 505.85 24.63 504.99 26.14 C 505.97 25.72 507.92 24.88 508.90 24.46 C 507.74 26.41 505.65 27.34 504.13 28.92 C 504.30 27.45 503.96 26.18 503.10 25.10 C 502.65 28.75 502.49 32.63 500.14 35.68 C 499.57 32.70 499.94 29.45 498.55 26.68 L 497.50 26.42 C 498.06 24.43 496.45 22.92 495.87 21.16 Z" />
<path fill="#fdfefb" opacity="1.00" d=" M 498.95 19.46 C 499.23 19.49 499.79 19.53 500.08 19.56 C 500.00 20.39 499.85 22.06 499.77 22.89 C 498.82 22.17 498.54 21.03 498.95 19.46 Z" />
<path fill="#fdfefb" opacity="1.00" d=" M 350.73 20.22 C 356.27 29.60 360.08 39.88 364.37 49.86 C 370.11 63.08 375.71 76.37 381.51 89.57 C 382.85 92.97 386.00 95.43 389.68 95.72 C 389.98 95.98 390.57 96.48 390.87 96.73 C 380.92 97.45 370.90 97.01 360.92 97.01 C 360.64 96.76 360.08 96.25 359.80 96.00 C 362.24 95.47 365.42 93.95 364.77 90.89 C 363.38 85.48 360.84 80.44 359.07 75.15 C 351.52 75.18 343.98 75.08 336.43 75.21 C 334.89 80.92 331.31 86.21 330.97 92.13 C 331.28 95.47 335.33 94.65 336.67 97.00 C 328.96 96.95 321.16 97.66 313.52 96.44 C 315.50 95.30 317.97 95.36 319.82 93.97 C 321.45 92.84 322.27 90.97 323.09 89.24 C 327.15 80.13 330.40 70.68 334.38 61.53 C 337.23 54.61 340.31 47.80 343.11 40.87 C 345.86 34.07 349.16 27.43 350.73 20.22 M 347.82 45.96 C 344.84 53.84 341.77 61.68 338.68 69.52 C 344.75 69.86 350.85 69.63 356.93 69.63 C 354.00 61.70 350.99 53.80 347.82 45.96 Z" />
<path fill="#fdfefb" opacity="1.00" d=" M 111.10 85.89 C 119.67 64.17 128.91 42.74 137.69 21.11 C 144.38 33.86 149.64 47.29 155.40 60.47 C 159.98 70.40 163.67 80.73 168.51 90.54 C 170.14 93.92 173.56 95.71 177.17 96.10 C 175.92 97.71 173.68 96.88 171.97 97.11 C 163.25 96.80 154.45 97.69 145.78 96.59 C 147.04 95.13 149.57 95.43 150.39 93.55 C 151.25 92.12 151.27 90.39 150.71 88.85 C 149.32 84.16 147.00 79.81 145.42 75.18 C 137.95 75.14 130.48 75.10 123.02 75.19 C 121.27 80.48 118.44 85.49 117.52 91.01 C 116.90 94.80 121.28 94.97 123.24 96.98 C 115.54 97.18 107.84 97.11 100.14 97.03 C 100.66 94.77 103.43 95.75 104.99 94.81 C 108.31 92.95 109.66 89.18 111.10 85.89 M 125.10 69.68 C 131.14 69.67 137.18 69.70 143.21 69.66 C 140.39 61.76 137.31 53.94 134.20 46.14 C 131.12 53.97 128.33 61.91 125.10 69.68 Z" />
<path fill="#fdfefb" opacity="1.00" d=" M 185.31 21.83 C 191.05 26.68 195.64 32.73 201.08 37.90 C 211.93 49.28 222.59 60.83 233.56 72.09 C 233.59 58.74 233.61 45.38 233.58 32.02 C 233.46 28.11 229.41 26.68 226.79 24.83 C 236.28 24.40 245.83 24.43 255.31 24.82 C 252.19 26.13 247.92 27.36 247.56 31.43 C 247.23 38.26 247.60 45.12 247.39 51.95 C 246.68 67.69 247.35 83.44 247.51 99.18 C 242.37 95.47 238.50 90.36 234.02 85.93 C 222.61 73.65 211.00 61.55 199.74 49.13 C 199.66 62.43 199.76 75.73 199.71 89.03 C 199.38 92.85 203.07 96.02 206.79 95.53 C 206.83 95.92 206.90 96.70 206.93 97.09 C 197.39 96.93 187.82 97.43 178.29 96.81 C 179.44 94.64 182.56 95.82 183.91 93.84 C 185.89 92.20 186.14 89.42 186.19 87.03 C 186.15 79.71 186.22 72.39 186.17 65.06 C 185.10 50.68 186.60 36.19 185.31 21.83 Z" />
<path fill="#fdfefb" opacity="1.00" d=" M 260.32 42.26 C 259.10 36.00 259.22 29.42 259.73 23.07 C 264.96 24.88 270.51 24.53 275.95 24.62 C 286.95 25.48 297.96 24.42 308.98 24.53 C 312.51 24.54 315.94 23.66 319.41 23.11 C 319.48 27.73 319.40 32.35 319.45 36.98 C 319.40 38.78 319.71 40.74 318.69 42.34 C 317.73 38.00 317.05 32.62 312.30 30.77 C 307.29 29.08 301.82 30.26 296.62 29.90 C 296.67 49.24 296.53 68.59 296.69 87.92 C 296.52 92.16 299.85 96.03 304.24 95.67 L 304.18 97.09 C 294.47 97.09 284.77 97.10 275.06 97.09 C 275.08 96.70 275.13 95.93 275.16 95.55 C 278.93 95.83 282.30 92.82 282.23 89.01 C 282.28 69.31 282.21 49.62 282.26 29.92 C 276.96 30.34 271.33 29.00 266.27 31.02 C 261.90 33.01 261.01 38.04 260.32 42.26 Z" />
<path fill="#fdfefb" opacity="1.00" d=" M 400.49 29.54 C 405.82 23.68 414.43 22.77 421.87 23.78 C 426.49 24.60 431.19 24.65 435.88 24.54 C 435.51 30.15 435.57 36.09 433.72 41.42 C 433.03 37.23 431.38 32.83 427.45 30.67 C 422.60 28.25 416.38 27.67 411.56 30.45 C 406.76 33.05 405.50 40.62 409.75 44.29 C 414.75 48.82 421.00 51.61 426.50 55.46 C 432.24 59.20 438.92 62.92 441.06 69.93 C 442.77 76.71 441.92 84.47 437.45 90.06 C 432.87 95.98 425.07 98.17 417.90 98.63 C 409.83 98.83 401.12 97.59 394.75 92.21 C 393.59 86.95 394.27 81.23 396.24 76.20 C 396.51 75.08 397.35 74.35 398.41 73.97 C 398.63 78.37 399.37 83.00 402.36 86.45 C 407.42 93.56 418.40 95.79 425.59 90.67 C 430.83 86.82 430.59 78.29 425.60 74.35 C 418.73 68.71 410.72 64.66 403.61 59.34 C 400.23 56.66 396.77 53.43 395.94 49.00 C 394.91 42.31 395.47 34.61 400.49 29.54 Z" />
<path fill="#fdfefb" opacity="1.00" d=" M 442.04 25.38 C 447.26 24.04 452.69 24.69 458.02 24.56 C 463.51 24.68 469.01 24.33 474.49 24.75 C 473.01 25.88 471.13 26.47 469.87 27.86 C 468.62 29.65 469.22 32.00 470.20 33.76 C 474.34 41.82 478.92 49.66 482.84 57.84 C 482.06 58.97 481.21 60.04 480.35 61.09 C 480.10 64.40 480.73 67.86 479.49 71.03 C 478.62 74.27 476.30 76.83 475.05 79.91 C 473.81 83.42 473.27 87.27 471.05 90.36 C 470.86 81.89 471.24 73.42 470.96 64.95 C 470.94 63.84 470.62 62.82 470.00 61.89 C 464.30 51.95 458.72 41.92 453.00 31.98 C 450.54 28.27 446.54 25.67 442.04 25.38 Z" />
<path fill="#fdfefb" opacity="1.00" d=" M 497.06 26.27 C 498.90 29.03 498.10 32.62 499.55 35.56 C 499.40 36.46 499.08 38.25 498.92 39.14 C 498.50 38.59 497.65 37.49 497.23 36.94 C 497.46 38.44 497.67 39.94 497.85 41.45 C 496.01 41.56 495.76 43.40 495.40 44.78 L 494.34 44.10 C 494.09 45.51 493.81 46.92 493.54 48.32 L 492.29 48.54 C 491.03 50.86 490.16 53.36 489.02 55.73 L 490.76 55.52 C 489.55 57.31 489.06 60.51 486.40 60.65 C 484.95 65.64 485.16 71.17 482.50 75.76 C 482.79 75.79 483.37 75.86 483.66 75.89 C 484.31 75.05 484.98 74.23 485.67 73.41 C 485.81 79.34 485.49 85.28 485.81 91.20 C 486.49 94.32 489.69 95.72 492.62 95.69 L 492.44 97.10 C 485.96 97.10 479.47 97.07 472.99 97.12 C 472.20 99.05 471.34 100.95 470.43 102.82 C 469.49 102.65 468.56 102.48 467.64 102.29 C 468.28 100.65 469.02 99.05 469.85 97.49 C 468.03 97.02 466.13 96.98 464.32 96.56 C 465.22 94.61 468.77 95.52 469.87 93.18 L 469.09 97.00 C 469.67 96.27 470.83 94.80 471.41 94.07 C 472.33 90.28 474.66 87.01 475.52 83.19 C 477.00 76.63 482.45 71.66 482.55 64.68 L 481.04 64.48 C 481.39 62.82 482.29 61.80 483.75 61.42 C 484.20 60.21 484.60 58.98 484.97 57.73 C 485.42 51.99 490.80 47.93 490.70 42.15 C 492.46 41.64 492.28 39.55 492.91 38.19 C 493.51 38.44 494.11 38.68 494.72 38.93 C 494.17 35.62 495.40 32.46 495.36 29.19 L 496.02 29.03 C 496.19 29.98 496.53 31.89 496.70 32.84 C 496.79 31.20 496.97 27.91 497.06 26.27 Z" />
<path fill="#fdfefb" opacity="1.00" d=" M 0.00 57.88 C 0.37 58.12 1.10 58.59 1.47 58.83 C 0.91 61.25 0.47 63.70 0.12 66.16 L 0.00 63.41 L 0.00 57.88 Z" />
<path fill="#fdfefb" opacity="1.00" d=" M 465.84 103.41 C 467.31 103.82 468.77 104.26 470.23 104.70 C 470.24 105.15 470.25 106.03 470.25 106.47 C 469.90 106.66 469.20 107.04 468.85 107.23 C 468.87 109.78 467.40 111.95 466.08 114.00 L 463.70 114.00 C 463.70 111.55 464.41 109.21 465.28 106.94 C 466.53 106.79 467.78 106.64 469.03 106.42 C 467.04 106.30 465.98 105.29 465.84 103.41 Z" />
</g>
</svg>
