<?xml version="1.0" encoding="UTF-8" ?>
<!DOCTYPE svg PUBLIC "-//W3C//DTD SVG 1.1//EN" "http://www.w3.org/Graphics/SVG/1.1/DTD/svg11.dtd">
<svg width="434pt" height="86pt" viewBox="0 0 434 86" version="1.1" xmlns="http://www.w3.org/2000/svg">
<g id="#fefefaff">
<path fill="#fefefa" opacity="1.00" d=" M 127.21 0.00 L 127.86 0.00 C 123.12 8.03 121.24 18.18 113.36 23.98 C 114.77 23.36 116.19 22.74 117.60 22.12 C 116.69 25.32 115.98 28.57 115.31 31.83 C 114.63 35.25 111.85 37.62 109.98 40.41 C 111.54 39.23 113.04 37.96 114.53 36.69 C 114.17 39.09 114.17 41.55 113.52 43.90 C 111.33 46.76 108.26 48.76 105.81 51.38 C 108.51 50.03 110.98 48.28 113.42 46.52 C 112.63 49.35 111.86 52.35 109.90 54.63 C 107.21 58.16 102.63 60.48 102.02 65.30 C 102.57 67.64 106.64 66.41 108.32 67.99 C 103.63 68.39 98.90 68.30 94.23 67.84 C 96.14 66.97 98.25 66.74 100.30 66.40 C 101.18 63.35 101.89 60.25 101.96 57.06 C 102.55 45.40 104.96 33.73 109.93 23.13 C 111.26 20.21 112.94 17.47 114.20 14.52 C 104.29 27.77 101.08 44.80 100.42 61.01 C 98.80 60.78 97.62 59.45 97.45 57.83 C 97.12 54.53 95.29 51.41 95.97 48.02 C 97.11 42.17 97.03 35.96 99.87 30.57 C 100.32 30.58 101.22 30.61 101.67 30.62 C 101.53 30.08 101.25 29.00 101.11 28.46 L 102.40 28.62 C 102.82 25.26 104.08 22.08 106.29 19.51 C 111.27 11.24 118.49 4.21 127.21 0.00 Z" />
<path fill="#fefefa" opacity="1.00" d=" M 0.00 14.38 C 0.27 11.23 2.83 8.46 6.09 8.51 C 14.75 8.41 23.42 8.44 32.08 8.50 C 34.54 8.46 37.19 9.73 38.00 12.19 C 39.68 15.71 37.10 20.64 32.99 20.54 C 30.27 20.51 29.20 17.79 28.44 15.65 C 21.99 15.39 15.55 16.73 9.13 16.06 C 8.21 14.91 7.19 13.86 6.08 12.89 C 6.40 13.73 7.02 15.39 7.34 16.23 C 7.06 16.51 6.50 17.06 6.23 17.34 L 4.72 17.30 C 4.32 16.72 3.53 15.56 3.13 14.98 C 4.70 14.59 5.00 13.82 3.13 12.81 C 5.10 12.38 7.12 12.05 9.14 12.29 C 16.78 12.71 24.46 12.57 32.10 12.15 C 33.86 11.81 35.76 13.26 35.39 15.14 C 35.74 18.14 29.49 18.09 31.44 14.70 C 32.20 14.50 33.72 14.08 34.47 13.88 C 32.96 13.74 30.70 13.04 30.09 15.06 C 28.93 19.00 35.51 19.73 36.31 16.27 C 37.50 14.09 35.55 10.99 33.11 11.05 C 24.04 11.47 14.94 11.57 5.87 11.05 C 1.98 10.39 0.58 16.64 3.87 18.15 C 5.56 19.04 7.29 17.70 8.91 17.31 C 9.01 18.67 8.27 19.95 6.87 20.20 C 3.64 21.56 0.55 18.51 0.00 15.48 L 0.00 14.38 Z" />
<path fill="#fefefa" opacity="1.00" d=" M 138.54 10.67 C 146.47 7.11 155.48 8.47 163.65 10.40 C 163.20 15.80 164.21 21.56 162.11 26.67 C 161.03 23.07 160.82 18.85 157.75 16.24 C 152.96 12.03 144.84 11.66 140.02 16.04 C 135.95 20.04 136.00 27.00 139.72 31.22 C 145.82 38.58 155.13 42.49 160.81 50.29 C 166.72 57.95 167.58 69.61 161.49 77.43 C 157.45 82.81 150.77 85.39 144.25 86.00 L 138.60 86.00 C 134.12 85.24 128.84 84.99 125.46 81.66 C 124.94 75.85 125.33 69.83 126.20 64.04 C 127.81 66.36 128.06 69.23 129.02 71.82 C 131.74 79.91 142.49 83.69 149.84 79.66 C 154.98 76.53 156.19 69.58 154.72 64.12 C 153.00 58.23 147.77 54.48 143.15 50.91 C 136.96 46.24 130.57 40.76 128.43 33.00 C 125.78 24.43 130.25 14.24 138.54 10.67 Z" />
<path fill="#fefefa" opacity="1.00" d=" M 171.35 14.93 C 171.83 12.82 171.65 10.36 173.22 8.67 C 174.74 9.14 176.27 9.71 177.88 9.85 C 187.94 10.35 198.02 9.65 208.08 10.26 C 215.20 9.46 222.45 10.67 229.49 9.13 C 230.12 14.03 230.41 19.08 229.59 23.97 C 227.24 21.97 227.77 17.55 224.17 16.57 C 218.32 14.99 212.13 16.12 206.15 15.76 C 206.17 34.16 206.11 52.57 206.16 70.98 C 206.35 74.29 206.18 77.91 207.94 80.86 C 209.84 82.95 213.18 82.34 215.75 82.82 C 215.75 83.24 215.76 84.07 215.77 84.49 C 206.43 84.48 197.08 84.68 187.76 84.41 C 187.45 84.08 186.82 83.41 186.51 83.08 C 188.82 82.39 192.38 83.19 193.56 80.48 C 195.16 76.55 194.68 72.17 195.13 68.03 C 195.23 50.60 195.14 33.17 195.18 15.75 C 189.43 15.91 183.63 15.46 177.91 16.07 C 174.15 16.47 172.47 20.13 171.14 23.17 C 169.99 20.51 171.00 17.65 171.35 14.93 Z" />
<path fill="#fefefa" opacity="1.00" d=" M 240.39 20.45 C 247.53 12.48 258.31 8.02 268.99 8.46 C 279.45 8.73 290.50 12.43 297.13 20.92 C 309.88 36.69 307.77 61.52 293.83 75.87 C 287.87 81.86 279.67 85.18 271.33 86.00 L 265.76 86.00 C 258.20 85.30 250.48 83.23 244.66 78.12 C 227.91 64.31 226.57 36.73 240.39 20.45 M 261.53 13.67 C 253.00 15.28 246.56 22.88 244.82 31.16 C 241.90 43.17 242.46 56.57 248.72 67.47 C 253.34 75.58 262.38 81.77 271.99 80.88 C 278.70 80.79 284.47 76.24 287.97 70.80 C 292.48 63.74 293.24 55.10 293.12 46.93 C 292.53 37.06 289.89 26.50 282.43 19.52 C 277.15 14.02 268.87 12.12 261.53 13.67 Z" />
<path fill="#fefefa" opacity="1.00" d=" M 55.36 10.07 C 63.27 9.75 71.20 9.99 79.11 9.94 C 80.45 9.70 81.47 10.21 81.92 11.47 C 79.92 11.83 77.55 11.44 75.92 12.90 C 74.09 15.14 74.25 18.26 74.10 20.99 C 74.14 37.01 74.05 53.04 74.14 69.06 C 74.57 72.99 73.97 77.30 76.10 80.82 C 77.97 83.66 82.64 81.20 84.21 84.32 C 78.17 84.76 72.11 84.41 66.07 84.52 C 62.26 84.39 58.38 84.93 54.64 84.00 C 56.20 82.62 58.32 82.75 60.22 82.30 C 62.39 81.11 62.57 78.32 62.87 76.15 C 63.86 65.74 63.39 55.27 63.42 44.84 C 51.80 44.84 40.18 44.83 28.56 44.83 C 28.55 54.94 28.55 65.05 28.57 75.16 C 29.54 76.00 30.50 76.84 31.41 77.73 C 23.37 78.07 15.31 77.91 7.27 77.80 C 8.12 77.04 8.98 76.31 9.87 75.59 C 9.96 58.39 9.86 41.19 9.92 24.00 C 9.97 22.57 9.70 21.18 9.35 19.81 C 16.10 19.94 22.85 19.89 29.60 19.81 C 29.35 20.30 28.85 21.27 28.60 21.76 C 28.47 27.74 28.64 33.72 28.55 39.70 C 40.20 39.73 51.84 39.72 63.48 39.70 C 63.13 31.46 64.24 23.08 62.66 14.94 C 61.62 11.61 57.85 11.57 54.96 11.61 C 55.06 11.22 55.26 10.45 55.36 10.07 M 16.13 22.83 C 16.18 40.58 15.95 58.34 16.25 76.09 C 16.65 75.95 17.43 75.67 17.83 75.54 C 18.35 57.52 17.96 39.44 18.03 21.40 C 17.36 21.83 15.61 21.44 16.13 22.83 M 11.79 21.38 C 11.58 39.45 11.91 57.54 11.63 75.62 C 13.06 75.35 14.13 75.80 14.82 76.98 C 13.46 74.21 14.05 71.02 13.94 68.04 C 13.73 52.71 14.17 37.35 13.84 22.01 C 13.33 21.85 12.30 21.53 11.79 21.38 M 20.46 25.00 C 20.50 41.91 20.48 58.83 20.47 75.74 C 20.96 75.72 21.93 75.68 22.42 75.66 C 22.33 57.58 22.48 39.49 22.34 21.40 C 19.60 20.86 20.77 23.64 20.46 25.00 M 24.53 75.96 C 25.02 75.82 25.99 75.54 26.48 75.40 C 26.52 57.61 26.41 39.82 26.55 22.03 C 26.09 21.81 25.17 21.36 24.72 21.14 C 24.37 39.41 24.71 57.69 24.53 75.96 Z" />
<path fill="#fefefa" opacity="1.00" d=" M 308.56 10.74 C 313.94 9.35 319.53 10.12 325.01 9.92 C 331.37 10.09 337.76 9.56 344.09 10.23 C 352.37 11.18 359.47 18.45 359.83 26.85 C 360.24 35.54 355.04 43.46 348.47 48.73 C 353.70 56.65 358.96 64.57 364.87 72.01 C 367.41 75.24 369.99 78.61 373.56 80.77 C 375.96 82.28 378.85 82.55 381.39 83.75 C 376.73 85.56 371.70 84.60 366.86 84.47 C 362.72 84.26 359.23 81.42 356.61 78.41 C 350.04 70.30 344.91 61.17 339.11 52.52 C 335.40 52.51 331.70 52.12 327.98 52.13 C 327.92 60.16 327.92 68.19 328.54 76.20 C 328.75 78.05 329.13 80.04 330.49 81.43 C 332.82 82.63 335.55 82.44 338.07 82.98 C 336.69 85.12 334.07 84.41 331.96 84.53 C 324.77 84.42 317.57 84.69 310.39 84.41 C 310.10 84.11 309.51 83.51 309.22 83.21 C 311.20 82.78 313.22 82.42 315.17 81.86 C 317.74 75.95 317.25 69.34 317.37 63.04 C 317.40 48.70 317.46 34.36 317.34 20.02 C 317.18 17.57 317.11 14.68 315.08 12.96 C 313.28 11.30 310.49 12.19 308.56 10.74 M 329.54 14.69 C 328.14 15.07 327.89 16.71 327.99 17.94 C 327.95 26.65 327.95 35.36 328.00 44.06 C 327.65 45.81 329.49 46.71 330.89 46.95 C 334.17 47.67 337.61 47.67 340.93 47.26 C 346.51 45.63 349.19 39.50 349.28 34.10 C 349.65 28.57 348.38 22.61 344.45 18.50 C 340.76 14.45 334.66 13.69 329.54 14.69 Z" />
<path fill="#fefefa" opacity="1.00" d=" M 365.08 9.93 C 371.72 9.93 378.36 9.92 385.00 9.91 C 386.61 9.86 388.21 10.18 389.73 10.73 C 388.27 11.17 386.80 11.58 385.33 11.96 C 385.63 14.62 386.43 17.20 387.73 19.54 C 392.47 28.49 397.61 37.22 402.25 46.23 C 406.14 39.36 409.44 32.19 413.02 25.16 C 414.62 21.82 416.49 18.54 417.42 14.93 C 418.22 12.21 414.83 11.57 413.34 10.09 C 420.22 9.78 427.11 9.98 434.00 9.92 L 434.00 11.26 C 430.72 12.16 427.31 13.43 425.36 16.41 C 420.04 23.99 415.86 32.30 411.41 40.41 C 408.64 45.55 405.59 50.89 405.43 56.88 C 405.34 63.40 405.17 69.95 405.87 76.44 C 406.15 78.33 406.64 80.50 408.33 81.64 C 410.78 82.56 413.43 82.66 415.97 83.24 C 413.77 85.25 410.67 84.35 407.99 84.54 C 400.61 84.33 393.20 84.93 385.85 84.18 C 387.74 82.60 390.33 82.69 392.46 81.62 C 393.80 79.62 394.01 77.13 394.28 74.80 C 394.57 68.84 395.00 62.87 394.65 56.90 C 394.34 51.73 391.62 47.19 389.20 42.76 C 384.55 34.49 380.03 26.12 374.79 18.20 C 372.54 14.76 369.32 11.66 364.98 11.43 C 365.00 11.05 365.05 10.31 365.08 9.93 Z" />
<path fill="#fefefa" opacity="1.00" d=" M 10.81 16.93 C 16.48 16.74 22.17 16.35 27.84 16.68 C 28.10 17.27 28.62 18.45 28.88 19.04 C 22.41 19.12 15.95 19.21 9.49 19.01 C 9.82 18.49 10.48 17.45 10.81 16.93 Z" />
<path fill="#fefefa" opacity="1.00" d=" M 94.83 68.74 C 98.82 69.07 102.93 68.28 106.86 69.15 L 107.83 70.38 C 103.70 70.26 99.57 70.38 95.45 70.48 L 94.83 68.74 Z" />
<path fill="#fefefa" opacity="1.00" d=" M 92.42 73.34 C 96.30 70.10 101.49 70.63 106.19 70.82 C 108.33 72.32 110.60 73.63 112.63 75.28 C 112.60 77.72 112.78 80.17 112.44 82.59 C 111.34 84.27 109.31 85.08 107.62 85.99 L 109.95 86.00 L 97.19 86.00 C 95.04 85.31 91.72 85.99 90.63 83.41 C 89.72 80.10 88.75 75.34 92.42 73.34 M 91.08 75.15 C 90.99 78.52 90.66 83.69 94.98 84.61 C 92.81 81.79 93.05 78.01 91.08 75.15 Z" />
<path fill="#fefefa" opacity="1.00" d=" M 5.70 81.62 C 6.60 80.61 7.19 78.68 8.92 79.06 C 16.20 79.02 23.49 79.00 30.78 79.04 C 31.28 79.66 32.29 80.90 32.80 81.52 C 23.76 81.37 14.72 82.07 5.70 81.62 Z" />
<path fill="#fefefa" opacity="1.00" d=" M 4.40 86.00 C 3.86 84.76 4.01 82.57 5.87 82.81 C 15.27 82.67 24.68 82.71 34.08 82.78 C 34.15 83.59 34.29 85.20 34.36 86.00 L 4.40 86.00 Z" />
</g>
</svg>
