<?xml version="1.0" encoding="UTF-8" ?>
<!DOCTYPE svg PUBLIC "-//W3C//DTD SVG 1.1//EN" "http://www.w3.org/Graphics/SVG/1.1/DTD/svg11.dtd">
<svg width="365pt" height="94pt" viewBox="0 0 365 94" version="1.1" xmlns="http://www.w3.org/2000/svg">
<g id="#fdfefaff">
<path fill="#fdfefa" opacity="1.00" d=" M 104.32 0.00 L 106.68 0.00 C 111.89 0.55 117.21 2.21 121.02 5.96 C 127.72 12.51 131.06 21.85 132.00 31.02 C 132.40 39.74 126.21 46.80 124.69 55.10 C 123.55 60.44 123.00 66.10 120.01 70.81 C 117.09 75.69 111.65 78.92 105.99 79.24 C 99.96 78.73 94.53 74.75 91.54 69.58 C 88.92 64.46 88.74 58.56 86.86 53.19 C 85.50 48.64 83.37 44.40 81.56 40.04 C 78.33 31.76 80.96 22.57 84.63 14.89 C 88.32 7.14 95.58 0.93 104.32 0.00 M 97.33 14.42 C 95.15 18.68 92.53 22.81 88.56 25.63 C 85.86 27.02 86.52 32.01 90.04 31.37 C 97.05 30.78 101.96 23.72 102.57 17.11 C 102.80 14.38 99.31 12.08 97.33 14.42 M 110.27 14.22 C 108.90 15.41 109.27 17.53 109.50 19.12 C 110.64 24.55 114.37 30.07 120.08 31.28 C 121.87 31.58 124.86 31.52 124.98 29.09 C 125.41 26.20 122.40 24.90 120.59 23.34 C 117.80 21.30 116.35 18.10 114.89 15.07 C 114.09 13.39 111.56 12.80 110.27 14.22 M 102.05 32.92 C 101.40 35.22 104.12 34.26 105.10 33.58 C 106.73 32.35 108.39 35.54 109.99 34.04 C 110.83 31.41 107.81 29.65 106.02 28.29 C 104.45 29.55 102.33 30.70 102.05 32.92 M 102.93 40.06 C 98.02 42.05 96.30 48.00 96.49 52.86 C 97.15 58.63 97.86 64.75 101.01 69.78 C 102.87 72.86 107.60 74.01 110.17 71.18 C 114.03 66.69 114.79 60.52 115.36 54.85 C 115.76 50.43 115.35 45.34 112.00 42.07 C 109.74 39.64 106.00 38.88 102.93 40.06 Z" />
<path fill="#fdfefa" opacity="1.00" d=" M 266.22 0.00 L 266.71 0.00 C 271.00 0.47 275.44 1.39 278.89 4.16 C 286.00 9.49 288.94 18.44 290.51 26.83 C 292.26 39.37 291.61 52.94 285.17 64.15 C 283.05 67.85 278.57 70.34 278.68 75.08 C 277.96 77.97 279.67 81.63 277.00 83.79 C 276.48 80.27 276.91 76.71 276.78 73.17 C 273.81 74.05 270.84 74.91 267.89 75.87 C 265.56 76.51 265.23 79.40 263.94 81.12 C 262.83 78.87 261.83 76.53 260.19 74.60 C 256.94 78.81 259.53 84.40 258.00 88.92 L 256.90 89.50 L 255.82 89.18 C 254.55 83.58 257.04 77.11 254.06 71.93 C 245.09 65.20 241.70 53.59 240.83 42.87 C 240.30 31.38 241.65 19.11 248.31 9.39 C 252.36 3.59 259.27 0.44 266.22 0.00 M 262.94 15.99 C 261.88 20.28 264.31 25.50 261.16 29.08 C 259.36 24.96 261.38 20.45 260.14 16.18 C 259.07 17.63 258.01 19.13 257.54 20.89 C 254.61 30.93 254.98 41.63 256.68 51.85 C 257.65 56.55 260.21 62.75 266.00 62.40 C 270.37 62.75 273.30 58.78 274.60 55.11 C 277.56 45.33 277.13 34.89 275.81 24.88 C 275.08 21.78 274.83 17.63 271.62 16.07 C 270.77 20.24 272.02 24.45 271.31 28.62 L 269.72 28.18 C 268.87 23.66 270.59 18.93 269.44 14.44 C 268.08 11.30 262.40 12.29 262.94 15.99 Z" />
<path fill="#fdfefa" opacity="1.00" d=" M 23.02 1.37 C 29.94 2.23 36.96 2.06 43.92 1.75 C 41.24 11.06 41.93 20.86 42.12 30.42 C 47.78 30.32 53.51 31.34 59.10 30.03 C 58.78 20.62 60.38 10.86 57.25 1.77 C 63.32 2.52 69.38 1.79 75.45 1.78 C 73.77 5.64 72.92 9.82 72.85 14.03 C 72.74 24.04 73.08 34.06 72.61 44.07 C 72.48 51.07 72.51 58.08 73.15 65.06 C 73.31 68.23 75.14 70.91 76.88 73.43 C 70.36 73.38 63.84 73.46 57.33 73.37 C 58.60 70.44 59.15 67.25 59.12 64.06 C 59.16 56.96 59.12 49.85 59.10 42.75 C 53.45 42.74 47.79 42.50 42.16 42.91 C 41.75 50.59 42.03 58.29 41.93 65.98 C 41.70 69.39 43.08 72.56 44.14 75.73 C 41.24 76.65 38.29 77.86 36.13 80.09 C 31.96 84.48 28.33 89.32 24.52 94.00 L 24.13 94.00 C 27.83 84.12 28.10 73.52 28.50 63.11 C 31.31 61.95 34.53 60.91 35.55 57.70 C 34.28 56.90 33.01 56.12 31.74 55.33 C 33.78 54.17 35.81 52.93 37.47 51.24 C 36.79 48.14 34.35 46.30 31.58 45.11 C 34.09 43.84 36.66 42.72 39.29 41.71 C 36.28 40.25 32.66 39.85 29.71 37.96 C 29.69 38.67 29.66 39.38 29.63 40.09 C 31.42 40.36 34.29 40.22 34.02 42.82 C 30.98 42.14 27.88 42.26 24.81 42.64 C 22.71 45.07 22.03 48.45 18.90 49.96 C 21.35 48.81 23.77 47.60 26.03 46.11 C 27.71 46.27 29.39 46.39 31.07 46.49 C 32.65 47.26 34.23 48.03 35.80 48.84 C 32.24 49.33 28.47 48.21 25.07 49.69 C 23.39 51.16 21.77 52.72 19.90 53.95 C 24.89 51.59 30.63 50.53 36.13 51.04 C 31.92 54.27 26.39 54.30 21.55 55.97 C 21.69 56.29 21.97 56.94 22.11 57.26 C 22.74 56.68 23.36 56.09 23.99 55.51 C 26.13 59.49 30.87 57.71 34.42 57.93 C 32.56 60.41 29.06 61.64 26.17 60.30 C 24.55 59.86 23.16 58.61 21.42 58.70 C 20.37 58.34 19.32 57.96 18.27 57.57 C 16.90 53.57 15.15 49.24 16.75 45.03 C 17.04 42.11 18.93 39.89 21.34 38.40 C 22.52 38.32 23.69 38.22 24.86 38.12 C 24.32 38.72 23.25 39.93 22.71 40.53 C 24.52 39.89 27.71 40.44 28.69 38.41 C 27.77 35.60 27.48 32.52 28.27 29.65 C 29.13 29.46 30.85 29.08 31.71 28.89 C 31.11 28.48 30.51 28.08 29.90 27.69 C 25.74 28.73 21.40 25.12 17.57 27.74 C 15.16 29.61 12.12 29.92 9.27 30.66 C 7.20 32.27 5.78 34.57 3.84 36.32 C 4.35 34.93 4.87 33.54 5.39 32.15 C 3.77 32.49 2.17 32.90 0.57 33.36 C 1.31 31.30 2.13 29.28 2.86 27.22 C 2.15 27.64 0.72 28.49 0.00 28.91 L 0.00 28.28 C 0.98 27.13 2.00 26.00 3.02 24.87 C 4.51 24.00 5.83 22.88 7.16 21.78 C 8.08 22.18 9.01 22.58 9.95 22.93 L 11.51 23.51 C 10.82 23.81 9.44 24.43 8.76 24.73 C 11.74 25.40 13.61 22.76 16.12 21.80 C 17.41 21.83 18.26 22.83 19.19 23.56 C 23.23 24.42 26.99 26.33 31.17 26.60 C 31.56 27.12 32.34 28.18 32.74 28.70 C 34.31 25.02 29.36 25.38 27.42 23.97 C 30.28 22.67 33.98 22.73 35.79 19.77 C 33.66 18.47 31.29 17.65 28.95 16.81 C 30.98 16.31 33.63 16.77 35.00 14.86 C 34.78 12.37 31.51 12.28 29.88 11.06 C 30.26 10.28 31.03 8.70 31.42 7.92 C 27.98 6.62 25.49 3.96 23.02 1.37 M 10.00 27.09 C 12.40 27.32 14.79 26.61 16.05 24.45 C 14.08 25.41 11.48 25.40 10.00 27.09 M 19.35 44.60 C 20.85 44.27 22.28 42.11 22.31 40.59 C 20.51 40.01 18.66 43.06 19.35 44.60 Z" />
<path fill="#fdfefa" opacity="1.00" d=" M 136.08 2.03 C 145.05 1.61 154.05 1.97 163.03 1.83 C 168.25 1.54 173.79 3.16 177.50 6.96 C 182.86 13.72 184.08 23.57 180.74 31.50 C 179.18 35.55 175.66 38.26 172.04 40.39 C 173.93 47.84 177.41 54.76 179.86 62.03 C 182.22 68.79 185.69 75.15 190.60 80.41 C 183.49 77.91 176.47 75.11 169.21 73.08 C 165.89 63.32 162.06 53.72 158.91 43.89 C 157.36 43.91 155.81 43.97 154.26 44.08 C 154.85 53.76 153.20 63.64 155.37 73.17 C 153.05 73.29 150.81 72.73 148.55 72.35 C 147.68 75.44 147.47 78.68 147.61 81.88 C 147.28 81.88 146.60 81.88 146.27 81.88 C 146.44 78.87 147.15 75.75 145.87 72.88 C 141.51 77.94 144.57 85.03 144.13 90.95 C 143.84 91.39 143.27 92.27 142.98 92.71 C 140.48 92.69 141.31 89.56 141.28 88.00 C 141.65 83.03 142.98 77.14 139.43 72.98 C 140.76 63.40 140.08 53.70 140.26 44.05 C 140.55 41.24 138.61 38.87 138.39 36.14 C 138.55 34.63 140.04 33.63 140.23 32.11 C 140.40 27.02 140.05 21.92 140.45 16.84 C 140.73 11.63 140.41 5.63 136.08 2.03 M 154.34 13.27 C 154.39 19.62 154.14 25.98 154.47 32.32 C 158.15 32.18 162.33 32.90 165.37 30.29 C 169.24 26.84 169.17 20.53 166.69 16.30 C 163.96 12.22 158.53 13.20 154.34 13.27 Z" />
<path fill="#fdfefa" opacity="1.00" d=" M 188.09 1.98 C 197.41 1.66 206.73 1.93 216.05 1.84 C 222.47 1.78 229.42 4.63 232.46 10.57 C 235.87 17.88 236.40 26.93 232.27 34.06 C 230.62 37.14 227.63 39.11 224.61 40.67 C 229.74 54.15 232.92 69.09 243.06 79.93 C 235.76 77.80 228.68 74.95 221.33 72.95 C 221.07 70.70 220.37 68.55 219.42 66.50 C 216.76 58.94 214.21 51.33 211.42 43.82 C 209.94 43.86 208.46 43.90 206.99 43.93 C 207.39 53.63 206.03 63.48 207.99 73.05 C 205.53 73.13 203.02 73.03 200.62 73.64 C 199.09 76.21 199.67 79.47 198.68 82.27 C 196.61 79.79 197.52 76.36 196.85 73.43 C 194.27 73.38 191.70 73.24 189.12 73.14 C 190.45 70.91 192.67 68.91 192.59 66.11 C 192.88 57.78 192.74 49.41 192.44 41.09 C 191.04 38.60 189.57 35.20 192.54 33.21 C 192.68 26.08 192.79 18.94 192.85 11.82 C 191.78 8.32 191.11 4.39 188.09 1.98 M 207.03 13.15 C 206.95 19.50 207.00 25.85 207.01 32.19 C 211.20 32.27 216.44 33.07 219.28 29.20 C 221.75 25.03 221.38 19.27 218.69 15.29 C 215.69 12.17 210.88 13.50 207.03 13.15 Z" />
<path fill="#fdfefa" opacity="1.00" d=" M 296.31 1.84 C 305.86 1.84 315.41 1.85 324.95 1.84 C 331.69 1.84 338.26 5.87 340.74 12.24 C 338.77 13.23 335.05 13.99 336.98 16.97 C 335.57 17.80 332.89 17.66 332.54 19.57 C 332.88 21.72 335.10 21.76 336.78 22.00 L 336.65 22.83 C 334.64 22.96 332.77 23.63 331.14 24.79 C 331.97 28.58 336.34 27.73 338.98 29.41 C 336.87 30.17 334.23 29.86 332.52 31.43 C 332.44 34.23 336.44 34.15 338.33 34.96 C 336.95 37.50 334.30 38.88 331.96 40.36 C 334.61 49.05 337.77 57.59 341.12 66.03 C 343.80 70.87 346.23 76.31 351.00 79.47 C 349.14 79.12 348.32 79.85 348.54 81.67 C 347.41 80.05 345.98 78.57 344.04 77.98 C 338.87 76.20 333.66 74.55 328.45 72.91 C 328.31 69.77 326.76 67.00 325.77 64.09 C 323.39 57.30 320.93 50.53 318.42 43.78 C 317.00 43.85 315.57 43.90 314.16 43.96 C 314.47 53.60 313.44 63.33 314.88 72.91 C 312.10 73.33 307.45 72.03 306.94 76.00 C 306.44 77.93 308.52 81.87 305.31 81.96 C 305.59 79.06 305.88 76.11 305.19 73.24 L 304.10 73.96 C 302.17 78.75 303.94 84.14 303.93 89.17 C 302.28 89.29 301.53 88.57 301.69 87.01 C 302.07 82.01 302.15 76.52 299.23 72.19 C 300.86 62.86 299.43 53.43 299.81 44.03 C 300.10 41.23 298.73 38.72 298.22 36.05 C 298.91 34.42 300.27 32.94 300.09 31.05 C 300.10 24.38 300.11 17.70 300.14 11.03 C 300.25 7.57 298.31 4.51 296.31 1.84 M 314.40 13.21 C 314.49 19.58 313.77 25.96 314.49 32.30 C 318.49 32.17 323.61 32.96 326.25 29.14 C 328.74 24.93 328.66 19.05 325.71 15.09 C 322.60 12.47 318.15 13.38 314.40 13.21 Z" />
<path fill="#fdfefa" opacity="1.00" d=" M 13.34 14.59 C 17.61 14.83 19.35 10.35 21.94 7.86 C 24.65 7.59 28.46 6.60 30.24 9.31 C 28.03 9.46 25.81 9.57 23.60 9.73 C 22.11 11.46 20.67 13.24 19.24 15.03 C 23.25 12.02 29.87 10.20 33.43 14.83 C 30.97 14.69 28.52 14.01 26.05 14.23 C 23.59 15.06 21.78 17.12 19.99 18.91 C 24.46 18.14 29.86 17.01 33.46 20.62 C 30.65 20.64 27.85 20.16 25.03 20.32 C 23.29 20.93 21.93 22.45 20.11 22.82 C 19.90 22.52 19.47 21.92 19.25 21.62 C 16.47 20.73 13.72 21.51 11.59 23.44 L 9.95 22.93 C 11.79 21.31 13.83 19.86 15.22 17.80 C 13.06 18.92 11.40 20.87 9.15 21.77 C 9.39 19.07 12.83 17.48 13.34 14.59 Z" />
<path fill="#fdfefa" opacity="1.00" d=" M 14.19 13.83 C 13.87 12.62 15.61 10.93 16.80 11.54 C 17.55 12.91 15.40 14.53 14.19 13.83 Z" />
<path fill="#fdfefa" opacity="1.00" d=" M 337.99 15.12 C 339.78 13.01 342.83 13.36 345.16 14.20 C 347.32 14.56 347.71 17.12 348.94 18.57 C 350.00 18.43 351.03 18.55 352.02 18.92 C 352.48 19.59 354.83 20.94 352.99 21.27 C 351.78 20.60 350.70 19.72 349.54 18.99 C 350.61 20.68 352.13 21.99 353.87 22.97 C 356.17 28.61 361.35 31.95 365.00 36.61 L 365.00 38.03 C 364.27 37.52 362.80 36.48 362.06 35.97 C 362.71 38.07 363.47 40.14 364.00 42.28 C 363.01 41.77 362.13 41.14 361.33 40.38 C 360.80 40.46 359.72 40.64 359.18 40.73 C 359.69 42.21 360.23 43.69 360.70 45.19 C 358.42 43.14 357.18 40.27 355.26 37.92 C 351.57 37.92 348.76 35.43 345.89 33.48 C 343.84 31.90 341.18 33.21 338.85 33.06 C 338.15 33.36 334.99 32.84 336.87 31.91 C 340.27 31.65 343.50 30.04 346.94 30.43 C 348.31 30.35 349.15 28.61 350.54 28.85 C 352.29 30.57 353.85 32.68 356.39 33.28 L 354.56 31.69 C 355.38 31.25 356.19 30.82 357.03 30.40 C 355.29 28.65 353.67 26.79 351.98 25.00 C 352.32 26.70 353.41 28.04 354.65 29.21 C 354.14 29.61 353.63 30.01 353.12 30.40 C 352.19 27.98 349.43 28.64 347.59 27.51 C 346.77 28.09 345.97 28.70 345.15 29.26 C 342.74 24.94 337.56 25.93 333.45 25.60 C 337.08 22.18 342.35 24.12 346.47 25.35 C 345.19 23.54 343.83 21.65 341.95 20.43 C 339.24 19.95 336.48 20.02 333.76 19.76 C 338.42 16.63 344.54 17.96 348.06 22.13 C 346.93 20.19 345.88 18.18 344.49 16.42 C 342.58 15.16 340.12 15.53 337.99 15.12 M 350.01 31.33 C 350.50 33.78 353.12 34.69 355.30 34.95 C 353.79 33.41 351.82 32.46 350.01 31.33 Z" />
</g>
</svg>
