<?xml version="1.0" encoding="UTF-8" ?>
<!DOCTYPE svg PUBLIC "-//W3C//DTD SVG 1.1//EN" "http://www.w3.org/Graphics/SVG/1.1/DTD/svg11.dtd">
<svg width="325pt" height="114pt" viewBox="0 0 325 114" version="1.1" xmlns="http://www.w3.org/2000/svg">
<g id="#fdfefaff">
<path fill="#fdfefa" opacity="1.00" d=" M 28.25 0.00 L 29.41 0.00 C 34.96 6.17 36.71 15.08 35.75 23.15 C 34.51 31.72 29.40 39.19 23.10 44.91 C 23.36 46.11 23.63 47.31 23.92 48.51 C 24.62 48.75 25.33 48.97 26.05 49.16 C 29.52 44.41 33.68 39.87 38.89 37.01 C 38.02 39.85 35.44 41.48 33.39 43.42 C 31.15 45.38 29.40 47.82 27.14 49.77 C 26.54 50.02 25.32 50.52 24.71 50.77 C 24.73 52.22 24.84 53.67 25.06 55.11 C 29.29 55.03 34.02 55.60 37.10 58.83 C 43.41 64.67 44.05 75.25 38.88 82.01 C 36.73 84.73 33.60 86.37 30.51 87.79 C 31.23 94.10 33.52 100.62 31.70 106.94 C 30.49 111.31 25.93 113.49 21.75 114.00 L 19.17 114.00 C 14.51 113.49 9.45 110.97 8.13 106.13 C 6.47 101.44 10.69 95.34 15.86 96.37 C 20.62 96.82 22.96 103.26 19.96 106.82 C 18.50 108.23 16.48 108.85 14.74 109.84 C 18.18 111.50 22.44 112.03 25.78 109.85 C 28.80 108.09 29.77 104.32 29.62 101.05 C 29.35 96.78 28.34 92.60 27.67 88.39 C 20.69 89.57 13.16 87.89 7.95 82.93 C 3.07 78.88 0.89 72.65 0.00 66.56 L 0.00 63.24 C 1.35 51.25 10.94 43.02 19.26 35.39 C 18.16 29.31 17.28 23.06 18.25 16.90 C 19.12 10.26 22.20 3.41 28.25 0.00 M 25.40 12.56 C 20.93 18.57 20.55 26.45 21.48 33.61 C 27.33 29.50 31.78 23.08 32.65 15.90 C 32.95 13.63 32.25 10.95 30.13 9.77 C 28.12 9.40 26.60 11.23 25.40 12.56 M 5.94 68.06 C 4.93 73.22 7.11 78.60 11.07 81.96 C 15.29 86.11 21.63 87.00 27.26 86.08 C 26.23 78.43 24.68 70.87 23.62 63.22 C 19.95 64.61 16.72 67.81 16.86 71.98 C 16.55 75.86 19.83 78.36 22.02 81.06 C 17.94 79.44 13.80 76.58 12.88 71.99 C 10.90 64.95 16.22 58.22 22.40 55.49 C 21.89 52.57 21.54 49.63 21.03 46.72 C 14.04 52.00 6.71 58.77 5.94 68.06 M 26.59 63.10 C 27.61 70.56 28.78 78.01 30.12 85.42 C 36.09 82.71 38.62 74.97 35.82 69.14 C 34.07 65.63 30.40 63.55 26.59 63.10 Z" />
<path fill="#fdfefa" opacity="1.00" d=" M 78.89 8.09 C 84.41 6.75 89.91 5.30 95.46 4.07 C 95.72 5.94 95.56 7.64 94.97 9.18 C 92.24 9.66 89.46 10.09 86.88 11.14 C 89.51 11.38 92.15 11.10 94.78 11.12 L 95.34 11.37 C 105.48 12.21 115.58 14.17 125.04 18.01 C 126.35 18.26 127.06 19.37 127.77 20.38 C 129.88 20.51 131.99 20.62 134.10 20.69 C 134.24 21.14 134.52 22.02 134.66 22.46 C 138.33 24.26 142.03 26.03 145.59 28.04 C 145.79 22.98 145.14 17.84 145.97 12.82 C 147.27 17.13 152.45 18.63 153.45 23.03 C 154.11 25.06 153.37 27.13 152.70 29.06 C 153.17 25.14 151.40 20.45 146.78 20.63 C 146.80 23.48 146.71 26.34 146.82 29.20 C 150.75 31.41 154.51 33.93 158.44 36.16 C 158.25 31.42 159.13 26.19 162.83 22.86 C 165.78 20.05 170.09 19.86 173.94 19.98 C 173.98 28.63 173.90 37.29 173.96 45.94 C 176.74 47.69 180.75 48.42 182.04 51.80 C 179.24 50.66 176.60 49.18 173.96 47.72 C 174.14 49.99 173.47 52.51 174.36 54.63 C 177.04 55.61 180.11 59.02 182.71 56.32 C 182.72 57.00 182.74 58.35 182.76 59.03 C 188.36 61.20 193.76 63.91 199.49 65.75 C 199.55 65.93 199.66 66.29 199.71 66.47 C 193.70 64.48 187.58 62.74 181.79 60.07 C 182.06 60.74 182.60 62.07 182.86 62.73 C 181.17 63.09 178.95 64.49 177.95 62.25 C 178.44 62.04 179.40 61.63 179.88 61.42 C 179.69 60.63 179.30 59.06 179.11 58.27 C 177.41 57.47 175.70 56.69 173.98 55.95 C 173.96 58.33 173.96 60.71 173.98 63.09 C 183.70 67.29 193.70 70.90 204.04 73.20 C 206.45 73.87 209.20 73.93 211.16 75.66 C 203.83 75.30 196.83 72.86 189.87 70.73 C 184.42 69.05 179.17 66.80 173.98 64.45 C 173.99 66.87 173.95 69.28 173.81 71.69 C 176.92 72.93 180.24 73.83 182.98 75.84 C 179.70 75.45 176.71 73.98 173.71 72.71 C 172.69 80.85 168.98 89.32 161.65 93.61 C 152.91 98.48 141.72 98.52 132.75 94.22 C 125.04 90.50 120.69 82.23 119.62 74.01 C 118.88 65.42 119.19 56.77 118.95 48.15 C 116.55 47.58 114.16 47.02 111.78 46.41 C 113.40 43.77 116.72 46.35 119.04 46.50 C 119.05 43.48 119.05 40.45 118.93 37.44 C 116.76 36.89 114.59 36.34 112.45 35.68 C 112.72 35.37 113.25 34.76 113.52 34.46 C 115.34 34.99 117.17 35.54 118.98 36.12 C 119.04 33.16 119.05 30.19 118.90 27.23 C 116.61 26.73 114.29 26.25 112.13 25.30 C 114.11 23.60 116.52 25.35 118.61 25.76 C 119.82 22.15 123.12 20.00 126.94 20.52 C 126.85 20.33 126.67 19.94 126.58 19.75 C 124.35 19.48 122.23 18.73 120.11 18.05 C 112.11 15.45 103.80 13.82 95.42 13.21 C 95.41 15.38 95.41 17.56 95.43 19.73 C 95.15 19.96 94.60 20.42 94.33 20.65 C 94.25 18.12 94.24 15.59 94.19 13.06 C 89.44 13.04 84.63 12.75 79.96 13.80 C 79.94 16.53 79.95 19.26 79.96 21.99 C 84.08 21.82 88.20 21.38 92.33 21.66 L 91.68 23.21 C 87.77 23.40 83.84 23.42 79.96 24.04 C 79.96 26.88 79.93 29.71 79.87 32.55 C 80.13 32.77 80.64 33.21 80.90 33.44 C 82.41 33.34 83.91 33.20 85.42 33.03 C 84.42 35.16 82.13 35.13 80.19 34.52 C 78.75 38.34 73.92 39.88 70.69 37.22 C 68.85 37.82 67.00 38.41 65.14 38.94 C 66.23 42.01 67.67 44.94 69.07 47.88 C 73.10 45.98 77.47 44.74 81.93 44.55 C 79.23 47.66 74.48 47.40 70.81 48.79 L 68.89 48.03 C 71.34 52.84 73.44 57.81 75.56 62.77 C 80.51 51.11 85.33 39.36 91.17 28.11 C 94.84 21.41 103.11 19.82 110.11 20.34 C 110.33 41.89 109.69 63.45 109.97 85.00 C 110.27 89.11 108.32 93.45 104.56 95.35 C 101.55 96.90 98.09 96.32 94.84 96.41 C 94.76 81.27 95.02 66.13 94.72 50.99 C 91.51 59.46 87.77 67.72 84.10 76.00 C 82.66 78.89 81.68 82.44 78.93 84.36 C 76.30 84.40 73.63 84.44 71.04 83.94 C 64.92 73.82 61.32 62.37 55.95 51.85 C 55.69 61.23 56.06 70.62 55.80 80.01 C 55.63 85.33 53.18 90.65 48.75 93.74 C 45.18 96.32 40.56 96.41 36.34 96.46 C 36.24 94.60 36.13 92.74 35.98 90.88 C 42.34 86.89 46.61 79.60 46.27 72.00 C 46.72 66.19 44.21 60.78 41.19 56.00 C 40.95 44.21 41.11 32.39 41.13 20.58 C 43.76 20.25 46.73 21.30 49.11 20.22 C 49.37 19.89 49.88 19.23 50.13 18.91 C 59.21 14.93 68.96 12.79 78.77 11.63 C 78.81 10.45 78.85 9.27 78.89 8.09 M 60.96 17.18 C 57.47 18.15 54.15 19.73 50.52 20.15 C 51.01 21.45 52.92 21.38 53.97 22.15 C 56.36 23.20 57.93 25.34 59.41 27.38 C 65.58 25.06 71.94 23.18 78.48 22.28 C 78.55 19.34 78.58 16.39 78.70 13.45 C 72.73 14.39 66.75 15.42 60.96 17.18 M 60.19 28.95 C 61.59 31.83 62.98 34.72 64.41 37.59 C 66.38 36.89 68.37 36.24 70.37 35.62 C 70.95 31.74 75.06 30.04 78.59 30.80 C 78.55 28.60 78.55 26.41 78.56 24.21 C 72.32 25.32 66.20 26.98 60.19 28.95 M 134.44 24.01 C 134.40 26.66 134.40 29.31 134.42 31.96 C 135.79 32.77 137.57 33.19 138.28 34.77 C 137.30 34.59 135.34 34.23 134.36 34.04 C 134.41 36.70 134.41 39.37 134.44 42.03 C 138.77 44.06 143.18 46.01 147.18 48.65 L 147.26 50.13 C 149.74 48.00 155.34 48.91 154.51 53.01 C 153.17 56.61 149.17 57.26 145.84 56.38 C 148.89 60.54 154.57 61.60 158.64 64.64 C 158.05 58.74 158.43 52.80 158.33 46.88 C 154.15 44.47 149.81 42.32 145.91 39.46 C 144.66 40.15 143.47 41.02 142.05 41.31 C 139.61 41.15 136.52 38.59 138.16 36.00 C 139.52 33.26 142.97 32.60 145.66 33.60 C 145.63 32.70 145.56 30.89 145.53 29.99 C 141.91 27.86 138.17 25.94 134.44 24.01 M 146.76 30.16 C 146.81 33.04 146.88 35.93 146.47 38.79 C 150.67 40.55 154.45 43.13 158.34 45.49 C 158.32 42.93 158.32 40.38 158.35 37.83 C 154.46 35.32 150.19 33.32 146.76 30.16 M 134.40 43.84 C 134.61 46.58 133.92 49.54 134.75 52.14 C 138.22 53.84 141.82 55.28 145.22 57.13 C 145.05 54.55 145.52 52.02 146.96 49.84 C 142.71 47.97 138.85 45.27 134.40 43.84 M 134.37 53.91 C 134.54 59.94 134.06 66.01 134.99 71.99 C 135.78 76.06 137.87 80.54 142.12 81.90 C 146.90 83.40 153.18 82.53 155.99 77.94 C 158.66 74.19 158.26 69.42 158.49 65.06 C 154.14 64.12 150.46 61.47 146.50 59.56 C 146.50 64.34 146.45 69.11 146.54 73.89 C 143.99 73.97 141.44 73.99 138.90 73.96 C 139.38 68.02 139.07 62.05 139.57 56.11 C 137.84 55.37 136.11 54.63 134.37 53.91 M 139.64 56.26 C 140.36 61.21 138.87 66.86 141.81 71.22 C 142.67 71.23 144.41 71.24 145.27 71.24 C 145.31 67.07 145.26 62.90 145.35 58.73 C 143.42 57.98 141.53 57.12 139.64 56.26 Z" />
<path fill="#fdfefa" opacity="1.00" d=" M 261.75 11.53 C 265.54 13.04 267.18 17.28 268.02 20.98 C 269.55 27.51 267.78 35.34 261.90 39.17 C 261.99 36.90 263.87 35.40 264.82 33.49 C 267.98 27.60 267.02 20.03 263.32 14.60 C 262.68 13.64 262.15 12.61 261.75 11.53 Z" />
<path fill="#fdfefa" opacity="1.00" d=" M 258.12 15.22 C 260.47 15.22 261.43 17.68 262.39 19.42 C 264.98 24.76 263.69 31.49 259.39 35.56 C 259.18 35.29 258.75 34.75 258.54 34.48 C 260.46 31.70 262.26 28.54 261.91 25.03 C 262.13 21.31 259.80 18.30 258.12 15.22 Z" />
<path fill="#fdfefa" opacity="1.00" d=" M 241.37 18.40 C 246.60 15.51 253.92 19.83 253.45 25.93 C 253.90 32.20 246.11 36.69 240.85 33.31 C 235.18 30.30 235.38 20.94 241.37 18.40 Z" />
<path fill="#fdfefa" opacity="1.00" d=" M 188.44 25.40 C 199.81 15.06 218.58 17.80 229.07 28.09 C 226.33 32.35 223.86 36.77 221.54 41.26 C 218.09 37.68 213.98 34.42 209.06 33.20 C 205.34 32.53 200.72 32.95 198.43 36.37 C 196.24 39.34 197.86 43.38 200.44 45.52 C 205.87 49.97 213.03 51.34 218.78 55.26 C 221.72 57.26 224.51 59.57 226.72 62.38 C 229.52 66.16 230.16 71.02 230.22 75.60 C 233.11 75.49 236.00 75.49 238.89 75.53 C 238.74 73.41 238.69 71.29 238.69 69.17 C 235.86 69.66 232.98 69.93 230.12 69.52 C 232.84 68.41 235.84 68.90 238.70 68.90 C 238.68 67.03 238.68 65.16 238.70 63.30 C 234.86 63.36 230.97 63.57 227.19 62.68 C 230.95 61.64 234.91 62.19 238.72 62.58 C 238.62 54.83 238.67 47.07 238.67 39.32 C 243.63 40.18 248.88 42.09 251.82 46.44 C 254.82 50.85 253.89 56.46 254.00 61.49 C 256.78 60.87 259.59 60.31 262.46 60.20 C 259.81 61.46 256.86 61.65 253.99 61.84 C 253.99 63.81 253.99 65.78 253.99 67.76 C 256.73 67.19 259.48 66.57 262.28 66.35 C 259.71 67.65 256.82 67.95 254.00 68.30 C 254.01 70.34 254.01 72.39 254.00 74.45 C 257.34 73.39 260.76 72.46 264.27 72.23 C 260.97 73.50 257.51 74.34 254.01 74.79 C 254.02 76.95 254.02 79.11 254.01 81.27 C 258.39 79.85 262.88 78.80 267.44 78.14 C 262.71 68.95 262.14 57.98 264.19 47.99 C 266.74 36.51 274.38 25.77 285.59 21.46 C 295.48 17.42 307.10 18.13 316.47 23.24 C 319.57 24.89 322.05 27.46 325.00 29.34 L 325.00 29.67 C 321.44 33.43 319.62 38.38 317.05 42.79 C 311.54 35.66 301.63 31.02 292.83 34.61 C 283.18 37.93 279.10 48.89 278.95 58.32 C 279.70 58.67 280.45 59.02 281.21 59.37 C 285.12 57.17 289.06 55.03 293.07 53.01 C 289.53 55.64 285.56 57.59 281.83 59.92 C 281.11 59.73 279.67 59.34 278.95 59.14 C 279.25 65.84 281.35 72.95 286.42 77.61 C 291.39 82.64 299.41 83.60 305.95 81.58 C 310.42 80.32 313.61 76.74 316.91 73.71 C 319.43 77.12 321.82 80.64 324.52 83.92 L 325.00 84.14 L 325.00 85.50 C 321.95 88.24 319.28 91.50 315.55 93.37 C 304.72 99.02 291.00 98.55 280.48 92.42 C 275.23 89.08 270.14 84.60 267.98 78.60 C 263.28 79.38 258.78 81.08 254.04 81.65 C 254.07 85.82 254.38 90.78 251.00 93.88 C 247.78 97.12 242.84 96.70 238.65 96.56 C 238.67 92.14 238.63 87.72 238.70 83.31 C 235.73 83.68 232.73 83.83 229.76 83.43 C 232.47 81.82 235.73 82.62 238.70 82.56 C 238.68 80.45 238.69 78.34 238.74 76.23 C 235.85 76.40 232.96 76.42 230.08 76.32 C 229.87 84.99 223.69 92.99 215.48 95.63 C 203.94 99.65 190.63 96.32 181.61 88.31 C 180.86 87.35 179.16 86.48 179.69 85.05 C 181.65 80.84 184.13 76.88 186.60 72.96 C 189.90 76.26 193.33 79.73 197.82 81.37 C 202.00 82.92 207.05 83.65 211.02 81.16 C 214.57 79.10 215.32 73.63 212.54 70.63 C 209.79 67.06 205.36 65.67 201.50 63.68 C 195.01 60.53 188.26 56.79 184.46 50.39 C 180.13 42.44 181.72 31.57 188.44 25.40 Z" />
<path fill="#fdfefa" opacity="1.00" d=" M 255.05 19.04 C 258.05 18.88 258.75 22.74 259.09 25.03 C 259.13 27.62 258.38 31.92 255.09 32.01 C 255.98 30.08 257.22 28.24 257.38 26.07 C 257.65 23.47 256.07 21.28 255.05 19.04 Z" />
</g>
</svg>
