<?xml version="1.0" encoding="UTF-8" ?>
<!DOCTYPE svg PUBLIC "-//W3C//DTD SVG 1.1//EN" "http://www.w3.org/Graphics/SVG/1.1/DTD/svg11.dtd">
<svg width="459pt" height="106pt" viewBox="0 0 459 106" version="1.1" xmlns="http://www.w3.org/2000/svg">
<g id="#fefefeff">
<path fill="#fefefe" opacity="1.00" d=" M 9.46 0.00 L 9.52 0.00 C 20.74 19.01 31.31 38.41 42.81 57.27 C 53.80 38.38 64.95 19.58 75.77 0.60 C 78.97 22.32 80.53 44.24 83.24 66.03 C 83.87 72.68 85.04 79.28 85.30 85.96 C 81.67 86.06 77.99 86.41 74.39 85.78 C 73.02 80.57 73.45 75.04 71.79 69.89 C 72.00 65.97 71.62 61.97 70.87 58.14 C 70.58 58.21 70.01 58.37 69.72 58.45 C 68.89 56.90 68.08 55.34 67.32 53.76 C 68.34 54.78 69.35 55.81 70.35 56.85 C 70.50 56.77 70.80 56.63 70.95 56.56 C 70.03 48.79 69.45 40.98 68.44 33.22 C 62.03 43.14 56.67 53.69 50.30 63.63 C 54.27 63.54 58.49 62.81 62.14 64.81 C 62.27 64.27 62.52 63.20 62.64 62.66 C 62.73 64.19 62.84 65.71 62.96 67.23 C 60.29 62.92 54.38 63.20 50.46 65.40 C 48.16 66.45 47.81 69.40 45.90 70.87 C 43.64 71.44 41.30 71.10 39.02 70.90 C 38.09 69.17 37.11 67.45 36.08 65.77 C 34.77 65.10 33.50 64.36 32.35 63.44 C 29.20 63.58 26.01 63.99 23.29 65.72 C 23.44 66.55 23.72 68.20 23.86 69.03 C 23.29 68.17 22.71 67.32 22.13 66.46 C 18.86 67.26 14.85 68.13 13.24 71.44 C 12.18 76.26 11.95 81.23 11.06 86.08 C 7.44 86.09 3.82 86.10 0.19 86.15 C 0.22 82.42 0.77 78.73 1.21 75.03 C 4.05 50.03 6.71 25.01 9.46 0.00 M 16.64 33.50 C 17.30 35.41 17.95 37.35 18.03 39.39 C 17.40 38.44 16.79 37.48 16.19 36.51 C 16.42 40.10 15.79 43.66 15.39 47.21 C 15.96 46.61 17.11 45.39 17.68 44.79 C 18.90 44.52 19.83 43.83 20.48 42.72 C 21.40 44.28 22.61 45.82 22.70 47.71 C 26.53 53.01 29.89 58.65 34.04 63.73 C 33.26 59.34 30.21 55.83 28.16 51.98 C 24.27 45.86 21.28 39.06 16.64 33.50 M 20.16 45.16 C 18.80 45.75 20.17 48.45 21.52 47.98 C 22.06 47.08 21.29 45.23 20.16 45.16 M 19.09 49.70 C 19.61 48.39 19.45 47.12 18.62 45.89 C 17.35 46.08 17.68 49.65 19.09 49.70 M 16.27 47.56 C 15.08 48.47 15.13 50.42 15.42 51.77 C 16.96 51.92 18.30 48.03 16.27 47.56 M 20.34 47.98 C 20.69 49.92 21.05 51.86 21.24 53.82 C 22.26 53.41 24.30 52.58 25.32 52.17 C 24.03 50.33 22.87 48.20 20.34 47.98 M 16.48 54.73 C 17.59 54.63 19.80 54.43 20.91 54.33 C 20.70 53.26 20.27 51.13 20.05 50.06 C 17.70 50.54 15.93 52.14 16.48 54.73 M 15.06 56.68 C 16.63 56.11 16.91 53.12 15.39 52.40 C 14.33 53.28 13.86 55.81 15.06 56.68 M 21.64 53.90 C 21.66 55.76 21.79 57.62 21.84 59.47 C 23.91 58.33 26.11 57.48 28.29 56.60 C 27.40 55.28 26.37 54.12 25.19 53.09 C 24.30 53.29 22.53 53.70 21.64 53.90 M 18.05 54.89 C 16.92 56.04 15.81 57.30 14.21 57.77 C 14.96 61.89 13.57 65.77 13.14 69.82 C 15.86 67.66 19.07 66.27 22.55 66.03 C 22.37 64.25 22.20 62.47 22.08 60.68 C 19.75 60.34 17.39 60.40 15.06 60.64 C 15.02 60.31 14.95 59.66 14.91 59.33 C 17.07 60.16 19.41 59.68 21.65 59.83 C 21.40 58.30 21.13 56.79 20.82 55.28 C 20.13 55.18 18.74 54.99 18.05 54.89 M 22.39 59.81 C 22.60 61.52 22.80 63.23 22.98 64.94 C 25.94 63.16 29.43 63.26 32.74 62.98 C 31.31 60.91 29.74 58.95 28.08 57.06 C 26.16 57.92 24.27 58.87 22.39 59.81 Z" />
<path fill="#fefefe" opacity="1.00" d=" M 163.74 18.74 C 171.07 10.88 183.14 9.70 193.06 12.37 C 198.98 13.84 203.62 18.18 207.08 23.01 C 204.81 25.34 202.62 27.81 199.90 29.64 C 197.03 27.01 194.88 23.34 191.03 21.99 C 185.84 19.95 179.58 19.87 174.60 22.56 C 170.02 25.01 168.40 31.43 171.11 35.84 C 173.00 39.62 177.33 40.94 181.09 42.05 C 188.29 44.37 196.05 45.99 202.11 50.79 C 209.30 56.44 210.57 67.36 206.43 75.19 C 203.08 82.21 195.41 85.92 188.00 86.88 C 175.99 88.70 161.73 84.31 155.64 73.13 C 157.96 71.01 160.13 68.56 163.00 67.16 C 165.53 69.27 167.55 71.94 170.26 73.86 C 176.04 78.33 184.21 78.65 190.89 76.21 C 198.78 73.66 199.59 60.38 191.93 57.05 C 183.16 52.30 172.50 51.77 164.45 45.57 C 156.57 39.01 156.55 25.83 163.74 18.74 Z" />
<path fill="#fefefe" opacity="1.00" d=" M 87.37 12.43 C 91.36 12.15 95.38 12.21 99.38 12.32 C 102.31 17.13 108.56 17.76 113.48 19.39 C 113.58 20.32 113.79 22.17 113.90 23.10 C 111.43 18.50 105.91 17.82 101.62 15.80 C 104.41 20.47 107.03 25.26 110.23 29.67 C 111.68 31.67 112.20 35.41 114.81 35.91 C 115.98 34.91 117.06 33.82 118.16 32.75 C 117.22 30.46 115.72 28.18 112.84 28.51 L 113.08 27.42 C 114.39 27.79 117.01 28.52 118.32 28.89 L 116.72 26.61 C 117.80 26.88 119.95 27.40 121.03 27.66 C 118.90 25.69 116.55 23.95 114.68 21.73 C 115.36 22.21 116.73 23.18 117.41 23.67 C 118.04 23.27 119.29 22.48 119.92 22.08 C 118.43 21.25 116.82 20.71 115.24 20.09 C 119.75 20.29 124.28 20.63 128.80 20.24 C 127.74 20.65 126.68 21.05 125.62 21.45 C 123.80 21.13 121.96 20.96 120.13 20.75 C 120.88 22.62 120.08 24.00 118.48 25.00 C 120.18 25.51 121.87 26.04 123.54 26.62 C 123.44 25.91 123.24 24.50 123.14 23.79 C 123.51 24.17 124.25 24.93 124.62 25.31 C 125.81 23.66 127.55 22.62 129.37 21.77 C 126.89 24.28 123.94 26.43 122.32 29.65 L 121.55 29.90 C 121.55 30.38 121.56 31.34 121.57 31.82 C 121.12 31.30 120.22 30.25 119.77 29.73 C 119.66 32.42 117.52 34.13 115.98 36.06 C 117.95 35.89 119.60 36.72 120.99 38.04 C 121.04 36.46 121.33 34.93 121.85 33.47 C 122.53 35.01 121.47 37.28 121.51 39.02 C 123.23 37.87 125.14 37.10 127.21 36.84 C 127.29 35.01 125.26 34.15 124.39 32.83 C 125.26 32.95 126.13 33.09 127.00 33.22 C 127.23 34.44 127.62 35.61 128.17 36.72 C 129.98 34.56 131.25 32.03 132.69 29.62 C 131.21 29.52 129.75 29.52 128.29 29.61 C 127.44 30.56 126.69 31.59 125.79 32.49 C 126.33 31.58 127.40 29.76 127.93 28.86 C 126.96 28.68 125.03 28.33 124.06 28.15 C 125.75 27.26 127.47 28.11 129.13 28.60 C 129.04 25.56 130.17 22.70 131.29 19.93 C 130.59 19.88 129.19 19.78 128.48 19.73 C 132.64 19.07 136.49 17.32 140.52 16.23 C 141.53 14.94 142.49 13.61 143.44 12.28 C 147.40 12.24 151.36 12.19 155.32 12.39 C 146.75 27.25 137.08 41.47 128.18 56.14 C 126.62 58.46 127.41 61.39 127.10 64.00 C 126.57 69.91 127.23 75.87 126.67 81.77 C 125.13 89.87 122.76 97.82 121.66 106.00 L 121.32 106.00 C 119.78 99.35 118.39 92.67 116.94 86.00 C 114.65 76.94 116.73 67.46 115.56 58.31 C 106.31 42.94 96.40 27.94 87.37 12.43 M 129.68 27.11 C 129.43 29.37 132.24 30.12 133.43 28.44 C 136.05 24.66 138.29 20.63 140.58 16.65 C 135.63 18.12 129.54 21.07 129.68 27.11 M 119.85 28.15 C 120.46 28.86 120.46 28.86 119.85 28.15 M 117.94 29.24 C 117.95 29.62 117.98 30.37 117.99 30.75 L 118.83 30.70 C 118.77 30.26 118.64 29.40 118.57 28.97 L 117.94 29.24 M 115.19 37.08 L 114.80 37.56 C 117.05 40.93 118.81 44.66 121.55 47.68 C 121.47 45.10 121.26 42.53 121.25 39.94 C 120.15 37.46 117.95 35.70 115.19 37.08 M 123.97 37.82 C 121.19 39.73 121.89 43.43 121.87 46.30 C 124.43 43.91 125.80 40.58 127.69 37.69 C 126.76 37.72 124.90 37.79 123.97 37.82 Z" />
<path fill="#fefefe" opacity="1.00" d=" M 214.25 12.41 C 231.17 12.11 248.12 12.37 265.05 12.27 C 266.39 12.37 267.94 12.01 269.07 12.96 C 269.15 15.78 269.53 18.73 268.84 21.48 C 264.40 23.10 259.56 21.95 254.97 21.70 C 254.86 22.19 254.62 23.17 254.51 23.66 C 257.58 23.19 260.69 23.22 263.79 23.13 C 260.56 24.52 256.73 27.38 257.60 31.40 C 252.44 31.46 250.15 37.24 248.35 41.28 C 248.41 40.56 248.54 39.10 248.60 38.37 C 248.13 38.51 247.18 38.79 246.70 38.93 C 248.36 41.43 247.20 44.27 247.20 46.98 C 247.07 57.68 247.36 68.39 247.07 79.09 C 245.38 87.85 243.34 96.55 241.50 105.29 C 238.92 97.26 237.62 88.82 235.63 80.60 C 235.30 69.09 235.64 57.55 235.48 46.04 C 235.35 44.02 234.58 42.13 234.04 40.21 L 235.66 40.84 C 234.87 39.14 236.51 36.01 234.89 35.00 C 231.86 34.91 234.18 38.62 234.07 40.14 C 231.88 36.59 229.29 30.36 224.18 31.78 C 224.74 31.10 225.14 30.34 225.40 29.50 L 228.29 29.46 L 226.88 30.67 C 229.27 32.17 231.19 34.24 233.07 36.30 C 233.99 33.69 231.77 31.79 230.73 29.71 C 232.43 30.74 233.10 33.16 234.91 33.87 C 235.78 32.23 235.54 30.31 235.56 28.52 C 234.25 27.09 232.67 25.90 231.58 24.28 C 230.20 24.43 231.71 26.75 231.84 27.62 C 230.91 27.69 229.05 27.85 228.12 27.92 C 229.98 27.34 230.39 25.68 230.66 23.97 C 229.05 23.44 227.59 23.64 226.28 24.58 C 225.52 24.33 224.76 24.07 224.00 23.81 C 223.47 24.06 222.40 24.56 221.87 24.81 C 220.54 24.11 219.20 23.41 217.91 22.65 C 216.43 22.30 214.96 21.93 213.50 21.57 C 213.92 18.61 212.49 14.92 214.25 12.41 M 218.03 21.77 C 219.99 24.70 224.46 22.66 227.47 23.42 L 227.37 21.72 C 225.98 21.88 224.60 22.07 223.22 22.27 C 221.50 22.01 219.77 21.84 218.03 21.77 M 227.54 22.20 C 229.66 24.55 233.20 22.82 235.94 23.61 L 236.21 22.94 C 235.14 22.58 234.08 22.23 233.02 21.87 C 231.32 22.92 229.37 22.19 227.54 22.20 M 248.57 23.52 C 244.91 26.92 250.11 24.14 250.79 22.87 C 250.66 23.55 250.40 24.92 250.27 25.60 L 252.44 25.72 C 251.94 23.77 253.66 22.88 254.76 21.73 C 253.17 24.23 247.57 19.64 248.57 23.52 M 233.80 24.39 C 232.72 25.40 234.48 27.12 235.59 26.61 C 236.21 25.59 235.04 23.69 233.80 24.39 M 253.23 26.91 C 254.52 26.91 255.43 25.42 255.29 24.22 C 253.81 22.99 251.94 25.76 253.23 26.91 M 257.25 24.20 C 255.62 25.65 253.24 29.19 256.84 29.81 C 257.07 27.26 259.00 25.56 260.61 23.81 C 259.77 23.90 258.09 24.10 257.25 24.20 M 248.58 26.85 C 249.20 28.23 249.97 28.21 250.86 26.80 C 250.31 25.74 249.54 25.76 248.58 26.85 M 247.15 33.45 C 247.44 33.49 248.03 33.57 248.32 33.61 C 248.40 31.70 248.53 29.65 248.06 27.80 C 246.55 28.87 247.72 31.73 247.15 33.45 M 249.20 31.64 C 250.37 30.99 252.36 29.25 252.72 27.80 C 250.71 26.97 248.51 29.70 249.20 31.64 M 249.52 32.59 C 249.57 33.49 249.66 35.29 249.71 36.19 C 251.59 34.07 253.57 31.99 256.03 30.53 C 255.43 29.96 254.24 28.84 253.64 28.28 C 252.31 29.75 250.94 31.20 249.52 32.59 M 246.79 37.06 C 247.62 38.23 248.47 38.21 249.34 37.01 C 250.31 34.39 245.79 34.49 246.79 37.06 Z" />
<path fill="#fefefe" opacity="1.00" d=" M 278.67 12.54 C 289.44 11.97 300.25 12.42 311.04 12.28 C 315.45 12.40 319.91 11.91 324.29 12.68 C 324.00 15.61 325.03 19.00 323.72 21.66 C 312.38 22.09 301.01 21.71 289.66 21.81 C 289.63 28.97 289.71 36.13 289.65 43.28 C 285.98 44.37 282.32 45.49 278.65 46.58 C 278.70 35.23 278.67 23.89 278.67 12.54 Z" />
<path fill="#fefefe" opacity="1.00" d=" M 337.49 14.04 C 337.24 12.59 338.74 12.03 339.92 12.28 C 347.97 12.28 356.03 12.25 364.08 12.29 C 371.52 12.41 379.43 14.90 384.20 20.90 C 388.23 25.60 389.31 32.06 388.80 38.07 C 388.45 46.08 382.50 52.84 375.25 55.73 C 377.08 57.50 379.05 59.41 379.42 62.07 C 379.89 66.18 382.61 69.38 384.43 72.93 C 386.70 77.23 389.28 81.35 391.47 85.69 C 387.45 86.16 383.14 86.55 379.21 85.67 C 377.68 83.27 376.87 80.39 374.63 78.50 C 374.70 76.04 373.15 74.03 372.16 71.90 C 369.61 67.11 368.06 61.58 363.92 57.83 C 361.96 57.27 359.88 57.73 357.88 57.72 C 357.46 59.47 356.92 61.17 356.36 62.88 C 357.56 63.96 358.77 65.03 360.00 66.08 C 360.32 64.78 360.77 63.51 361.38 62.32 C 361.16 63.66 360.88 64.99 360.64 66.33 C 362.13 67.48 363.57 68.70 365.04 69.88 C 365.12 69.39 365.29 68.41 365.37 67.92 C 365.21 71.06 368.34 72.64 370.57 74.14 L 368.48 76.23 L 371.98 75.35 C 372.15 75.68 372.49 76.33 372.66 76.66 C 372.99 76.68 373.65 76.72 373.98 76.74 L 374.00 77.95 C 373.36 77.80 372.07 77.50 371.42 77.35 L 371.78 75.88 C 367.51 77.47 361.89 75.76 358.83 80.01 C 358.79 80.89 358.70 82.66 358.66 83.54 C 358.14 82.52 357.63 81.50 357.13 80.48 C 354.45 80.95 351.98 82.12 349.86 83.82 C 349.11 84.75 348.63 86.54 347.05 86.09 C 343.95 86.14 340.84 86.08 337.74 86.10 C 337.19 62.09 337.65 38.05 337.49 14.04 M 348.83 21.82 C 348.81 30.81 348.83 39.80 348.86 48.79 C 355.93 48.35 363.36 49.88 370.15 47.33 C 379.92 43.89 380.52 27.87 371.12 23.57 C 364.16 20.38 356.22 22.40 348.83 21.82 M 350.80 59.23 C 351.33 59.29 352.38 59.41 352.91 59.47 C 353.95 57.24 349.03 57.07 350.80 59.23 M 353.23 57.57 C 352.90 59.88 354.12 61.66 355.93 62.92 C 356.52 61.12 357.12 59.32 357.76 57.53 C 356.63 57.54 354.36 57.56 353.23 57.57 M 348.78 60.80 C 348.80 62.14 348.85 64.83 348.87 66.17 C 350.87 65.68 351.65 64.54 351.20 62.73 C 351.95 63.72 352.95 64.34 354.18 64.57 C 353.72 64.70 352.81 64.95 352.35 65.07 C 352.94 66.38 353.57 67.68 354.29 68.93 C 355.37 67.24 357.20 66.38 358.84 65.36 C 355.91 64.40 354.12 61.81 351.69 60.10 C 351.20 61.74 349.89 61.81 348.78 60.80 M 348.71 71.16 C 350.22 70.29 351.78 69.51 353.46 68.99 C 352.90 67.69 352.36 66.39 351.83 65.08 C 348.91 65.74 348.62 68.65 348.71 71.16 M 355.88 67.92 C 353.58 69.41 355.04 72.17 356.08 73.95 C 357.58 70.96 360.72 70.09 363.79 69.75 C 361.72 67.93 358.25 64.79 355.88 67.92 M 349.70 70.96 C 348.91 72.88 348.72 74.95 348.78 77.02 C 350.79 75.49 353.02 74.20 355.62 74.07 C 354.80 72.55 354.00 71.02 353.19 69.51 C 352.03 70.01 350.86 70.49 349.70 70.96 M 357.64 72.79 C 355.37 74.74 357.69 77.71 358.03 80.00 C 359.63 78.34 361.44 76.46 363.93 76.45 C 365.99 76.09 369.39 76.83 369.55 73.83 C 367.64 72.86 365.94 71.56 364.17 70.37 C 361.90 70.74 359.18 70.78 357.64 72.79 M 349.71 77.02 C 348.69 79.08 349.41 81.50 349.09 83.68 C 351.45 81.53 354.39 80.24 357.58 80.10 C 356.69 78.38 356.56 76.01 354.95 74.80 C 353.05 75.08 351.28 75.94 349.71 77.02 Z" />
<path fill="#fefefe" opacity="1.00" d=" M 391.09 12.39 C 395.06 12.16 399.04 12.26 403.02 12.26 C 404.26 13.95 405.20 15.96 406.90 17.25 C 411.28 19.38 416.07 20.47 420.89 21.07 C 422.33 21.32 423.78 21.49 425.24 21.65 C 427.48 20.89 429.80 20.38 432.17 20.23 C 437.43 18.00 443.92 17.18 447.51 12.29 C 451.34 12.21 455.17 12.23 459.00 12.25 L 459.00 13.45 C 450.06 28.00 440.61 42.25 432.00 56.99 C 430.90 64.56 431.57 72.39 430.97 80.03 C 429.37 88.72 427.15 97.29 425.68 106.00 L 425.42 106.00 C 424.51 99.59 422.69 93.35 421.25 87.05 C 418.31 77.37 421.10 67.03 418.93 57.26 C 409.82 42.21 400.12 27.49 391.09 12.39 M 433.58 21.90 C 433.07 24.07 432.81 26.28 432.60 28.49 C 433.83 28.93 435.07 29.37 436.31 29.83 C 439.31 25.21 442.18 20.51 445.10 15.84 C 440.84 17.03 437.39 19.82 433.58 21.90 M 408.68 21.31 C 410.53 24.06 412.24 26.90 414.00 29.70 C 415.02 28.85 416.10 28.06 417.06 27.14 C 417.43 25.17 416.40 23.40 415.68 21.66 C 413.53 20.52 411.30 19.53 409.13 18.44 C 408.36 19.14 407.11 20.42 408.68 21.31 M 415.98 20.66 C 417.10 23.21 417.90 25.93 417.18 28.72 C 417.92 28.43 419.40 27.85 420.15 27.55 C 421.23 27.69 422.32 27.78 423.42 27.86 L 422.95 26.16 C 423.58 26.26 424.85 26.47 425.49 26.57 L 425.60 24.26 C 424.83 24.30 423.30 24.38 422.54 24.41 L 422.75 26.44 C 420.70 25.52 418.20 23.88 420.24 21.55 C 419.17 21.33 417.05 20.88 415.98 20.66 M 427.95 23.62 C 427.37 24.45 427.37 24.45 427.95 23.62 C 429.52 23.68 430.75 22.11 432.23 21.59 L 432.16 21.32 C 430.58 20.98 426.92 21.13 427.95 23.62 M 421.84 23.25 C 423.25 24.09 426.44 24.24 426.75 22.21 C 425.42 21.99 424.08 21.95 422.72 22.10 C 422.50 22.39 422.06 22.96 421.84 23.25 M 428.68 24.78 C 428.64 25.64 428.54 27.35 428.50 28.21 C 429.41 28.30 431.24 28.50 432.16 28.59 C 432.23 26.29 432.50 24.00 432.83 21.72 C 431.40 22.70 430.01 23.69 428.68 24.78 M 426.73 25.65 L 426.42 26.45 C 426.98 29.29 429.20 25.28 426.73 25.65 M 425.92 29.83 C 423.78 29.44 421.67 28.98 419.61 28.35 C 418.62 30.55 420.73 32.03 422.44 30.51 C 423.01 30.54 424.15 30.58 424.73 30.60 C 425.22 31.78 424.00 34.70 426.04 34.47 C 426.50 34.18 427.42 33.61 427.89 33.33 C 427.30 32.35 426.72 31.38 426.15 30.40 C 426.68 29.98 427.73 29.13 428.26 28.71 C 427.56 28.57 426.18 28.31 425.48 28.17 C 425.59 28.59 425.81 29.41 425.92 29.83 M 427.58 29.98 C 427.06 32.06 428.91 33.30 430.04 34.73 C 430.04 32.53 430.92 30.56 431.83 28.63 C 430.32 28.83 428.91 29.28 427.58 29.98 M 414.66 31.04 C 415.94 32.58 417.02 34.27 418.05 35.99 C 418.68 35.07 419.33 34.17 420.00 33.28 C 421.54 33.82 423.04 34.45 424.59 35.02 C 424.45 34.18 424.19 32.50 424.06 31.66 C 422.65 31.44 421.23 31.45 419.84 31.23 C 418.91 29.75 417.56 28.95 415.78 28.85 C 415.41 29.58 415.03 30.31 414.66 31.04 M 431.21 31.30 C 430.93 32.96 429.22 35.84 431.86 36.29 C 434.00 35.09 434.75 31.95 436.03 29.84 C 434.43 29.76 431.74 29.09 431.21 31.30 M 427.02 34.35 C 425.91 34.71 424.91 36.21 425.51 37.33 C 426.95 37.02 428.11 35.94 429.54 35.48 C 429.41 34.60 427.79 34.46 427.02 34.35 M 418.41 36.11 C 420.49 39.56 422.63 42.97 424.74 46.40 C 425.11 46.36 425.84 46.29 426.21 46.26 C 427.83 43.66 429.49 41.09 431.17 38.53 C 431.12 38.14 431.00 37.35 430.94 36.96 C 428.35 35.47 427.24 39.60 424.68 38.50 C 425.82 34.71 420.39 33.15 418.41 36.11 Z" />
<path fill="#fefefe" opacity="1.00" d=" M 360.38 32.21 C 360.92 30.18 361.42 28.14 362.02 26.12 C 362.46 28.09 362.91 30.06 363.42 32.02 C 364.88 31.32 366.36 30.60 367.84 29.93 C 366.91 31.11 365.96 32.26 365.02 33.41 C 366.73 34.23 368.46 35.03 370.15 35.91 C 368.45 36.07 366.73 36.15 365.04 36.24 C 365.49 36.98 366.39 38.46 366.84 39.20 C 366.00 38.76 364.33 37.88 363.49 37.43 C 362.89 39.63 362.23 41.80 361.37 43.91 C 361.22 42.20 361.09 40.48 360.97 38.76 C 360.50 39.35 359.56 40.53 359.09 41.12 C 359.42 39.62 359.73 38.11 360.01 36.60 C 357.95 36.28 355.90 36.02 353.84 35.71 C 355.60 35.10 357.38 34.51 359.15 33.90 C 358.45 32.56 357.71 31.25 357.00 29.93 C 358.13 30.69 359.26 31.45 360.38 32.21 Z" />
<path fill="#fefefe" opacity="1.00" d=" M 124.64 31.61 C 123.29 32.63 122.40 29.41 124.06 29.44 C 124.20 29.98 124.50 31.07 124.64 31.61 Z" />
<path fill="#fefefe" opacity="1.00" d=" M 260.92 55.61 C 281.21 51.08 301.03 44.57 321.40 40.36 C 319.91 44.11 318.56 47.91 316.84 51.55 C 307.96 52.82 299.01 53.42 290.10 54.43 C 290.18 61.89 289.84 69.36 290.09 76.82 C 301.75 76.84 313.43 76.71 325.09 76.87 C 326.12 79.66 325.33 82.90 325.55 85.86 C 309.97 86.39 294.36 85.97 278.77 86.08 C 278.57 75.75 278.71 65.42 278.69 55.09 C 272.76 55.23 266.84 56.45 260.92 55.61 Z" />
</g>
</svg>
