<?xml version="1.0" encoding="UTF-8" ?>
<!DOCTYPE svg PUBLIC "-//W3C//DTD SVG 1.1//EN" "http://www.w3.org/Graphics/SVG/1.1/DTD/svg11.dtd">
<svg width="334pt" height="75pt" viewBox="0 0 334 75" version="1.1" xmlns="http://www.w3.org/2000/svg">
<g id="#fdfefaff">
<path fill="#fdfefa" opacity="1.00" d=" M 19.02 0.00 L 25.54 0.00 C 30.09 0.40 34.43 1.98 38.37 4.27 C 37.76 10.30 37.08 16.34 35.74 22.26 C 32.18 13.53 25.78 6.39 19.02 0.00 Z" />
<path fill="#fdfefa" opacity="1.00" d=" M 2.26 13.60 C 5.53 7.83 10.69 3.30 16.92 0.99 C 21.14 4.70 25.01 8.80 28.42 13.27 C 19.71 12.63 10.93 12.17 2.26 13.60 Z" />
<path fill="#fdfefa" opacity="1.00" d=" M 58.65 0.63 C 71.53 0.64 84.42 0.64 97.30 0.63 C 97.29 5.21 97.28 9.79 97.29 14.37 C 89.47 14.35 81.64 14.40 73.81 14.35 C 73.81 19.66 73.81 24.98 73.82 30.30 C 80.84 30.30 87.86 30.32 94.88 30.31 C 94.59 34.89 94.57 39.48 94.75 44.07 C 87.77 44.08 80.79 44.08 73.82 44.07 C 73.82 49.68 73.84 55.29 73.78 60.91 C 81.94 60.94 90.09 60.91 98.25 60.92 C 98.24 65.62 98.24 70.31 98.26 75.00 L 58.72 75.00 C 58.60 50.21 58.71 25.42 58.65 0.63 Z" />
<path fill="#fdfefa" opacity="1.00" d=" M 111.99 38.11 C 114.95 25.63 118.11 13.19 120.92 0.67 C 128.82 0.65 136.71 0.58 144.61 0.70 C 144.20 1.36 143.78 2.02 143.37 2.68 C 142.57 2.51 140.97 2.18 140.17 2.01 C 140.62 3.84 141.48 5.38 143.63 5.47 L 143.42 2.97 C 144.10 3.25 144.96 3.35 145.34 4.07 C 146.95 13.02 149.34 21.80 151.41 30.65 C 146.51 33.75 141.66 37.05 136.04 38.74 C 134.96 31.95 133.89 25.16 132.61 18.40 C 130.56 31.36 128.18 44.27 126.03 57.21 C 127.76 57.59 129.46 58.22 131.24 58.32 C 140.14 57.76 148.39 53.96 156.09 49.70 C 158.43 58.07 160.07 66.61 162.34 75.00 L 143.69 75.00 C 142.59 70.63 141.84 66.19 140.87 61.79 C 135.46 61.84 130.05 61.64 124.64 61.85 C 123.25 66.13 122.81 70.65 121.66 75.00 L 103.08 75.00 C 103.87 72.16 104.52 69.28 105.02 66.37 C 106.23 67.57 107.82 68.20 109.54 68.19 C 109.86 66.78 110.19 65.37 110.50 63.96 C 108.64 64.22 106.54 64.31 106.70 67.03 C 106.34 66.29 105.97 65.54 105.62 64.79 C 105.82 63.57 106.22 61.12 106.42 59.90 C 107.09 59.57 107.77 59.28 108.46 59.01 C 108.40 59.92 108.27 61.73 108.21 62.64 C 111.00 63.31 111.39 60.69 111.99 58.66 C 110.21 58.81 108.47 58.70 107.24 57.28 C 108.61 52.73 109.71 48.11 110.61 43.45 C 111.33 43.37 112.05 43.33 112.77 43.29 L 111.90 45.93 C 112.68 45.87 114.26 45.76 115.04 45.70 C 115.31 44.39 115.56 43.07 115.81 41.75 C 114.93 42.06 113.17 42.66 112.29 42.97 C 111.91 41.39 111.46 39.72 111.99 38.11 M 122.21 2.29 C 121.99 3.05 121.54 4.59 121.32 5.36 C 122.10 5.21 123.67 4.92 124.46 4.77 C 124.54 4.08 124.71 2.69 124.79 2.00 C 124.15 2.07 122.86 2.21 122.21 2.29 M 141.47 6.59 C 141.75 8.71 142.07 11.03 144.97 10.44 C 144.80 9.61 144.46 7.95 144.29 7.12 C 143.35 6.94 142.41 6.76 141.47 6.59 M 121.17 9.80 C 122.60 10.65 124.36 8.23 123.07 7.18 C 121.59 6.34 119.79 8.71 121.17 9.80 M 120.08 11.95 C 119.79 12.95 119.51 13.94 119.22 14.93 C 119.93 14.97 121.34 15.04 122.05 15.07 C 122.28 13.87 122.50 12.67 122.72 11.47 C 121.84 11.63 120.96 11.79 120.08 11.95 M 142.53 11.34 C 142.68 12.23 142.98 14.01 143.13 14.90 C 143.86 14.96 145.31 15.07 146.04 15.12 C 145.98 12.83 144.75 11.47 142.53 11.34 M 117.98 20.26 C 118.74 20.14 120.27 19.91 121.04 19.80 C 121.25 18.64 121.46 17.49 121.66 16.33 C 119.17 16.22 118.18 17.98 117.98 20.26 M 143.58 16.63 C 143.85 17.73 144.12 18.83 144.39 19.94 C 145.06 20.02 146.41 20.18 147.08 20.27 C 146.85 19.10 146.61 17.94 146.36 16.78 C 145.43 16.73 144.51 16.68 143.58 16.63 M 117.85 21.72 C 117.61 22.77 117.36 23.81 117.11 24.86 C 117.80 24.86 119.18 24.85 119.87 24.85 C 120.11 23.64 120.35 22.44 120.60 21.23 C 119.68 21.39 118.77 21.56 117.85 21.72 M 144.70 21.37 C 144.90 22.26 145.29 24.04 145.49 24.93 C 146.16 24.99 147.51 25.10 148.18 25.16 C 147.89 23.97 147.60 22.78 147.32 21.59 C 146.44 21.52 145.57 21.44 144.70 21.37 M 115.75 30.22 C 116.49 30.15 117.97 30.01 118.70 29.94 C 118.98 28.72 119.26 27.51 119.54 26.29 C 117.06 26.19 115.75 27.79 115.75 30.22 M 145.91 26.39 C 146.21 28.43 146.43 30.78 149.19 30.28 C 148.97 29.09 148.75 27.91 148.54 26.72 C 147.88 26.64 146.57 26.47 145.91 26.39 M 115.61 31.58 C 115.40 32.21 114.97 33.47 114.76 34.10 C 115.04 34.73 115.60 36.00 115.87 36.64 C 114.17 37.13 113.31 38.42 113.28 40.53 C 114.02 40.47 115.49 40.36 116.23 40.30 C 116.99 38.36 116.69 36.28 116.70 34.25 L 117.76 34.84 C 117.93 33.69 118.11 32.54 118.30 31.38 C 117.40 31.45 116.50 31.51 115.61 31.58 M 111.39 47.81 C 111.14 49.01 110.89 50.21 110.65 51.41 C 111.62 51.43 112.60 51.44 113.58 51.45 C 113.90 50.13 114.22 48.82 114.56 47.51 C 113.50 47.61 112.44 47.71 111.39 47.81 M 110.18 53.36 C 109.93 54.56 109.69 55.76 109.45 56.96 C 110.42 56.93 111.39 56.88 112.36 56.84 C 112.61 55.56 112.87 54.29 113.12 53.01 C 112.39 53.10 110.92 53.27 110.18 53.36 M 152.31 53.18 C 152.60 54.42 152.89 55.67 153.17 56.92 C 153.91 56.94 155.38 56.99 156.12 57.02 C 155.86 55.76 155.60 54.50 155.34 53.25 C 154.33 53.22 153.32 53.20 152.31 53.18 M 153.52 58.39 C 153.82 59.74 154.12 61.10 154.43 62.46 C 155.42 62.45 156.41 62.43 157.41 62.42 C 157.10 61.16 156.79 59.91 156.48 58.65 C 155.49 58.56 154.50 58.48 153.52 58.39 M 154.70 63.88 C 155.06 65.26 155.43 66.64 155.81 68.03 C 156.56 67.99 158.08 67.93 158.84 67.90 C 158.50 66.69 158.17 65.47 157.84 64.26 C 157.05 64.16 155.48 63.97 154.70 63.88 M 106.04 69.81 C 105.80 71.06 105.57 72.31 105.33 73.56 C 106.32 73.52 107.30 73.47 108.29 73.43 C 108.56 72.20 108.83 70.96 109.09 69.73 C 108.07 69.76 107.06 69.78 106.04 69.81 M 156.24 69.72 C 156.57 70.99 156.90 72.25 157.24 73.52 C 158.22 73.49 159.21 73.46 160.19 73.42 C 159.87 72.19 159.54 70.95 159.22 69.72 C 158.22 69.72 157.23 69.72 156.24 69.72 Z" />
<path fill="#fdfefa" opacity="1.00" d=" M 168.06 0.63 C 173.09 0.65 178.13 0.64 183.16 0.64 C 183.17 5.68 183.16 10.71 183.19 15.74 C 177.87 16.77 172.88 18.90 167.94 21.03 C 167.88 14.23 168.17 7.43 168.06 0.63 Z" />
<path fill="#fdfefa" opacity="1.00" d=" M 211.92 0.64 C 217.04 0.64 222.17 0.64 227.30 0.62 C 226.93 25.41 227.25 50.21 227.14 75.00 L 212.15 75.00 C 212.33 50.21 211.91 25.43 211.92 0.64 Z" />
<path fill="#fdfefa" opacity="1.00" d=" M 234.80 0.64 C 249.54 0.63 264.29 0.63 279.03 0.64 C 279.04 5.21 279.04 9.79 279.04 14.37 C 274.25 14.38 269.46 14.37 264.67 14.39 C 264.67 34.60 264.67 54.80 264.66 75.00 L 249.25 75.00 C 249.14 54.80 249.22 34.61 249.21 14.41 C 244.40 14.36 239.60 14.37 234.80 14.38 C 234.80 9.80 234.80 5.22 234.80 0.64 Z" />
<path fill="#fdfefa" opacity="1.00" d=" M 282.99 0.63 C 288.17 0.62 293.36 0.64 298.54 0.62 C 302.06 11.33 305.58 22.04 308.68 32.89 C 311.83 22.12 315.01 11.37 318.24 0.63 C 323.46 0.61 328.68 0.65 333.90 0.63 C 328.35 17.64 322.01 34.40 316.47 51.41 C 315.97 59.25 316.42 67.14 316.26 75.00 L 300.78 75.00 C 300.77 67.99 300.80 60.97 300.79 53.96 C 300.95 50.49 299.34 47.31 298.37 44.06 C 293.26 29.58 288.03 15.14 282.99 0.63 Z" />
<path fill="#fdfefa" opacity="1.00" d=" M 40.23 5.57 C 44.87 9.98 48.39 15.72 49.22 22.16 C 45.22 26.42 39.80 29.29 34.58 31.88 C 37.86 23.47 39.69 14.57 40.23 5.57 Z" />
<path fill="#fdfefa" opacity="1.00" d=" M 1.60 15.64 C 7.07 14.81 12.59 14.61 18.11 14.65 C 11.46 20.79 6.24 28.24 1.80 36.08 C 1.12 33.92 0.44 31.76 0.00 29.54 L 0.00 22.51 C 0.40 20.19 1.01 17.92 1.60 15.64 Z" />
<path fill="#fdfefa" opacity="1.00" d=" M 179.91 18.28 C 180.62 18.35 182.06 18.48 182.78 18.55 C 182.83 18.85 182.94 19.46 182.99 19.77 C 181.80 19.87 180.74 19.52 179.79 18.73 L 179.91 18.28 Z" />
<path fill="#fdfefa" opacity="1.00" d=" M 183.38 19.62 C 182.52 17.78 185.30 16.80 185.50 18.97 C 186.33 20.55 183.70 21.19 183.38 19.62 Z" />
<path fill="#fdfefa" opacity="1.00" d=" M 155.20 30.43 C 162.49 26.45 169.25 21.29 177.36 19.01 C 179.14 19.38 180.95 19.74 182.52 20.73 C 181.44 20.72 179.27 20.71 178.19 20.70 C 179.01 24.07 179.98 27.40 180.94 30.73 C 183.12 30.23 185.31 29.80 187.51 29.35 C 187.54 30.03 187.60 31.39 187.63 32.07 C 185.81 32.43 184.00 32.83 182.20 33.26 C 181.59 32.86 180.37 32.08 179.76 31.69 C 180.30 32.18 181.38 33.17 181.92 33.66 C 179.24 34.30 176.69 35.38 174.30 36.74 C 174.31 35.87 174.34 34.15 174.35 33.28 C 175.71 32.75 177.06 32.20 178.40 31.62 C 178.37 32.21 178.31 33.39 178.28 33.98 L 179.47 34.05 C 179.24 33.54 178.77 32.52 178.53 32.00 L 179.71 30.89 C 179.03 27.77 177.86 24.78 176.97 21.71 C 175.30 22.51 173.60 23.25 171.89 23.96 C 169.31 25.31 166.78 26.76 164.19 28.08 C 165.26 30.90 166.30 33.73 167.41 36.53 C 168.69 37.00 169.95 35.48 171.21 35.17 C 172.06 34.61 172.91 34.06 173.76 33.50 C 173.76 34.62 173.78 35.73 173.82 36.85 C 162.99 42.37 153.68 50.74 141.89 54.38 C 142.20 53.06 142.45 51.73 142.77 50.41 C 143.30 50.88 144.35 51.83 144.87 52.30 C 144.74 51.75 144.48 50.65 144.35 50.10 C 145.84 49.55 147.36 49.34 148.92 49.47 C 148.82 49.08 148.64 48.32 148.54 47.94 C 149.82 48.30 151.11 48.64 152.41 48.96 C 151.86 48.61 150.76 47.91 150.21 47.56 C 151.34 47.04 152.47 46.52 153.60 46.00 C 152.44 43.02 151.27 40.04 150.17 37.04 C 148.39 38.05 146.62 39.07 144.95 40.26 C 143.95 39.58 142.98 38.85 141.99 38.15 C 144.54 37.30 146.85 35.94 149.15 34.58 L 148.66 36.79 L 149.94 36.24 L 149.22 33.69 C 149.93 34.08 151.34 34.86 152.04 35.25 L 152.26 33.93 L 149.92 33.67 C 151.21 31.95 152.76 33.36 153.95 34.08 C 153.87 33.31 153.72 31.76 153.64 30.99 C 154.79 31.33 155.94 31.67 157.09 32.01 C 156.62 31.61 155.67 30.82 155.20 30.43 M 176.12 20.20 C 176.81 20.81 176.81 20.81 176.12 20.20 M 166.31 25.01 C 167.05 25.61 167.05 25.61 166.31 25.01 M 164.03 26.17 L 164.06 26.81 L 164.70 26.78 L 164.67 26.13 L 164.03 26.17 M 161.95 27.21 C 162.62 27.82 162.62 27.82 161.95 27.21 M 151.21 36.33 C 152.31 39.35 153.45 42.35 154.57 45.36 C 158.62 42.82 162.60 40.15 166.60 37.52 C 165.39 34.65 164.27 31.74 163.05 28.88 C 159.03 31.25 155.32 34.11 151.21 36.33 M 183.01 31.26 L 183.04 31.90 L 183.68 31.87 L 183.65 31.23 L 183.01 31.26 M 171.48 36.19 C 172.10 36.86 172.10 36.86 171.48 36.19 M 169.36 37.18 C 170.07 37.84 170.07 37.84 169.36 37.18 M 167.23 38.36 C 167.83 39.11 167.83 39.11 167.23 38.36 M 161.02 42.28 L 160.99 42.92 L 161.62 42.95 L 161.65 42.31 L 161.02 42.28 M 154.42 46.17 C 154.65 49.54 157.26 44.47 154.42 46.17 Z" />
<path fill="#fdfefa" opacity="1.00" d=" M 2.94 38.13 C 5.70 33.10 8.83 28.26 12.36 23.72 C 12.71 32.64 15.40 41.31 19.12 49.38 C 12.50 47.94 6.63 43.79 2.94 38.13 Z" />
<path fill="#fdfefa" opacity="1.00" d=" M 26.49 37.38 C 34.70 34.28 42.68 30.49 49.54 24.94 C 49.32 31.84 46.59 38.74 41.38 43.38 C 36.32 41.64 31.21 39.93 26.49 37.38 Z" />
<path fill="#fdfefa" opacity="1.00" d=" M 21.29 49.29 C 18.94 44.11 16.98 38.77 15.32 33.33 C 22.79 38.51 31.23 42.26 39.95 44.77 C 39.04 45.34 38.13 45.92 37.22 46.50 C 41.77 55.99 46.17 65.55 50.80 75.00 L 34.57 75.00 C 30.49 66.73 26.80 58.26 22.91 49.90 C 22.51 49.75 21.70 49.44 21.29 49.29 Z" />
<path fill="#fdfefa" opacity="1.00" d=" M 168.15 42.29 C 172.76 39.10 178.04 37.02 183.18 34.83 C 183.18 43.53 183.18 52.22 183.18 60.92 C 190.55 60.92 197.92 60.92 205.30 60.92 C 205.08 65.61 205.18 70.31 205.16 75.00 L 167.92 75.00 C 168.08 64.10 167.61 53.17 168.15 42.29 Z" />
<path fill="#fdfefa" opacity="1.00" d=" M 131.88 41.23 C 135.05 40.90 138.15 39.99 141.02 38.58 C 141.93 39.37 142.84 40.17 143.79 40.92 C 142.00 41.33 140.27 41.93 138.61 42.72 L 138.27 41.32 C 137.95 41.10 137.30 40.65 136.97 40.43 C 137.27 41.10 137.88 42.44 138.18 43.10 C 137.80 43.51 137.02 44.33 136.64 44.74 L 137.35 42.99 C 135.11 43.60 132.80 43.89 130.51 44.23 C 130.59 43.41 130.74 41.78 130.81 40.97 C 131.75 42.14 132.94 42.90 134.37 43.26 C 133.74 42.75 132.50 41.74 131.88 41.23 M 140.02 40.18 L 140.03 40.82 L 140.67 40.81 L 140.66 40.17 L 140.02 40.18 Z" />
<path fill="#fdfefa" opacity="1.00" d=" M 0.89 39.73 C 4.49 45.01 10.04 48.49 15.86 50.88 C 15.90 58.92 15.85 66.96 15.89 75.00 L 0.92 75.00 C 0.89 63.24 0.96 51.48 0.89 39.73 Z" />
<path fill="#fdfefa" opacity="1.00" d=" M 137.42 45.65 C 137.93 45.50 138.46 45.41 138.99 45.37 C 139.47 47.51 139.99 49.64 140.46 51.78 L 141.49 51.14 C 141.52 51.97 141.58 53.64 141.61 54.47 C 140.13 54.86 138.66 55.27 137.20 55.69 C 137.28 55.27 137.44 54.44 137.52 54.02 L 135.52 53.96 L 137.15 55.86 C 135.28 55.85 133.41 55.78 131.56 55.54 C 129.83 55.59 128.10 55.54 126.37 55.46 C 128.26 53.67 131.11 54.39 133.44 53.67 C 133.64 53.96 134.03 54.55 134.23 54.84 C 134.31 54.53 134.48 53.90 134.56 53.59 C 135.63 53.35 136.72 53.17 137.81 53.05 C 138.47 53.39 139.77 54.08 140.43 54.42 C 139.96 54.00 139.02 53.16 138.55 52.73 C 139.54 50.35 137.95 47.91 137.42 45.65 Z" />
</g>
</svg>
