<?xml version="1.0" encoding="UTF-8" ?>
<!DOCTYPE svg PUBLIC "-//W3C//DTD SVG 1.1//EN" "http://www.w3.org/Graphics/SVG/1.1/DTD/svg11.dtd">
<svg width="287pt" height="76pt" viewBox="0 0 287 76" version="1.1" xmlns="http://www.w3.org/2000/svg">
<g id="#fefefdff">
<path fill="#fefefd" opacity="1.00" d=" M 99.42 0.00 L 105.17 0.00 C 110.23 12.19 115.26 24.41 120.65 36.46 C 124.52 36.46 128.40 36.45 132.27 36.46 C 133.19 34.48 134.12 32.52 135.12 30.58 C 136.29 32.71 137.18 34.98 138.01 37.26 C 139.35 33.74 139.36 29.53 141.97 26.62 C 145.16 30.72 144.41 36.47 145.87 41.27 C 146.51 39.68 147.13 38.08 147.77 36.49 C 149.62 36.48 151.48 36.48 153.33 36.47 C 153.30 28.30 153.34 20.14 153.33 11.97 C 153.21 9.81 153.15 7.19 151.31 5.72 C 148.90 4.44 146.11 4.10 143.64 2.95 C 144.13 1.96 144.65 0.97 145.18 0.00 L 145.70 0.00 C 146.00 0.26 146.61 0.79 146.92 1.05 C 156.81 0.60 166.73 0.93 176.63 0.87 C 176.54 1.60 176.34 3.06 176.24 3.79 C 172.92 4.45 167.92 4.81 167.46 9.13 C 166.52 18.07 167.30 27.11 167.04 36.09 C 169.21 36.18 171.38 36.31 173.54 36.62 C 172.82 39.84 169.40 38.82 167.00 39.11 C 167.11 47.43 166.99 55.75 167.04 64.08 C 167.05 66.05 167.40 68.53 169.38 69.51 C 172.43 70.83 175.84 70.32 179.07 70.43 C 184.51 70.40 190.48 70.48 195.17 67.27 C 199.62 64.32 201.68 59.14 203.63 54.40 C 204.55 54.40 206.40 54.41 207.33 54.41 C 205.94 61.59 204.82 68.81 203.50 76.00 L 144.45 76.00 C 144.46 75.34 144.49 74.01 144.51 73.35 C 147.83 72.04 153.03 71.74 153.13 67.04 C 153.61 57.67 153.16 48.27 153.33 38.88 C 152.05 38.98 150.78 39.08 149.51 39.18 C 148.42 42.53 147.65 46.01 145.96 49.12 C 145.58 49.07 144.84 48.96 144.47 48.90 C 143.15 44.46 142.82 39.79 141.67 35.30 C 140.68 38.65 140.23 42.29 138.09 45.17 C 136.87 42.72 135.95 40.13 135.15 37.52 C 131.35 40.45 126.06 38.41 121.62 38.98 C 124.78 46.85 128.30 54.57 131.51 62.43 C 132.66 65.13 133.69 68.00 135.78 70.14 C 137.59 72.01 140.26 72.42 142.62 73.19 C 142.64 73.89 142.68 75.30 142.70 76.00 L 111.81 76.00 C 111.83 75.32 111.86 73.95 111.88 73.27 C 114.43 72.22 119.65 71.99 118.74 68.00 C 116.96 61.78 113.93 56.00 111.77 49.90 C 102.76 49.87 93.76 49.91 84.75 49.89 C 82.54 56.56 78.66 62.89 78.12 69.98 L 78.39 70.59 C 80.75 71.81 83.35 72.41 85.92 73.04 C 85.96 73.78 86.06 75.26 86.11 76.00 L 62.31 76.00 C 62.31 75.29 62.30 73.86 62.30 73.15 C 65.03 72.13 68.40 71.71 70.06 69.00 C 72.77 64.77 74.18 59.89 76.22 55.32 C 83.99 36.90 91.34 18.29 99.42 0.00 M 86.85 44.84 C 94.46 44.92 102.07 44.86 109.68 44.87 C 105.94 35.38 102.16 25.91 98.36 16.45 C 94.43 25.87 90.65 35.36 86.85 44.84 Z" />
<path fill="#fefefd" opacity="1.00" d=" M 2.01 0.35 C 17.64 1.33 33.32 0.64 48.97 0.85 C 55.79 0.87 62.61 0.95 69.41 0.28 C 70.05 6.92 70.81 13.54 71.25 20.19 C 70.02 20.16 68.78 20.12 67.54 20.08 C 66.48 15.87 65.16 11.14 61.22 8.71 C 55.72 5.06 48.79 6.40 42.58 6.13 C 42.57 24.76 42.61 43.39 42.55 62.02 C 42.60 64.71 42.34 67.71 44.01 70.02 C 46.07 72.11 49.21 72.36 51.90 73.15 C 51.90 73.87 51.91 75.29 51.92 76.00 L 19.92 76.00 C 19.90 75.29 19.87 73.88 19.85 73.17 C 23.53 72.29 28.67 71.37 28.73 66.56 C 29.11 46.43 28.77 26.28 28.90 6.14 C 22.98 6.46 16.55 5.00 11.11 8.05 C 6.88 10.55 4.86 15.39 3.59 19.93 C 2.39 19.92 1.20 19.91 0.00 19.91 L 0.00 17.47 C 0.89 11.79 1.42 6.06 2.01 0.35 Z" />
<path fill="#fefefd" opacity="1.00" d=" M 210.15 0.86 C 220.65 0.83 231.16 0.82 241.66 0.87 C 241.57 1.57 241.40 2.98 241.31 3.68 C 238.61 4.56 235.11 4.66 233.43 7.31 C 232.41 10.08 232.38 13.09 232.33 16.01 C 232.36 31.34 232.32 46.68 232.35 62.02 C 232.54 65.10 232.31 68.92 235.06 70.99 C 237.06 72.18 239.45 72.47 241.67 73.09 C 241.64 73.82 241.58 75.27 241.55 76.00 L 210.21 76.00 C 210.21 75.29 210.20 73.87 210.20 73.16 C 212.46 72.50 214.88 72.12 216.89 70.83 C 218.66 69.50 218.77 67.05 218.89 65.04 C 218.94 56.35 218.88 47.66 218.90 38.97 C 215.62 38.97 212.35 38.96 209.07 39.03 C 208.16 39.77 207.45 40.97 206.13 40.90 C 205.39 38.05 205.43 34.90 207.08 32.36 C 209.15 32.61 208.52 34.76 208.75 36.22 C 212.13 36.22 215.52 36.22 218.90 36.21 C 218.71 27.08 219.27 17.90 218.64 8.80 C 218.11 4.72 213.41 4.66 210.35 3.78 C 210.30 3.05 210.20 1.59 210.15 0.86 Z" />
<path fill="#fefefd" opacity="1.00" d=" M 256.72 0.85 C 265.53 0.84 274.33 0.86 283.14 0.84 C 283.09 1.58 283.00 3.04 282.95 3.77 C 276.71 4.93 271.09 8.20 266.62 12.66 C 259.41 19.48 252.20 26.29 245.08 33.21 C 255.77 44.45 265.77 56.33 276.44 67.58 C 279.14 70.74 283.06 72.27 286.99 73.25 C 286.85 73.94 286.58 75.31 286.45 76.00 L 272.71 76.00 C 269.11 75.84 265.42 74.85 263.04 71.95 C 252.79 60.69 242.83 49.17 232.51 37.96 C 241.51 28.49 251.43 19.95 260.45 10.50 C 261.66 9.15 263.11 7.71 262.62 5.72 C 260.80 4.80 258.79 4.39 256.84 3.87 C 256.81 3.12 256.75 1.61 256.72 0.85 Z" />
<path fill="#fefefd" opacity="1.00" d=" M 187.10 26.76 C 185.72 23.53 186.60 19.36 188.12 16.29 C 188.19 17.15 188.34 18.86 188.41 19.72 L 189.49 19.15 C 189.67 24.17 190.46 29.14 191.05 34.12 C 191.25 32.08 191.44 30.04 191.67 28.01 C 190.70 38.58 191.64 49.22 190.77 59.80 L 190.23 59.88 C 190.12 56.12 187.86 52.82 188.09 49.03 C 188.20 42.03 187.72 35.05 187.66 28.05 C 187.52 27.73 187.24 27.08 187.10 26.76 Z" />
<path fill="#fefefd" opacity="1.00" d=" M 181.80 22.97 C 183.92 25.89 182.38 29.62 182.67 32.93 C 181.99 38.69 183.32 44.96 180.65 50.30 C 180.63 49.58 180.59 48.14 180.57 47.42 L 179.58 47.61 C 180.09 39.41 179.06 30.86 181.80 22.97 Z" />
<path fill="#fefefd" opacity="1.00" d=" M 194.91 22.82 C 197.99 23.01 196.73 26.89 197.26 28.96 C 197.05 36.12 198.12 43.60 196.18 50.53 C 193.77 51.39 194.50 48.29 194.23 47.05 C 194.32 38.98 194.01 30.84 194.91 22.82 Z" />
<path fill="#fefefd" opacity="1.00" d=" M 186.32 27.92 C 186.53 28.05 186.94 28.30 187.15 28.42 C 186.79 34.69 187.21 41.03 186.05 47.23 C 184.40 41.78 184.31 36.12 184.22 30.49 C 184.70 32.13 185.10 33.78 185.56 35.43 C 185.77 32.92 185.97 30.41 186.32 27.92 Z" />
<path fill="#fefefd" opacity="1.00" d=" M 200.37 30.28 C 200.77 30.13 201.55 29.83 201.94 29.68 C 204.27 33.01 202.44 37.29 202.90 41.05 C 203.68 42.69 200.95 45.52 200.20 43.00 C 200.33 38.77 199.47 34.42 200.37 30.28 Z" />
<path fill="#fefefd" opacity="1.00" d=" M 174.29 31.05 L 175.05 30.16 C 178.04 30.36 176.91 33.95 177.16 35.95 C 176.79 38.39 178.21 42.52 175.03 43.45 C 172.69 40.07 173.90 34.97 174.29 31.05 Z" />
</g>
</svg>
