<?xml version="1.0" encoding="UTF-8" ?>
<!DOCTYPE svg PUBLIC "-//W3C//DTD SVG 1.1//EN" "http://www.w3.org/Graphics/SVG/1.1/DTD/svg11.dtd">
<svg width="354pt" height="90pt" viewBox="0 0 354 90" version="1.1" xmlns="http://www.w3.org/2000/svg">
<g id="#fdfefbff">
<path fill="#fdfefb" opacity="1.00" d=" M 159.23 0.00 L 161.98 0.00 C 164.79 1.15 167.13 3.73 167.08 6.91 C 167.48 17.14 167.25 27.39 167.32 37.63 C 162.82 37.65 158.31 37.70 153.81 37.60 C 155.10 35.55 156.47 33.53 157.95 31.60 C 157.80 28.66 156.75 25.90 156.13 23.05 C 155.33 19.28 157.18 15.59 156.80 11.81 C 156.14 8.66 154.55 5.82 153.50 2.80 C 155.32 1.70 157.19 0.65 159.23 0.00 M 159.87 6.89 C 158.60 7.99 159.97 9.40 160.38 10.55 C 161.63 10.11 163.86 10.04 163.59 8.14 C 163.93 6.26 160.81 5.16 159.87 6.89 Z" />
<path fill="#fdfefb" opacity="1.00" d=" M 0.00 2.86 C 6.63 3.61 13.29 2.66 19.93 3.17 C 26.52 3.21 33.11 2.99 39.70 3.22 C 39.68 6.92 39.68 10.62 39.67 14.33 C 35.32 14.32 30.97 14.33 26.63 14.33 C 26.63 25.83 26.65 37.34 26.64 48.84 C 22.31 49.74 17.87 49.85 13.46 49.95 C 13.28 45.99 13.74 42.03 13.51 38.07 C 13.05 30.15 14.15 22.23 13.40 14.32 C 8.93 14.33 4.47 14.32 0.00 14.31 L 0.00 2.86 Z" />
<path fill="#fdfefb" opacity="1.00" d=" M 179.37 3.25 C 183.70 2.73 188.08 2.81 192.41 3.30 C 192.37 11.87 192.38 20.45 192.40 29.03 C 192.77 33.37 190.84 37.86 187.57 40.70 C 185.01 42.06 182.13 42.61 179.39 43.49 C 179.37 30.08 179.40 16.66 179.37 3.25 Z" />
<path fill="#fdfefb" opacity="1.00" d=" M 311.13 3.25 C 318.73 2.42 326.36 3.29 333.98 3.09 C 338.94 3.16 344.27 4.59 347.65 8.45 C 350.88 11.82 351.44 16.68 351.89 21.11 C 347.50 21.86 342.77 22.54 339.18 25.41 C 338.54 21.81 338.93 16.74 334.95 14.94 C 331.48 13.81 327.74 14.51 324.16 14.33 C 324.15 19.18 324.15 24.03 324.16 28.88 C 319.89 30.73 315.64 32.65 311.18 33.99 C 311.10 23.74 311.17 13.50 311.13 3.25 Z" />
<path fill="#fdfefb" opacity="1.00" d=" M 47.00 3.11 C 51.41 3.31 55.82 3.13 60.22 2.84 C 60.33 13.28 60.24 23.73 60.28 34.17 C 65.38 34.18 70.48 34.15 75.59 34.16 C 75.63 23.82 75.57 13.48 75.61 3.14 C 80.03 3.23 84.46 3.34 88.87 2.87 C 88.79 13.81 89.06 24.77 88.75 35.70 C 87.28 39.89 84.57 43.47 82.21 47.19 C 80.54 49.51 79.07 52.11 76.63 53.73 C 76.47 50.92 76.51 48.11 76.52 45.30 C 71.03 45.32 65.55 45.31 60.07 45.32 C 60.03 46.85 59.99 48.38 59.97 49.92 C 57.97 50.35 55.99 50.85 54.03 51.41 C 51.80 50.68 49.56 49.97 47.32 49.26 C 46.80 33.88 47.16 18.50 47.00 3.11 Z" />
<path fill="#fdfefb" opacity="1.00" d=" M 100.69 2.87 C 106.45 2.82 112.20 3.58 117.95 2.94 C 124.75 2.95 132.80 2.95 137.72 8.46 C 142.31 14.27 141.61 22.05 141.61 28.99 C 141.87 33.45 140.57 37.78 139.12 41.94 C 136.44 41.31 133.78 40.62 131.09 40.03 C 127.99 41.12 124.97 42.42 121.91 43.61 C 118.52 44.47 114.89 43.82 111.51 44.85 C 108.03 45.99 104.45 46.82 100.83 47.41 C 100.50 32.57 100.78 17.72 100.69 2.87 M 114.24 14.33 C 114.27 15.84 114.32 17.34 114.38 18.84 C 111.65 20.11 109.36 22.08 107.35 24.29 C 112.92 31.76 125.87 32.30 131.10 24.21 C 129.03 22.08 127.95 19.47 127.12 16.69 C 124.11 12.76 118.45 14.82 114.24 14.33 M 114.26 31.67 C 114.29 33.68 114.29 35.69 114.29 37.70 C 118.05 37.48 122.13 38.41 125.62 36.60 C 128.06 35.23 128.26 32.29 128.40 29.81 C 124.18 32.45 119.02 32.73 114.26 31.67 Z" />
<path fill="#fdfefb" opacity="1.00" d=" M 221.58 3.23 C 226.02 3.14 230.46 2.79 234.91 2.89 C 234.99 9.58 234.92 16.28 234.95 22.98 C 234.86 24.45 235.16 26.05 234.44 27.41 C 232.07 32.42 229.66 37.43 227.61 42.58 C 226.65 42.50 225.69 42.42 224.74 42.36 C 220.63 46.38 214.33 43.00 209.36 45.03 C 209.10 44.45 208.59 43.30 208.33 42.73 C 206.96 46.58 207.26 51.40 204.23 54.43 C 202.63 48.59 201.74 42.59 200.41 36.69 C 199.65 39.17 198.94 41.67 198.17 44.16 C 194.93 44.04 191.64 43.79 188.44 44.51 C 189.41 45.58 190.64 46.28 192.07 46.52 C 192.73 53.55 192.22 60.62 192.39 67.67 C 199.57 67.65 206.76 67.67 213.94 67.67 C 213.92 71.52 213.91 75.37 213.94 79.22 C 202.43 79.23 190.89 78.84 179.39 79.44 C 179.45 68.35 179.25 57.25 179.48 46.17 C 182.11 44.53 185.84 44.82 188.87 43.81 C 189.35 43.06 189.83 42.32 190.32 41.58 C 192.47 42.20 194.71 42.28 196.94 42.26 C 198.00 38.55 198.86 34.77 200.37 31.20 C 201.14 31.99 201.63 32.92 201.86 33.99 C 202.92 38.81 203.62 43.71 204.79 48.51 C 205.99 45.03 206.54 41.37 207.98 37.98 C 208.94 39.37 209.78 40.83 210.47 42.37 C 214.03 42.00 217.59 42.33 221.15 42.42 C 221.88 41.07 221.51 39.45 221.63 37.98 C 221.56 26.40 221.66 14.81 221.58 3.23 Z" />
<path fill="#fdfefb" opacity="1.00" d=" M 265.15 3.21 C 276.89 3.05 288.61 2.85 300.35 3.24 C 300.34 6.94 300.35 10.63 300.34 14.33 C 293.05 14.30 285.75 14.34 278.45 14.31 C 278.42 16.31 278.36 18.32 278.20 20.32 C 279.29 25.08 277.50 29.96 278.10 34.82 C 284.14 34.81 290.17 34.80 296.21 34.83 C 296.19 36.21 296.17 37.59 296.15 38.97 C 290.95 36.93 286.12 40.18 281.10 41.13 C 277.33 40.75 273.51 40.17 269.77 41.17 C 269.27 40.41 268.77 39.66 268.28 38.90 C 267.50 38.92 265.96 38.95 265.18 38.96 C 265.15 27.04 265.17 15.12 265.15 3.21 Z" />
<path fill="#fdfefb" opacity="1.00" d=" M 119.38 19.71 C 121.00 20.27 123.38 20.86 123.47 22.98 C 124.35 26.08 120.88 28.81 118.02 27.65 C 115.77 26.97 115.30 24.41 114.94 22.41 C 116.24 23.51 117.63 23.79 119.12 23.24 C 119.18 22.36 119.31 20.59 119.38 19.71 Z" />
<path fill="#fdfefb" opacity="1.00" d=" M 246.01 19.51 C 247.11 20.30 247.65 21.46 247.65 22.79 C 248.86 32.61 250.50 42.37 251.96 52.15 C 253.19 47.14 253.81 41.96 255.38 37.03 C 257.67 37.40 257.37 40.56 258.35 42.18 C 261.55 42.17 264.76 42.16 267.96 42.22 C 267.84 42.67 267.62 43.56 267.50 44.01 C 264.05 43.96 260.60 44.52 257.15 44.18 C 256.88 43.59 256.34 42.39 256.08 41.79 C 254.67 47.72 253.86 53.79 251.98 59.59 C 251.02 57.88 250.54 55.98 250.28 54.05 C 248.93 45.27 247.70 36.46 246.33 27.68 C 244.75 35.13 243.97 42.77 241.92 50.12 C 241.09 48.24 240.40 46.29 239.74 44.34 C 238.26 44.34 236.78 44.35 235.30 44.36 L 235.04 42.48 C 236.88 42.48 238.73 42.47 240.58 42.46 C 240.79 42.85 241.22 43.63 241.44 44.02 C 242.87 35.83 244.34 27.65 246.01 19.51 Z" />
<path fill="#fdfefb" opacity="1.00" d=" M 342.16 24.69 C 345.11 24.02 348.02 23.17 350.94 22.34 C 350.52 27.95 351.64 33.83 349.37 39.16 C 348.05 42.78 344.91 45.23 341.75 47.18 C 342.05 47.78 342.66 48.97 342.96 49.56 C 338.24 47.12 333.20 45.36 328.14 43.80 C 324.26 43.08 320.04 43.36 316.54 41.26 C 314.25 39.86 311.69 39.08 309.19 38.20 C 313.82 36.02 318.63 34.22 323.46 32.52 C 323.51 34.24 323.51 35.96 323.57 37.68 C 327.22 37.44 331.28 38.56 334.64 36.72 C 337.62 35.03 337.45 31.22 337.57 28.26 C 339.26 27.28 340.92 26.22 342.16 24.69 Z" />
<path fill="#fdfefb" opacity="1.00" d=" M 229.00 44.94 C 230.65 41.09 232.12 37.17 233.88 33.37 C 233.97 37.19 233.75 41.05 234.82 44.76 C 235.08 52.39 234.83 60.03 234.95 67.66 C 242.04 67.66 249.12 67.66 256.21 67.66 C 256.21 71.58 256.21 75.49 256.21 79.40 C 244.69 78.75 233.14 79.37 221.61 79.40 C 221.64 70.92 221.59 62.44 221.61 53.96 C 221.76 49.79 223.99 44.52 229.00 44.94 Z" />
<path fill="#fdfefb" opacity="1.00" d=" M 280.01 43.34 C 285.30 41.86 290.47 38.08 296.19 40.31 C 296.17 42.29 296.18 44.28 296.18 46.26 C 289.95 46.25 283.72 46.26 277.49 46.28 C 277.48 53.42 277.49 60.56 277.49 67.70 C 285.19 67.66 292.89 67.64 300.59 67.71 C 300.64 71.53 300.60 75.35 300.61 79.17 C 288.47 79.29 276.34 79.26 264.19 79.36 C 264.25 71.18 264.07 63.00 264.26 54.82 C 267.86 52.48 267.30 47.72 268.06 44.04 C 272.02 43.49 276.01 43.13 280.01 43.34 Z" />
<path fill="#fdfefb" opacity="1.00" d=" M 152.71 40.23 C 157.68 40.24 162.65 40.27 167.62 40.28 C 167.61 48.20 167.71 56.12 167.58 64.04 C 167.23 72.70 166.51 81.34 166.28 90.00 L 165.97 90.00 C 161.61 86.51 158.12 81.94 156.15 76.71 C 151.51 65.11 152.93 52.41 152.71 40.23 M 154.30 42.22 C 154.09 55.82 153.97 70.57 161.70 82.40 C 157.22 69.42 156.82 55.64 156.87 42.06 C 156.22 42.10 154.94 42.18 154.30 42.22 Z" />
<path fill="#fdfefb" opacity="1.00" d=" M 120.04 47.15 C 123.75 46.03 127.15 44.03 130.93 43.10 C 132.95 43.11 134.93 43.61 136.86 44.17 C 135.76 45.21 134.64 46.23 133.50 47.22 C 137.02 57.93 140.62 68.63 144.68 79.15 C 140.00 79.16 135.33 79.11 130.66 79.19 C 127.44 69.15 123.98 59.19 120.75 49.15 C 118.51 49.14 116.27 49.15 114.04 49.18 C 113.91 59.19 114.01 69.20 113.98 79.20 C 109.56 79.11 105.13 79.08 100.72 79.32 C 100.69 70.23 100.72 61.13 100.71 52.04 C 104.65 49.79 110.00 50.62 113.25 47.27 C 115.51 47.22 117.78 47.37 120.04 47.15 Z" />
<path fill="#fdfefb" opacity="1.00" d=" M 309.60 42.44 C 313.73 43.43 317.96 44.85 322.23 43.76 C 329.31 45.77 336.55 47.69 343.24 50.69 C 347.68 59.84 349.95 69.88 353.95 79.24 C 349.26 79.17 344.58 79.12 339.89 79.15 C 336.69 69.09 332.99 59.20 329.79 49.14 C 327.60 49.14 325.42 49.15 323.24 49.18 C 323.10 59.25 323.23 69.33 323.17 79.40 C 318.73 79.46 314.31 79.03 309.88 79.13 C 309.71 66.90 310.23 54.65 309.60 42.44 Z" />
<path fill="#fdfefb" opacity="1.00" d=" M 78.62 56.89 C 82.29 52.51 85.71 47.92 89.46 43.60 C 89.74 55.47 88.53 67.35 89.21 79.20 C 84.67 79.12 80.13 79.09 75.60 79.24 C 76.21 71.22 74.11 62.76 77.29 55.13 C 77.62 55.57 78.29 56.45 78.62 56.89 Z" />
<path fill="#fdfefb" opacity="1.00" d=" M 13.00 53.08 C 16.70 53.08 20.41 52.95 24.10 52.62 C 24.13 60.19 24.08 67.77 24.13 75.34 C 19.79 80.06 15.25 84.59 11.17 89.54 C 11.07 79.35 11.16 69.17 11.11 58.99 C 10.84 56.80 12.28 55.02 13.00 53.08 Z" />
<path fill="#fdfefb" opacity="1.00" d=" M 49.61 56.99 C 48.88 55.43 49.26 54.29 50.77 53.59 C 50.62 54.50 50.34 56.32 50.19 57.23 C 53.01 54.18 57.30 54.31 60.94 53.04 C 59.98 61.71 60.36 70.45 60.29 79.15 C 55.85 79.19 51.41 78.99 46.99 79.38 C 47.01 73.03 46.94 66.68 47.04 60.33 C 47.79 59.67 49.29 58.37 50.04 57.72 C 49.20 57.37 48.36 57.01 47.53 56.63 L 49.61 56.99 Z" />
</g>
</svg>
