<?xml version="1.0" encoding="UTF-8" ?>
<!DOCTYPE svg PUBLIC "-//W3C//DTD SVG 1.1//EN" "http://www.w3.org/Graphics/SVG/1.1/DTD/svg11.dtd">
<svg width="151pt" height="111pt" viewBox="0 0 151 111" version="1.1" xmlns="http://www.w3.org/2000/svg">
<g id="#fefefeff">
<path fill="#fefefe" opacity="1.00" d=" M 67.56 0.00 L 70.32 0.00 C 72.79 1.93 70.84 4.43 68.57 5.21 C 61.93 14.38 55.55 23.73 48.95 32.92 C 54.96 33.79 61.15 34.16 66.85 36.36 C 72.81 39.00 73.04 48.35 67.78 51.83 C 65.78 53.26 63.19 53.13 60.88 52.72 C 56.02 51.92 51.14 51.26 46.23 50.86 C 46.19 67.90 46.30 84.95 46.18 101.99 C 46.40 107.58 40.97 111.40 35.72 111.00 L 35.26 111.00 C 30.30 110.97 25.44 107.20 25.56 101.98 C 25.43 84.94 25.57 67.89 25.51 50.85 C 19.97 51.24 14.50 52.24 9.00 52.93 C 4.38 53.59 0.26 49.40 0.14 44.91 C -0.37 40.52 2.69 36.14 7.08 35.35 C 17.93 33.04 29.09 32.12 40.18 32.42 C 36.26 26.91 32.40 21.35 28.43 15.88 C 27.46 15.36 26.51 14.79 25.60 14.18 C 24.52 12.15 26.85 9.67 28.91 10.99 C 29.95 12.94 30.63 15.10 32.12 16.77 C 36.37 21.85 40.54 26.99 44.69 32.15 C 51.88 22.59 59.44 13.31 66.80 3.88 C 67.02 2.58 67.28 1.29 67.56 0.00 Z" />
<path fill="#fefefe" opacity="1.00" d=" M 80.16 38.23 C 83.12 33.96 89.29 32.77 93.83 35.10 C 97.00 36.62 99.07 39.72 100.12 42.99 C 104.94 57.38 109.93 71.70 114.92 86.03 C 120.22 71.47 124.90 56.70 129.87 42.03 C 131.21 37.92 134.72 34.51 139.11 33.98 C 144.48 32.97 149.97 36.76 151.00 42.11 L 151.00 45.39 C 144.38 64.50 136.16 83.02 128.72 101.82 C 126.89 107.46 121.24 110.90 115.47 111.00 L 114.21 111.00 C 108.77 110.89 103.51 107.80 101.48 102.64 C 93.89 84.93 86.80 67.00 79.57 49.14 C 77.99 45.69 77.83 41.39 80.16 38.23 Z" />
</g>
</svg>
