<?xml version="1.0" encoding="UTF-8" ?>
<!DOCTYPE svg PUBLIC "-//W3C//DTD SVG 1.1//EN" "http://www.w3.org/Graphics/SVG/1.1/DTD/svg11.dtd">
<svg width="374pt" height="107pt" viewBox="0 0 374 107" version="1.1" xmlns="http://www.w3.org/2000/svg">
<g id="#fefefdff">
<path fill="#fefefd" opacity="1.00" d=" M 147.50 0.00 L 162.10 0.00 C 162.96 0.13 164.69 0.40 165.55 0.53 C 165.57 0.80 165.61 1.35 165.63 1.62 C 167.56 1.24 169.53 1.35 171.49 1.43 L 171.01 2.53 C 173.16 2.03 175.06 3.03 176.92 3.93 C 178.64 5.32 180.12 6.98 181.25 8.88 C 180.91 9.41 180.23 10.47 179.89 11.00 L 182.09 10.20 C 181.33 12.20 180.54 14.19 179.75 16.17 C 179.02 15.38 178.29 14.59 177.57 13.80 C 178.09 13.56 179.12 13.07 179.64 12.83 C 179.28 11.12 178.88 9.41 178.45 7.72 C 170.56 1.14 159.61 1.44 149.93 1.85 C 148.10 2.51 146.16 2.67 144.24 2.77 C 143.10 3.18 141.95 3.58 140.79 3.98 C 139.88 4.27 138.97 4.55 138.05 4.81 C 135.83 6.34 133.34 7.67 131.76 9.91 C 131.00 11.62 131.33 13.50 131.34 15.30 C 133.10 16.45 134.85 17.63 136.68 18.70 L 136.01 19.78 C 136.86 19.66 138.55 19.43 139.40 19.31 L 139.15 20.31 C 140.19 20.41 142.28 20.60 143.32 20.70 C 140.88 22.21 136.93 22.33 135.42 19.49 C 130.76 19.64 127.41 13.30 130.08 9.25 C 134.85 2.70 143.83 1.03 151.43 0.96 L 147.50 0.00 Z" />
<path fill="#fefefd" opacity="1.00" d=" M 263.95 5.38 C 265.11 4.08 266.19 2.65 267.80 1.84 C 266.54 3.78 265.47 5.86 265.64 8.26 C 268.18 8.64 271.14 6.53 273.02 9.10 C 271.76 10.03 270.41 10.85 269.29 11.95 C 269.03 13.42 269.49 14.88 269.78 16.30 C 269.27 18.09 268.80 19.89 268.38 21.71 C 266.28 22.94 263.85 22.81 261.52 22.61 C 260.10 20.24 257.84 18.78 255.11 20.31 C 254.08 19.59 253.13 18.70 251.94 18.26 C 247.57 18.62 244.43 23.56 239.80 22.53 C 242.44 18.80 248.01 18.45 251.06 14.98 C 245.30 17.42 240.25 21.26 234.41 23.52 L 233.73 24.00 L 232.92 24.54 C 233.49 25.00 234.08 25.45 234.67 25.90 C 233.42 26.43 230.92 27.48 229.67 28.01 L 230.84 26.21 L 232.63 25.57 L 232.66 24.46 C 231.48 25.21 230.30 25.95 229.12 26.70 C 227.38 24.65 228.89 22.53 229.89 20.62 C 230.39 20.93 231.39 21.54 231.90 21.85 C 238.58 17.90 246.21 15.25 251.74 9.62 C 252.53 10.06 253.31 10.51 254.10 10.98 L 252.01 11.86 C 253.05 13.51 254.04 15.18 255.01 16.88 C 255.45 17.63 256.10 19.19 257.20 18.22 C 259.45 17.17 261.57 15.86 263.68 14.54 C 263.61 12.96 264.09 11.20 263.20 9.77 C 262.12 7.82 259.86 7.20 258.05 6.15 C 259.98 5.41 261.92 4.23 263.95 5.38 M 265.53 16.76 C 265.62 18.62 265.69 20.49 265.83 22.34 C 269.08 21.81 269.54 16.22 265.53 16.76 M 260.43 21.14 C 262.01 21.99 263.72 22.46 265.54 22.16 C 265.28 20.66 265.01 19.18 264.72 17.69 C 262.72 18.04 261.04 19.11 260.43 21.14 Z" />
<path fill="#fefefd" opacity="1.00" d=" M 253.09 9.19 C 254.68 8.66 256.01 7.03 257.82 7.17 C 257.42 8.79 255.59 9.67 254.78 11.06 C 256.70 9.93 258.52 8.59 260.50 7.55 C 262.55 9.18 263.40 11.54 263.23 14.12 C 261.36 14.58 259.54 17.03 257.68 16.21 L 256.96 15.82 C 258.50 15.28 259.60 14.30 260.26 12.88 C 258.47 13.48 256.96 15.43 254.92 14.88 C 254.64 12.54 258.02 12.48 259.31 11.06 C 257.43 11.06 255.76 11.68 254.29 12.94 C 254.25 12.00 254.40 11.09 254.73 10.21 C 254.18 9.87 253.63 9.52 253.09 9.19 Z" />
<path fill="#fefefd" opacity="1.00" d=" M 269.70 11.92 C 271.63 10.75 273.61 8.73 276.03 9.99 C 280.99 11.66 286.68 15.18 287.65 20.68 C 287.02 20.55 285.75 20.28 285.12 20.15 L 285.82 21.98 C 285.18 21.73 283.90 21.22 283.26 20.97 L 283.78 22.90 C 283.15 22.69 281.91 22.27 281.28 22.06 L 281.83 23.79 C 281.04 23.71 279.47 23.54 278.68 23.46 C 277.76 19.31 274.84 15.19 270.06 15.75 C 269.94 14.47 269.82 13.20 269.70 11.92 M 278.98 16.00 C 278.54 17.39 279.02 17.85 280.41 17.36 C 280.81 15.94 280.34 15.48 278.98 16.00 Z" />
<path fill="#fefefd" opacity="1.00" d=" M 174.42 15.47 C 175.49 15.35 176.56 15.23 177.64 15.11 C 177.64 16.34 177.65 17.56 177.66 18.78 C 177.19 17.97 176.25 16.36 175.78 15.55 C 176.40 18.30 173.62 18.62 171.81 19.51 C 170.42 19.95 169.05 20.97 167.52 20.61 C 166.85 21.07 166.18 21.53 165.51 22.00 C 165.00 21.74 163.97 21.22 163.45 20.96 L 163.67 22.60 C 161.86 22.60 159.99 22.98 158.27 22.24 C 158.33 22.56 158.44 23.19 158.50 23.51 C 153.85 23.52 149.19 23.91 144.56 23.32 L 144.81 22.50 C 143.77 22.47 141.68 22.41 140.64 22.38 C 143.53 20.38 146.93 21.55 150.11 21.74 C 154.12 22.05 158.12 21.45 162.13 21.30 C 163.19 20.57 164.38 20.24 165.70 20.32 L 165.60 19.56 C 166.94 19.49 168.29 19.44 169.64 19.39 L 169.46 18.12 C 169.97 18.26 170.98 18.55 171.48 18.69 C 171.59 18.25 171.80 17.36 171.91 16.91 L 173.69 17.97 L 173.37 16.42 L 174.53 16.50 L 174.42 15.47 Z" />
<path fill="#fefefd" opacity="1.00" d=" M 257.68 16.21 C 258.33 18.64 254.35 16.74 256.92 15.88 L 257.68 16.21 Z" />
<path fill="#fefefd" opacity="1.00" d=" M 179.01 17.61 C 180.25 18.15 180.44 19.43 180.80 20.55 L 179.38 20.19 C 179.68 23.74 175.98 26.15 174.19 28.91 C 175.09 26.16 176.63 23.71 178.27 21.35 C 178.41 20.08 178.66 18.83 179.01 17.61 Z" />
<path fill="#fefefd" opacity="1.00" d=" M 170.25 23.22 C 172.31 22.11 175.02 21.65 175.98 19.24 L 177.21 20.07 C 172.60 24.99 165.30 25.37 159.75 28.76 C 158.04 29.80 156.92 32.37 154.56 31.51 C 154.89 32.57 155.23 33.62 155.59 34.68 C 156.63 33.21 157.67 31.74 158.75 30.29 C 161.42 29.97 163.97 30.88 166.49 31.64 C 169.50 29.86 173.06 30.60 176.38 30.59 C 176.49 37.75 177.29 44.89 177.31 52.05 C 173.29 52.09 169.27 52.13 165.26 51.86 C 165.39 47.63 163.64 42.99 165.23 39.01 L 163.25 38.34 C 163.80 38.13 164.88 37.72 165.43 37.52 C 165.58 36.87 165.88 35.59 166.03 34.94 C 163.14 37.47 158.15 37.64 156.82 41.72 C 154.99 46.67 155.15 52.88 158.81 56.99 C 164.69 64.14 173.38 69.23 176.73 78.24 C 178.64 84.12 178.97 90.85 176.36 96.58 C 173.67 101.87 168.85 106.64 162.61 107.00 L 159.57 107.00 C 156.90 106.17 154.59 104.55 152.29 103.04 L 153.96 105.82 C 151.05 105.87 148.15 105.92 145.24 105.96 C 143.76 98.15 142.42 90.25 142.15 82.29 C 146.66 82.12 151.17 82.35 155.67 82.68 C 156.19 87.81 154.06 94.55 158.65 98.29 C 158.46 99.89 158.32 101.49 158.14 103.10 C 158.81 102.85 160.14 102.36 160.80 102.11 C 160.63 102.83 160.28 104.27 160.10 104.99 C 160.69 103.49 161.38 102.01 162.78 101.09 C 161.94 101.35 160.27 101.88 159.43 102.14 C 159.40 100.85 159.34 99.56 159.27 98.27 C 164.96 96.01 164.71 88.97 163.88 83.95 C 160.59 74.48 150.42 69.97 145.75 61.38 C 142.18 55.44 141.93 47.98 143.74 41.42 C 145.58 35.33 150.81 30.67 156.98 29.26 C 160.20 25.40 165.76 24.85 170.25 23.22 M 163.26 67.25 C 163.84 67.86 163.84 67.86 163.26 67.25 M 158.19 68.21 C 156.41 70.95 161.54 68.58 158.19 68.21 Z" />
<path fill="#fefefd" opacity="1.00" d=" M 238.74 22.31 L 239.40 22.23 L 239.48 22.88 L 238.82 22.97 L 238.74 22.31 Z" />
<path fill="#fefefd" opacity="1.00" d=" M 236.74 23.38 L 237.39 23.30 L 237.47 23.95 L 236.82 24.03 L 236.74 23.38 Z" />
<path fill="#fefefd" opacity="1.00" d=" M 235.35 24.37 C 235.65 24.68 235.65 24.68 235.35 24.37 Z" />
<path fill="#fefefd" opacity="1.00" d=" M 21.97 30.22 C 28.86 30.22 35.75 30.11 42.64 30.24 C 42.71 32.92 42.71 35.61 42.62 38.29 C 41.85 38.39 40.30 38.57 39.53 38.67 C 40.76 48.00 42.29 57.28 43.46 66.62 C 41.88 67.08 40.27 67.43 38.65 67.73 C 37.59 66.15 38.19 64.44 39.53 63.33 C 38.82 62.74 38.70 60.69 37.51 61.22 C 37.86 62.16 37.93 63.10 37.72 64.03 C 36.48 65.08 35.77 63.19 35.27 62.38 C 35.37 63.37 35.49 64.35 35.64 65.33 C 36.36 65.91 37.02 66.56 37.60 67.27 C 35.37 67.78 33.11 68.18 30.86 68.60 C 28.96 58.74 27.82 48.75 25.99 38.88 C 24.58 38.68 23.18 38.47 21.78 38.25 C 21.73 35.57 21.89 32.90 21.97 30.22 Z" />
<path fill="#fefefd" opacity="1.00" d=" M 47.84 30.19 C 54.86 30.31 61.88 30.09 68.88 30.27 C 70.63 30.37 69.77 32.92 70.04 34.05 C 70.03 35.51 69.90 36.97 69.74 38.43 C 69.00 38.53 67.51 38.74 66.76 38.85 C 68.41 55.01 71.01 71.06 72.54 87.24 C 73.65 78.88 73.60 70.39 75.00 62.06 C 76.37 54.32 77.23 46.51 78.35 38.73 C 77.10 38.59 75.85 38.45 74.61 38.31 C 74.29 35.64 74.32 32.94 74.41 30.26 C 81.29 30.08 88.18 30.20 95.07 30.17 C 95.09 32.79 95.07 35.42 94.93 38.05 C 93.55 38.25 92.16 38.46 90.78 38.67 C 88.22 50.97 86.89 63.46 85.26 75.89 C 83.93 82.98 83.30 90.17 82.56 97.34 C 83.43 97.34 85.17 97.34 86.04 97.35 C 86.24 100.27 86.22 103.21 86.11 106.14 C 77.53 106.10 68.95 106.23 60.37 106.07 C 60.42 103.22 60.07 100.37 60.21 97.53 C 60.75 97.42 61.82 97.20 62.36 97.09 C 60.55 87.35 60.00 77.42 58.29 67.67 C 57.52 69.29 57.75 71.13 57.58 72.86 C 56.96 81.02 55.54 89.10 55.06 97.27 L 56.63 97.38 C 56.64 100.25 56.63 103.13 56.65 106.00 C 48.43 106.22 40.18 106.21 31.96 106.03 C 30.52 103.69 31.69 100.21 31.37 97.46 C 32.24 97.40 33.96 97.29 34.82 97.24 C 33.96 92.10 33.28 86.93 32.48 81.79 C 37.23 82.60 41.70 84.48 45.65 87.18 C 45.99 82.83 46.34 78.49 46.47 74.13 C 44.74 74.76 42.97 75.07 41.14 75.04 C 41.90 73.59 42.91 72.31 44.00 71.09 C 42.42 72.76 39.53 73.56 38.99 75.97 C 40.66 76.52 42.38 76.84 44.10 77.19 C 44.12 79.39 44.11 81.60 44.07 83.80 C 39.04 81.34 33.04 77.91 27.43 80.60 C 21.12 83.28 16.65 89.26 14.87 95.77 C 14.20 94.83 13.53 93.89 12.89 92.93 C 11.08 92.99 10.43 93.98 10.94 95.91 L 12.68 94.60 C 12.76 95.54 12.85 96.49 12.95 97.43 C 12.17 97.07 10.63 96.34 9.86 95.97 C 9.84 95.47 9.81 94.47 9.80 93.97 C 12.08 88.58 14.73 83.17 18.88 78.94 C 21.06 76.98 23.66 75.57 26.12 74.00 C 23.73 72.15 20.23 69.41 21.55 65.98 C 23.56 67.68 25.42 69.85 28.08 70.52 C 33.59 71.16 38.76 68.63 44.16 67.99 C 44.27 68.56 44.49 69.72 44.60 70.30 C 45.05 70.31 45.95 70.33 46.40 70.34 C 47.55 65.25 47.84 60.01 48.79 54.88 C 49.74 49.55 49.46 44.02 51.13 38.83 C 49.94 38.68 48.75 38.51 47.56 38.34 C 47.52 35.62 47.48 32.89 47.84 30.19 M 54.22 46.28 C 54.92 46.81 54.92 46.81 54.22 46.28 M 45.24 102.24 C 45.87 102.80 45.87 102.80 45.24 102.24 Z" />
<path fill="#fefefd" opacity="1.00" d=" M 182.53 30.23 C 197.06 30.25 211.58 29.97 226.11 29.89 C 226.28 36.99 226.17 44.08 226.18 51.18 C 223.27 51.19 220.37 51.19 217.47 51.20 C 217.46 47.87 217.45 44.54 217.47 41.21 C 215.44 41.18 213.41 41.17 211.37 41.16 C 211.38 49.93 211.58 58.70 211.75 67.47 C 213.20 67.39 214.66 67.31 216.11 67.22 C 217.02 66.84 217.93 66.47 218.85 66.11 C 219.55 65.31 220.38 64.70 221.35 64.28 C 223.40 61.68 223.48 58.46 223.39 55.30 C 225.25 55.26 224.51 57.94 224.75 59.12 C 224.97 65.51 217.89 69.67 212.07 68.61 C 211.57 78.18 212.15 87.78 212.05 97.37 C 213.53 97.39 215.02 97.42 216.52 97.47 C 216.58 100.23 216.63 103.01 216.82 105.77 C 208.63 106.57 200.40 105.56 192.18 105.81 C 192.12 103.02 192.10 100.23 192.29 97.45 C 193.76 97.44 195.23 97.45 196.70 97.47 C 196.84 78.66 197.19 59.85 196.67 41.05 C 194.86 40.98 193.05 40.94 191.25 40.93 C 191.28 44.34 191.28 47.75 191.25 51.16 C 188.33 51.00 185.40 50.92 182.47 50.89 C 182.51 44.00 182.52 37.12 182.53 30.23 Z" />
<path fill="#fefefd" opacity="1.00" d=" M 274.83 30.20 C 281.88 30.27 288.94 30.04 295.98 30.44 C 301.07 30.28 306.75 30.63 310.69 34.28 C 316.32 39.07 316.33 47.23 316.13 54.01 C 315.24 57.20 314.37 60.48 312.85 63.44 C 311.35 64.45 310.14 65.80 308.85 67.05 C 311.73 77.16 314.24 87.41 317.81 97.31 C 319.13 97.47 320.50 97.53 321.81 97.87 C 321.97 100.49 321.91 103.13 321.88 105.75 C 315.02 105.83 308.15 105.89 301.28 105.80 C 301.17 102.99 301.04 100.17 301.21 97.37 C 301.80 97.28 302.97 97.11 303.56 97.02 C 300.74 88.49 298.57 79.76 296.26 71.08 C 296.26 69.89 295.39 69.10 294.76 68.23 C 294.24 77.99 294.25 87.77 293.98 97.54 C 295.21 97.57 296.45 97.60 297.68 97.63 C 297.71 100.35 297.79 103.07 297.80 105.80 C 290.21 105.90 282.61 105.74 275.02 105.85 C 275.21 103.06 275.28 100.27 275.35 97.48 C 276.65 97.43 277.95 97.38 279.25 97.33 C 279.61 77.70 279.74 58.06 280.13 38.43 C 278.31 38.42 276.50 38.43 274.68 38.41 C 274.66 35.67 274.67 32.93 274.83 30.20 M 295.32 42.06 C 295.18 47.98 294.46 53.88 294.61 59.80 C 297.05 59.77 300.21 60.21 301.63 57.68 C 302.79 53.25 302.24 48.60 302.27 44.07 C 302.28 42.30 301.31 39.81 299.13 40.08 C 297.69 40.01 295.15 39.99 295.32 42.06 M 291.26 56.01 C 291.77 56.77 291.77 56.77 291.26 56.01 Z" />
<path fill="#fefefd" opacity="1.00" d=" M 326.79 30.26 C 333.38 30.13 339.97 30.18 346.56 30.18 C 350.49 43.12 352.42 56.75 358.19 69.08 C 358.08 67.67 357.74 66.28 357.29 64.94 C 357.59 64.65 358.19 64.08 358.49 63.80 C 358.10 63.02 357.73 62.23 357.38 61.44 C 357.58 54.92 357.47 48.39 357.77 41.87 C 358.36 39.35 355.31 38.78 354.46 36.90 C 354.26 34.68 354.36 32.44 354.36 30.21 C 360.91 30.22 367.46 29.66 374.00 30.30 L 374.00 37.34 C 372.68 37.87 371.36 38.37 370.04 38.88 C 370.24 58.33 369.45 77.76 369.97 97.20 C 370.65 97.27 372.00 97.42 372.68 97.49 C 372.80 100.27 372.81 103.05 372.77 105.83 C 367.13 105.89 361.50 105.81 355.87 105.85 C 353.63 93.66 349.97 81.81 346.46 69.95 L 348.07 69.61 C 347.63 69.61 346.76 69.63 346.32 69.63 C 346.00 68.53 345.37 66.32 345.05 65.21 C 345.82 65.47 347.35 66.00 348.12 66.26 C 346.77 65.24 345.45 64.18 344.21 63.03 C 343.90 64.29 343.58 65.55 343.23 66.80 C 344.82 70.79 343.86 75.18 343.92 79.35 C 343.37 79.35 342.27 79.34 341.72 79.34 C 342.32 79.41 343.51 79.55 344.11 79.62 C 344.13 85.53 343.92 91.45 344.35 97.35 C 345.21 97.37 346.93 97.41 347.79 97.43 C 347.80 100.25 347.78 103.07 347.67 105.88 C 340.80 105.84 333.93 105.87 327.07 105.86 C 327.08 103.00 327.10 100.15 327.16 97.29 C 328.41 97.13 329.66 96.97 330.91 96.80 C 330.79 77.64 331.62 58.49 331.49 39.33 C 329.94 39.20 328.40 39.07 326.86 38.94 C 326.74 36.04 326.76 33.15 326.79 30.26 M 365.23 48.22 C 365.82 48.84 365.82 48.84 365.23 48.22 M 343.22 53.26 C 343.86 53.84 343.86 53.84 343.22 53.26 M 350.30 60.17 C 350.80 60.86 350.80 60.86 350.30 60.17 M 360.20 92.23 C 360.80 92.84 360.80 92.84 360.20 92.23 Z" />
<path fill="#fefefd" opacity="1.00" d=" M 98.74 30.46 C 111.18 30.95 123.63 30.75 136.07 30.66 C 136.00 37.50 136.15 44.34 135.97 51.17 C 133.39 51.19 130.82 51.19 128.25 51.11 C 127.97 48.00 127.87 44.87 127.29 41.80 C 124.05 41.81 120.81 41.83 117.57 41.85 C 117.45 47.82 117.57 53.79 117.92 59.75 C 120.21 59.78 122.52 59.96 124.80 59.67 C 126.01 58.63 125.31 56.71 125.66 55.29 C 127.40 55.25 129.15 55.22 130.90 55.20 C 130.91 61.35 130.97 67.50 130.87 73.65 C 128.97 73.66 127.07 73.66 125.17 73.66 C 124.96 72.31 124.76 70.97 124.57 69.62 C 122.35 69.62 120.12 69.64 117.90 69.76 C 117.75 77.81 117.78 85.86 117.86 93.91 C 120.82 94.04 124.03 94.79 126.85 93.68 C 127.99 91.04 127.83 88.06 128.12 85.25 C 130.84 85.07 133.56 85.09 136.28 85.16 C 136.36 91.77 136.39 98.38 136.26 105.00 C 133.87 105.47 131.46 105.90 129.02 105.84 C 118.94 105.85 108.86 105.88 98.78 105.85 C 98.77 103.02 98.77 100.18 98.84 97.35 C 100.43 97.34 102.04 97.34 103.64 97.34 C 103.27 77.98 103.66 58.63 103.63 39.27 C 102.01 39.24 100.40 39.21 98.78 39.18 C 98.76 36.27 98.77 33.37 98.74 30.46 Z" />
<path fill="#fefefd" opacity="1.00" d=" M 231.16 30.70 C 243.75 30.73 256.35 30.90 268.95 30.60 C 268.99 37.48 268.71 44.35 268.65 51.22 C 266.00 51.21 263.36 51.21 260.72 51.20 C 260.02 48.17 261.28 44.29 259.11 41.86 C 256.13 41.70 253.15 41.86 250.18 41.83 C 250.13 47.78 250.17 53.74 250.62 59.68 C 252.93 59.75 255.27 60.02 257.57 59.62 C 258.62 58.51 258.01 56.70 258.32 55.30 C 260.06 55.28 261.81 55.26 263.56 55.25 C 263.55 61.37 263.59 67.50 263.52 73.62 C 261.59 73.64 259.67 73.64 257.74 73.62 C 257.60 72.29 257.45 70.96 257.31 69.64 C 255.13 69.64 252.95 69.65 250.78 69.70 C 250.19 77.82 250.66 85.95 250.72 94.07 C 253.69 94.26 256.69 94.32 259.66 93.96 C 260.41 91.08 260.69 88.11 261.03 85.16 C 263.71 85.11 266.38 85.11 269.06 85.15 C 269.29 91.75 269.26 98.37 269.04 104.97 C 266.70 105.38 264.36 105.87 261.97 105.83 C 251.72 105.89 241.48 105.86 231.23 105.83 C 231.19 103.02 231.19 100.20 231.26 97.40 C 232.91 97.35 234.57 97.31 236.22 97.28 C 235.90 77.96 236.01 58.63 236.06 39.31 C 234.43 39.25 232.79 39.21 231.16 39.14 C 231.16 36.33 231.17 33.51 231.16 30.70 M 246.18 61.19 C 246.78 61.85 246.78 61.85 246.18 61.19 M 244.18 62.22 C 244.88 62.74 244.88 62.74 244.18 62.22 M 244.29 101.20 C 244.80 101.88 244.80 101.88 244.29 101.20 Z" />
<path fill="#fefefd" opacity="1.00" d=" M 8.53 82.32 C 10.78 82.29 10.86 85.60 12.08 87.01 C 10.84 89.37 9.22 91.60 8.52 94.20 C 8.21 97.28 12.19 99.27 14.49 97.26 C 15.86 95.76 16.55 93.79 17.52 92.04 C 19.85 92.38 22.18 92.69 24.47 93.22 C 22.54 95.14 19.65 95.31 17.36 96.63 C 18.82 98.64 21.52 100.23 21.27 103.04 C 19.12 102.05 17.00 100.99 14.83 100.06 C 14.50 102.40 14.51 104.85 13.35 106.99 L 13.91 107.00 L 12.91 107.00 C 12.08 104.93 11.38 102.81 10.63 100.72 C 8.72 101.98 6.96 103.44 5.17 104.86 C 4.17 102.31 6.23 100.06 6.91 97.71 C 4.62 97.45 2.31 97.31 0.00 97.21 L 0.00 95.73 C 2.02 94.84 4.08 94.03 6.11 93.15 C 4.90 91.24 0.16 89.59 1.97 87.03 C 4.09 87.48 6.11 88.31 8.17 89.00 C 8.29 86.77 8.26 84.53 8.53 82.32 Z" />
</g>
</svg>
