<?xml version="1.0" encoding="UTF-8" standalone="no"?>
<svg
   width="1690pt"
   height="232pt"
   viewBox="0 0 1690 232"
   version="1.1"
   id="svg12"
   sodipodi:docname="recommended.svg"
   inkscape:version="1.4.2 (f4327f4, 2025-05-13)"
   inkscape:export-filename="recommended.png"
   inkscape:export-xdpi="72"
   inkscape:export-ydpi="72"
   xmlns:inkscape="http://www.inkscape.org/namespaces/inkscape"
   xmlns:sodipodi="http://sodipodi.sourceforge.net/DTD/sodipodi-0.dtd"
   xmlns="http://www.w3.org/2000/svg"
   xmlns:svg="http://www.w3.org/2000/svg">
  <defs
     id="defs12" />
  <sodipodi:namedview
     id="namedview12"
     pagecolor="#ffffff"
     bordercolor="#000000"
     borderopacity="0.25"
     inkscape:showpageshadow="2"
     inkscape:pageopacity="0.0"
     inkscape:pagecheckerboard="true"
     inkscape:deskcolor="#d1d1d1"
     inkscape:document-units="pt"
     inkscape:zoom="0.28587616"
     inkscape:cx="1222.5574"
     inkscape:cy="748.57589"
     inkscape:window-width="1920"
     inkscape:window-height="1130"
     inkscape:window-x="-6"
     inkscape:window-y="-6"
     inkscape:window-maximized="1"
     inkscape:current-layer="svg12" />
  <g
     id="#fefefeff">
    <path
       fill="#fefefe"
       opacity="1.00"
       d=" M 1640.32 0.00 L 1640.80 0.00 C 1642.59 11.16 1643.18 22.99 1649.09 32.95 C 1656.05 48.71 1675.57 48.91 1690.00 52.28 L 1690.00 52.78 C 1678.00 54.75 1665.01 56.24 1655.42 64.43 C 1644.25 75.33 1642.78 91.67 1640.37 106.21 C 1636.60 90.29 1636.13 70.00 1620.64 60.38 C 1610.86 55.08 1599.67 53.61 1588.87 51.76 C 1604.08 50.07 1622.64 47.68 1631.01 32.99 C 1636.64 22.91 1638.64 11.30 1640.32 0.00 Z"
       id="path1" />
    <path
       fill="#fefefe"
       opacity="1.00"
       d=" M 48.66 28.27 C 77.77 27.68 106.89 28.17 136.00 27.91 C 152.01 27.95 168.40 27.36 183.89 32.14 C 193.03 35.34 201.23 41.84 205.27 50.80 C 208.17 57.64 206.82 65.35 206.41 72.52 C 204.37 89.24 194.03 103.85 180.84 113.85 C 167.74 123.86 151.51 128.09 136.00 132.84 C 155.66 156.48 176.25 179.33 196.60 202.38 C 202.45 209.26 209.29 215.18 216.15 221.03 C 198.52 220.46 180.89 220.00 163.25 220.66 C 159.77 220.91 156.53 219.33 154.39 216.62 C 131.86 191.11 109.39 165.54 87.44 139.53 C 84.34 135.75 81.03 132.05 78.84 127.64 C 78.36 122.94 78.85 118.21 79.17 113.53 C 95.60 110.58 111.92 107.05 128.10 102.97 C 138.67 100.02 150.06 96.12 156.92 86.95 C 160.49 82.97 162.18 77.03 160.08 71.93 C 157.76 68.49 154.03 65.76 149.81 65.38 C 127.14 62.94 104.28 64.09 81.54 64.34 C 77.28 80.37 73.51 96.54 68.54 112.36 C 60.45 140.29 53.15 168.45 45.52 196.51 C 30.41 200.91 15.07 204.47 0.00 209.01 L 0.00 206.69 C 5.87 189.90 9.27 172.40 14.43 155.40 C 25.69 112.99 37.68 70.76 48.66 28.27 Z"
       id="path2" />
    <path
       fill="#fefefe"
       opacity="1.00"
       d=" M 504.45 53.58 C 530.05 50.69 559.12 62.10 571.03 85.99 C 584.82 114.06 577.29 149.65 555.55 171.57 C 545.02 181.42 532.57 190.00 518.29 193.21 C 499.59 197.71 479.16 197.06 461.81 188.14 C 453.23 183.51 445.59 177.14 439.42 169.60 C 430.14 156.16 426.81 139.07 429.06 123.01 C 433.40 94.51 453.68 68.76 480.90 58.86 C 488.47 56.09 496.45 54.50 504.45 53.58 M 480.97 91.96 C 477.83 104.39 476.49 117.18 473.63 129.66 C 471.50 138.91 469.30 148.20 468.62 157.69 C 470.03 158.92 472.84 161.38 474.24 162.61 C 484.14 160.46 492.99 155.38 501.99 150.98 C 514.25 144.73 526.95 139.41 539.19 133.13 C 542.02 131.48 545.08 129.27 545.92 125.92 C 545.81 122.63 543.22 120.11 540.70 118.32 C 530.57 111.39 520.25 104.74 510.02 97.97 C 503.33 93.66 497.24 88.37 489.94 85.06 C 484.93 83.16 482.02 88.09 480.97 91.96 Z"
       id="path3" />
    <path
       fill="#fefefe"
       opacity="1.00"
       d=" M 929.91 56.03 C 944.69 53.77 959.94 55.35 974.92 55.04 C 968.74 73.27 962.84 91.62 958.23 110.31 C 952.37 127.36 949.20 145.18 943.52 162.28 C 940.42 172.63 937.70 183.08 934.88 193.50 C 920.50 193.01 906.13 194.08 891.76 194.00 C 895.49 179.04 901.40 164.64 904.15 149.45 C 885.45 163.44 869.57 180.85 850.62 194.54 C 838.80 181.46 831.77 164.84 820.52 151.33 C 815.23 164.82 813.12 179.30 807.63 192.72 C 793.49 193.35 779.33 194.38 765.18 193.76 C 778.12 149.65 790.23 105.30 803.47 61.29 C 804.55 60.38 806.03 60.31 807.39 60.20 C 820.57 59.63 833.78 60.01 846.98 60.04 C 855.43 75.04 864.92 89.48 872.19 105.12 C 891.53 88.88 910.37 72.00 929.91 56.03 M 856.87 134.10 C 846.47 126.93 838.25 117.06 827.60 110.26 C 826.34 111.76 823.83 114.75 822.58 116.25 C 832.52 133.45 844.12 149.70 856.55 165.19 C 886.83 132.53 919.47 102.09 949.37 69.07 C 918.14 90.18 888.64 113.79 856.87 134.10 Z"
       id="path4" />
    <path
       fill="#fefefe"
       opacity="1.00"
       d=" M 229.05 60.37 C 264.69 59.59 300.35 60.18 336.00 60.00 C 327.77 69.92 320.59 80.62 312.95 90.98 C 294.66 91.02 276.37 90.96 258.09 91.06 C 255.79 98.09 254.03 105.26 251.86 112.33 C 269.54 113.39 287.26 113.00 304.95 112.98 C 301.52 122.28 297.98 131.54 294.58 140.86 C 278.13 141.07 261.68 140.96 245.24 141.09 C 243.15 148.33 240.83 155.52 239.61 162.98 C 259.89 162.95 280.16 162.02 300.44 163.24 C 305.06 174.19 310.99 185.14 319.72 193.35 C 281.44 193.66 243.14 192.40 204.89 193.71 C 202.38 190.71 199.33 188.02 197.65 184.42 C 196.65 177.12 199.76 170.12 201.19 163.12 C 210.97 129.00 219.60 94.57 229.05 60.37 Z"
       id="path5" />
    <path
       fill="#fefefe"
       opacity="1.00"
       d=" M 348.01 75.01 C 360.96 64.11 378.35 59.89 395.00 60.27 C 410.03 60.70 425.10 59.30 440.10 60.73 C 431.56 69.91 423.91 79.94 417.53 90.74 C 402.56 91.69 385.51 88.02 372.55 97.52 C 362.75 105.33 357.55 117.55 355.64 129.66 C 354.82 138.29 353.80 148.66 360.68 155.31 C 364.38 159.70 370.00 161.82 375.59 162.36 C 386.88 163.62 398.27 162.91 409.60 162.50 C 415.35 174.35 423.86 184.64 434.11 192.88 C 415.76 193.82 397.38 192.70 379.03 193.78 C 366.99 192.86 353.94 194.02 343.00 187.97 C 334.36 183.82 327.06 176.82 322.85 168.20 C 317.26 154.77 315.40 139.45 319.23 125.29 C 324.01 106.47 332.19 87.19 348.01 75.01 Z"
       id="path6" />
    <path
       fill="#fefefe"
       opacity="1.00"
       d=" M 619.41 60.10 C 632.85 59.96 646.30 59.96 659.75 60.08 C 666.51 81.44 674.34 102.46 682.38 123.36 C 701.25 102.17 721.16 81.88 739.41 60.17 C 753.21 60.56 767.00 60.81 780.79 59.92 C 768.23 104.41 756.02 148.99 743.36 193.46 C 730.81 193.71 718.25 193.17 705.70 192.88 C 711.52 168.93 718.81 145.35 724.93 121.48 C 715.44 129.12 708.12 138.98 699.66 147.67 C 687.30 160.09 676.79 174.32 663.30 185.60 C 656.38 164.06 648.78 142.75 640.75 121.61 C 632.91 145.10 626.84 169.12 619.77 192.83 C 606.58 193.36 593.36 194.20 580.18 193.01 C 593.41 148.75 607.03 104.60 619.41 60.10 Z"
       id="path7" />
    <path
       fill="#fefefe"
       opacity="1.00"
       d=" M 992.43 60.10 C 1018.95 59.87 1045.47 60.10 1072.00 59.93 C 1081.32 60.05 1090.76 59.64 1100.04 60.96 C 1093.95 70.94 1088.24 81.15 1081.84 90.93 C 1061.85 91.06 1041.87 91.00 1021.89 90.97 C 1019.79 98.07 1018.03 105.25 1015.85 112.32 C 1035.63 113.53 1055.47 112.83 1075.28 113.07 C 1070.88 122.41 1066.15 131.59 1061.72 140.91 C 1043.94 141.12 1026.12 140.41 1008.39 141.86 C 1006.55 148.89 1004.45 155.86 1002.70 162.92 C 1026.85 163.12 1051.01 162.88 1075.17 163.07 C 1071.68 172.99 1068.44 182.99 1065.67 193.14 C 1042.13 194.34 1018.54 192.49 994.99 193.67 C 981.94 193.42 968.89 193.67 955.85 193.99 C 960.64 172.74 967.64 152.08 972.80 130.93 C 978.56 107.10 987.00 84.01 992.43 60.10 Z"
       id="path8" />
    <path
       fill="#fefefe"
       opacity="1.00"
       d=" M 1117.41 60.08 C 1129.59 59.98 1141.78 59.99 1153.98 60.00 C 1161.11 77.57 1169.48 94.59 1177.01 111.99 C 1180.18 118.41 1182.26 125.44 1186.38 131.35 C 1193.61 107.85 1199.17 83.85 1205.31 60.05 C 1217.83 60.00 1230.39 59.75 1242.93 60.49 C 1231.42 104.73 1219.37 148.82 1207.92 193.07 C 1195.95 194.21 1183.93 193.13 1171.96 192.92 C 1165.05 179.22 1159.17 165.03 1153.03 150.97 C 1148.77 140.75 1144.07 130.70 1140.60 120.17 C 1140.03 120.15 1138.90 120.09 1138.33 120.07 C 1132.46 144.50 1125.44 168.64 1118.80 192.87 C 1106.09 192.94 1093.38 192.98 1080.70 193.81 C 1087.45 168.45 1094.84 143.26 1101.80 117.95 C 1106.21 98.45 1112.97 79.57 1117.41 60.08 Z"
       id="path9" />
    <path
       fill="#fefefe"
       opacity="1.00"
       d=" M 1259.33 60.09 C 1283.80 61.15 1308.88 56.92 1332.91 63.10 C 1342.38 65.38 1350.94 72.07 1354.90 81.05 C 1359.44 89.90 1359.09 100.29 1358.86 109.96 C 1356.51 130.16 1352.12 150.78 1341.28 168.26 C 1333.05 181.16 1319.09 189.69 1304.01 191.89 C 1285.55 194.20 1266.87 193.16 1248.32 193.39 C 1240.80 194.01 1233.26 193.26 1225.77 192.90 C 1229.68 174.90 1233.85 156.92 1239.26 139.30 C 1243.85 122.93 1246.80 106.13 1251.95 89.91 C 1254.68 80.04 1256.75 70.00 1259.33 60.09 M 1285.02 90.97 C 1280.01 115.48 1273.54 139.65 1267.85 164.00 C 1277.96 163.20 1288.31 164.32 1298.33 162.33 C 1306.89 160.28 1312.12 152.14 1315.75 144.73 C 1319.50 135.46 1322.26 125.75 1323.59 115.82 C 1324.63 108.30 1323.00 99.95 1317.72 94.28 C 1308.00 88.13 1295.78 91.94 1285.02 90.97 Z"
       id="path10" />
    <path
       fill="#fefefe"
       opacity="1.00"
       d=" M 1386.08 60.06 C 1417.85 59.99 1449.63 59.86 1481.41 60.15 C 1476.85 70.90 1470.58 80.81 1464.90 90.97 C 1447.25 91.01 1429.62 91.00 1411.99 91.00 C 1410.24 98.31 1408.49 105.61 1406.82 112.94 C 1424.01 113.04 1441.20 112.93 1458.40 113.13 C 1454.63 122.57 1450.26 131.75 1445.99 140.96 C 1430.92 141.89 1415.84 141.17 1400.77 140.88 C 1398.68 148.14 1397.16 155.54 1395.67 162.93 C 1416.50 163.12 1437.35 163.15 1458.19 162.35 C 1454.54 172.73 1451.49 183.29 1448.16 193.76 C 1416.12 193.08 1384.03 193.27 1351.99 193.85 C 1358.39 176.57 1361.51 158.28 1366.43 140.56 C 1372.85 113.69 1379.12 86.79 1386.08 60.06 Z"
       id="path11" />
    <path
       fill="#fefefe"
       opacity="1.00"
       d=" M 1495.08 60.32 C 1521.02 59.95 1546.99 59.60 1572.95 60.25 C 1588.08 60.72 1604.58 62.93 1615.87 74.13 C 1629.69 87.08 1630.77 108.13 1627.61 125.58 C 1621.13 155.28 1599.26 179.74 1573.05 194.09 C 1527.48 220.42 1474.27 228.52 1422.51 232.00 L 1364.87 232.00 C 1364.86 230.12 1362.17 230.12 1362.19 232.00 L 1361.45 232.00 C 1343.51 229.74 1325.41 229.23 1307.48 226.96 C 1328.03 224.70 1348.78 224.81 1369.32 222.25 C 1419.57 215.72 1470.64 209.30 1517.83 189.77 C 1538.04 181.82 1557.53 170.44 1571.38 153.38 C 1582.08 141.00 1588.80 124.33 1586.21 107.83 C 1583.95 98.27 1574.37 91.89 1564.86 91.23 C 1550.64 90.35 1536.38 91.08 1522.16 91.10 C 1515.73 119.47 1508.69 147.69 1501.87 175.96 C 1489.30 182.01 1476.56 187.87 1462.96 191.23 C 1468.57 168.77 1473.61 146.17 1479.71 123.84 C 1485.22 102.76 1489.73 81.44 1495.08 60.32 Z"
       id="path12" />
  </g>
</svg>
