<?xml version="1.0" encoding="UTF-8" ?>
<!DOCTYPE svg PUBLIC "-//W3C//DTD SVG 1.1//EN" "http://www.w3.org/Graphics/SVG/1.1/DTD/svg11.dtd">
<svg width="803pt" height="103pt" viewBox="0 0 803 103" version="1.1" xmlns="http://www.w3.org/2000/svg">
<g id="#fefef8ff">
<path fill="#fefef8" opacity="1.00" d=" M 139.79 0.00 L 143.98 0.00 C 152.99 1.17 162.37 2.10 170.45 6.67 C 184.39 13.66 191.65 29.05 194.10 43.81 C 194.46 52.78 194.95 62.04 191.55 70.55 C 186.26 88.96 167.89 101.96 148.99 102.32 C 147.62 102.36 146.28 102.58 144.98 103.00 L 140.09 103.00 C 138.77 102.62 137.42 102.39 136.05 102.32 C 125.34 101.62 114.82 97.43 106.81 90.25 C 96.05 79.93 90.09 64.83 90.98 49.94 C 91.69 44.51 91.52 38.89 93.61 33.72 C 97.16 21.43 106.25 10.92 117.82 5.51 C 124.68 2.12 132.29 0.97 139.79 0.00 M 133.52 38.60 C 129.22 40.12 124.51 38.89 120.10 40.02 C 115.28 39.86 110.53 40.63 105.73 40.83 C 112.70 46.54 119.34 52.74 126.82 57.80 C 126.38 60.27 125.68 62.68 125.12 65.13 C 123.52 71.62 121.88 78.09 120.33 84.58 C 127.63 80.19 134.62 75.29 141.72 70.58 C 143.02 69.88 144.54 70.64 145.64 71.39 C 152.15 75.93 158.88 80.16 165.34 84.77 C 165.35 83.06 165.42 81.32 164.88 79.68 C 162.93 72.38 161.43 64.95 158.89 57.82 C 166.39 52.76 172.56 45.99 180.09 40.98 C 175.73 40.18 171.33 40.02 166.91 40.01 C 162.35 39.04 157.69 39.59 153.09 39.23 C 151.90 38.42 151.80 36.81 151.30 35.58 C 149.59 30.13 147.43 24.84 145.48 19.48 C 144.77 17.51 143.95 15.58 143.12 13.65 C 139.59 21.83 136.20 30.09 133.52 38.60 Z" />
<path fill="#fefef8" opacity="1.00" d=" M 218.91 2.97 C 230.84 0.94 242.96 1.36 255.02 1.42 C 260.80 2.08 266.71 2.68 272.15 4.89 C 280.14 7.73 287.23 14.16 289.50 22.50 C 290.53 24.79 290.44 27.35 291.20 29.71 C 291.35 32.51 291.36 35.32 291.20 38.11 C 289.64 45.00 288.06 52.62 282.56 57.54 C 278.49 62.01 272.68 64.45 266.93 65.92 C 260.08 67.87 252.95 67.82 245.89 67.84 C 244.27 68.45 242.54 68.43 240.84 68.29 C 239.15 67.61 237.31 67.75 235.54 67.61 C 234.96 69.01 234.69 70.50 234.81 72.01 C 234.87 81.64 234.83 91.26 234.84 100.88 C 227.04 100.87 219.25 100.91 211.46 100.87 C 211.43 68.69 211.43 36.51 211.44 4.33 C 213.91 3.79 216.44 3.52 218.91 2.97 M 235.27 22.48 C 235.62 31.11 235.38 39.75 235.50 48.39 C 241.24 48.10 247.10 48.98 252.77 47.93 C 257.98 47.21 264.08 45.18 266.00 39.74 C 267.39 34.62 266.66 28.38 262.53 24.68 C 256.93 20.63 249.55 20.63 242.93 20.86 C 240.42 21.59 237.73 21.54 235.27 22.48 Z" />
<path fill="#fefef8" opacity="1.00" d=" M 357.08 1.37 C 364.71 0.30 372.47 0.71 380.16 0.83 C 386.99 1.68 394.01 2.63 400.29 5.74 C 407.20 9.21 412.89 15.13 415.19 22.62 C 417.63 31.23 417.16 40.82 412.67 48.69 C 409.78 54.43 403.61 57.15 398.73 60.89 C 399.76 62.10 400.78 63.33 401.70 64.63 C 407.30 72.12 412.02 80.23 416.81 88.26 C 418.71 92.55 421.68 96.30 423.15 100.78 C 414.78 100.91 406.40 100.86 398.03 100.85 C 396.67 101.11 395.88 99.88 395.34 98.88 C 388.85 87.66 382.75 76.14 375.15 65.61 C 370.62 65.64 366.09 65.60 361.56 65.63 C 361.57 77.36 361.53 89.09 361.56 100.83 C 353.96 100.87 346.35 100.77 338.75 100.88 C 338.38 99.63 338.17 98.34 338.24 97.04 C 338.23 66.02 338.25 35.01 338.18 3.99 C 344.33 2.29 350.67 1.09 357.08 1.37 M 362.22 20.74 C 362.19 29.26 362.19 37.79 362.21 46.31 C 368.97 46.22 375.76 46.73 382.45 45.55 C 384.79 44.69 387.15 43.76 389.25 42.38 C 391.98 40.51 392.19 36.91 392.56 33.92 C 392.19 29.63 390.73 24.55 386.38 22.71 C 378.88 19.02 370.24 20.03 362.22 20.74 Z" />
<path fill="#fefef8" opacity="1.00" d=" M 526.15 1.41 C 554.62 1.47 583.08 1.44 611.55 1.40 C 611.54 8.08 611.55 14.75 611.54 21.43 C 601.20 21.42 590.86 21.41 580.52 21.42 C 580.53 47.90 580.52 74.38 580.52 100.85 C 572.75 100.87 564.98 100.86 557.21 100.87 C 557.18 74.39 557.17 47.91 557.16 21.43 C 546.82 21.41 536.49 21.42 526.15 21.43 C 526.15 14.75 526.15 8.08 526.15 1.41 Z" />
<path fill="#fefef8" opacity="1.00" d=" M 721.92 1.79 C 726.77 0.85 731.78 1.96 736.63 0.93 C 741.08 0.52 745.58 0.72 750.04 0.85 C 751.96 1.64 754.04 1.34 756.07 1.40 C 767.93 2.07 779.94 5.99 788.96 13.93 C 796.21 21.15 800.93 30.84 801.82 41.07 C 802.79 47.96 802.86 55.04 801.83 61.93 C 800.60 72.97 794.62 83.14 786.30 90.36 L 785.43 90.65 C 775.29 98.94 761.68 100.85 749.03 101.62 C 742.06 101.41 735.04 102.11 728.13 101.01 C 722.97 100.94 717.93 99.76 712.81 99.42 C 712.81 67.49 712.81 35.56 712.78 3.62 C 715.87 3.25 718.82 2.17 721.92 1.79 M 736.18 21.47 C 736.29 41.25 736.04 61.04 736.30 80.81 C 736.54 80.98 737.02 81.33 737.26 81.50 C 745.10 81.88 753.01 81.69 760.60 79.43 C 765.26 77.64 769.96 75.13 772.80 70.86 C 777.17 65.58 778.08 58.63 778.89 52.07 C 778.62 42.77 776.53 32.38 768.77 26.35 C 762.65 21.35 754.48 20.27 746.86 20.08 C 743.35 21.00 739.61 20.25 736.18 21.47 Z" />
<path fill="#fefef8" opacity="1.00" d=" M 0.00 2.10 C 28.47 2.07 56.93 2.08 85.40 2.07 C 85.38 8.75 85.43 15.43 85.37 22.10 C 75.04 22.11 64.72 22.10 54.40 22.11 C 54.41 48.38 54.39 74.65 54.41 100.92 C 46.60 100.91 38.79 100.89 30.99 100.89 C 30.94 74.94 31.14 48.98 30.90 23.03 C 30.66 22.83 30.18 22.42 29.94 22.22 C 19.97 21.93 9.98 22.20 0.00 22.11 L 0.00 2.10 Z" />
<path fill="#fefef8" opacity="1.00" d=" M 469.83 1.97 C 477.86 2.26 485.90 1.87 493.93 2.20 C 495.00 6.05 497.24 9.42 498.87 13.05 C 511.92 41.72 523.75 70.97 534.78 100.48 C 526.26 101.32 517.64 100.62 509.09 100.85 C 506.53 93.70 503.84 86.60 501.16 79.49 C 487.74 79.51 474.33 79.49 460.91 79.51 C 458.25 86.61 456.00 93.88 453.16 100.90 C 444.85 100.82 436.54 100.90 428.23 100.85 C 434.01 83.98 441.23 67.65 447.73 51.06 C 454.81 34.57 461.73 17.99 469.83 1.97 M 481.20 24.84 C 476.23 36.58 471.67 48.50 467.28 60.44 C 476.40 61.19 485.69 60.92 494.85 60.58 C 490.89 48.44 486.35 36.52 481.20 24.84 Z" />
<path fill="#fefef8" opacity="1.00" d=" M 623.94 1.43 C 647.59 1.52 671.23 1.47 694.87 1.46 C 694.85 8.12 695.01 14.79 694.08 21.40 C 678.50 21.36 662.92 21.36 647.33 21.36 C 647.32 27.40 647.32 33.43 647.32 39.47 C 661.11 39.44 674.89 39.47 688.68 39.46 C 688.73 45.85 688.56 52.25 688.79 58.64 C 687.60 58.14 686.33 57.98 685.07 58.04 C 672.49 58.09 659.91 58.05 647.33 58.07 C 647.32 65.67 647.31 73.27 647.31 80.88 C 664.30 80.89 681.30 80.87 698.29 80.88 C 698.27 87.55 698.32 94.21 698.32 100.88 C 673.53 100.88 648.74 100.87 623.94 100.88 C 623.94 67.73 623.94 34.58 623.94 1.43 Z" />
</g>
</svg>
