<?xml version="1.0" encoding="UTF-8" standalone="no"?>
<svg
   id="Layer_2"
   viewBox="0 0 498.20135 144.16798"
   version="1.1"
   sodipodi:docname="trakt.svg"
   width="498.20135"
   height="144.16797"
   inkscape:version="1.4.2 (f4327f4, 2025-05-13)"
   inkscape:export-filename="trakt.png"
   inkscape:export-xdpi="256.03903"
   inkscape:export-ydpi="256.03903"
   xmlns:inkscape="http://www.inkscape.org/namespaces/inkscape"
   xmlns:sodipodi="http://sodipodi.sourceforge.net/DTD/sodipodi-0.dtd"
   xmlns="http://www.w3.org/2000/svg"
   xmlns:svg="http://www.w3.org/2000/svg">
  <sodipodi:namedview
     id="namedview11"
     pagecolor="#ffffff"
     bordercolor="#000000"
     borderopacity="0.25"
     inkscape:showpageshadow="2"
     inkscape:pageopacity="0.0"
     inkscape:pagecheckerboard="true"
     inkscape:deskcolor="#d1d1d1"
     inkscape:zoom="0.93966978"
     inkscape:cx="190.49245"
     inkscape:cy="319.26109"
     inkscape:window-width="1920"
     inkscape:window-height="1130"
     inkscape:window-x="-6"
     inkscape:window-y="-6"
     inkscape:window-maximized="1"
     inkscape:current-layer="logo.default.tall.positive" />
  <defs
     id="defs10">
    <style
       id="style1">
      .cls-1 {
        fill: url(#radial-gradient);
      }

      .cls-2 {
        fill: #fff;
      }

      .cls-3 {
        fill: #131517;
      }
    </style>
    <radialGradient
       id="radial-gradient"
       cx="61.369999"
       cy="-0.94999999"
       fx="61.369999"
       fy="-0.94999999"
       r="64.839996"
       gradientUnits="userSpaceOnUse">
      <stop
         offset="0"
         stop-color="#9f42c6"
         id="stop1" />
      <stop
         offset=".27"
         stop-color="#a041c3"
         id="stop2" />
      <stop
         offset=".42"
         stop-color="#a43ebb"
         id="stop3" />
      <stop
         offset=".53"
         stop-color="#aa39ad"
         id="stop4" />
      <stop
         offset=".64"
         stop-color="#b4339a"
         id="stop5" />
      <stop
         offset=".73"
         stop-color="#c02b81"
         id="stop6" />
      <stop
         offset=".82"
         stop-color="#cf2061"
         id="stop7" />
      <stop
         offset=".9"
         stop-color="#e1143c"
         id="stop8" />
      <stop
         offset=".97"
         stop-color="#f50613"
         id="stop9" />
      <stop
         offset="1"
         stop-color="red"
         id="stop10" />
    </radialGradient>
    <radialGradient
       id="radial-gradient-8"
       cx="61.369999"
       cy="-0.94999999"
       fx="61.369999"
       fy="-0.94999999"
       r="64.839996"
       gradientUnits="userSpaceOnUse"
       gradientTransform="matrix(3.0035157,0,0,3.0035157,122.12391,27.916005)">
      <stop
         offset="0"
         stop-color="#9f42c6"
         id="stop1-2" />
      <stop
         offset=".27"
         stop-color="#a041c3"
         id="stop2-4" />
      <stop
         offset=".42"
         stop-color="#a43ebb"
         id="stop3-5" />
      <stop
         offset=".53"
         stop-color="#aa39ad"
         id="stop4-5" />
      <stop
         offset=".64"
         stop-color="#b4339a"
         id="stop5-1" />
      <stop
         offset=".73"
         stop-color="#c02b81"
         id="stop6-7" />
      <stop
         offset=".82"
         stop-color="#cf2061"
         id="stop7-1" />
      <stop
         offset=".9"
         stop-color="#e1143c"
         id="stop8-1" />
      <stop
         offset=".97"
         stop-color="#f50613"
         id="stop9-5" />
      <stop
         offset="1"
         stop-color="red"
         id="stop10-2" />
    </radialGradient>
  </defs>
  <g
     id="_x2D_-production"
     transform="translate(-160.89932,-27.916015)">
    <g
       id="logo.default.tall.positive">
      <path
         id="background"
         style="fill:#f9f9f9;stroke-width:3.00352"
         class="cls-1"
         d="m 194.71963,27.916015 c -18.68187,0 -33.82031,15.13845 -33.82031,33.82031 v 76.498045 c 0,18.68187 15.13844,33.84961 33.82031,33.84961 h 76.49805 c 18.68187,0 33.84961,-15.16774 33.84961,-33.84961 V 65.099615 l -53.55273,53.552735 -4.41407,-4.38477 57.57617,-57.578125 c -0.15017,-1.17137 -0.3891,-2.34183 -0.68945,-3.45313 l -61.03125,61.031255 6.48633,6.48633 -4.41406,4.38672 -10.87305,-10.87305 67.45898,-67.458985 c -0.48056,-0.90106 -0.96132,-1.80281 -1.50195,-2.67383 l -70.13281,70.132815 12.97656,12.94532 -4.38672,4.41406 -43.25,-43.250005 4.38477,-4.38477 25.89062,25.859385 70.76367,-70.761725 c -6.21727,-6.87805 -15.16895,-11.17383 -25.14062,-11.17383 z m 4.86524,13.81641 h 62.41211 v 6.21679 h -62.41211 c -10.27203,0 -18.62305,8.38032 -18.62305,18.65235 v 66.798825 c 0,10.27202 8.35102,18.6211 18.62305,18.6211 h 66.79882 c 10.27203,0 18.6211,-8.34907 18.6211,-18.6211 h 0.0294 v -10.54296 h 6.21876 v 10.54296 c 0,13.72607 -11.17312,24.86915 -24.86915,24.86915 h -66.79896 c -13.72607,0 -24.86914,-11.17312 -24.86914,-24.86915 V 66.601565 c 0,-13.72607 11.1731,-24.86914 24.86914,-24.86914 z m 13.0957,29.2832 23.78711,23.78906 -4.41602,4.41406 -23.78711,-23.7871 z m -6.48828,6.48828 23.78711,23.787105 -4.41406,4.41602 -23.78907,-23.787105 z" />
      <g
         id="checkbox"
         transform="matrix(3.0035157,0,0,3.0035157,122.12391,27.916005)" />
      <g
         id="logotype.white"
         transform="matrix(4.263696,0,0,4.263696,344.35464,-195.6443)"
         style="fill:#f9f9f9">
        <path
           class="cls-3"
           d="M 7.41,55.34 H 3.88 L 2.86,61.51 H 0 v 4.04 h 3.9 c -0.34,0.09 -0.61,0.31 -0.8,0.66 -0.19,0.35 -0.29,0.73 -0.29,1.15 l 0.02,10.9 c 0,1.63 0.47,2.88 1.42,3.76 0.95,0.87 2.27,1.31 3.98,1.31 0.72,0 1.49,-0.01 2.3,-0.03 0.81,-0.02 1.56,-0.1 2.26,-0.23 v -3.96 c -0.41,0.01 -0.86,0.02 -1.36,0.03 -0.5,0.01 -1.04,0 -1.64,0 -0.92,0 -1.55,-0.15 -1.88,-0.45 -0.34,-0.3 -0.5,-0.83 -0.5,-1.6 V 65.54 h 5.42 V 61.5 H 7.41 v -6.17 z m 17.57,5.72 c -1.08,0 -2,0.23 -2.76,0.68 -0.76,0.45 -1.38,1.06 -1.85,1.8 -0.47,0.75 -0.84,1.57 -1.1,2.46 -0.11,0.38 -0.2,0.76 -0.28,1.14 l -0.35,-5.63 h -3.98 v 21.51 h 4.65 V 68.59 c 0.22,-0.6 0.58,-1.11 1.08,-1.52 0.5,-0.41 1.04,-0.71 1.64,-0.92 0.59,-0.2 1.14,-0.31 1.66,-0.31 0.43,0 0.9,0.02 1.4,0.06 0.5,0.04 0.97,0.14 1.42,0.3 v -4.97 c -0.22,-0.07 -0.46,-0.11 -0.72,-0.14 -0.26,-0.03 -0.52,-0.04 -0.8,-0.04 z m 16.8,1.65 c -0.75,-0.58 -1.61,-1 -2.58,-1.24 -0.97,-0.24 -2,-0.36 -3.08,-0.36 -1.84,0 -3.43,0.28 -4.78,0.85 -1.35,0.57 -2.36,1.44 -3.04,2.63 -0.68,1.19 -0.94,2.71 -0.8,4.56 h 4.24 c 0.03,-1.13 0.19,-1.99 0.5,-2.59 0.31,-0.6 0.77,-1.01 1.37,-1.23 0.6,-0.22 1.35,-0.33 2.25,-0.33 1.39,0 2.38,0.36 2.97,1.09 0.58,0.73 0.88,1.83 0.88,3.3 v 0.89 c -0.43,0.03 -1.05,0.08 -1.86,0.15 -0.81,0.07 -1.68,0.16 -2.61,0.28 -0.93,0.11 -1.81,0.26 -2.64,0.44 -1.21,0.25 -2.25,0.63 -3.12,1.13 -0.87,0.51 -1.53,1.17 -1.99,1.99 -0.46,0.82 -0.69,1.86 -0.69,3.12 0,1.16 0.29,2.18 0.86,3.07 0.57,0.89 1.37,1.58 2.39,2.07 1.02,0.49 2.17,0.74 3.46,0.74 1.85,0 3.29,-0.48 4.31,-1.44 1.02,-0.96 1.65,-2.16 1.9,-3.61 l -0.06,4.81 h 4.55 V 68.95 c 0,-1.55 -0.22,-2.83 -0.65,-3.84 -0.43,-1.01 -1.03,-1.81 -1.77,-2.4 z M 39.71,76.8 c -0.13,0.6 -0.46,1.13 -1,1.58 -0.53,0.45 -1.15,0.79 -1.86,1.02 -0.71,0.23 -1.41,0.34 -2.09,0.34 -0.51,0.01 -0.99,-0.1 -1.44,-0.32 -0.45,-0.23 -0.81,-0.56 -1.08,-0.98 -0.28,-0.42 -0.41,-0.92 -0.41,-1.5 0,-1.03 0.33,-1.78 0.99,-2.28 0.66,-0.49 1.72,-0.88 3.19,-1.17 0.51,-0.12 1.13,-0.24 1.84,-0.36 0.72,-0.12 1.34,-0.21 1.86,-0.27 z M 73.82,65.56 V 61.52 H 68.4 v -6.17 h -3.53 l -1.02,6.17 h -1.36 v 0 c 0,0 -5.51,0 -5.51,0 l -5.31,7.49 -1.64,2.86 V 61.52 h -4.71 v 21.52 h 4.71 v -6 l 2.39,-3 5.19,9 h 5.61 l -7.5,-12.26 5.27,-7.2 v 1.99 h 3.9 c -0.34,0.09 -0.61,0.31 -0.8,0.66 -0.19,0.35 -0.29,0.73 -0.29,1.15 l 0.02,10.9 c 0,1.63 0.47,2.88 1.42,3.76 0.95,0.87 2.27,1.31 3.98,1.31 0.72,0 1.49,-0.01 2.3,-0.03 0.81,-0.02 1.56,-0.1 2.26,-0.23 v -3.96 c -0.41,0.01 -0.86,0.02 -1.36,0.03 -0.5,0.01 -1.04,0 -1.64,0 -0.92,0 -1.55,-0.15 -1.88,-0.45 -0.34,-0.3 -0.5,-0.83 -0.5,-1.6 V 65.56 Z"
           id="path11"
           style="fill:#f9f9f9" />
      </g>
    </g>
  </g>
</svg>
