<?xml version="1.0" encoding="UTF-8" ?>
<!DOCTYPE svg PUBLIC "-//W3C//DTD SVG 1.1//EN" "http://www.w3.org/Graphics/SVG/1.1/DTD/svg11.dtd">
<svg width="771pt" height="159pt" viewBox="0 0 771 159" version="1.1" xmlns="http://www.w3.org/2000/svg">
<g id="#fefffcff">
<path fill="#fefffc" opacity="1.00" d=" M 564.45 0.00 L 565.27 0.00 C 570.94 17.53 576.24 35.18 581.89 52.72 C 575.86 49.70 569.93 46.44 563.73 43.78 C 556.49 81.66 548.47 119.41 540.25 157.09 C 533.45 156.97 526.64 157.16 519.85 156.96 C 527.88 120.84 534.75 84.46 542.55 48.28 C 543.03 46.20 543.36 44.08 543.56 41.95 C 536.36 43.82 529.03 45.12 521.84 46.99 C 535.35 30.71 550.28 15.69 564.45 0.00 Z" />
<path fill="#fefffc" opacity="1.00" d=" M 685.66 77.68 C 695.71 66.02 710.63 59.47 725.78 57.90 C 736.00 57.24 746.41 58.32 756.08 61.80 C 761.82 64.06 766.84 67.99 771.00 72.50 L 771.00 73.12 C 766.00 76.85 761.95 81.61 757.41 85.85 C 753.11 82.26 748.53 78.75 743.12 77.02 C 732.94 73.63 721.57 75.21 712.20 80.19 C 702.28 85.68 695.05 95.75 693.11 106.93 C 691.83 114.30 692.05 122.40 696.14 128.91 C 699.35 134.17 704.57 138.18 710.51 139.87 C 719.92 143.04 730.55 141.33 739.16 136.65 C 740.87 127.41 743.23 118.30 744.89 109.04 C 751.48 109.03 758.08 109.00 764.68 109.06 C 762.40 120.53 760.07 131.98 757.83 143.46 C 757.39 144.69 757.60 146.32 756.44 147.18 C 746.87 154.59 734.82 157.64 723.01 159.00 L 711.91 159.00 C 706.03 157.90 699.92 157.27 694.52 154.48 C 688.78 151.54 683.30 147.75 679.40 142.52 C 671.73 132.76 669.81 119.44 671.99 107.45 C 673.62 96.49 678.40 86.05 685.66 77.68 Z" />
<path fill="#fefffc" opacity="1.00" d=" M 429.77 60.69 C 430.33 58.90 432.51 59.25 433.96 59.16 C 439.76 59.33 445.61 58.76 451.38 59.53 C 461.20 60.24 471.15 59.00 480.91 60.14 C 490.86 61.40 501.09 65.42 507.54 73.40 C 515.72 81.62 517.41 93.97 516.79 105.06 C 515.09 119.80 508.16 134.33 496.40 143.64 C 486.27 152.19 473.02 156.15 459.97 157.05 C 443.43 157.06 426.89 157.05 410.35 157.05 C 415.30 133.03 419.95 108.93 424.98 84.92 C 425.72 81.35 426.32 77.75 427.17 74.20 C 428.08 69.71 428.52 65.10 429.77 60.69 M 442.03 101.18 C 441.35 104.47 440.72 107.78 440.04 111.07 C 439.44 114.11 438.70 117.12 438.12 120.17 C 437.04 126.87 435.43 133.47 434.31 140.17 C 444.58 139.95 454.92 140.79 465.14 139.44 C 480.52 136.93 493.07 123.79 495.64 108.54 C 496.93 100.29 496.14 90.94 490.47 84.38 C 485.79 78.69 478.20 76.29 471.06 75.93 C 463.00 75.92 454.94 75.94 446.89 75.92 C 445.60 84.40 443.62 92.76 442.03 101.18 Z" />
<path fill="#fefffc" opacity="1.00" d=" M 579.61 59.68 C 585.26 60.11 590.82 58.81 596.47 59.19 C 609.58 80.61 622.12 102.36 634.89 123.98 C 637.13 115.24 638.27 106.16 640.52 97.38 C 642.89 84.76 645.70 72.21 647.90 59.56 C 654.57 58.42 661.33 59.66 668.02 59.75 C 667.67 61.21 667.32 62.67 667.04 64.15 C 666.40 67.46 665.69 70.77 665.09 74.10 C 664.31 77.66 663.68 81.26 662.90 84.82 C 660.04 99.61 657.17 114.40 654.08 129.14 C 653.29 132.72 652.67 136.34 651.88 139.93 C 650.72 145.65 649.79 151.44 648.28 157.09 C 642.52 157.00 636.77 157.09 631.02 157.04 C 618.06 135.70 605.68 114.03 593.06 92.50 C 592.06 95.92 591.57 99.44 590.99 102.95 C 588.73 114.32 586.50 125.71 583.98 137.04 C 582.85 142.56 581.98 148.14 580.49 153.58 C 580.37 154.65 580.27 155.72 580.17 156.80 C 573.37 157.28 566.53 157.01 559.72 157.00 C 562.54 142.30 566.04 127.60 568.88 112.84 C 569.69 109.29 570.32 105.69 571.08 102.12 C 573.91 87.97 576.63 73.80 579.61 59.68 Z" />
<path fill="#fefffc" opacity="1.00" d=" M 0.00 61.76 C 5.48 59.83 11.35 60.63 17.01 59.77 C 53.09 59.63 89.18 59.74 125.26 59.71 C 123.98 65.10 122.69 70.49 121.70 75.95 C 111.14 75.88 100.58 75.93 90.02 75.94 C 88.93 83.31 87.21 90.56 85.77 97.86 C 81.89 117.51 78.10 137.17 73.48 156.66 C 66.81 157.62 59.91 156.75 53.16 157.07 C 58.93 130.09 64.18 103.00 69.56 75.94 C 49.33 75.90 29.10 75.93 8.87 75.93 C 6.60 76.08 4.61 74.86 2.82 73.63 C 10.50 70.62 18.92 71.63 26.97 71.40 C 31.45 71.13 36.17 72.22 40.39 70.27 C 40.87 68.49 41.34 66.71 41.75 64.92 C 31.82 64.84 21.89 64.99 11.97 64.84 C 7.95 64.45 3.75 64.57 0.00 62.83 L 0.00 61.76 Z" />
<path fill="#fefffc" opacity="1.00" d=" M 135.72 59.71 C 151.87 59.77 168.03 59.56 184.19 59.82 C 193.50 61.19 203.53 64.88 208.20 73.69 C 216.55 88.88 210.85 109.88 196.58 119.49 C 192.99 122.13 188.85 123.82 184.90 125.80 C 190.06 136.42 196.09 146.61 201.66 157.03 C 194.21 157.07 186.76 157.05 179.30 157.04 C 173.98 147.61 169.00 138.00 163.92 128.44 C 156.69 128.68 149.43 128.13 142.21 128.72 C 141.93 130.79 141.44 132.82 140.89 134.84 C 139.49 142.01 137.26 149.00 135.92 156.19 C 135.69 156.39 135.25 156.78 135.02 156.97 C 128.67 157.18 122.31 156.99 115.96 157.05 C 116.44 151.37 118.01 145.86 119.18 140.29 C 122.95 122.62 126.25 104.83 130.17 87.19 C 131.37 80.86 132.58 74.52 134.05 68.25 C 134.60 65.40 135.26 62.58 135.72 59.71 M 145.82 111.64 C 155.88 111.33 166.11 112.51 175.99 110.17 C 185.88 107.68 192.44 96.95 190.97 87.05 C 189.89 81.76 185.53 77.73 180.28 76.71 C 171.21 75.16 161.96 76.26 152.80 75.94 C 150.65 87.87 147.51 99.63 145.82 111.64 Z" />
<path fill="#fefffc" opacity="1.00" d=" M 225.91 95.92 C 228.36 83.81 230.70 71.66 233.65 59.67 C 257.84 59.76 282.03 59.67 306.22 59.71 C 304.94 65.09 303.44 70.43 302.67 75.90 C 285.45 75.96 268.24 75.95 251.02 75.89 C 250.54 77.53 250.18 79.20 249.80 80.86 C 249.14 87.06 246.83 93.09 246.66 99.30 C 249.46 99.30 252.27 99.34 255.07 99.19 C 257.31 98.45 259.70 98.74 262.02 98.70 C 272.21 98.70 282.40 98.69 292.59 98.71 C 291.57 104.34 290.23 109.90 289.11 115.51 C 273.63 115.52 258.14 115.51 242.65 115.49 C 241.35 121.34 240.25 127.23 239.06 133.11 C 238.54 135.47 238.05 137.85 237.78 140.26 C 255.84 140.27 273.90 140.20 291.96 140.31 C 290.83 145.49 290.20 150.78 288.90 155.92 C 288.40 157.65 286.30 156.87 285.02 157.07 C 261.20 157.03 237.37 157.05 213.55 157.06 C 214.10 154.75 214.64 152.45 215.11 150.12 C 217.11 138.31 219.76 126.61 221.97 114.83 C 222.63 111.80 223.19 108.76 223.88 105.74 C 224.67 102.49 225.24 99.19 225.91 95.92 Z" />
<path fill="#fefffc" opacity="1.00" d=" M 321.81 59.67 C 327.41 59.72 333.02 59.75 338.63 59.66 C 351.42 80.50 363.83 101.57 376.42 122.53 C 376.77 122.82 377.48 123.40 377.83 123.69 C 378.03 121.38 378.41 119.10 378.84 116.82 C 379.63 113.55 380.24 110.23 380.88 106.93 C 384.07 91.18 387.28 75.43 390.53 59.70 C 397.23 59.73 403.94 59.67 410.64 59.73 C 408.56 68.80 407.07 77.98 405.03 87.07 C 404.28 90.64 403.67 94.25 402.85 97.81 C 398.99 117.59 394.56 137.24 390.84 157.05 C 384.96 157.05 379.09 157.05 373.21 157.05 C 363.53 140.98 354.27 124.66 344.54 108.61 C 341.32 103.24 338.79 97.43 335.04 92.40 C 334.50 96.01 333.80 99.59 333.12 103.17 C 332.30 106.75 331.71 110.37 330.94 113.97 C 330.25 117.23 329.65 120.52 328.93 123.78 C 327.44 131.64 325.54 139.42 324.04 147.27 C 323.43 150.54 322.40 153.72 322.12 157.04 C 315.42 157.06 308.73 157.05 302.04 157.05 C 303.37 148.59 305.37 140.25 306.89 131.82 C 307.62 128.53 308.27 125.21 308.87 121.89 C 312.79 103.66 316.05 85.30 320.13 67.10 C 320.58 64.60 320.97 62.08 321.81 59.67 Z" />
<path fill="#fefffc" opacity="1.00" d=" M 19.13 98.99 C 21.19 97.68 23.50 96.53 26.01 96.70 C 36.02 96.73 46.02 96.64 56.03 96.76 C 55.53 98.26 55.01 99.75 54.48 101.24 C 44.97 101.18 35.46 101.22 25.96 101.21 C 23.51 101.24 21.15 100.32 19.13 98.99 Z" />
<path fill="#fefffc" opacity="1.00" d=" M 35.49 110.31 C 41.33 110.47 47.19 109.99 53.03 110.40 C 53.49 111.89 52.27 113.39 51.97 114.83 C 46.97 114.89 41.97 114.87 36.96 114.88 C 35.15 115.07 33.55 114.15 31.95 113.47 C 32.81 112.10 34.19 111.22 35.49 110.31 Z" />
</g>
</svg>
