<?xml version="1.0" encoding="UTF-8" standalone="no"?>
<!-- Uploaded to: SVG Repo, www.svgrepo.com, Generator: SVG Repo Mixer Tools -->

<svg
   fill="#000000"
   width="1280"
   height="720"
   viewBox="0 0 22.4 12.6"
   role="img"
   focusable="false"
   aria-hidden="true"
   version="1.1"
   id="svg1"
   sodipodi:docname="tvdb.svg"
   inkscape:version="1.4.2 (f4327f4, 2025-05-13)"
   inkscape:export-filename="tvdb.png"
   inkscape:export-xdpi="96"
   inkscape:export-ydpi="96"
   xmlns:inkscape="http://www.inkscape.org/namespaces/inkscape"
   xmlns:sodipodi="http://sodipodi.sourceforge.net/DTD/sodipodi-0.dtd"
   xmlns="http://www.w3.org/2000/svg"
   xmlns:svg="http://www.w3.org/2000/svg">
  <defs
     id="defs1" />
  <sodipodi:namedview
     id="namedview1"
     pagecolor="#ffffff"
     bordercolor="#000000"
     borderopacity="0.25"
     inkscape:showpageshadow="2"
     inkscape:pageopacity="0.0"
     inkscape:pagecheckerboard="true"
     inkscape:deskcolor="#d1d1d1"
     inkscape:zoom="0.55375"
     inkscape:cx="499.3228"
     inkscape:cy="536.34312"
     inkscape:window-width="1920"
     inkscape:window-height="1130"
     inkscape:window-x="-6"
     inkscape:window-y="-6"
     inkscape:window-maximized="1"
     inkscape:current-layer="svg1" />
  <g
     id="g3"
     transform="matrix(1.2317533,0,0,1.2317533,2.5777271,-2.3222731)">
    <path
       d="m 10.27228,6.7494089 v -1.8123 h 0.38154 0.38153 v 0.4769 0.477 h 0.51076 c 1.05257,0 1.49508,0.4262 1.45089,1.3975 -0.0183,0.4032 -0.0525,0.5334 -0.19712,0.752 -0.29504,0.4458 -0.5269,0.5212 -1.60302,0.5212 h -0.92458 z m 1.47191,1.1749 c 0.38358,-0.1066 0.57492,-0.5705 0.41833,-1.0143 -0.0988,-0.2798 -0.30034,-0.381 -0.76153,-0.3822 l -0.36564,-9e-4 v 0.7312 0.7313 l 0.23846,-5e-4 c 0.13115,0 0.34282,-0.029 0.47038,-0.065 z"
       id="path3"
       style="fill:#ffffff" />
    <path
       d="m 7.8451205,8.4328089 c -0.42812,-0.2261 -0.65774,-0.7228 -0.61236,-1.3245 0.0359,-0.4765 0.20564,-0.8102 0.51695,-1.0163 0.22173,-0.1469 0.33378,-0.1722 0.84851,-0.1913 l 0.59305,-0.022 v -0.4708 -0.4708 h 0.38153 0.38154 v 1.8123 1.8123 h -0.93794 c -0.80185,0 -0.9718,-0.021 -1.17128,-0.1261 z m 1.34615,-1.1747 v -0.7312 h -0.38643 c -0.34232,0 -0.40764,0.021 -0.5723,0.1858 -0.25433,0.2544 -0.26586,0.7268 -0.0247,1.0133 0.17036,0.2025 0.27757,0.2408 0.7132,0.2547 l 0.27026,0.01 v -0.7313 z"
       id="path2"
       style="fill:#ffffff" />
    <path
       d="m 1.7844605,10.190309 c -0.18713,-0.1871 -0.16477,-0.051 -0.51038,-3.1043001 -0.31619004,-2.7933 -0.32906004,-3.0127 -0.18855,-3.2133 0.20306,-0.2899 0.35119,-0.2847 3.38314,0.1182 1.5657,0.2081 2.90794,0.4091 2.98277,0.4467 0.20486,0.1029 0.27728,0.3277 0.27728,0.8604 0,0.4646 -0.008,0.4914 -0.22973,0.7364 -0.66325,0.7342 -0.66447,1.7632 -0.003,2.4001 0.20736,0.1996 0.23128,0.2567 0.23188,0.5529 5.1e-4,0.2526 -0.0334,0.3699 -0.14403,0.4985 -0.14015,0.1629 -0.22084,0.179 -2.55946,0.5106 -2.7992,0.3968001 -3.02365,0.4103001 -3.24009,0.1938001 z m 2.1925,-1.8830001 c 0,-0.2521 -0.002,-0.2543 -0.24164,-0.2543 -0.1329,0 -0.27597,-0.034 -0.31794,-0.076 -0.05,-0.05 -0.0763,-0.3143 -0.0763,-0.7658 v -0.6894 l 0.48353,0.019 0.48354,0.019 0.39397,0.9857 0.39397,0.9856 0.37838,0.017 0.37838,0.017 0.49075,-1.1616 c 0.26992,-0.6389 0.50968,-1.2133 0.5328,-1.2765 0.0377,-0.1031 0.007,-0.1129 -0.29745,-0.095 l -0.33948,0.02 -0.34779,0.8744 c -0.19128,0.4809 -0.36856,0.8743 -0.39396,0.8743 -0.0254,0 -0.13202,-0.236 -0.23694,-0.5246 -0.10493,-0.2885 -0.25277,-0.6891 -0.32853,-0.8902 l -0.13776,-0.3657 h -0.7267 -0.72671 v -0.5087 -0.5087 h -0.34974 -0.34974 v 0.5087 0.5087 h -0.22256 c -0.21726,0 -0.22256,0.01 -0.22256,0.2544 0,0.2465 0.007,0.2544 0.21472,0.2544 h 0.21472 l 0.0299,0.7471 c 0.0438,1.096 0.1763,1.2804 0.92375,1.2852 h 0.39743 v -0.2544 z m 2.98407,-2.6475 c 0.17076,-0.2171 0.16614,-0.3126 -0.0243,-0.503 -0.19684,-0.1968 -0.31765,-0.1968 -0.51449,0 -0.19564,0.1956 -0.20111,0.4329 -0.013,0.5641 0.21276,0.1484 0.40363,0.1273 0.55179,-0.061 z"
       id="path1"
       style="fill:#6cd591;fill-opacity:1" />
  </g>
</svg>
