<?xml version="1.0" encoding="UTF-8" standalone="no"?>
<svg
   width="800pt"
   height="200pt"
   viewBox="0 0 800 200"
   version="1.1"
   id="svg7"
   sodipodi:docname="action.svg"
   inkscape:version="1.4.2 (f4327f4, 2025-05-13)"
   xmlns:inkscape="http://www.inkscape.org/namespaces/inkscape"
   xmlns:sodipodi="http://sodipodi.sourceforge.net/DTD/sodipodi-0.dtd"
   xmlns="http://www.w3.org/2000/svg"
   xmlns:svg="http://www.w3.org/2000/svg">
  <defs
     id="defs7" />
  <sodipodi:namedview
     id="namedview7"
     pagecolor="#ffffff"
     bordercolor="#000000"
     borderopacity="0.25"
     inkscape:showpageshadow="2"
     inkscape:pageopacity="0.0"
     inkscape:pagecheckerboard="true"
     inkscape:deskcolor="#d1d1d1"
     inkscape:document-units="pt"
     inkscape:zoom="1.2078268"
     inkscape:cx="572.51587"
     inkscape:cy="306.33532"
     inkscape:window-width="1920"
     inkscape:window-height="1130"
     inkscape:window-x="-6"
     inkscape:window-y="-6"
     inkscape:window-maximized="1"
     inkscape:current-layer="svg7" />
  <g
     id="#fdfefdff"
     transform="translate(179,44.5)">
    <path
       fill="#fdfefd"
       opacity="1"
       d="m 373.01,0 h 0.85 c -8.82,9.81 -17.54,19.73 -26.24,29.65 5.58,8.4 4.77,19.38 1.31,28.43 -8.69,25.23 -37.16,42.5 -63.53,36.69 -4.35,3.16 -8.36,6.74 -12.44,10.23 h -0.67 c 3.07,-3.61 6.08,-7.28 8.79,-11.17 -2.88,-1.67 -5.83,-3.34 -8.15,-5.77 -4.75,-4.66 -6.38,-11.68 -6.05,-18.14 0.59,-6.96 2.8,-13.71 5.7,-20.03 7.94,-15.44 23.37,-26.75 40.33,-30.16 10.18,-1.6 21.76,-1.6 30.3,5.01 9.73,-8.48 20.11,-16.22 29.8,-24.74 m -58.07,36.34 c -4.86,0.64 -9.33,2.8 -13.33,5.54 -3.89,-2.72 -7.57,-5.76 -11.64,-8.21 2.5,3.96 5.1,7.87 7.63,11.82 -2.55,3.2 -4.82,6.63 -6.51,10.36 -2.22,0.63 -4.5,1 -6.72,1.61 1.89,0.17 3.79,0.23 5.7,0.26 -1.72,5.67 -2.22,12.56 1.98,17.31 -2.27,3.96 -5.17,7.58 -6.98,11.79 3.19,-3.38 6.56,-6.57 9.85,-9.85 6.96,2.05 14.69,0.39 20.55,-3.77 1.5,2.14 2.99,4.29 4.6,6.36 -0.2,-2.91 -0.43,-5.81 -0.9,-8.68 3.02,-2.9 5.49,-6.34 7.18,-10.18 4.84,-0.61 9.69,-1.07 14.53,-1.56 -4.15,-1.47 -8.56,-2.18 -12.53,-4.17 1.05,-4.62 1.16,-9.61 -0.96,-13.95 0.84,-1.94 1.71,-3.85 2.55,-5.79 -1.47,1.3 -2.87,2.66 -4.24,4.05 -2.06,-1.23 -4.2,-2.32 -6.53,-2.92 -0.01,-3.42 0.06,-6.84 -0.02,-10.26 -1.63,3.32 -2.98,6.76 -4.21,10.24 z"
       id="path1" />
    <path
       fill="#fdfefd"
       opacity="1"
       d="m 100.4,46.07 c 9.92,-15.45 27.03,-26.67 45.6,-27.56 7.58,-0.21 15.81,0.6 22,5.42 2.85,1.96 4.57,5.06 5.93,8.16 -6.01,4.07 -11.78,8.49 -17.77,12.6 -1.84,-3.35 -4.41,-6.58 -8.19,-7.78 -6.31,-2.02 -13.14,0.02 -18.57,3.41 -8.69,5.59 -15.13,15.24 -15.26,25.76 -0.05,4.1 1.85,8.39 5.74,10.16 9.53,4.01 20.6,-0.06 27.21,-7.51 3.34,4.25 6.4,8.7 9.48,13.14 -6.53,5.35 -13.73,10.26 -22.03,12.33 -8.39,2.01 -17.33,2.12 -25.67,-0.23 -7.86,-2.23 -14.88,-8.74 -15.99,-17.1 -1.41,-10.74 1.96,-21.66 7.52,-30.8 z"
       id="path2" />
    <path
       fill="#fdfefd"
       opacity="1"
       d="m 372.41,19.79 c 5.6,0.07 11.2,0.02 16.8,0.03 6.04,13.17 11.47,26.62 17.2,39.93 5.29,-13.24 10.04,-26.69 15.27,-39.95 6.77,0.08 13.54,0.02 20.31,0.03 -9.28,24.78 -18.61,49.56 -27.67,74.42 -6.09,-0.05 -12.17,0.04 -18.24,-0.06 -5.46,-13.4 -11.07,-26.75 -16.25,-40.27 -5.06,13.43 -10.22,26.82 -15.19,40.28 -6.97,0.06 -13.94,0.01 -20.91,0.03 9.73,-24.75 18.87,-49.73 28.68,-74.44 z"
       id="path3" />
    <path
       fill="#fdfefd"
       opacity="1"
       d="m 59.38,19.82 c 7.1,-0.04 14.2,0.09 21.3,-0.08 0.68,2.69 0.6,5.47 0.72,8.21 1.2,22.08 1.79,44.2 3.39,66.25 -7.48,0.08 -14.96,0.01 -22.44,0.05 -0.06,-4.61 0.07,-9.24 -0.57,-13.82 -10.06,0.05 -20.12,-0.01 -30.17,0.03 -2.9,4.63 -6.7,8.71 -9.12,13.61 C 15,94.1 7.48,94.37 0,93.85 V 93.5 C 1.21,92.98 1.89,91.73 2.74,90.8 16.25,73.25 30.21,56.05 44.08,38.8 33.3,37.79 22.52,36.75 11.73,35.92 23.49,35.24 35.27,35.29 47.04,34.8 c 2.3,-1.94 3.91,-4.56 5.84,-6.85 -13.02,-1.28 -26.17,-1.29 -39.2,-2.54 14.07,-0.56 28.13,-1.46 42.21,-1.83 1.51,-0.85 2.35,-2.5 3.49,-3.76 M 44.37,64.26 C 50.48,64.17 56.59,64.2 62.7,64.19 62.79,56.7 62.14,49.23 62.31,41.73 55.56,48.52 50.62,56.97 44.37,64.26 Z"
       id="path4" />
    <path
       fill="#fdfefd"
       opacity="1"
       d="m 175.98,36.52 c 2.31,-5.52 3.88,-11.34 6.44,-16.75 21.43,0.2 42.86,-0.1 64.28,0.14 -2.18,5.53 -4.34,11.06 -6.46,16.61 -7.43,-0.03 -14.87,0.02 -22.31,-0.01 -7.37,19.09 -14.55,38.28 -21.89,57.38 -6.65,0.81 -13.71,0.13 -20.52,0.33 6.96,-19.29 14.33,-38.44 21.58,-57.63 -7.04,-0.16 -14.08,-0.04 -21.12,-0.07 z"
       id="path5" />
    <path
       fill="#fdfefd"
       opacity="1"
       d="m 225.99,94.2 c 9.26,-24.7 18.57,-49.4 27.96,-74.05 6.74,-0.76 13.8,-0.1 20.67,-0.32 -9.07,24.88 -18.38,49.68 -27.81,74.44 -6.94,-0.08 -13.88,0.01 -20.82,-0.07 z"
       id="path6" />
    <path
       fill="#fdfefd"
       opacity="1"
       d="m 315.63,37.8 c 0.07,2.92 -0.26,5.82 -0.65,8.71 0.26,0.68 0.78,2.05 1.04,2.73 1.72,-0.72 3.44,-1.43 5.19,-2.13 -1.2,1.75 -2.4,3.49 -3.51,5.3 0.62,0.03 1.87,0.11 2.5,0.14 l -1.51,0.5 -0.77,1.32 c 3.41,1.22 6.92,2.16 10.25,3.58 -3.45,0.26 -6.91,0.09 -10.37,0.15 -0.54,0.58 -1.63,1.74 -2.18,2.33 -0.27,3.56 1.06,6.96 1.1,10.51 -1.17,-2.37 -2.44,-4.69 -3.7,-7.01 -0.9,-0.33 -1.8,-0.67 -2.7,-1.01 -0.35,0.45 -1.05,1.35 -1.39,1.8 -0.18,-0.65 -0.53,-1.93 -0.71,-2.58 -4.55,4.03 -9.04,8.12 -13.28,12.47 2.84,-5.46 7.78,-9.64 9.81,-15.56 -3.01,-2.77 -7.14,-1.59 -10.81,-1.94 3.28,-1.46 6.89,-2.06 10.3,-3.19 -0.51,-0.55 -1.54,-1.66 -2.06,-2.22 0.61,-0.04 1.83,-0.11 2.44,-0.15 -1.76,-2.99 -3.9,-5.72 -5.58,-8.75 2.79,1.73 5.05,4.15 7.8,5.95 l 0.44,-2.08 c 0.91,0.78 1.83,1.56 2.75,2.34 2.44,-3.42 4.73,-7.04 5.6,-11.21 z"
       id="path7" />
  </g>
</svg>
