<?xml version="1.0" encoding="UTF-8" standalone="no"?>
<svg
   width="800pt"
   height="200pt"
   viewBox="0 0 800 200"
   version="1.1"
   id="svg11"
   sodipodi:docname="anime.svg"
   inkscape:version="1.4.2 (f4327f4, 2025-05-13)"
   xmlns:inkscape="http://www.inkscape.org/namespaces/inkscape"
   xmlns:sodipodi="http://sodipodi.sourceforge.net/DTD/sodipodi-0.dtd"
   xmlns="http://www.w3.org/2000/svg"
   xmlns:svg="http://www.w3.org/2000/svg">
  <defs
     id="defs11" />
  <sodipodi:namedview
     id="namedview11"
     pagecolor="#ffffff"
     bordercolor="#000000"
     borderopacity="0.25"
     inkscape:showpageshadow="2"
     inkscape:pageopacity="0.0"
     inkscape:pagecheckerboard="true"
     inkscape:deskcolor="#d1d1d1"
     inkscape:document-units="pt"
     inkscape:zoom="1.2078268"
     inkscape:cx="530.29128"
     inkscape:cy="120.87826"
     inkscape:window-width="1920"
     inkscape:window-height="1130"
     inkscape:window-x="-6"
     inkscape:window-y="-6"
     inkscape:window-maximized="1"
     inkscape:current-layer="svg11" />
  <g
     id="#fefefbff"
     transform="translate(204,22)">
    <path
       fill="#fefefb"
       opacity="1"
       d="m 224.46,0 h 12.97 c -14.73,1.24 -29.21,5.41 -42.3,12.29 -5.24,2.62 -9.62,7.21 -15.66,7.96 0.09,-4.75 4.13,-7.83 7.96,-9.83 C 198.8,4.26 211.61,0.98 224.46,0 Z"
       id="path1" />
    <path
       fill="#fefefb"
       opacity="1"
       d="m 227.94,10.45 c -1.87,1.8 -4.13,3.11 -6.28,4.52 3.5,1.1 7.16,1.05 10.47,-0.62 -1.03,0.93 -2.09,1.82 -3.09,2.77 2.96,0.81 6,1.29 9.07,1.2 -1.91,1.86 -4.81,2.87 -5.59,5.66 -2.29,5.58 -6.42,10.02 -10.28,14.52 0.62,-0.02 1.88,-0.06 2.5,-0.08 -2.64,1.84 -4.1,5.26 -7.6,5.73 -7.78,1.72 -15.83,0.73 -23.54,-0.87 8.3,0.42 17.23,2.09 24.98,-1.87 6.15,-4.3 8.54,-12.03 9.1,-19.18 -3.44,-1.37 -7.03,-2.33 -10.72,-2.74 3.46,7.18 1.77,18.02 -6.09,21.55 2.62,-2.32 5.08,-4.88 6.12,-8.33 -1.34,-0.6 -2.71,-1.12 -4.07,-1.62 1.66,0.2 3.32,0.26 5,0.17 -1.23,-1.17 -2.58,-2.19 -4.05,-3.05 -1.59,0.37 -0.94,2.4 -1.6,3.49 -0.85,3.43 -5.09,5.57 -8.27,3.87 -2.12,-1.07 -3.16,-3.34 -4.3,-5.29 -1.83,-0.06 -3.25,2.25 -4.32,3.51 1.18,-0.51 2.34,-1.08 3.54,-1.57 -0.39,1.31 -1.74,1.96 -2.59,2.94 1.67,3.08 4.78,4.6 7.64,6.34 -3.18,-0.73 -6.46,-2.24 -8.07,-5.23 -2.15,-3.3 -2.28,-7.33 -2.16,-11.13 -3.34,2.57 -6.23,5.63 -8.78,8.96 0.9,-2.04 1.91,-4.03 2.97,-6 -1.02,0.73 -3.05,2.19 -4.07,2.92 5.63,-9.61 16.3,-15.05 27.11,-16.23 5.83,-0.63 11.66,-1.78 16.97,-4.34 m -19.91,13.17 -0.61,-1.66 c -4.35,-0.65 -4.87,5.07 -3.97,8.03 0.2,2.06 2.69,4.51 4.63,2.72 1.75,-2.34 1.85,-5.6 0.9,-8.28 3,0.93 5.2,-1.39 7.06,-3.34 -2.92,-1.33 -6.47,-0.35 -8.01,2.53 m 6.31,3.85 c -0.28,1.12 1.8,2.2 2.75,1.65 0.62,-1.52 -1.69,-2.21 -2.75,-1.65 z"
       id="path2" />
    <path
       fill="#fefefb"
       opacity="1"
       d="m 56.99,41.29 c -9.53,0.18 -19.11,-3.46 -26.13,-9.9 8.65,5.32 19.11,8 29.21,6.34 7.06,-0.97 13.73,-3.76 20.83,-4.56 8.25,-1.28 17.43,0.45 23.81,6.1 2.2,1.47 0.37,4.15 -0.09,6.09 -3.65,9.08 -6.03,18.6 -8.08,28.14 5.12,-0.15 10.11,1.21 14.82,3.1 -5.3,-0.22 -10.62,0.24 -15.71,1.81 -1.2,5.8 -1.59,11.73 -1.86,17.63 -0.11,8.28 1.32,17.5 7.83,23.29 7.98,7.03 19.44,7.64 29.49,6.22 -8.94,3.23 -18.42,5.87 -28.02,4.9 -8.94,-1.21 -18.14,-6.08 -21.88,-14.66 -4.72,-9.91 -3.18,-21.21 -1.81,-31.7 -8.93,2.48 -17.89,4.94 -27.04,6.42 -5.1,8.41 -10.42,16.72 -16.47,24.49 -1.71,2.02 -3.44,4.18 -5.87,5.35 -4.41,0.9 -10.07,-0.68 -11.56,-5.41 3.17,-4.66 8.19,-7.49 11.76,-11.77 3.31,-3.8 6.36,-7.82 9.45,-11.79 -3.1,-0.8 -7.48,1.06 -9.77,-1.56 2.23,-0.12 4.47,-0.15 6.71,-0.22 -3.64,-1.02 -8.49,-0.1 -11.16,-3.1 -0.86,2.22 1.62,2.98 2.49,4.62 -3.9,-1.81 -8.28,-2.46 -12.01,-4.69 2.39,0.62 4.74,1.36 7.08,2.13 0.59,-0.48 1.18,-0.96 1.77,-1.44 C 14.26,85.51 5.77,78.16 0,69.58 v -1.4 c 0.71,0.71 1.36,1.47 1.95,2.28 10.59,11.29 27.46,13.3 42.13,12.14 3.31,0.24 4.47,-3.26 6.11,-5.44 7.43,-10.91 15.53,-21.51 25.39,-30.35 -11.77,3.6 -25.04,5.12 -36.39,-0.7 4.81,1.1 9.7,2.24 14.68,1.78 9.75,-0.29 18.35,-5.39 27.58,-7.88 -8.2,-0.71 -16.28,1.45 -24.46,1.28 m 2.78,38.54 c 7.08,-1.49 14.04,-3.5 21.17,-4.79 1.41,-8.45 3.33,-16.82 5.62,-25.08 -10.69,8.17 -19.03,18.99 -26.79,29.87 z"
       id="path3" />
    <path
       fill="#fefefb"
       opacity="1"
       d="m 121.89,42.45 c 8.36,-0.73 17.03,1.91 23.67,7.02 1.24,18.12 3.74,36.36 9.64,53.6 3.28,-16.94 5.84,-34.24 12.6,-50.24 1.1,-2.75 2.66,-5.28 4.43,-7.65 4.59,0.03 8.34,3.1 11.06,6.52 -4.55,2.53 -6.58,7.51 -8.8,11.93 -4.27,8.45 -6.66,17.68 -8.81,26.85 -1.98,9.79 -4.25,19.65 -3.9,29.71 -4.69,0.82 -9.36,-0.67 -13.64,-2.46 -3.05,-1.11 -3.57,-4.69 -4.78,-7.29 -6.19,-16.87 -10.08,-34.65 -11.22,-52.59 -6.62,14.53 -10.36,30.26 -12.34,46.06 -0.81,5.57 -1.38,11.18 -1.29,16.82 -4.55,-1.61 -10.93,-3.96 -10.97,-9.71 0.66,-8.6 3.46,-16.86 6.09,-25.02 4.38,-13.05 9.65,-25.8 16.19,-37.92 -1.28,-2.91 -4.43,-3.97 -7.24,-4.73 -0.17,-0.22 -0.52,-0.68 -0.69,-0.9 z"
       id="path4" />
    <path
       fill="#fefefb"
       opacity="1"
       d="m 238.79,62.78 c 4.93,-7.52 10.7,-14.78 18.37,-19.66 5.71,0.82 12.61,1.57 16.29,6.54 -6.34,14.44 -11.68,29.66 -13.25,45.43 4.01,-10.22 10.11,-19.43 16.01,-28.64 5.52,-8.32 10.91,-17.12 18.87,-23.36 5.3,0.04 10.74,1.89 15.09,4.9 l 0.4,0.99 c -2.78,8.92 -5.66,17.85 -7.49,27.03 -2.39,14.01 -4.32,28.3 -2.63,42.52 -5,0.94 -10.79,0.07 -14.83,-3.11 -0.82,-4.42 -0.33,-8.99 -0.35,-13.47 0.72,-11.08 1.64,-22.27 4.75,-32.98 0.97,-4.29 2.16,-8.52 3.09,-12.81 -6.66,5.51 -11.43,12.85 -15.73,20.25 -7.69,13.25 -14.2,27.42 -16.97,42.59 -0.23,1.77 -2.55,0.47 -3.64,0.58 -4.02,-0.72 -7.76,-2.46 -11.47,-4.08 -1.15,-19.92 3.43,-39.7 9.65,-58.5 -11.57,12.45 -20.04,27.46 -27.07,42.85 -1.75,-1.86 -3.46,-3.74 -5,-5.77 0.38,-1.27 0.8,-2.52 1.23,-3.77 -0.58,0.22 -1.74,0.65 -2.32,0.86 -1.71,-0.86 -4.13,-3.19 -5.15,-0.23 1.24,2.19 2.73,4.21 4.1,6.32 -0.15,-1.11 -0.45,-3.34 -0.61,-4.46 0.61,1.24 2.03,2.37 1.37,3.92 l 0.7,-0.14 c -0.05,1.75 1.45,1.96 2.78,2.26 0.26,0.4 0.78,1.21 1.04,1.61 -3.55,-0.92 -7.07,-1.94 -10.54,-3.13 0.07,-1.82 -0.16,-4.52 -2.45,-4.84 -2.44,-0.82 -3.71,1.89 -5.78,2.51 0.48,0.44 1.42,1.32 1.9,1.76 -0.94,0.84 -2,1.21 -3.14,0.48 -0.19,0.48 -0.57,1.43 -0.76,1.91 -0.63,1.69 -1.29,3.37 -1.99,5.02 -0.17,-3.54 -0.01,-7.11 0.5,-10.62 0.14,-1.85 2.18,-2 3.16,-3.18 -0.5,-1.19 -1.09,-2.34 -1.76,-3.43 -1.66,-0.37 -3.01,-1.27 -4.05,-2.69 l 0.39,2.65 c -0.86,-0.29 -2.59,-0.87 -3.45,-1.16 l 0.49,1.73 c -2.75,10.29 -5.14,20.73 -5.78,31.4 -4.73,-2.19 -8.93,-6.05 -10.84,-10.96 -0.72,-5.34 0.48,-10.7 1.77,-15.86 2.4,-9.19 5.61,-18.17 9.41,-26.87 1.95,-3.87 3.53,-8.34 6.84,-11.23 4.72,0.47 9.15,2.71 12.49,6.06 -3.1,3.8 -5.86,7.87 -8.03,12.28 -2.07,-1.08 -4.16,-2.11 -6.3,-3.03 0.68,1.63 1.39,3.23 2.07,4.86 0.41,-0.8 0.81,-1.6 1.23,-2.4 2.48,2.2 8.27,2.15 7.79,6.47 1.25,1.31 2.64,2.75 4.67,2.24 1.22,-1.53 2.43,-3.13 4.21,-4.09 -0.85,0.12 -2.55,0.36 -3.4,0.48 0.96,-0.96 1.9,-1.93 2.81,-2.94 l 1.43,2.41 -0.63,-3.2 c 0.28,-0.16 0.83,-0.49 1.11,-0.66 0.68,-1.64 1.78,-3.04 2.93,-4.38 -0.45,4.33 -0.95,8.66 -2.01,12.89 -5.52,-0.4 -0.93,5.02 1.14,6.26 l 0.37,-2.3 c 0.11,0.54 0.32,1.61 0.43,2.15 2.81,-1.28 6,-0.07 8.93,-0.92 -1.38,-0.27 -4.14,-0.79 -5.52,-1.05 4.03,-7.63 8.28,-15.15 13.13,-22.29 m -38,12.5 c 1.81,1.79 -0.18,4.07 -0.58,6.02 -3.36,0.94 -6.98,1.99 -9.52,4.49 4.94,-1.52 10.05,-6.29 15.21,-2.87 0.4,-0.44 1.2,-1.32 1.59,-1.76 -0.54,-1.27 -1.09,-2.53 -1.64,-3.79 -0.39,0.05 -1.17,0.14 -1.55,0.19 l 0.8,-2.16 -1.76,1.59 c 0.08,-0.52 0.23,-1.57 0.31,-2.09 l -1.83,-1.98 c -0.36,0.78 -0.71,1.57 -1.03,2.36 m 8.98,8.45 c -0.18,0.57 -0.54,1.72 -0.72,2.29 0.19,0.59 0.57,1.75 0.76,2.34 2.31,1.51 5.47,0.52 5.62,-2.51 -0.33,-0.56 -0.98,-1.67 -1.31,-2.22 -1.45,-0.4 -2.92,-0.28 -4.35,0.1 z"
       id="path5" />
    <path
       fill="#fefefb"
       opacity="1"
       d="m 322.04,45.76 c 14.37,0.61 28.6,-1.57 42.89,-2.47 5.89,-0.93 8.61,5.61 9.42,10.31 -9.25,-1.44 -18.69,-0.54 -27.87,0.95 -3.43,6.14 -6.29,12.63 -8.6,19.27 5.31,-0.98 11.09,-2.3 16.27,-0.01 3.16,2.11 3.1,6.36 3.03,9.74 -8.01,-1.09 -16.15,-0.41 -24.03,1.26 -3.1,7.41 -5.44,15.12 -7.8,22.79 0.95,1.29 2.64,-0.49 3.9,-0.38 -5.71,2.95 -11.96,4.69 -17.83,7.27 -0.87,-1.07 -2.96,-2.44 -1.86,-4.01 3.97,-5.91 5.75,-12.87 8.54,-19.34 0.79,-1.95 1.45,-3.96 1.98,-6 -1.99,-1.54 -5.62,-3.02 -4.55,-6.13 2.44,-1.38 5.16,-2.1 7.85,-2.8 2.19,-6.62 4.86,-13.11 6.28,-19.96 -2.64,-0.42 -5.83,-1.29 -6.94,-4.03 -1.01,-2.01 -0.8,-4.3 -0.68,-6.46 z"
       id="path6" />
    <path
       fill="#fefefb"
       opacity="1"
       d="m 371.52,69.76 c 4.89,-1.34 10.48,-2.88 15.33,-0.64 2.56,1.05 2.5,4.32 1.58,6.49 -1.86,4.42 -5.32,7.95 -8.94,10.99 -4.39,3.45 -8.83,6.94 -13.88,9.39 5.1,-6.04 11.47,-11.09 15.59,-17.91 1.23,-2.14 2.72,-5.55 0.28,-7.4 -2.85,-2.19 -6.69,-0.76 -9.96,-0.92 z"
       id="path7" />
    <path
       fill="#fefefb"
       opacity="1"
       d="m 384.88,86.54 c 3.32,-4.28 6.68,-8.81 7.12,-14.43 v 6.78 l -0.01,-2.05 c -1.33,3.91 -4.03,7.06 -7.11,9.7 z"
       id="path8" />
    <path
       fill="#fefefb"
       opacity="1"
       d="m 341.15,103.33 c 12.25,-6.02 23.71,-13.46 34.74,-21.45 -10.96,11.5 -24.96,19.38 -38.18,27.89 6.38,-1.45 12.85,-2.81 19.41,-2.84 3.65,2.42 3.25,7.77 3.26,11.68 -9.3,-1.17 -18.68,-0.65 -27.98,-0.03 -8.19,3.14 -15.84,8.34 -24.74,9.31 7.02,-2.82 14.33,-5.16 20.8,-9.14 -3.49,-0.08 -7.14,-0.82 -10.54,0.3 -10.93,4.25 -22.2,8.15 -33.97,9.11 -3.72,0.05 -7.88,0.17 -11.05,-2.07 -2.88,-3.81 0.02,-8.5 2.92,-11.3 -0.53,1.74 -1.36,3.48 -0.97,5.35 0.68,1.55 2.38,2.38 3.98,2.61 5.45,0.85 10.99,0.1 16.32,-1.08 16.24,-3.54 31.36,-10.69 46,-18.34 z"
       id="path9" />
    <path
       fill="#fefefb"
       opacity="1"
       d="m 209.7,116.8 c 0.36,-6.4 3.74,-12.1 7,-17.44 3.31,1.27 6.81,1.93 10.34,2.21 -2.89,7.18 -5.75,14.53 -6.37,22.32 -4.3,-0.43 -10.28,-2.06 -10.97,-7.09 z"
       id="path10" />
    <path
       fill="#fefefb"
       opacity="1"
       d="m 268.02,126.09 c -1.31,-3.2 1.17,-6.23 2.78,-8.81 -0.9,2.82 -3.33,5.62 -2.15,8.7 0.99,3.09 4.5,3.95 7.04,5.38 9.51,0.74 18.64,-2.08 27.75,-4.28 -5.06,2.25 -10.47,3.49 -15.8,4.92 h -11.95 c -2.92,-1.29 -6.61,-2.51 -7.67,-5.91 z"
       id="path11" />
  </g>
</svg>
