<?xml version="1.0" encoding="UTF-8" standalone="no"?>
<svg
   width="800pt"
   height="200pt"
   viewBox="0 0 800 200"
   version="1.1"
   id="svg19"
   sodipodi:docname="animation.svg"
   inkscape:version="1.4.2 (f4327f4, 2025-05-13)"
   xmlns:inkscape="http://www.inkscape.org/namespaces/inkscape"
   xmlns:sodipodi="http://sodipodi.sourceforge.net/DTD/sodipodi-0.dtd"
   xmlns="http://www.w3.org/2000/svg"
   xmlns:svg="http://www.w3.org/2000/svg">
  <defs
     id="defs19" />
  <sodipodi:namedview
     id="namedview19"
     pagecolor="#ffffff"
     bordercolor="#000000"
     borderopacity="0.25"
     inkscape:showpageshadow="2"
     inkscape:pageopacity="0.0"
     inkscape:pagecheckerboard="true"
     inkscape:deskcolor="#d1d1d1"
     inkscape:document-units="pt"
     inkscape:zoom="1.2078268"
     inkscape:cx="405.27335"
     inkscape:cy="53.815664"
     inkscape:window-width="1920"
     inkscape:window-height="1130"
     inkscape:window-x="-6"
     inkscape:window-y="-6"
     inkscape:window-maximized="1"
     inkscape:current-layer="svg19" />
  <g
     id="#fefefeff"
     transform="translate(102,21.5)">
    <path
       fill="#fefefe"
       opacity="1"
       d="m 412.52,10.1 c 2.47,-4.94 7.04,-9.18 12.74,-9.68 9.4,-1.72 18.14,6.25 19.69,15.19 3.75,-1.88 8.46,-1.54 11.4,1.65 -1.98,1.25 -3.67,-0.41 -5.53,-0.76 -1.28,-0.01 -2.51,0.38 -3.75,0.62 1.41,0.45 2.97,0.64 4.18,1.6 1.63,1 -0.23,2.87 -1.06,3.73 0.71,0.27 2.11,0.81 2.81,1.08 0,0.55 0.01,1.64 0.01,2.19 -1.06,0.69 -2.11,1.39 -3.14,2.12 2.82,-0.06 5.6,-0.58 8.42,-0.6 -1.12,5.63 -7.05,7.94 -12.2,7.89 -14.72,0.2 -29.45,0 -44.18,0.06 -4.47,-0.04 -10.1,-1.1 -11.75,-5.92 -2.05,-5.05 2.33,-10.12 7.41,-10.36 0.69,-4.26 3.1,-8.93 7.73,-9.8 2.44,-0.83 4.94,0.11 7.22,0.99 z"
       id="path1" />
    <path
       fill="#fefefe"
       opacity="1"
       d="m 457.5,9.59 c 2.66,0.42 4.9,1.83 6.73,3.79 -1.77,0.61 -3.54,1.21 -5.31,1.79 -1.08,-1.71 -2.27,-3.36 -3.72,-4.77 0.57,-0.2 1.72,-0.6 2.3,-0.81 z"
       id="path2" />
    <path
       fill="#fefefe"
       opacity="1"
       d="m 459.53,15.81 c 6.76,-2.5 15.21,-3.22 21.09,1.71 -6.05,7.74 -16.59,8.9 -25.72,8.06 -0.5,-1.81 -1.11,-3.58 -1.68,-5.36 2.21,-1.29 4.58,-2.45 6.31,-4.41 m 11.35,0.5 c -0.43,0.73 -0.86,1.47 -1.28,2.21 0.3,0.44 0.91,1.33 1.21,1.78 0.82,-0.03 1.65,-0.05 2.49,-0.08 0.49,-2.01 0.02,-4.03 -2.42,-3.91 z"
       id="path3" />
    <path
       fill="#fefefe"
       opacity="1"
       d="m 315.46,26 c 4.5,-1.42 9.28,-2.71 14.01,-1.65 5.59,1.26 9.78,5.93 11.96,11.04 -2.4,-1.95 -4.46,-4.35 -7.26,-5.76 C 328.5,26.36 321.78,26.51 315.46,26 Z"
       id="path4" />
    <path
       fill="#fefefe"
       opacity="1"
       d="m 461.11,26.75 c 1.85,-0.07 3.7,-0.28 5.55,-0.57 -0.69,1.48 -1.38,2.96 -2.15,4.39 -1.52,0.73 -3.02,1.48 -4.51,2.25 0.5,-2 0.92,-4.02 1.11,-6.07 z"
       id="path5" />
    <path
       fill="#fefefe"
       opacity="1"
       d="m 26,34.93 c 7.22,-5.33 16.73,-8.06 25.58,-5.7 3.28,0.98 8.17,0.27 9.88,3.8 -0.11,5.34 -1.07,10.65 -0.98,16.01 0.02,14.12 2.61,28.15 6.81,41.6 2.62,9.63 7.04,18.87 13.57,26.46 6.49,7.5 15.97,11.79 25.7,13.02 -4.76,0.94 -9.66,-0.01 -14.28,-1.21 -7.99,-2.09 -13.99,-8.2 -19.34,-14.14 2.44,5.81 5.93,11.5 11.52,14.75 9.05,6.16 20.59,6.31 31.05,4.89 6.91,-0.73 13.16,-4.04 19.9,-5.51 -10.02,6.69 -21.51,11.37 -33.46,13.1 H 90.79 c -20.44,-2.74 -37.42,-19.57 -41.78,-39.5 -7.99,0.27 -16.07,-0.63 -24.01,0.57 -1.46,4.67 -3.33,9.2 -4.92,13.83 -0.41,0.4 -1.25,1.22 -1.67,1.63 C 12.25,118.44 6.02,118.1 0,116.69 V 115.7 C 8.6,91.4 18.62,67.5 30.79,44.77 39.37,43.58 48.41,42.16 56.98,44.11 56.56,41.52 56.53,38.5 54.29,36.71 50.96,33.97 46.34,33.39 42.17,33.65 34.18,34.51 26.65,38.27 20.75,43.65 15.18,48.9 12.35,56.18 9.86,63.24 10.55,51.99 16.89,41.43 26,34.93 m 3.02,53.64 c 5.94,0.22 11.88,0.11 17.82,0.07 -2.32,-9.69 -4.13,-19.5 -5.36,-29.4 -4.65,9.56 -8.14,19.63 -12.46,29.33 z"
       id="path6" />
    <path
       fill="#fefefe"
       opacity="1"
       d="m 79.13,35.26 c 5.04,-4.69 12.68,-7.36 19.36,-4.92 4.24,1.3 7.22,4.78 9.7,8.26 -4.59,-2.44 -9.59,-4.53 -14.88,-4.25 -6.43,0.49 -13.21,3.63 -16.13,9.68 -2.59,4.45 -2.45,9.74 -1.61,14.65 -4.11,-7.43 -2.78,-17.63 3.56,-23.42 z"
       id="path7" />
    <path
       fill="#fefefe"
       opacity="1"
       d="m 302.27,38.72 c 4.29,-5.78 11.75,-8.08 18.71,-7.79 7.54,-0.34 14.35,4.71 17.69,11.23 -3.98,-3.05 -8.58,-5.2 -13.45,-6.35 -7.77,-1.7 -15.65,0.29 -22.95,2.91 z"
       id="path8" />
    <path
       fill="#fefefe"
       opacity="1"
       d="m 161.76,45.26 c 5.96,-1.8 13.14,-2.56 18.72,0.63 -0.2,24.09 0.42,48.2 -0.6,72.26 -3.86,1.5 -7.96,0.38 -11.95,0.33 -2.21,-0.02 -4.41,-0.4 -6.52,-1.03 -0.44,-17.47 0.01,-35 -0.15,-52.49 0.18,-6.56 -0.42,-13.17 0.5,-19.7 z"
       id="path9" />
    <path
       fill="#fefefe"
       opacity="1"
       d="m 318.18,44.16 c 4.38,-0.56 8.97,-0.72 13.19,0.78 9.26,23.56 17.62,47.55 25.59,71.6 -2.77,1.4 -5.92,1.49 -8.93,1.88 -3.69,0.26 -7.57,1.03 -11.1,-0.4 -2.3,-4.74 -3.84,-9.82 -5.38,-14.85 -8.05,-0.57 -16.13,-0.07 -24.19,-0.25 -1.94,4.92 -3.12,10.14 -5.35,14.95 -0.72,1.68 -2.77,0.87 -4.14,0.89 -4.61,-0.43 -9.22,-0.86 -13.8,-1.52 -0.34,-0.29 -1.02,-0.86 -1.36,-1.14 6.25,-20.93 13.71,-41.48 21.24,-61.97 1.15,-3.13 2.13,-6.36 3.85,-9.25 3.42,-0.75 6.92,-0.43 10.38,-0.72 m -7.94,44.41 c 6.17,0.2 12.34,-0.01 18.52,0.14 -3.45,-9.57 -6.04,-19.42 -8.95,-29.16 -3.71,9.49 -5.94,19.49 -9.57,29.02 z"
       id="path10" />
    <path
       fill="#fefefe"
       opacity="1"
       d="m 351.36,45.46 c 18.87,-2.33 37.99,-0.2 56.92,-1.7 1.45,5.2 2.02,10.88 -0.09,16 -6.3,0.03 -12.59,0.03 -18.89,0.03 -0.01,17.76 -0.03,35.51 -0.05,53.27 0.08,1.62 -0.31,3.2 -0.72,4.76 -4.92,1.12 -10.08,0.86 -15.03,0.05 -1.27,-0.29 -3.68,-0.49 -2.95,-2.52 0.32,-7.14 -0.6,-14.22 -0.48,-21.35 -0.04,-11.44 -0.01,-22.88 0.06,-34.32 -5.75,1.03 -11.61,0.51 -17.42,0.63 -0.34,-0.3 -1.02,-0.92 -1.36,-1.23 0.04,-4.56 -1.2,-9.11 0.01,-13.62 z"
       id="path11" />
    <path
       fill="#fefefe"
       opacity="1"
       d="m 531.45,44.91 c 5.53,-1.27 11.47,-1.76 16.96,-0.03 10.61,14.52 19.87,30.02 29.34,45.31 0.45,-14.83 -0.72,-29.62 -0.44,-44.46 4.44,-1.77 9.31,-1.51 14,-1.29 1.74,0.06 3.27,0.89 4.68,1.87 L 596,44.97 v 6.43 c -1.31,12.93 -0.08,25.94 -0.75,38.9 -0.87,9.14 0.35,18.38 -1.01,27.48 -5.26,1 -10.87,1.23 -16.11,0.09 -2.93,-2.5 -4.48,-6.23 -6.75,-9.29 -7.94,-11.47 -14.91,-23.6 -23,-34.97 0.84,7.68 0.08,15.42 0.89,23.1 0.26,6.85 0.12,13.71 0.11,20.57 -5.93,1.11 -12.17,1.13 -18.1,0.03 -0.33,-2.08 -0.59,-4.16 -0.58,-6.27 -0.06,-20.02 0.01,-40.04 0,-60.06 -0.04,-2.05 0.33,-4.07 0.75,-6.07 z"
       id="path12" />
    <path
       fill="#fefefe"
       opacity="1"
       d="m 84.13,45.86 c 1.63,-1.22 3.61,-1.65 5.55,-2.07 3.39,-0.11 6.76,0.22 10.12,0.65 1.37,-0.11 2.14,1.04 2.82,2.04 9.6,14.19 19.08,28.46 28.08,43.04 -1,-14.56 -0.36,-29.18 -0.57,-43.77 5.97,-1.74 12.8,-2.38 18.66,0.01 0.01,4.01 0.1,8.03 -0.4,12.02 -0.16,10.78 0.02,21.56 -0.13,32.33 -0.96,8.83 -0.16,17.74 -0.59,26.59 -1.22,1.77 -3.7,1.82 -5.64,1.82 -3.6,-0.1 -7.23,0.24 -10.81,-0.22 -0.31,-0.32 -0.94,-0.95 -1.26,-1.27 -10.01,-14.18 -18.74,-29.25 -28.67,-43.47 0.48,6.83 0.39,13.69 0.55,20.54 0.89,7.72 0.21,15.54 0.44,23.3 -5.81,1.86 -11.82,0.29 -17.76,0.38 -1.31,-2.39 -0.92,-5.14 -0.97,-7.75 0,-18.67 -0.05,-37.35 0.03,-56.03 -0.04,-2.73 0.29,-5.43 0.55,-8.14 z"
       id="path13" />
    <path
       fill="#fefefe"
       opacity="1"
       d="m 200.53,46.08 c 0.49,-1.81 2.7,-1.81 4.21,-2.18 3.48,-0.27 6.97,-0.06 10.46,-0.11 1.33,0.42 2.65,0.83 3.97,1.28 5.16,15.86 10.25,31.76 14.67,47.84 4.25,-16.01 8.93,-31.91 14.22,-47.6 3.13,-1.43 6.61,-0.93 9.95,-1 3.14,0.1 6.4,-0.38 9.42,0.71 4.56,19.95 6.79,40.36 9.83,60.59 0.47,3.81 1.28,7.6 1.26,11.47 -5.87,1.48 -12.02,2.25 -18.07,1.75 -2.43,-15.36 -2.67,-30.99 -5.32,-46.3 -3.41,8.24 -5.11,17.06 -7.71,25.56 -1.89,6.62 -3.96,13.18 -5.94,19.76 -5.21,0.23 -10.42,0.09 -15.63,0.08 -5.13,-14.83 -7.87,-30.45 -13.54,-45.08 -1.75,15.24 -3.88,30.45 -6.1,45.63 -5.98,0.11 -12.19,0.15 -17.83,-2.05 1.82,-17.22 5.32,-34.22 8.25,-51.28 1.22,-6.37 2.18,-12.8 3.9,-19.07 z"
       id="path14" />
    <path
       fill="#fefefe"
       opacity="1"
       d="m 417.76,46.14 c 0.67,-1.52 2.54,-1.75 4,-1.8 4.06,-0.02 8.13,-0.13 12.19,0.07 1.91,0.01 3.13,1.78 2.9,3.59 0.03,15.03 0.07,30.05 0,45.07 -0.84,8.02 -0.17,16.1 -0.55,24.15 -1.07,1.63 -3.28,1.6 -5,1.66 -4.69,-0.66 -9.65,0.07 -14.12,-1.76 0.03,-17.68 0.01,-35.36 0.11,-53.04 0.75,-5.95 0.17,-11.96 0.47,-17.94 z"
       id="path15" />
    <path
       fill="#fefefe"
       opacity="1"
       d="m 472.46,44.61 c 10.84,-2.68 22.88,-1.61 32.47,4.36 8.04,5.26 13.55,14.07 15.16,23.51 1.76,8.72 0.86,17.88 -2.16,26.22 -4.38,11.37 -15.73,19.46 -27.82,20.38 -11.04,1.24 -23.36,-0.64 -31.8,-8.42 -15.35,-13.87 -16.37,-39.98 -3.31,-55.7 4.59,-5.13 10.75,-8.78 17.46,-10.35 m -1.43,19.33 c -3.76,4.48 -5.45,10.37 -5.72,16.13 0.26,6.7 1.56,14.02 6.55,18.91 5.78,5.38 14.95,5.14 21.57,1.47 4.54,-2.75 6.35,-8.15 7.74,-12.99 1.51,-7.4 0.18,-15.41 -3.96,-21.75 -2.83,-4.47 -8.27,-6.26 -13.24,-7 -4.71,0.46 -9.57,1.71 -12.94,5.23 z"
       id="path16" />
    <path
       fill="#fefefe"
       opacity="1"
       d="m 483.35,69.83 c 0.35,2.89 1.08,5.84 2.75,8.27 2.06,2.57 5.63,2.66 8.53,3.68 -2.75,0.76 -5.63,1.33 -8.02,2.96 -2.4,2.2 -2.75,5.59 -3.34,8.61 -0.74,-2.87 -1.08,-6.11 -3.1,-8.42 -2.35,-1.91 -5.43,-2.4 -8.28,-3.08 3.31,-0.99 7.25,-1.49 9.35,-4.59 1.18,-2.31 1.62,-4.9 2.11,-7.43 z"
       id="path17" />
    <path
       fill="#fefefe"
       opacity="1"
       d="m 324.29,112.68 c 2.37,2.98 4.18,6.54 7.46,8.68 6.86,5.23 16.62,7.84 24.7,3.93 4.8,-2.59 6.23,-8.12 7.53,-12.98 0.61,5.6 -0.34,12.1 -5.02,15.8 -4.27,3.28 -10.12,4.35 -15.32,3.1 -9.2,-2 -16.68,-9.63 -19.35,-18.53 z"
       id="path18" />
    <path
       fill="#fefefe"
       opacity="1"
       d="m 329.01,128.97 c 8.26,6.34 19.6,7.87 29.37,4.43 -5.8,4.06 -13.52,5.86 -20.23,3.02 -3.54,-1.7 -7.11,-3.98 -9.14,-7.45 z"
       id="path19" />
  </g>
</svg>
