<?xml version="1.0" encoding="UTF-8" standalone="no"?>
<svg
   width="800pt"
   height="200pt"
   viewBox="0 0 800 200"
   version="1.1"
   id="svg9"
   sodipodi:docname="comedy.svg"
   inkscape:version="1.4.2 (f4327f4, 2025-05-13)"
   xmlns:inkscape="http://www.inkscape.org/namespaces/inkscape"
   xmlns:sodipodi="http://sodipodi.sourceforge.net/DTD/sodipodi-0.dtd"
   xmlns="http://www.w3.org/2000/svg"
   xmlns:svg="http://www.w3.org/2000/svg">
  <defs
     id="defs9" />
  <sodipodi:namedview
     id="namedview9"
     pagecolor="#ffffff"
     bordercolor="#000000"
     borderopacity="0.25"
     inkscape:showpageshadow="2"
     inkscape:pageopacity="0.0"
     inkscape:pagecheckerboard="true"
     inkscape:deskcolor="#d1d1d1"
     inkscape:document-units="pt"
     inkscape:zoom="1.2078268"
     inkscape:cx="446.67001"
     inkscape:cy="150.68386"
     inkscape:window-width="1920"
     inkscape:window-height="1130"
     inkscape:window-x="-6"
     inkscape:window-y="-6"
     inkscape:window-maximized="1"
     inkscape:current-layer="svg9" />
  <g
     id="#fefefeff"
     transform="translate(173,34)">
    <path
       fill="#fefefe"
       opacity="1"
       d="m 155.37,0 h 1.09 c 0.27,1.15 0.89,2.11 1.86,2.87 -0.87,0.93 -1.72,1.88 -2.56,2.84 -1.01,-1.04 -2.03,-2.07 -3.09,-3.05 0.96,-0.82 1.98,-1.6 2.7,-2.66 z"
       id="path1" />
    <path
       fill="#fefefe"
       opacity="1"
       d="m 133.63,3.83 c 0.11,-0.51 0.34,-1.52 0.46,-2.03 0.76,1.79 1.95,3.27 3.83,3.94 -1.62,0.48 -2.71,1.76 -3.67,3.07 -0.57,-1.58 -1.85,-2.55 -3.34,-3.2 0.91,-0.58 1.82,-1.18 2.72,-1.78 z"
       id="path2" />
    <path
       fill="#fefefe"
       opacity="1"
       d="m 146.23,11.33 c 1.76,3.81 4.76,6.63 8.82,7.85 -3.98,1.11 -7.01,4.1 -8.42,7.93 -1.59,-3.42 -3.8,-6.93 -7.86,-7.56 3.26,-1.95 6.01,-4.64 7.46,-8.22 z"
       id="path3" />
    <path
       fill="#fefefe"
       opacity="1"
       d="m 257.81,22.88 c 1.82,-1.77 4.54,-2.61 7.04,-2.27 13.09,1.29 26.24,1.97 39.27,3.79 1.94,0.19 4.1,1.42 4.15,3.61 0.36,3.7 -0.48,7.36 -1.03,11 -0.77,0.64 -1.53,1.27 -2.29,1.91 -10.09,0.21 -20.09,-1.37 -30.11,-2.28 -0.55,4.06 -1.06,8.12 -1.54,12.18 8.3,0.69 16.62,1.43 24.87,2.51 2.89,0.16 4.22,3.14 3.59,5.71 -0.69,3.64 0.19,8.6 -3.7,10.64 -8.79,-0.21 -17.54,-1.36 -26.29,-2.27 -0.57,4.62 -1.15,9.24 -1.64,13.87 9.9,0.95 19.83,1.7 29.72,2.64 2.6,-0.09 4.24,2.54 3.95,4.91 -0.31,3.15 -0.51,6.36 -1.38,9.42 -1.01,1.99 -3.41,2.66 -5.5,2.26 -13.93,-1.47 -27.91,-2.3 -41.82,-3.98 -3.55,-0.44 -5.85,-4.11 -5.22,-7.55 1.49,-19.51 3.78,-38.95 5.9,-58.41 0.29,-2.62 0.13,-5.59 2.03,-7.69 z"
       id="path4" />
    <path
       fill="#fefefe"
       opacity="1"
       d="m 31.64,26.68 c 8.34,-1.27 17.1,-0.66 24.91,2.69 3.14,1.48 6.17,3.59 7.94,6.65 0.45,3.59 -2.46,6.39 -3.77,9.5 -1.2,1.99 -2.29,5.65 -5.36,4.49 -6.92,-7.2 -19.42,-8.74 -27.34,-2.27 -8.07,7.3 -9.51,20.3 -4.72,29.82 2.82,5.94 9.18,9.66 15.65,10 5.62,0.39 11.08,-1.96 15.47,-5.33 1.09,-0.87 2.41,-1.37 3.66,-1.95 3.26,4.18 7.56,8.91 6.83,14.6 -1.83,3.82 -6.07,5.75 -9.73,7.47 -10.69,4.17 -23.07,3.87 -33.59,-0.68 C 13.34,97.7 6.46,90.67 3.08,82.11 -0.87,72.58 -0.71,61.73 2.35,51.98 6.38,38.99 18.15,28.67 31.64,26.68 Z"
       id="path5" />
    <path
       fill="#fefefe"
       opacity="1"
       d="m 216.12,30.02 c 2.4,-3.58 7.34,-3.33 11.17,-3.59 2.62,-0.17 6.25,0 7.23,2.97 0.98,4.78 1.11,9.69 1.67,14.53 1.47,18.05 3.45,36.07 4.56,54.15 0.28,1.95 -0.58,4.34 -2.81,4.58 -5.05,0.72 -10.69,2.08 -15.48,-0.29 -1.37,-4.35 -1.13,-8.97 -1.57,-13.46 -0.39,-9.17 -1.22,-18.31 -1.68,-27.48 -4.39,8.92 -7.74,18.37 -12.72,27 -2.02,3.32 -6.37,2.51 -9.64,2.57 -2.19,0.16 -4.14,-1.28 -5.31,-3.02 -5.25,-7.66 -9.47,-15.99 -14.88,-23.55 0.42,12.21 1.09,24.41 1.71,36.61 -0.02,2.09 0.57,5.52 -2.26,6 -4.17,0.94 -8.52,1.05 -12.78,1 -2.18,0.29 -3.8,-1.74 -4.04,-3.71 -0.75,-22.12 -1.71,-44.23 -1.86,-66.37 -0.4,-2.97 1.56,-6.15 4.66,-6.5 4.7,-0.56 10.49,-1.75 14.22,2 7.46,11.88 14.84,23.83 22.31,35.71 5.67,-13.12 11.8,-26.05 17.5,-39.15 z"
       id="path6" />
    <path
       fill="#fefefe"
       opacity="1"
       d="m 80.47,43.49 c 11.89,-12.37 32.06,-14.52 47.11,-7.01 9.09,4.65 15.85,13.55 17.96,23.53 2.72,10.72 1.34,22.4 -3.58,32.27 -5.61,10.71 -16.94,17.5 -28.83,18.72 H 103.7 C 94.7,109.86 85.89,105.98 79.76,99.16 72.98,91.94 69.91,81.78 70.19,71.99 69.99,61.73 73.02,50.87 80.47,43.49 m 21.9,7.06 C 91.56,54.9 88.39,69.39 92.5,79.41 c 4.49,10.72 19.85,12.13 28.26,5.36 4.39,-3.56 5.77,-9.5 5.73,-14.9 -0.41,-5.55 -1.75,-11.47 -5.87,-15.5 -4.59,-4.83 -12.13,-6.12 -18.25,-3.82 m 25.65,29.46 c 3.23,-0.25 6.26,0.93 8.15,3.62 0.11,-2.21 -0.45,-5.13 -3.04,-5.59 -1.98,-0.82 -3.64,0.91 -5.11,1.97 m -44.9,1.19 c -2.22,1.17 -1.64,3.91 -1.34,5.94 0.6,-0.88 1.81,-2.63 2.41,-3.51 2.32,9.49 10.1,17.8 20.01,19.16 13.43,2.7 27.53,-7.8 28.91,-21.42 -2.5,3.35 -4.75,6.99 -8.1,9.57 -8.79,7.49 -22.77,8.16 -32.08,1.25 -3.74,-2.34 -6,-6.2 -9.19,-9.12 1.73,-0.34 3.46,-0.69 5.19,-1.03 -1.77,-0.93 -3.92,-2.39 -5.81,-0.84 z"
       id="path7" />
    <path
       fill="#fefefe"
       opacity="1"
       d="m 322.39,32.41 c 1.34,-0.9 3,-1.06 4.57,-1.07 8.41,-0.09 16.84,0.17 25.21,1.09 11.48,1.37 23.15,7.17 28.77,17.7 5.18,10.49 5.11,22.89 2.11,34 -2.86,10.17 -10.81,18.78 -20.9,22.07 -11.21,4.21 -23.34,2.29 -34.95,1.44 -3.38,-0.32 -7.43,-0.18 -9.83,-3.03 -2.85,-2.71 -1.99,-7.04 -1.77,-10.55 0.51,-13.95 1.49,-27.89 2.04,-41.84 0.53,-5.04 0.02,-10.17 1.06,-15.17 0.58,-1.94 1.92,-3.65 3.69,-4.64 m 15.22,16.28 c -0.96,14.06 -1.9,28.13 -2.34,42.22 7.27,1.03 15.61,1.97 21.84,-2.78 5.1,-3.65 7.36,-9.92 7.76,-15.97 0.45,-7.11 -1.29,-15.33 -7.5,-19.63 -5.67,-4.17 -13.09,-3.8 -19.76,-3.84 z"
       id="path8" />
    <path
       fill="#fefefe"
       opacity="1"
       d="m 386.4,33.33 c 4.8,-0.93 9.74,-0.7 14.61,-0.58 1.57,0.02 2.52,1.56 3.43,2.64 5.12,8.65 9.6,17.68 14.88,26.24 4.6,-8.2 9.02,-16.5 13.68,-24.67 1.23,-2.17 3.22,-4.17 5.86,-4.27 3.8,-0.08 7.62,-0.11 11.42,0.02 2.26,0.19 3.33,2.2 3.71,4.19 -1.24,2.71 -2.76,5.27 -4.28,7.83 -6.54,10.84 -12.61,21.96 -19.4,32.65 -0.63,1.07 -1.33,2.2 -1.17,3.52 -0.06,7.72 0.04,15.45 -0.02,23.17 0.14,2.04 -1,4.41 -3.21,4.69 -3.93,0.84 -7.99,0.38 -11.97,0.45 -1.79,0.17 -3.16,-1.06 -4.4,-2.14 -1.05,-9.38 0.23,-18.93 -0.69,-28.28 -8.12,-13.68 -16.62,-27.16 -24.59,-40.93 -1.27,-1.65 0.48,-4 2.14,-4.53 z"
       id="path9" />
  </g>
</svg>
