<?xml version="1.0" encoding="UTF-8" standalone="no"?>
<svg
   width="800pt"
   height="200pt"
   viewBox="0 0 800 200"
   version="1.1"
   id="svg5"
   sodipodi:docname="crime.svg"
   inkscape:version="1.4.2 (f4327f4, 2025-05-13)"
   xmlns:inkscape="http://www.inkscape.org/namespaces/inkscape"
   xmlns:sodipodi="http://sodipodi.sourceforge.net/DTD/sodipodi-0.dtd"
   xmlns="http://www.w3.org/2000/svg"
   xmlns:svg="http://www.w3.org/2000/svg">
  <defs
     id="defs5" />
  <sodipodi:namedview
     id="namedview5"
     pagecolor="#ffffff"
     bordercolor="#000000"
     borderopacity="0.25"
     inkscape:showpageshadow="2"
     inkscape:pageopacity="0.0"
     inkscape:pagecheckerboard="true"
     inkscape:deskcolor="#d1d1d1"
     inkscape:document-units="pt"
     inkscape:zoom="1.2078268"
     inkscape:cx="470.68008"
     inkscape:cy="136.60899"
     inkscape:window-width="1920"
     inkscape:window-height="1130"
     inkscape:window-x="-6"
     inkscape:window-y="-6"
     inkscape:window-maximized="1"
     inkscape:current-layer="svg5" />
  <g
     id="#fefefdff"
     transform="translate(218,47.5)">
    <path
       fill="#fefefd"
       opacity="1"
       d="m 75.32,0 h 5.1 c 1.81,0.48 4.11,0.43 5.31,2.12 1.2,1.46 2.39,2.97 4,4.01 3,2.01 4.89,5.15 6.62,8.23 11.57,0.67 23.95,-1.92 34.78,3.35 10.01,4.58 12.57,18.03 8.34,27.41 -2.09,5.13 -7.52,7.86 -12.75,8.54 3.83,1.27 7.66,3.24 9.79,6.83 2.5,4.34 2.45,9.52 3.96,14.19 1.1,2.55 4.26,2.65 6.59,3.29 0.01,3.92 0.04,7.84 -0.11,11.76 -4.96,-0.01 -9.93,0.04 -14.89,0.03 -3.46,-0.03 -7.49,-1.59 -8.41,-5.28 -1.58,-5.67 -2.71,-11.46 -4.28,-17.13 -0.82,-2.63 -2.12,-5.53 -4.82,-6.67 -3.76,-1.42 -7.84,-1.37 -11.79,-1.41 0.01,5.22 -0.32,10.47 0.12,15.68 1.24,2.33 4.24,2.27 6.45,3.01 0.01,3.95 0.04,7.91 -0.06,11.86 -10.2,-0.66 -20.43,-0.18 -30.64,-0.34 0.02,-3.81 -0.08,-7.63 -0.31,-11.43 1.99,-0.55 4.08,-0.91 5.89,-1.95 0.87,-1.18 0.6,-2.74 0.7,-4.11 -0.06,-13.35 0.01,-26.7 -0.01,-40.05 -0.03,-1.39 -0.03,-2.82 -0.54,-4.14 -1.52,-1.3 -3.57,-1.62 -5.41,-2.18 -0.01,-3.74 0.01,-7.48 0.11,-11.21 2.03,-0.01 4.06,-0.02 6.1,-0.04 C 84.08,12.91 83.01,11.45 81.93,10 79.91,9.74 77.89,9.44 75.89,9.07 c -2.95,3.2 -7.02,4.84 -11.27,5.44 2.86,2.75 7.95,5.35 6.89,10.05 -1.46,3.91 -5.56,7.24 -3.4,11.77 -1.77,1.67 -3.33,4.01 -5.9,4.45 -4.08,-1.6 -6.35,-5.64 -9.67,-8.28 -5.91,-4.99 -14.33,-6.88 -21.78,-4.66 -8.02,2.46 -14.47,9.33 -16.63,17.41 -1.91,6.55 -0.54,13.86 3.09,19.56 2.18,3.37 6.99,5.58 6.49,10.2 -0.15,5.3 -6.86,8.72 -11.1,5.35 C 5.43,74.17 1.15,64.91 0,55.57 v -7.26 c 1.26,-11.8 7.95,-23.01 18.14,-29.2 7.53,-4.75 16.84,-6.36 25.59,-4.9 2.79,-2.29 4.51,-6.4 8.21,-7.24 3.4,1.26 6.18,3.72 9.33,5.46 C 62,9.96 61.79,6.79 64.22,5.22 67.59,2.85 71.77,2.06 75.32,0 m -0.08,2.63 c 0.78,1.22 1.3,2.55 1.57,3.97 1.71,0.39 3.44,0.72 5.18,0.99 C 82.84,6.57 83.7,5.56 84.56,4.55 82.11,2.11 78.41,2.41 75.24,2.63 M 64.27,8.17 c 1.11,0.97 2.14,2.03 2.97,3.26 C 69.28,10.72 71.17,9.68 72.98,8.5 72.26,7.29 72.3,5.33 71.19,4.48 68.72,5.38 66.36,6.57 64.27,8.17 m 20.52,2.25 c 1.02,1.3 1.99,2.66 3.23,3.76 1.79,0.35 3.63,0.18 5.45,0.16 -1.1,-2.63 -3.1,-4.68 -5.33,-6.38 -1.13,0.8 -2.22,1.67 -3.35,2.46 M 55.08,21.34 c -0.57,1.3 -1.11,2.61 -1.57,3.95 2.65,0.26 4.15,-2.32 6.22,-3.48 2.74,-1.49 -0.29,-5.74 -2.74,-4.41 -1.92,0.3 -1.79,2.46 -1.91,3.94 m 48.3,6.05 c -1.46,6.52 -0.34,13.34 -0.68,19.99 5.09,-0.24 10.49,0.83 15.3,-1.35 7.1,-3.01 7.53,-15.6 -0.11,-18.21 -4.6,-1.65 -9.8,-1.48 -14.51,-0.43 M 14.61,71.76 c -1.35,0.84 -1.69,3.04 -0.49,4.14 1.3,1.67 4.5,1.23 5,-0.95 1.04,-2.41 -2.55,-4.89 -4.51,-3.19 z"
       id="path1" />
    <path
       fill="#fefefd"
       opacity="1"
       d="m 152.25,25.68 c 0.14,-3.65 0.05,-7.29 0.09,-10.94 10.11,0 20.21,0 30.32,-0.01 -0.01,3.78 0.27,7.55 0.14,11.33 -2.11,0.17 -4.1,0.84 -6.03,1.66 -0.82,15.38 -0.17,30.81 -0.35,46.21 -0.2,3.36 3.99,3.23 6.27,3.94 0.38,3.84 0.25,7.71 0.23,11.56 -10.2,0.12 -20.4,0.04 -30.59,0.06 -0.03,-3.87 -0.03,-7.74 -0.01,-11.61 2.2,-0.85 6.43,-0.74 6.3,-3.99 0.07,-14.63 0.09,-29.26 -0.03,-43.88 0.17,-3.32 -4,-3.62 -6.34,-4.33 z"
       id="path2" />
    <path
       fill="#fefefd"
       opacity="1"
       d="m 188.99,14.74 c 10.64,-0.03 21.26,0.51 31.91,0.42 4.73,15.59 9.64,31.14 14.2,46.78 2.9,-10.65 5.67,-21.35 8.86,-31.93 1.58,-5.11 2.42,-10.46 4.73,-15.33 10.12,0.94 20.29,0.17 30.42,0.07 0,3.75 0.01,7.51 0,11.26 -2.31,0.35 -6.17,0.63 -5.92,3.88 -0.09,14.03 0.03,28.07 -0.05,42.1 0.07,1.39 -0.2,2.94 0.7,4.13 1.62,0.9 3.49,1.18 5.23,1.84 0.35,3.81 -0.14,7.68 0.04,11.52 -9.52,0 -19.03,0.05 -28.55,-0.02 -0.14,-3.85 -0.08,-7.7 -0.07,-11.54 1.76,-0.64 3.79,-0.88 5.26,-2.15 0.68,-4.89 0.16,-9.88 0.35,-14.82 -0.2,-9.7 0.63,-19.39 0.22,-29.09 -5.38,18.12 -10.13,36.43 -15.64,54.51 -0.44,1.17 -0.71,2.54 -1.76,3.33 -4.21,0.14 -8.46,0.29 -12.65,-0.12 -0.94,-1.72 -1.48,-3.61 -2.03,-5.47 -4.99,-17.24 -9.84,-34.52 -15.06,-51.69 -0.67,13.53 -0.1,27.11 -0.29,40.66 -0.64,3.66 3.73,4.17 6.29,4.82 0.01,3.86 0,7.72 0,11.58 -8.81,-0.01 -17.63,0.05 -26.45,-0.02 -0.05,-3.86 -0.02,-7.71 -0.06,-11.57 2.08,-0.7 5.08,-0.67 6.16,-2.88 0.25,-14.01 0,-28.03 0.12,-42.05 -0.07,-1.9 0.22,-4.16 -1.24,-5.65 -1.39,-0.94 -3.15,-0.87 -4.72,-1.18 0,-3.8 0,-7.59 0,-11.39 z"
       id="path3" />
    <path
       fill="#fefefd"
       opacity="1"
       d="m 284.83,14.72 c 11.74,-0.77 23.5,0.6 35.25,-0.21 7.29,0.33 14.59,0.08 21.89,0.29 0.04,7.35 0.08,14.69 0.01,22.04 -4.25,0.02 -8.49,0.02 -12.74,-0.02 -0.67,-3.08 0.46,-7.31 -2.48,-9.39 -5.82,-0.86 -11.83,-0.99 -17.6,0.31 -0.1,5.49 0.14,11 -0.35,16.48 6.98,-0.05 13.94,0.16 20.91,0.45 0.08,4.18 0.1,8.38 -0.53,12.53 -6.7,0.2 -13.37,-0.56 -20.07,-0.34 0.01,6.51 -0.02,13.03 0.04,19.55 5.97,0.81 12.34,1.69 18.17,-0.25 3.05,-2.36 1.74,-7 2.46,-10.38 4.08,-0.06 8.32,-0.64 12.25,0.84 2.11,-1.95 3.38,-4.51 4.14,-7.25 -2.05,-0.88 -6.94,-0.27 -6.62,-3.6 0.61,-3.08 1.81,-6.09 3.3,-8.86 1.17,-0.53 2.49,-0.42 3.75,-0.52 -0.3,2.51 -1.12,4.92 -1.94,7.3 1.71,0.01 3.43,0.03 5.15,0.05 0.1,-1.58 0.3,-3.15 0.6,-4.7 1.24,-2.54 5.31,-2.83 6.9,-0.5 1.54,1.95 0.17,4.39 -0.33,6.46 3.12,1.85 5.02,4.99 7.01,7.9 v 10.84 l -0.01,-1.67 c -0.65,1.91 -3.34,3.78 -5.03,1.97 -2.06,-1.96 0.14,-4.86 0.43,-7.12 0.82,-2.26 -1.63,-3.68 -2.7,-5.27 -1.42,2.67 -2.81,5.41 -3.43,8.38 -0.43,3.27 0.5,6.58 -0.06,9.83 -0.93,3.13 -3.44,5.41 -5.55,7.77 0.11,1.78 0.13,3.58 0.09,5.37 h -2.79 c -1.06,-1.42 -1.95,-2.95 -2.89,-4.44 -1.97,0.56 -3.98,1.01 -6.03,0.94 -17.09,-0.05 -34.17,0.03 -51.25,-0.05 -0.04,-3.83 -0.03,-7.67 -0.03,-11.51 2.02,-0.6 4.24,-0.87 5.99,-2.15 0.71,-13.59 0.08,-27.23 0.35,-40.84 -0.15,-2.45 0.4,-5.13 -0.68,-7.4 -1.67,-1.08 -3.71,-1.28 -5.57,-1.84 -0.12,-3.67 -0.12,-7.33 -0.01,-10.99 m 55.78,40.29 c -0.78,3.53 4.42,2.45 6.5,3.38 -0.32,4.18 -2.6,7.79 -6.15,9.97 -0.02,1.53 -0.03,3.06 -0.03,4.6 1.95,-0.97 3.97,-1.81 6.06,-2.46 0.69,2.85 1.15,5.8 0.86,8.73 -1.42,3.12 -4.03,5.51 -5.55,8.58 1.34,1.77 2.54,3.75 4.54,4.88 0.53,-1.94 -1.13,-4.57 0.6,-6.13 1.51,-1.83 3.31,-3.48 4.36,-5.64 1.61,-3.79 -0.34,-7.93 0.72,-11.81 0.8,-2.79 2.14,-5.38 3.18,-8.08 2.14,0.41 4.17,1.84 4.75,4.03 0.54,2.44 -1.05,4.57 -1.43,6.9 0.43,1.8 1.53,2.24 3.29,1.31 1.09,-3.33 0.52,-6.89 0.64,-10.33 -2.12,-2.91 -4.03,-6.11 -7.47,-7.64 0.61,-1.88 2.4,-3.98 1.02,-5.92 -0.8,-1.78 -3.47,-1.73 -4.73,-0.5 -1.65,1.42 0.32,4.7 -1.78,5.73 -2.22,0.2 -4.45,0.04 -6.66,0 0.79,-2.52 1.82,-4.97 2.29,-7.59 -3.53,0.89 -3.85,5.11 -5.01,7.99 m 0.33,18.97 c -0.03,4.68 0,9.36 -0.13,14.04 2.07,-2.98 4.53,-5.78 6.05,-9.09 0.22,-2.46 -0.08,-4.93 -0.4,-7.36 -1.88,0.72 -3.72,1.53 -5.52,2.41 z"
       id="path4" />
    <path
       fill="#fefefd"
       opacity="1"
       d="m 61.22,64.61 c 4,1.71 7.88,3.71 11.7,5.78 -4.67,11.32 -15.85,19.49 -27.83,21.47 -9.82,1.8 -19.96,-1.4 -27.75,-7.44 5.37,0.42 9.05,-4.41 9.79,-9.25 6.18,3.78 14.06,4.62 20.83,1.99 6.02,-2.04 10.32,-7.12 13.26,-12.55 z"
       id="path5" />
  </g>
</svg>
