<?xml version="1.0" encoding="UTF-8" standalone="no"?>
<svg
   width="800pt"
   height="200pt"
   viewBox="0 0 800 200"
   version="1.1"
   id="svg11"
   sodipodi:docname="documentary.svg"
   inkscape:version="1.4.2 (f4327f4, 2025-05-13)"
   xmlns:inkscape="http://www.inkscape.org/namespaces/inkscape"
   xmlns:sodipodi="http://sodipodi.sourceforge.net/DTD/sodipodi-0.dtd"
   xmlns="http://www.w3.org/2000/svg"
   xmlns:svg="http://www.w3.org/2000/svg">
  <defs
     id="defs11" />
  <sodipodi:namedview
     id="namedview11"
     pagecolor="#ffffff"
     bordercolor="#000000"
     borderopacity="0.25"
     inkscape:showpageshadow="2"
     inkscape:pageopacity="0.0"
     inkscape:pagecheckerboard="true"
     inkscape:deskcolor="#d1d1d1"
     inkscape:document-units="pt"
     inkscape:zoom="1.708125"
     inkscape:cx="533.33333"
     inkscape:cy="133.47969"
     inkscape:window-width="1920"
     inkscape:window-height="1130"
     inkscape:window-x="-6"
     inkscape:window-y="-6"
     inkscape:window-maximized="1"
     inkscape:current-layer="svg11" />
  <g
     id="#fdfefdff"
     transform="translate(29.5,63)">
    <path
       fill="#fdfefd"
       opacity="1"
       d="m 70.01,22.06 c 5.35,-11.33 16.5,-20.2 29.12,-21.59 7.18,-1.22 14.56,0.52 21.09,3.52 10.49,5.55 18.44,16.17 19.9,28.06 2.08,10.42 -2.33,20.82 -8.69,28.91 1.47,1.87 2.96,3.73 4.5,5.55 4.54,-1.52 7.08,3.17 10.03,5.63 4.63,3.96 8.73,8.5 13.42,12.39 1.47,1.47 3.7,2.91 3.4,5.29 -0.65,3.68 -3.46,6.74 -6.85,8.18 h -2.38 c -8.03,-6.75 -15.24,-14.49 -22.28,-22.26 -0.03,-1.36 -0.05,-2.72 -0.04,-4.08 -1.73,-1.74 -3.46,-3.48 -5.19,-5.22 -3.52,1.66 -6.97,3.52 -10.69,4.71 C 104.5,74.79 91.93,72.96 82.6,66.34 75.35,60.69 68.73,53.07 67.7,43.57 67.16,36.39 66.75,28.72 70.01,22.06 M 100.4,7.14 c -3.76,1.49 -5.48,5.93 -4.43,9.7 1.16,2.9 3.93,4.95 6.95,5.59 3.29,0 6.67,-2.21 7.68,-5.41 1.57,-3.38 -0.42,-7.49 -3.41,-9.38 -2.1,-0.97 -4.56,-0.94 -6.79,-0.5 M 81.52,18.6 c -4.36,1.89 -6.09,8.02 -3.15,11.81 1.21,1.99 3.59,2.83 5.77,3.18 5.15,0.24 9.85,-5.78 7.47,-10.61 -1.33,-4 -6.3,-5.73 -10.09,-4.38 m 33.09,5.31 c -0.43,3.75 1.67,7.8 5.32,9.07 3.85,1.96 8.95,-0.75 9.97,-4.84 1.69,-4.87 -2.74,-10.8 -7.98,-9.92 -3.64,-0.43 -5.78,2.96 -7.31,5.69 m -12.86,4.62 c -0.06,1 -0.12,2 -0.18,3.01 0.82,0.4 1.64,0.8 2.46,1.21 0.66,-0.59 1.32,-1.19 1.97,-1.78 -0.19,-0.68 -0.59,-2.05 -0.78,-2.74 -1.16,0.09 -2.31,0.19 -3.47,0.3 m -4.13,4.94 c -0.47,0.38 -1.4,1.14 -1.86,1.52 0,0.67 0.01,1.34 0.01,2.01 0.45,0.38 1.34,1.12 1.78,1.5 0.47,-0.08 1.41,-0.24 1.88,-0.32 0.26,-1.34 0.43,-2.69 0.51,-4.06 -0.78,-0.22 -1.55,-0.43 -2.32,-0.65 m 10.83,0.13 c -0.39,0.38 -1.17,1.16 -1.55,1.55 0.19,0.68 0.57,2.03 0.77,2.71 1.12,-0.07 2.25,-0.16 3.38,-0.25 0.14,-0.62 0.43,-1.86 0.58,-2.48 -0.32,-0.38 -0.95,-1.15 -1.26,-1.53 -0.48,0 -1.44,0 -1.92,0 m 14.04,5.98 c -5.73,0.17 -10.01,7.29 -6.29,12.06 2.85,5.69 12.06,4.08 13.59,-1.8 1.87,-4.78 -2.18,-10.54 -7.3,-10.26 m -41.94,1.15 c -4.79,2.72 -4.83,10.21 -0.26,13.19 5.38,3.94 13.81,-2.04 11.66,-8.41 -0.85,-4.99 -7.23,-7.68 -11.4,-4.78 m 21.21,-0.42 c -0.04,0.91 -0.06,1.83 -0.09,2.75 0.76,0.51 1.52,1.01 2.28,1.52 0.67,-0.54 1.34,-1.08 2.01,-1.62 -0.1,-0.71 -0.3,-2.12 -0.4,-2.82 -1.27,0.03 -2.54,0.09 -3.8,0.17 m -6.1,16.31 c -1.08,5.99 5.22,11.31 10.91,8.9 0.84,-0.54 1.69,-1.07 2.54,-1.58 1.17,-2.14 2.79,-4.52 1.87,-7.06 -0.69,-3.73 -4.38,-6.38 -8.11,-6.16 -3.37,0.11 -6.12,2.83 -7.21,5.9 z"
       id="path1" />
    <path
       fill="#fdfefd"
       opacity="1"
       d="m 150.48,17.77 c 4.42,-9.79 14.71,-16.78 25.55,-16.62 5.62,-0.33 11.51,0.86 15.99,4.45 0.45,-1.28 0.93,-2.54 1.4,-3.81 2.43,0.01 4.88,-0.14 7.32,0.08 2.14,1.26 1.75,4.06 2,6.16 -0.04,6.36 0.14,12.73 -0.18,19.08 -2.92,0.04 -5.83,0.03 -8.74,0.04 -0.33,-0.31 -1,-0.92 -1.34,-1.22 -0.57,-3.14 -1.08,-6.57 -3.41,-8.95 -5.68,-6.55 -17.2,-6.29 -22.83,0.23 -4.5,4.31 -5.33,10.82 -5.95,16.7 -0.33,7.1 0.29,15.12 5.57,20.47 2.64,2.67 6.13,4.26 9.7,5.25 7.75,1.37 14.41,-3.39 20.14,-7.92 1.91,-1.84 5.97,-2.61 7.25,0.32 1.21,1.95 2.59,4.75 0.8,6.8 -10.85,15.5 -36.54,16.24 -48.89,2.18 -4.59,-4.92 -6.7,-11.57 -7.95,-18.04 -0.77,-8.5 -0.44,-17.47 3.57,-25.2 z"
       id="path2" />
    <path
       fill="#fdfefd"
       opacity="1"
       d="M 1.1,3.3 C 10.68,2.48 20.36,3.2 29.98,2.93 36.3,2.64 42.79,4.08 48.01,7.76 c 7.19,4.61 11.03,12.99 12.05,21.25 0.81,9.26 0.72,19.25 -4.48,27.36 -4.65,8.36 -14.31,12.63 -23.53,13.27 -8,0.09 -16,-0.02 -24.01,0.03 -2.69,-0.08 -5.56,0.31 -8.04,-1 v -8.9 l 0.01,2.5 C 0.18,58.02 4.99,60.13 7.67,59.24 7.8,46.49 7.67,33.73 7.71,20.98 7.74,18.41 7.64,15.84 7.23,13.31 5.05,12.83 2.85,12.44 0.63,12.15 0.74,9.21 0.18,6.15 1.1,3.3 m 19.48,9.65 c 0,15.39 0.02,30.78 0.02,46.16 6.19,0.1 12.95,0.49 18.26,-3.3 6.13,-3.62 7.91,-11.24 8.46,-17.82 C 47.66,30.09 46.25,20.48 38.78,16.11 33.42,12.5 26.74,12.9 20.58,12.95 Z"
       id="path3" />
    <path
       fill="#fdfefd"
       opacity="1"
       d="m 210.55,2.95 c 8.85,0.18 17.74,-0.38 26.57,0.32 0.01,2.66 0,5.33 0.01,7.99 -0.3,0.41 -0.92,1.24 -1.23,1.66 -1.78,0.01 -3.57,0.02 -5.35,0.03 -1.1,7.29 -0.22,14.73 -0.5,22.08 0.19,6.29 -0.85,13.01 2.04,18.86 3.19,5.87 11.33,7.39 16.91,4.17 3.2,-2.3 5.43,-6 5.37,-10.01 0.93,-9 0.35,-18.05 0.53,-27.07 -0.11,-2.48 0.38,-5.09 -0.66,-7.43 -1.78,-1.56 -4.29,-1.06 -6.44,-1.25 -0.01,-3.02 -0.02,-6.05 0.04,-9.07 8.58,-0.48 17.21,-0.36 25.81,-0.07 0.15,3.15 0.36,6.32 -0.03,9.46 -1.92,0.41 -3.9,0.29 -5.85,0.4 -0.78,3.61 -0.39,7.33 -0.47,10.99 -0.05,9.02 0.09,18.04 -0.05,27.05 -0.91,4.96 -2.45,10.25 -6.46,13.63 -5.98,5.86 -15.09,6.81 -23.04,5.95 -7.65,-1.03 -15.95,-4.9 -18.72,-12.64 -2.82,-6.3 -1.84,-13.31 -2,-20 -0.09,-8.06 0.29,-16.15 -0.2,-24.2 -1.52,-1.93 -4.2,-1.3 -6.31,-1.48 0.01,-3.12 0,-6.24 0.03,-9.37 z"
       id="path4" />
    <path
       fill="#fdfefd"
       opacity="1"
       d="m 278.66,3.98 c 1.03,-0.45 2.01,-1.18 3.21,-1 6.04,-0.05 12.08,-0.11 18.12,0.09 4.66,10.72 8.8,21.67 13.49,32.38 4.86,-10.64 8.48,-21.8 13.22,-32.5 6.97,0 13.94,0 20.91,0 0.1,3.12 0.64,6.21 0.72,9.34 -1.69,0.06 -3.38,0.1 -5.07,0.11 -0.36,0.35 -1.09,1.05 -1.45,1.4 -0.02,14.81 0.03,29.61 0,44.42 0.37,0.35 1.11,1.07 1.48,1.43 1.69,-0.01 3.39,-0.01 5.1,0.01 0.24,3.11 1.7,7.41 -0.76,9.8 -8.22,0.24 -16.49,0.31 -24.71,-0.06 -0.03,-2.62 -0.02,-5.24 -0.05,-7.86 0.29,-0.45 0.85,-1.35 1.14,-1.8 2.09,-0.25 6.25,0.75 5.96,-2.65 -0.02,-11.94 0.17,-23.89 -0.11,-35.83 -4.7,9.63 -8.44,19.78 -11.62,30.02 -3.24,0.02 -6.52,0.19 -9.67,-0.65 -4.12,-9.63 -7.39,-19.66 -12.02,-29.06 -0.89,12.23 0.23,24.46 0.28,36.7 0.35,0.31 1.06,0.94 1.41,1.26 1.91,0.02 3.8,0.29 5.56,1.07 0.36,2.98 0.87,5.98 0.33,8.97 -8.51,-0.04 -17.08,0.54 -25.55,-0.37 -0.06,-3.16 -0.08,-6.31 0.07,-9.46 1.46,-0.06 2.93,-0.11 4.41,-0.15 0.34,-0.31 1.04,-0.95 1.39,-1.27 0.12,-12.78 0.1,-25.56 0.06,-38.34 -0.04,-2.56 0.33,-5.3 -1.12,-7.59 -1.41,0 -2.82,0 -4.23,0.01 0.01,-2.82 0,-5.64 -0.5,-8.42 z"
       id="path5" />
    <path
       fill="#fdfefd"
       opacity="1"
       d="m 355.47,2.95 c 17.63,0 35.25,-0.01 52.88,0.01 0.3,6.01 0.11,12.03 0.18,18.05 0.09,1.51 -0.4,2.93 -0.86,4.34 -3.24,0.07 -6.59,0.32 -9.63,-1.03 0.09,-3.77 -0.17,-7.54 -0.87,-11.25 -7.39,-0.24 -14.8,-0.07 -22.19,-0.13 -1.04,5.7 -0.53,11.51 -0.63,17.26 2.94,0.04 5.89,0.04 8.83,0.01 0.32,-1.92 -0.56,-4.33 0.79,-5.92 2.74,-0.21 5.5,-0.08 8.24,-0.02 0.9,7.12 0.37,14.36 0.35,21.52 -2.19,1.82 -5.67,0.42 -8.37,0.73 -0.87,-1.96 -0.99,-4.1 -1.13,-6.21 -2.71,-0.18 -5.43,-0.17 -8.13,-0.19 -1.02,6.2 -0.53,12.52 -0.51,18.77 0.2,0.16 0.61,0.5 0.81,0.66 7.77,-0.02 15.61,0.5 23.35,-0.33 0.33,-4.51 -0.85,-9.31 1.23,-13.54 3.3,-0.3 6.7,-0.44 9.87,0.72 -0.02,7.68 0.32,15.39 -0.18,23.04 -17.75,0.45 -35.54,0.22 -53.29,0.11 -0.18,-0.2 -0.54,-0.61 -0.72,-0.82 -0.03,-2.94 -0.49,-6.03 0.35,-8.89 2.08,-0.46 6.3,0.66 6.06,-2.75 -0.25,-14.45 0.71,-28.97 -0.64,-43.38 -0.36,-0.33 -1.1,-1 -1.47,-1.33 -1.46,0.01 -2.91,0.02 -4.36,0.02 -0.02,-3.15 -0.03,-6.3 0.04,-9.45 z"
       id="path6" />
    <path
       fill="#fdfefd"
       opacity="1"
       d="m 417.56,4.41 c 0.35,-0.36 1.05,-1.09 1.4,-1.46 5.99,0 11.98,0.03 17.97,-0.02 2.89,3.7 4.98,7.93 7.3,12 6.07,10.88 12.34,21.65 18.47,32.5 0.7,-6.78 0.19,-13.61 0.35,-20.41 -0.13,-4.35 0.34,-8.76 -0.27,-13.09 -1.6,-2.62 -5.35,-1.18 -7.87,-1.55 -0.19,-3.14 -0.96,-6.3 -0.23,-9.43 8.88,0 17.77,0.01 26.67,0 0.01,3.14 0.01,6.28 0,9.42 -2.03,0.01 -4.06,0.02 -6.08,0.08 -0.41,1.14 -1.05,2.26 -0.98,3.51 -0.02,17.89 0.01,35.77 -0.01,53.66 -3.9,0.03 -7.8,0.04 -11.69,-0.02 -9.33,-15.28 -17.67,-31.15 -26.92,-46.47 0.09,11.69 0.06,23.39 0.16,35.08 0.36,0.34 1.09,1.03 1.45,1.38 2.16,-0.02 4.34,0.06 6.4,0.81 0.32,2.55 0.45,5.12 0.49,7.69 -0.37,0.38 -1.11,1.15 -1.48,1.53 -8.37,-0.26 -16.8,0.5 -25.13,-0.42 -0.07,-3.15 -0.09,-6.31 0.08,-9.46 1.82,-0.08 3.66,-0.13 5.49,-0.19 1.25,-2.69 0.84,-5.7 0.9,-8.58 0,-11 -0.02,-21.99 0,-32.99 0.04,-1.67 -0.15,-3.34 -0.73,-4.9 -1.74,-1.05 -3.78,-0.21 -5.65,-0.25 -0.15,-2.81 -0.12,-5.61 -0.09,-8.42 z"
       id="path7" />
    <path
       fill="#fdfefd"
       opacity="1"
       d="m 487.9,3.03 c 18.74,-0.19 37.49,-0.02 56.24,-0.08 0.82,4.97 0.29,10.03 0.45,15.05 -0.08,2.86 0.52,5.95 -1.08,8.52 -2.99,-0.26 -6.43,0.85 -9.04,-1.05 -1.04,-3.67 -0.06,-7.57 -0.62,-11.32 -2.87,-2.53 -7.46,-0.73 -11.01,-0.98 -0.2,15.16 -0.11,30.33 -0.06,45.5 3.47,1.64 7.39,0.69 11.09,1.07 0.17,3.12 0.15,6.25 0.16,9.38 -8.27,1.17 -16.69,0.25 -25.01,0.52 -3.46,-0.31 -7.26,0.81 -10.41,-1.02 0,-3 -0.29,-6.07 0.57,-9 3.51,-0.22 7.27,0.72 10.55,-0.96 0.12,-13.21 0.01,-26.43 0.05,-39.65 0.06,-2.04 -0.17,-4.06 -0.59,-6.05 -3.2,0.44 -7.48,-1.3 -9.93,1.26 -0.35,4.06 0.13,8.17 -0.62,12.2 -3.58,0.7 -7.75,1.63 -10.77,-1.06 0.06,-7.45 0,-14.89 0.03,-22.33 z"
       id="path8" />
    <path
       fill="#fdfefd"
       opacity="1"
       d="m 558.26,12.3 c 0,-3.12 -0.07,-6.24 0.25,-9.34 9.12,-0.02 18.23,-0.01 27.34,-0.01 6.34,15.87 11.48,32.19 17.3,48.25 1.08,2.85 1.8,5.87 3.52,8.43 1.55,0.03 3.11,0.07 4.67,0.12 0.19,3.29 0.15,6.58 0.14,9.88 -8.39,0.04 -16.78,0.01 -25.17,0 -0.36,-0.38 -1.08,-1.14 -1.43,-1.52 -0.05,-2.82 -0.03,-5.66 0.6,-8.43 2.3,-0.03 4.61,-0.07 6.91,-0.34 -0.82,-3.37 -2.2,-6.57 -3.71,-9.68 -6.99,-1.11 -14.1,-0.68 -21.14,-0.48 -1.12,3.36 -2.01,6.8 -2.92,10.23 2.32,0.19 4.65,0.23 6.99,0.35 0.67,2.89 0.86,5.84 0.82,8.8 -1.06,0.6 -2.17,1.2 -3.43,1.06 -6.36,0.02 -12.71,0.03 -19.07,-0.01 -1.45,0.08 -2.77,-0.54 -4.09,-1.02 -0.07,-2.98 -0.05,-5.97 0.6,-8.89 1.59,-0.07 3.21,0.01 4.8,-0.25 5.57,-13.64 9.44,-27.92 14.65,-41.7 0.61,-1.44 0.66,-3.01 0.68,-4.54 -2.75,-0.52 -5.52,-0.88 -8.31,-0.91 m 12.76,26.6 c 4.9,0.1 9.81,0.1 14.72,0 -2.47,-7.45 -4.87,-14.91 -7.49,-22.3 -2.71,7.33 -4.8,14.87 -7.23,22.3 z"
       id="path9" />
    <path
       fill="#fdfefd"
       opacity="1"
       d="m 616.86,3.24 c 11.35,-0.63 22.74,-0.12 34.11,-0.3 7.22,-0.16 14.8,3.04 18.67,9.32 3.28,5.7 3.44,12.97 0.58,18.87 -2.33,4.03 -6.56,6.36 -10.61,8.32 6.46,5.39 7.3,14.97 13.71,20.27 1.35,-0.05 2.7,-0.1 4.07,-0.14 0.36,0.36 1.07,1.07 1.43,1.42 0,2.8 0.01,5.6 -0.02,8.4 -4.59,0.44 -9.19,0.22 -13.78,0.26 -1.71,0.15 -3.47,-0.69 -4.36,-2.16 -2.78,-3.99 -3.89,-8.83 -6.2,-13.07 -2.25,-4.11 -3.78,-8.98 -7.77,-11.8 -3.16,-1.21 -6.6,-0.63 -9.88,-0.75 0.03,5.85 -0.03,11.69 0.1,17.53 2.03,0.17 4.06,0.24 6.11,0.3 0.54,0.29 1.62,0.87 2.16,1.15 0.02,2.87 0.03,5.73 -0.02,8.6 -9.08,0.42 -18.18,0.1 -27.27,0.15 -1.57,-3.1 -1.33,-6.74 -0.16,-9.92 1.67,-0.05 3.35,-0.02 5.03,-0.21 0.86,-1.17 0.71,-2.75 1.04,-4.1 0.56,-13.88 -0.45,-27.73 -0.44,-41.61 -0.4,-0.35 -1.2,-1.04 -1.59,-1.39 -1.66,0.01 -3.31,0.01 -4.94,0 -0.01,-3.05 -0.03,-6.09 0.03,-9.14 m 19.96,9.72 c 0.05,6.23 -0.12,12.46 0.05,18.69 5.31,0.26 10.86,0.82 15.98,-0.93 2.88,-0.9 4.24,-3.8 5.42,-6.33 -0.03,-1.52 -0.04,-3.03 -0.02,-4.55 -1.07,-3.31 -3.56,-6.39 -7.22,-6.75 -4.73,-0.32 -9.48,-0.04 -14.21,-0.13 z"
       id="path10" />
    <path
       fill="#fdfefd"
       opacity="1"
       d="m 679.34,3.13 c 8.71,-0.37 17.43,-0.1 26.14,-0.18 0.03,3.09 0.02,6.18 0.03,9.26 -1.9,0.18 -3.78,0.38 -5.66,0.66 3.03,6.72 6.92,13 11.09,19.07 3.9,-5.97 7.06,-12.38 10.19,-18.77 -1.85,-0.3 -3.7,-0.63 -5.53,-0.96 -0.01,-3.03 -0.02,-6.07 0.12,-9.1 8.42,-0.25 16.86,-0.28 25.28,0.04 v 8.89 c -1.63,0.63 -3.34,0.98 -5.03,1.33 -4.53,5.88 -8.08,12.42 -12.18,18.58 -2.21,3.45 -4.61,6.81 -6.33,10.53 -0.4,5.59 -0.09,11.21 -0.1,16.82 3.07,0.49 6.32,-0.12 9.28,0.85 0.33,3.08 0.16,6.19 0.1,9.29 -10.94,0.2 -21.95,0.53 -32.85,-0.14 -1.59,-2.91 -0.59,-6.45 -0.4,-9.6 3.23,-0.07 6.48,-0.01 9.71,-0.42 -0.01,-4.81 0.11,-9.62 -0.06,-14.42 -0.04,-2.16 -1.47,-3.94 -2.49,-5.73 -5.16,-7.88 -9.48,-16.29 -14.81,-24.07 -1.26,-2.3 -4.22,-2.02 -6.39,-2.76 -0.4,-3.04 -0.48,-6.12 -0.11,-9.17 z"
       id="path11" />
  </g>
</svg>
