<?xml version="1.0" encoding="UTF-8" standalone="no"?>
<svg
   width="800pt"
   height="200pt"
   viewBox="0 0 800 200"
   version="1.1"
   id="svg9"
   sodipodi:docname="drama.svg"
   inkscape:version="1.4.2 (f4327f4, 2025-05-13)"
   xmlns:inkscape="http://www.inkscape.org/namespaces/inkscape"
   xmlns:sodipodi="http://sodipodi.sourceforge.net/DTD/sodipodi-0.dtd"
   xmlns="http://www.w3.org/2000/svg"
   xmlns:svg="http://www.w3.org/2000/svg">
  <defs
     id="defs9" />
  <sodipodi:namedview
     id="namedview9"
     pagecolor="#ffffff"
     bordercolor="#000000"
     borderopacity="0.25"
     inkscape:showpageshadow="2"
     inkscape:pageopacity="0.0"
     inkscape:pagecheckerboard="true"
     inkscape:deskcolor="#d1d1d1"
     inkscape:document-units="pt"
     inkscape:zoom="1.708125"
     inkscape:cx="533.33333"
     inkscape:cy="133.47969"
     inkscape:window-width="1920"
     inkscape:window-height="1130"
     inkscape:window-x="-6"
     inkscape:window-y="-6"
     inkscape:window-maximized="1"
     inkscape:current-layer="svg9" />
  <g
     id="#fefefeff"
     transform="translate(190,61.5)">
    <path
       fill="#fefefe"
       opacity="1.00"
       d=" M 193.30 0.00 L 198.99 0.00 C 207.57 19.74 215.94 39.58 224.80 59.20 C 227.04 63.48 228.57 68.49 232.49 71.60 C 234.15 73.12 237.36 73.45 237.37 76.20 C 226.23 76.18 215.08 76.38 203.95 76.12 C 202.25 74.34 205.37 74.02 206.20 73.05 C 208.47 72.05 209.61 69.31 208.69 66.99 C 206.99 61.69 204.16 56.81 202.50 51.48 C 199.46 53.91 195.45 55.76 191.57 54.18 C 186.92 52.01 184.48 47.18 181.73 43.12 C 178.27 50.46 174.12 57.65 172.26 65.60 C 171.32 70.05 175.29 72.77 178.45 74.92 L 177.97 76.11 C 171.20 76.42 164.42 76.12 157.65 76.24 C 157.55 75.81 157.36 74.94 157.26 74.50 C 161.35 72.70 164.70 69.43 166.38 65.27 C 175.41 43.53 184.97 22.02 193.30 0.00 M 184.21 33.52 C 185.52 34.77 187.15 35.53 188.89 36.00 C 191.31 35.68 193.70 34.21 193.44 31.46 C 190.34 32.04 187.27 32.77 184.21 33.52 M 198.02 32.15 C 198.29 35.84 202.11 36.72 205.19 36.27 C 205.83 35.64 206.47 35.00 207.11 34.36 C 204.07 33.71 201.19 32.07 198.02 32.15 M 187.73 40.54 C 188.69 43.64 190.35 47.21 193.88 47.93 C 198.24 49.14 201.64 45.15 203.21 41.56 C 198.28 44.42 192.29 43.82 187.73 40.54 Z"
       id="path1" />
    <path
       fill="#fefefe"
       opacity="1.00"
       d=" M 376.52 0.00 L 381.94 0.00 C 387.80 14.32 394.22 28.40 400.42 42.56 C 396.90 44.88 392.77 46.98 388.42 46.04 C 385.44 45.35 381.66 44.47 380.63 41.15 C 377.80 34.46 375.19 27.66 372.12 21.08 C 370.40 25.97 368.49 30.80 366.34 35.52 C 364.00 40.60 362.63 46.09 359.98 51.05 C 361.27 50.63 362.55 50.14 363.80 49.58 C 368.22 50.01 372.69 51.32 375.99 54.42 C 372.57 53.82 369.27 52.65 365.85 52.07 C 363.08 51.66 359.32 52.04 358.35 55.18 C 356.73 59.54 354.26 64.11 355.13 68.87 C 355.75 72.57 360.65 72.64 361.44 76.12 C 354.46 76.36 347.48 76.16 340.51 76.25 C 339.72 73.22 343.74 73.06 345.17 71.19 C 349.52 66.32 351.44 59.91 353.95 54.01 C 361.55 36.04 368.82 17.93 376.52 0.00 Z"
       id="path2" />
    <path
       fill="#fefefe"
       opacity="1.00"
       d=" M 0.00 1.24 L 0.01 1.72 C 4.29 0.75 8.69 1.27 13.04 1.15 C 21.60 1.25 30.17 0.98 38.73 1.29 C 50.01 2.39 62.07 6.60 68.81 16.24 C 79.62 31.01 77.68 53.81 64.00 66.12 C 55.65 73.74 44.01 76.35 32.98 76.33 C 22.19 76.11 11.39 76.33 0.60 76.18 C 0.48 73.31 3.93 73.21 5.34 71.34 C 7.60 68.41 7.30 64.45 7.65 60.95 C 7.79 45.96 7.64 30.97 7.72 15.97 C 7.73 12.73 7.50 9.21 5.50 6.51 C 3.98 4.96 1.96 4.06 0.13 2.96 L 0.00 3.93 L 0.00 1.24 M 25.83 5.07 C 25.62 21.62 25.90 38.19 25.67 54.73 C 24.51 60.04 23.00 67.18 28.10 70.98 C 32.41 73.68 37.94 72.20 42.23 70.16 C 49.86 66.43 53.25 57.89 55.16 50.12 C 57.78 37.63 56.70 23.43 48.83 12.93 C 43.46 6.04 34.10 4.19 25.83 5.07 Z"
       id="path3" />
    <path
       fill="#fefefe"
       opacity="1.00"
       d=" M 82.03 1.25 C 94.68 1.01 107.34 1.22 120.00 1.17 C 127.17 1.51 134.83 2.91 140.54 7.54 C 147.99 13.70 148.86 26.09 142.21 33.14 C 137.49 38.63 129.92 40.02 123.08 40.65 C 127.11 42.22 131.71 42.88 134.97 45.95 C 141.60 51.95 142.53 61.83 148.98 67.96 C 150.99 70.06 154.07 69.99 156.64 70.90 C 153.77 74.62 149.13 76.19 144.68 77.00 L 139.33 77.00 C 134.54 76.23 130.27 73.31 127.75 69.18 C 122.92 61.38 121.44 51.74 115.39 44.66 C 113.39 42.12 110.13 41.44 107.12 40.93 C 106.96 46.95 107.01 52.96 106.95 58.98 C 107.00 62.63 106.66 66.51 108.40 69.86 C 109.41 72.50 112.38 73.25 114.45 74.79 L 113.85 76.12 C 103.43 76.42 92.99 76.09 82.56 76.28 C 82.52 75.80 82.45 74.85 82.41 74.37 C 85.46 72.94 88.49 70.78 88.73 67.09 C 89.71 48.70 89.28 30.26 88.85 11.86 C 88.51 8.68 87.03 5.32 83.85 4.09 C 82.95 3.49 80.40 2.65 82.03 1.25 M 105.97 15.99 C 108.30 19.70 115.15 20.13 116.07 15.08 C 112.71 15.45 109.35 15.80 105.97 15.99 M 121.23 16.26 C 118.99 21.31 125.48 23.24 129.23 22.16 C 127.00 19.69 123.93 18.16 121.23 16.26 M 107.15 30.43 C 112.50 29.40 117.99 30.88 122.46 33.88 C 122.14 30.57 120.47 26.94 117.03 25.92 C 113.13 24.88 109.37 27.42 107.15 30.43 Z"
       id="path4" />
    <path
       fill="#fefefe"
       opacity="1.00"
       d=" M 241.73 1.22 C 250.37 1.09 259.01 1.12 267.65 1.24 C 275.08 18.18 282.98 34.92 290.46 51.83 C 298.07 35.12 304.94 18.07 312.16 1.18 C 319.77 1.18 327.39 1.08 335.00 1.21 C 335.48 1.35 336.42 1.63 336.89 1.78 C 335.84 4.49 332.32 4.57 331.02 7.09 C 329.44 9.75 329.15 12.97 329.13 16.00 C 329.17 31.33 329.12 46.66 329.15 61.99 C 329.28 65.95 329.81 70.99 333.83 72.96 C 334.83 73.77 337.76 74.34 336.11 76.16 C 325.73 76.28 315.34 76.28 304.97 76.16 C 303.58 74.37 306.15 73.81 307.21 73.10 C 310.47 71.50 311.44 67.42 311.46 64.07 C 311.42 48.04 311.50 32.00 311.40 15.97 C 302.29 35.35 294.94 55.54 286.05 75.02 C 284.68 75.20 283.31 75.35 281.93 75.48 C 272.62 56.07 264.13 36.28 254.94 16.82 C 254.59 31.20 254.87 45.61 254.80 60.00 C 254.94 64.87 256.36 70.71 261.16 73.01 C 262.11 73.76 264.71 74.43 263.04 76.15 C 255.69 76.32 248.33 76.25 240.99 76.16 C 241.02 75.66 241.08 74.66 241.12 74.16 C 247.11 72.38 249.77 65.86 249.84 60.08 C 249.83 44.69 249.91 29.30 249.82 13.91 C 249.74 8.90 246.35 4.08 241.24 3.20 C 241.37 2.71 241.61 1.71 241.73 1.22 Z"
       id="path5" />
    <path
       fill="#fefefe"
       opacity="1.00"
       d=" M 363.90 46.85 C 367.43 43.55 373.01 42.59 377.51 44.33 C 381.91 45.98 386.12 48.70 390.98 48.60 C 392.90 48.50 395.33 48.80 396.58 46.93 C 395.95 49.67 392.12 49.86 389.87 50.32 C 384.37 51.30 380.11 46.95 375.02 45.86 C 371.30 44.80 367.41 45.41 363.90 46.85 Z"
       id="path6" />
    <path
       fill="#fefefe"
       opacity="1.00"
       d=" M 363.67 48.82 C 367.82 46.27 372.96 46.77 377.14 48.95 C 382.96 51.78 390.05 54.21 396.02 50.36 C 393.63 52.80 390.03 53.52 386.92 54.63 C 381.52 54.80 376.78 51.81 372.08 49.58 C 369.46 48.27 366.46 49.01 363.67 48.82 Z"
       id="path7" />
    <path
       fill="#fefefe"
       opacity="1.00"
       d=" M 396.00 52.92 C 397.82 50.98 399.42 48.86 401.23 46.91 C 406.51 53.76 407.92 62.86 413.25 69.72 C 414.97 71.98 417.63 73.12 420.00 74.53 L 420.00 76.16 C 408.78 76.32 397.56 76.19 386.35 76.23 C 386.46 72.87 391.98 72.78 391.57 69.00 C 391.07 64.66 388.74 60.75 386.94 56.82 C 390.11 55.99 393.58 55.31 396.00 52.92 Z"
       id="path8" />
    <path
       fill="#fefefe"
       opacity="1.00"
       d=" M 31.74 50.88 C 32.65 53.09 32.93 55.55 34.35 57.55 C 35.84 60.40 38.76 63.41 37.34 66.86 C 36.83 69.16 34.11 70.36 31.98 69.52 C 29.00 68.48 27.41 65.13 27.53 62.12 C 27.71 58.04 29.75 54.35 31.74 50.88 Z"
       id="path9" />
  </g>
</svg>
