<?xml version="1.0" encoding="UTF-8" standalone="no"?>
<svg
   width="800pt"
   height="200pt"
   viewBox="0 0 800 200"
   version="1.1"
   id="svg15"
   sodipodi:docname="family.svg"
   inkscape:version="1.4.2 (f4327f4, 2025-05-13)"
   xmlns:inkscape="http://www.inkscape.org/namespaces/inkscape"
   xmlns:sodipodi="http://sodipodi.sourceforge.net/DTD/sodipodi-0.dtd"
   xmlns="http://www.w3.org/2000/svg"
   xmlns:svg="http://www.w3.org/2000/svg">
  <defs
     id="defs15" />
  <sodipodi:namedview
     id="namedview15"
     pagecolor="#ffffff"
     bordercolor="#000000"
     borderopacity="0.25"
     inkscape:showpageshadow="2"
     inkscape:pageopacity="0.0"
     inkscape:pagecheckerboard="true"
     inkscape:deskcolor="#d1d1d1"
     inkscape:document-units="pt"
     inkscape:zoom="1.708125"
     inkscape:cx="533.33333"
     inkscape:cy="133.47969"
     inkscape:window-width="1920"
     inkscape:window-height="1130"
     inkscape:window-x="-6"
     inkscape:window-y="-6"
     inkscape:window-maximized="1"
     inkscape:current-layer="svg15" />
  <g
     id="#fdfefbff"
     transform="translate(206,53)">
    <path
       fill="#fdfefb"
       opacity="1"
       d="m 60.38,4.47 c 8.79,-3.4 18.44,-3.01 27.7,-3.03 3.13,0.09 7.24,0.37 8.77,3.63 1.38,4.09 0.87,10.62 -4.34,11.58 -6.95,0.86 -14.33,-1.38 -21.11,1.04 -4.72,3.23 -3.54,10.02 -3.17,14.93 4.91,0.24 9.78,-1.06 14.68,-0.63 6.39,0.79 6.56,11.57 0.66,13.28 -4.95,1.66 -10.22,1.55 -15.37,1.54 0.15,7.77 1.6,15.54 0.87,23.31 -0.59,7.4 -13.39,8.03 -15.18,0.98 -2.13,-8.15 -1.74,-16.69 -2.28,-25.04 -0.07,-10.02 -0.37,-20.09 0.97,-30.05 0.77,-4.63 2.92,-10 7.8,-11.54 z"
       id="path1" />
    <path
       fill="#fdfefb"
       opacity="1"
       d="m 231.7,9.48 c -1.49,-3.77 0.69,-9.44 5.35,-9.16 2.79,-0.53 5.08,1.34 6.45,3.57 1.67,-2.83 5.18,-4.61 8.39,-3.36 3.81,1.3 4.76,6.35 3.28,9.69 -2.65,4.88 -7.53,7.9 -11.78,11.24 -4.19,-3.63 -9.63,-6.53 -11.69,-11.98 z"
       id="path2" />
    <path
       fill="#fdfefb"
       opacity="1"
       d="m 108.85,8.96 c 2.68,-5.36 9.28,-8.69 15.1,-6.68 4.73,1.63 7.13,6.37 9.31,10.5 4.08,8.36 7.1,17.21 9.47,26.19 2.74,9.47 5.04,19.12 5.76,28.97 0.69,6.97 -8.86,11.99 -14.18,7.66 -3.09,-4.21 -2.06,-10.02 -4.58,-14.51 -1.16,-1.41 -3.19,-1.2 -4.81,-1.21 -5.08,0.2 -10.15,0.61 -15.17,1.34 -2.36,4.23 -2.25,9.17 -3.57,13.69 -3.39,5.72 -13.55,2.97 -15.11,-3.03 C 90.49,65.91 91.96,60 93.21,54.22 97,38.72 100.99,22.98 108.85,8.96 m 2.6,37.3 c 5.3,1.26 10.84,1.08 16.14,-0.1 -1.77,-8.63 -2.95,-17.87 -7.79,-25.42 -4.75,7.68 -6.42,16.81 -8.35,25.52 z"
       id="path3" />
    <path
       fill="#fdfefb"
       opacity="1"
       d="m 267.48,2.69 c 2.91,-1.44 6.54,-1.23 9.54,-0.12 3.54,1.66 3.46,6.06 3.33,9.38 -0.93,14.07 -3.01,28.15 -2.07,42.27 0.27,2.57 0.77,6.04 3.7,6.83 6.48,1.85 12.68,-1.9 19.01,-2.59 2.97,-0.55 6.17,1.59 6.37,4.69 0.65,3.88 -0.84,8.53 -4.74,10.09 -10.27,4.36 -22.78,6.19 -33.09,1.05 -5.75,-3.28 -7.5,-10.28 -7.89,-16.43 -0.67,-15.59 0.75,-31.17 2.02,-46.7 0.33,-3.08 0.7,-6.89 3.82,-8.47 z"
       id="path4" />
    <path
       fill="#fdfefb"
       opacity="1"
       d="m 298.51,12.1 c -1.68,-7.14 9.81,-13.31 14.08,-6.83 3.79,9.62 6.36,19.95 12.51,28.46 6.26,-8 8.94,-18.05 12.51,-27.39 0.74,-1.71 2.29,-3.02 4.09,-3.49 4.95,-0.76 9.73,3.25 10.56,8.06 -1.8,9.92 -7.04,18.72 -12.12,27.28 -2.09,3.74 -5.22,6.92 -6.76,10.95 -1.23,7.86 -0.53,15.93 -1.9,23.77 -1.69,3.84 -6.41,5.2 -10.28,4.61 -3.4,-0.69 -5.38,-4.17 -5.61,-7.42 -0.38,-6.98 0.62,-13.93 0.91,-20.89 -1.45,-4.32 -4.6,-7.77 -6.98,-11.59 -5.11,-7.76 -9.36,-16.33 -11.01,-25.52 z"
       id="path5" />
    <path
       fill="#fdfefb"
       opacity="1"
       d="m 164.31,6.4 c 4.01,-5 12.4,-3.51 15.18,2.05 5.05,9.77 7.53,20.63 11.66,30.79 3.24,-8.61 5.8,-17.46 8.93,-26.11 1.42,-3.59 3.09,-7.8 7.09,-9.16 3.72,-1.06 8.63,-0.68 10.84,2.97 2.66,4.52 3.41,9.84 4.43,14.9 2.56,15.62 5.15,31.4 4.87,47.26 0.02,6.01 -7.71,9.29 -12.37,5.96 -3.22,-1.82 -3.8,-5.72 -4.05,-9.05 -0.91,-11.45 -0.7,-23.02 -2.96,-34.33 -2.69,9.12 -5.57,18.2 -9.14,27.02 -1.32,4.28 -6.43,6.52 -10.6,5.33 -3.16,-1.27 -4.68,-4.6 -5.91,-7.53 -3.14,-8.18 -5.83,-16.51 -8.66,-24.8 -1.65,11.3 -2,22.72 -2.5,34.1 -0.46,3.9 -0.26,8.91 -4.2,11.15 -3.48,1.51 -8.11,0.6 -10.46,-2.49 -1.88,-1.96 -1.9,-4.87 -1.89,-7.42 0.62,-15.02 2.3,-29.99 4.9,-44.8 1.12,-5.35 1.48,-11.32 4.84,-15.84 z"
       id="path6" />
    <path
       fill="#fdfefb"
       opacity="1"
       d="m 240.1,26.04 c 3.43,-0.98 8.2,-0.98 10.39,2.34 2.07,3.95 0.91,8.46 1.09,12.7 0.53,7.3 0.08,14.64 0.67,21.95 -0.25,3.84 0.96,8.26 -1.48,11.6 -3.62,5.11 -12.98,3.51 -14.38,-2.73 -2.08,-11.19 -0.85,-22.65 -1.17,-33.96 0.01,-4.26 -0.15,-10.37 4.88,-11.9 z"
       id="path7" />
    <path
       fill="#fdfefb"
       opacity="1"
       d="m 17.42,37.52 c 6.68,-2.71 14.74,3.42 13.83,10.61 0.03,6.26 -6.33,11.33 -12.42,9.8 -6.52,-0.95 -10.43,-8.87 -7.6,-14.73 1.13,-2.67 3.43,-4.78 6.19,-5.68 z"
       id="path8" />
    <path
       fill="#fdfefb"
       opacity="1"
       d="m 363.46,37.65 c 4.96,-2.11 11.42,0.47 13.31,5.59 2.08,4.89 0.18,11.64 -4.87,13.87 -4.76,2.39 -11.45,0.67 -13.89,-4.23 -3.08,-5.39 -0.66,-13.28 5.45,-15.23 z"
       id="path9" />
    <path
       fill="#fdfefb"
       opacity="1"
       d="m 33.77,57.63 c 2.67,-3.02 3.9,-7.88 8.16,-9.09 2.97,-0.59 4.51,2.99 3.84,5.42 -1,4.14 -4.25,7.55 -4.25,11.98 -0.17,5.36 3.21,10.04 7.24,13.25 6.61,5.31 14.54,8.65 22.45,11.52 19.42,6.68 39.58,11.06 59.91,13.78 C 105.2,104.15 79.49,99.62 54.58,92.58 41.2,88.36 27.96,83.33 15.79,76.29 9.93,72.39 3.49,68.38 0,62.07 v -2.28 c 1.17,-1.35 3.02,-2.49 4.85,-1.8 4.84,1.59 8.99,5.17 14.23,5.51 5.45,0.6 11.47,-1.19 14.69,-5.87 z"
       id="path10" />
    <path
       fill="#fdfefb"
       opacity="1"
       d="m 342.39,53.96 c -0.63,-2.13 0.36,-4.59 2.51,-5.4 3.48,-0.34 5.24,3.16 6.88,5.6 2.85,4.77 7.36,9.07 13.18,9.44 6.58,1.03 12.22,-2.94 17.93,-5.43 1.87,-1.11 3.76,0.02 5.11,1.34 v 2.52 c -0.85,1.97 -2.12,3.74 -3.69,5.19 -5.66,5.31 -12.34,9.42 -19.23,12.92 -13.73,6.8 -28.27,11.88 -43.13,15.55 -21.29,5.62 -43.32,8.84 -65.35,8.74 16.78,-1.85 33.37,-5.35 49.57,-10.05 11.05,-3.64 22.56,-6.99 31.95,-14.15 4.24,-3.17 8.12,-7.71 8.36,-13.25 0.32,-4.76 -2.93,-8.62 -4.09,-13.02 z"
       id="path11" />
    <path
       fill="#fdfefb"
       opacity="1"
       d="m 181.4,71.51 c 4.25,-2.04 9.81,0 11.84,4.22 2.6,4.82 0.71,11.6 -4.25,14.09 -4.63,2.11 -10.6,-0.58 -12.39,-5.28 -2.03,-4.68 -0.25,-11.16 4.8,-13.03 z"
       id="path12" />
    <path
       fill="#fdfefb"
       opacity="1"
       d="m 212.16,80.99 c 6.42,-2.79 13.26,4.6 10.92,10.89 -1.31,5.48 -8.97,8.48 -13.17,4.29 -5.15,-3.87 -4,-13.14 2.25,-15.18 z"
       id="path13" />
    <path
       fill="#fdfefb"
       opacity="1"
       d="m 158.22,100.14 c 7.03,-1.9 12.49,-7.71 19.83,-8.56 4.22,3.12 10.08,3.17 14.18,-0.19 5.56,1.07 9.48,5.58 14.78,7.3 -2.55,1.47 -4.57,3.61 -6.04,6.15 -1.35,-0.44 -2.66,-1.2 -4.13,-1.08 -2,2.16 -1.37,5.19 -1.03,7.81 -7.38,0.73 -14.75,-0.07 -22.14,0.03 0.26,-3.04 0.85,-6.19 -0.28,-9.14 -3.68,0.63 -6.9,2.66 -10.54,3.4 -6.81,1.56 -14.37,2.19 -20.81,-1.04 0.16,-1.24 0.34,-2.67 1.86,-2.88 4.69,-1.18 9.75,0.17 14.32,-1.8 z"
       id="path14" />
    <path
       fill="#fdfefb"
       opacity="1"
       d="m 209.66,100.21 c 5.08,2.57 10.75,0.49 15.07,-2.55 4.48,2.61 7.62,6.99 9.33,11.83 -1.53,0.18 -3.07,0.32 -4.61,0.39 -1.18,-1.38 -2.57,-2.54 -4.25,-3.25 0.07,0.96 0.2,2.88 0.26,3.85 -7.91,0.15 -15.82,0.61 -23.73,0.8 1.07,-4.55 3.68,-8.88 7.93,-11.07 z"
       id="path15" />
  </g>
</svg>
