<?xml version="1.0" encoding="UTF-8" standalone="no"?>
<svg
   width="800pt"
   height="200pt"
   viewBox="0 0 800 200"
   version="1.1"
   id="svg13"
   sodipodi:docname="history.svg"
   inkscape:version="1.4.2 (f4327f4, 2025-05-13)"
   xmlns:inkscape="http://www.inkscape.org/namespaces/inkscape"
   xmlns:sodipodi="http://sodipodi.sourceforge.net/DTD/sodipodi-0.dtd"
   xmlns="http://www.w3.org/2000/svg"
   xmlns:svg="http://www.w3.org/2000/svg">
  <defs
     id="defs13" />
  <sodipodi:namedview
     id="namedview13"
     pagecolor="#ffffff"
     bordercolor="#000000"
     borderopacity="0.25"
     inkscape:showpageshadow="2"
     inkscape:pageopacity="0.0"
     inkscape:pagecheckerboard="true"
     inkscape:deskcolor="#d1d1d1"
     inkscape:document-units="pt"
     inkscape:zoom="1.708125"
     inkscape:cx="533.33333"
     inkscape:cy="133.47969"
     inkscape:window-width="1920"
     inkscape:window-height="1130"
     inkscape:window-x="-6"
     inkscape:window-y="-6"
     inkscape:window-maximized="1"
     inkscape:current-layer="svg13" />
  <g
     id="#fefefaff"
     transform="translate(183,55.5)">
    <path
       fill="#fefefa"
       opacity="1"
       d="m 127.21,0 h 0.65 c -4.74,8.03 -6.62,18.18 -14.5,23.98 1.41,-0.62 2.83,-1.24 4.24,-1.86 -0.91,3.2 -1.62,6.45 -2.29,9.71 -0.68,3.42 -3.46,5.79 -5.33,8.58 1.56,-1.18 3.06,-2.45 4.55,-3.72 -0.36,2.4 -0.36,4.86 -1.01,7.21 -2.19,2.86 -5.26,4.86 -7.71,7.48 2.7,-1.35 5.17,-3.1 7.61,-4.86 -0.79,2.83 -1.56,5.83 -3.52,8.11 -2.69,3.53 -7.27,5.85 -7.88,10.67 0.55,2.34 4.62,1.11 6.3,2.69 -4.69,0.4 -9.42,0.31 -14.09,-0.15 1.91,-0.87 4.02,-1.1 6.07,-1.44 0.88,-3.05 1.59,-6.15 1.66,-9.34 0.59,-11.66 3,-23.33 7.97,-33.93 1.33,-2.92 3.01,-5.66 4.27,-8.61 -9.91,13.25 -13.12,30.28 -13.78,46.49 -1.62,-0.23 -2.8,-1.56 -2.97,-3.18 -0.33,-3.3 -2.16,-6.42 -1.48,-9.81 1.14,-5.85 1.06,-12.06 3.9,-17.45 0.45,0.01 1.35,0.04 1.8,0.05 -0.14,-0.54 -0.42,-1.62 -0.56,-2.16 l 1.29,0.16 c 0.42,-3.36 1.68,-6.54 3.89,-9.11 4.98,-8.27 12.2,-15.3 20.92,-19.51 z"
       id="path1" />
    <path
       fill="#fefefa"
       opacity="1"
       d="M 0,14.38 C 0.27,11.23 2.83,8.46 6.09,8.51 14.75,8.41 23.42,8.44 32.08,8.5 34.54,8.46 37.19,9.73 38,12.19 39.68,15.71 37.1,20.64 32.99,20.54 30.27,20.51 29.2,17.79 28.44,15.65 21.99,15.39 15.55,16.73 9.13,16.06 8.21,14.91 7.19,13.86 6.08,12.89 6.4,13.73 7.02,15.39 7.34,16.23 7.06,16.51 6.5,17.06 6.23,17.34 L 4.72,17.3 C 4.32,16.72 3.53,15.56 3.13,14.98 4.7,14.59 5,13.82 3.13,12.81 5.1,12.38 7.12,12.05 9.14,12.29 c 7.64,0.42 15.32,0.28 22.96,-0.14 1.76,-0.34 3.66,1.11 3.29,2.99 0.35,3 -5.9,2.95 -3.95,-0.44 0.76,-0.2 2.28,-0.62 3.03,-0.82 -1.51,-0.14 -3.77,-0.84 -4.38,1.18 -1.16,3.94 5.42,4.67 6.22,1.21 1.19,-2.18 -0.76,-5.28 -3.2,-5.22 -9.07,0.42 -18.17,0.52 -27.24,0 -3.89,-0.66 -5.29,5.59 -2,7.1 1.69,0.89 3.42,-0.45 5.04,-0.84 0.1,1.36 -0.64,2.64 -2.04,2.89 C 3.64,21.56 0.55,18.51 0,15.48 Z"
       id="path2" />
    <path
       fill="#fefefa"
       opacity="1"
       d="m 138.54,10.67 c 7.93,-3.56 16.94,-2.2 25.11,-0.27 -0.45,5.4 0.56,11.16 -1.54,16.27 -1.08,-3.6 -1.29,-7.82 -4.36,-10.43 -4.79,-4.21 -12.91,-4.58 -17.73,-0.2 -4.07,4 -4.02,10.96 -0.3,15.18 6.1,7.36 15.41,11.27 21.09,19.07 5.91,7.66 6.77,19.32 0.68,27.14 -4.04,5.38 -10.72,7.96 -17.24,8.57 h -5.65 c -4.48,-0.76 -9.76,-1.01 -13.14,-4.34 -0.52,-5.81 -0.13,-11.83 0.74,-17.62 1.61,2.32 1.86,5.19 2.82,7.78 2.72,8.09 13.47,11.87 20.82,7.84 5.14,-3.13 6.35,-10.08 4.88,-15.54 C 153,58.23 147.77,54.48 143.15,50.91 136.96,46.24 130.57,40.76 128.43,33 c -2.65,-8.57 1.82,-18.76 10.11,-22.33 z"
       id="path3" />
    <path
       fill="#fefefa"
       opacity="1"
       d="m 171.35,14.93 c 0.48,-2.11 0.3,-4.57 1.87,-6.26 1.52,0.47 3.05,1.04 4.66,1.18 10.06,0.5 20.14,-0.2 30.2,0.41 7.12,-0.8 14.37,0.41 21.41,-1.13 0.63,4.9 0.92,9.95 0.1,14.84 -2.35,-2 -1.82,-6.42 -5.42,-7.4 -5.85,-1.58 -12.04,-0.45 -18.02,-0.81 0.02,18.4 -0.04,36.81 0.01,55.22 0.19,3.31 0.02,6.93 1.78,9.88 1.9,2.09 5.24,1.48 7.81,1.96 0,0.42 0.01,1.25 0.02,1.67 -9.34,-0.01 -18.69,0.19 -28.01,-0.08 -0.31,-0.33 -0.94,-1 -1.25,-1.33 2.31,-0.69 5.87,0.11 7.05,-2.6 1.6,-3.93 1.12,-8.31 1.57,-12.45 0.1,-17.43 0.01,-34.86 0.05,-52.28 -5.75,0.16 -11.55,-0.29 -17.27,0.32 -3.76,0.4 -5.44,4.06 -6.77,7.1 -1.15,-2.66 -0.14,-5.52 0.21,-8.24 z"
       id="path4" />
    <path
       fill="#fefefa"
       opacity="1"
       d="m 240.39,20.45 c 7.14,-7.97 17.92,-12.43 28.6,-11.99 10.46,0.27 21.51,3.97 28.14,12.46 12.75,15.77 10.64,40.6 -3.3,54.95 -5.96,5.99 -14.16,9.31 -22.5,10.13 h -5.57 C 258.2,85.3 250.48,83.23 244.66,78.12 227.91,64.31 226.57,36.73 240.39,20.45 m 21.14,-6.78 c -8.53,1.61 -14.97,9.21 -16.71,17.49 -2.92,12.01 -2.36,25.41 3.9,36.31 4.62,8.11 13.66,14.3 23.27,13.41 6.71,-0.09 12.48,-4.64 15.98,-10.08 4.51,-7.06 5.27,-15.7 5.15,-23.87 -0.59,-9.87 -3.23,-20.43 -10.69,-27.41 -5.28,-5.5 -13.56,-7.4 -20.9,-5.85 z"
       id="path5" />
    <path
       fill="#fefefa"
       opacity="1"
       d="M 55.36,10.07 C 63.27,9.75 71.2,9.99 79.11,9.94 c 1.34,-0.24 2.36,0.27 2.81,1.53 -2,0.36 -4.37,-0.03 -6,1.43 -1.83,2.24 -1.67,5.36 -1.82,8.09 0.04,16.02 -0.05,32.05 0.04,48.07 0.43,3.93 -0.17,8.24 1.96,11.76 1.87,2.84 6.54,0.38 8.11,3.5 -6.04,0.44 -12.1,0.09 -18.14,0.2 -3.81,-0.13 -7.69,0.41 -11.43,-0.52 1.56,-1.38 3.68,-1.25 5.58,-1.7 2.17,-1.19 2.35,-3.98 2.65,-6.15 0.99,-10.41 0.52,-20.88 0.55,-31.31 -11.62,0 -23.24,-0.01 -34.86,-0.01 -0.01,10.11 -0.01,20.22 0.01,30.33 0.97,0.84 1.93,1.68 2.84,2.57 -8.04,0.34 -16.1,0.18 -24.14,0.07 0.85,-0.76 1.71,-1.49 2.6,-2.21 C 9.96,58.39 9.86,41.19 9.92,24 9.97,22.57 9.7,21.18 9.35,19.81 c 6.75,0.13 13.5,0.08 20.25,0 -0.25,0.49 -0.75,1.46 -1,1.95 -0.13,5.98 0.04,11.96 -0.05,17.94 11.65,0.03 23.29,0.02 34.93,0 -0.35,-8.24 0.76,-16.62 -0.82,-24.76 -1.04,-3.33 -4.81,-3.37 -7.7,-3.33 0.1,-0.39 0.3,-1.16 0.4,-1.54 M 16.13,22.83 c 0.05,17.75 -0.18,35.51 0.12,53.26 0.4,-0.14 1.18,-0.42 1.58,-0.55 0.52,-18.02 0.13,-36.1 0.2,-54.14 -0.67,0.43 -2.42,0.04 -1.9,1.43 m -4.34,-1.45 c -0.21,18.07 0.12,36.16 -0.16,54.24 1.43,-0.27 2.5,0.18 3.19,1.36 C 13.46,74.21 14.05,71.02 13.94,68.04 13.73,52.71 14.17,37.35 13.84,22.01 13.33,21.85 12.3,21.53 11.79,21.38 M 20.46,25 c 0.04,16.91 0.02,33.83 0.01,50.74 0.49,-0.02 1.46,-0.06 1.95,-0.08 C 22.33,57.58 22.48,39.49 22.34,21.4 19.6,20.86 20.77,23.64 20.46,25 m 4.07,50.96 c 0.49,-0.14 1.46,-0.42 1.95,-0.56 0.04,-17.79 -0.07,-35.58 0.07,-53.37 -0.46,-0.22 -1.38,-0.67 -1.83,-0.89 -0.35,18.27 -0.01,36.55 -0.19,54.82 z"
       id="path6" />
    <path
       fill="#fefefa"
       opacity="1"
       d="m 308.56,10.74 c 5.38,-1.39 10.97,-0.62 16.45,-0.82 6.36,0.17 12.75,-0.36 19.08,0.31 8.28,0.95 15.38,8.22 15.74,16.62 0.41,8.69 -4.79,16.61 -11.36,21.88 5.23,7.92 10.49,15.84 16.4,23.28 2.54,3.23 5.12,6.6 8.69,8.76 2.4,1.51 5.29,1.78 7.83,2.98 -4.66,1.81 -9.69,0.85 -14.53,0.72 -4.14,-0.21 -7.63,-3.05 -10.25,-6.06 -6.57,-8.11 -11.7,-17.24 -17.5,-25.89 -3.71,-0.01 -7.41,-0.4 -11.13,-0.39 -0.06,8.03 -0.06,16.06 0.56,24.07 0.21,1.85 0.59,3.84 1.95,5.23 2.33,1.2 5.06,1.01 7.58,1.55 -1.38,2.14 -4,1.43 -6.11,1.55 -7.19,-0.11 -14.39,0.16 -21.57,-0.12 -0.29,-0.3 -0.88,-0.9 -1.17,-1.2 1.98,-0.43 4,-0.79 5.95,-1.35 2.57,-5.91 2.08,-12.52 2.2,-18.82 0.03,-14.34 0.09,-28.68 -0.03,-43.02 -0.16,-2.45 -0.23,-5.34 -2.26,-7.06 -1.8,-1.66 -4.59,-0.77 -6.52,-2.22 m 20.98,3.95 c -1.4,0.38 -1.65,2.02 -1.55,3.25 -0.04,8.71 -0.04,17.42 0.01,26.12 -0.35,1.75 1.49,2.65 2.89,2.89 3.28,0.72 6.72,0.72 10.04,0.31 5.58,-1.63 8.26,-7.76 8.35,-13.16 0.37,-5.53 -0.9,-11.49 -4.83,-15.6 -3.69,-4.05 -9.79,-4.81 -14.91,-3.81 z"
       id="path7" />
    <path
       fill="#fefefa"
       opacity="1"
       d="m 365.08,9.93 c 6.64,0 13.28,-0.01 19.92,-0.02 1.61,-0.05 3.21,0.27 4.73,0.82 -1.46,0.44 -2.93,0.85 -4.4,1.23 0.3,2.66 1.1,5.24 2.4,7.58 4.74,8.95 9.88,17.68 14.52,26.69 3.89,-6.87 7.19,-14.04 10.77,-21.07 1.6,-3.34 3.47,-6.62 4.4,-10.23 0.8,-2.72 -2.59,-3.36 -4.08,-4.84 6.88,-0.31 13.77,-0.11 20.66,-0.17 v 1.34 c -3.28,0.9 -6.69,2.17 -8.64,5.15 -5.32,7.58 -9.5,15.89 -13.95,24 -2.77,5.14 -5.82,10.48 -5.98,16.47 -0.09,6.52 -0.26,13.07 0.44,19.56 0.28,1.89 0.77,4.06 2.46,5.2 2.45,0.92 5.1,1.02 7.64,1.6 -2.2,2.01 -5.3,1.11 -7.98,1.3 -7.38,-0.21 -14.79,0.39 -22.14,-0.36 1.89,-1.58 4.48,-1.49 6.61,-2.56 1.34,-2 1.55,-4.49 1.82,-6.82 0.29,-5.96 0.72,-11.93 0.37,-17.9 -0.31,-5.17 -3.03,-9.71 -5.45,-14.14 -4.65,-8.27 -9.17,-16.64 -14.41,-24.56 -2.25,-3.44 -5.47,-6.54 -9.81,-6.77 0.02,-0.38 0.07,-1.12 0.1,-1.5 z"
       id="path8" />
    <path
       fill="#fefefa"
       opacity="1"
       d="m 10.81,16.93 c 5.67,-0.19 11.36,-0.58 17.03,-0.25 0.26,0.59 0.78,1.77 1.04,2.36 -6.47,0.08 -12.93,0.17 -19.39,-0.03 0.33,-0.52 0.99,-1.56 1.32,-2.08 z"
       id="path9" />
    <path
       fill="#fefefa"
       opacity="1"
       d="m 94.83,68.74 c 3.99,0.33 8.1,-0.46 12.03,0.41 l 0.97,1.23 c -4.13,-0.12 -8.26,0 -12.38,0.1 z"
       id="path10" />
    <path
       fill="#fefefa"
       opacity="1"
       d="m 92.42,73.34 c 3.88,-3.24 9.07,-2.71 13.77,-2.52 2.14,1.5 4.41,2.81 6.44,4.46 -0.03,2.44 0.15,4.89 -0.19,7.31 -1.1,1.68 -3.13,2.49 -4.82,3.4 L 109.95,86 H 97.19 C 95.04,85.31 91.72,85.99 90.63,83.41 89.72,80.1 88.75,75.34 92.42,73.34 m -1.34,1.81 c -0.09,3.37 -0.42,8.54 3.9,9.46 -2.17,-2.82 -1.93,-6.6 -3.9,-9.46 z"
       id="path11" />
    <path
       fill="#fefefa"
       opacity="1"
       d="M 5.7,81.62 C 6.6,80.61 7.19,78.68 8.92,79.06 16.2,79.02 23.49,79 30.78,79.04 c 0.5,0.62 1.51,1.86 2.02,2.48 -9.04,-0.15 -18.08,0.55 -27.1,0.1 z"
       id="path12" />
    <path
       fill="#fefefa"
       opacity="1"
       d="m 4.4,86 c -0.54,-1.24 -0.39,-3.43 1.47,-3.19 9.4,-0.14 18.81,-0.1 28.21,-0.03 0.07,0.81 0.21,2.42 0.28,3.22 z"
       id="path13" />
  </g>
</svg>
