<?xml version="1.0" encoding="UTF-8" standalone="no"?>
<svg
   width="800pt"
   height="200pt"
   viewBox="0 0 800 200"
   version="1.1"
   id="svg9"
   sodipodi:docname="horror.svg"
   inkscape:version="1.4.2 (f4327f4, 2025-05-13)"
   xmlns:inkscape="http://www.inkscape.org/namespaces/inkscape"
   xmlns:sodipodi="http://sodipodi.sourceforge.net/DTD/sodipodi-0.dtd"
   xmlns="http://www.w3.org/2000/svg"
   xmlns:svg="http://www.w3.org/2000/svg">
  <defs
     id="defs9" />
  <sodipodi:namedview
     id="namedview9"
     pagecolor="#ffffff"
     bordercolor="#000000"
     borderopacity="0.25"
     inkscape:showpageshadow="2"
     inkscape:pageopacity="0.0"
     inkscape:pagecheckerboard="true"
     inkscape:deskcolor="#d1d1d1"
     inkscape:document-units="pt"
     inkscape:zoom="1.708125"
     inkscape:cx="533.33333"
     inkscape:cy="133.47969"
     inkscape:window-width="1920"
     inkscape:window-height="1130"
     inkscape:window-x="-6"
     inkscape:window-y="-6"
     inkscape:window-maximized="1"
     inkscape:current-layer="svg9" />
  <g
     id="#fdfefaff"
     transform="translate(217.5,57.5)">
    <path
       fill="#fdfefa"
       opacity="1"
       d="m 104.32,0 h 2.36 c 5.21,0.55 10.53,2.21 14.34,5.96 6.7,6.55 10.04,15.89 10.98,25.06 0.4,8.72 -5.79,15.78 -7.31,24.08 -1.14,5.34 -1.69,11 -4.68,15.71 -2.92,4.88 -8.36,8.11 -14.02,8.43 C 99.96,78.73 94.53,74.75 91.54,69.58 88.92,64.46 88.74,58.56 86.86,53.19 85.5,48.64 83.37,44.4 81.56,40.04 78.33,31.76 80.96,22.57 84.63,14.89 88.32,7.14 95.58,0.93 104.32,0 m -6.99,14.42 c -2.18,4.26 -4.8,8.39 -8.77,11.21 -2.7,1.39 -2.04,6.38 1.48,5.74 7.01,-0.59 11.92,-7.65 12.53,-14.26 0.23,-2.73 -3.26,-5.03 -5.24,-2.69 m 12.94,-0.2 c -1.37,1.19 -1,3.31 -0.77,4.9 1.14,5.43 4.87,10.95 10.58,12.16 1.79,0.3 4.78,0.24 4.9,-2.19 0.43,-2.89 -2.58,-4.19 -4.39,-5.75 -2.79,-2.04 -4.24,-5.24 -5.7,-8.27 -0.8,-1.68 -3.33,-2.27 -4.62,-0.85 m -8.22,18.7 c -0.65,2.3 2.07,1.34 3.05,0.66 1.63,-1.23 3.29,1.96 4.89,0.46 0.84,-2.63 -2.18,-4.39 -3.97,-5.75 -1.57,1.26 -3.69,2.41 -3.97,4.63 m 0.88,7.14 c -4.91,1.99 -6.63,7.94 -6.44,12.8 0.66,5.77 1.37,11.89 4.52,16.92 1.86,3.08 6.59,4.23 9.16,1.4 3.86,-4.49 4.62,-10.66 5.19,-16.33 0.4,-4.42 -0.01,-9.51 -3.36,-12.78 -2.26,-2.43 -6,-3.19 -9.07,-2.01 z"
       id="path1" />
    <path
       fill="#fdfefa"
       opacity="1"
       d="m 266.22,0 h 0.49 c 4.29,0.47 8.73,1.39 12.18,4.16 7.11,5.33 10.05,14.28 11.62,22.67 1.75,12.54 1.1,26.11 -5.34,37.32 -2.12,3.7 -6.6,6.19 -6.49,10.93 -0.72,2.89 0.99,6.55 -1.68,8.71 -0.52,-3.52 -0.09,-7.08 -0.22,-10.62 -2.97,0.88 -5.94,1.74 -8.89,2.7 -2.33,0.64 -2.66,3.53 -3.95,5.25 -1.11,-2.25 -2.11,-4.59 -3.75,-6.52 -3.25,4.21 -0.66,9.8 -2.19,14.32 l -1.1,0.58 -1.08,-0.32 c -1.27,-5.6 1.22,-12.07 -1.76,-17.25 C 245.09,65.2 241.7,53.59 240.83,42.87 240.3,31.38 241.65,19.11 248.31,9.39 252.36,3.59 259.27,0.44 266.22,0 m -3.28,15.99 c -1.06,4.29 1.37,9.51 -1.78,13.09 -1.8,-4.12 0.22,-8.63 -1.02,-12.9 -1.07,1.45 -2.13,2.95 -2.6,4.71 -2.93,10.04 -2.56,20.74 -0.86,30.96 0.97,4.7 3.53,10.9 9.32,10.55 4.37,0.35 7.3,-3.62 8.6,-7.29 2.96,-9.78 2.53,-20.22 1.21,-30.23 -0.73,-3.1 -0.98,-7.25 -4.19,-8.81 -0.85,4.17 0.4,8.38 -0.31,12.55 l -1.59,-0.44 c -0.85,-4.52 0.87,-9.25 -0.28,-13.74 -1.36,-3.14 -7.04,-2.15 -6.5,1.55 z"
       id="path2" />
    <path
       fill="#fdfefa"
       opacity="1"
       d="m 23.02,1.37 c 6.92,0.86 13.94,0.69 20.9,0.38 -2.68,9.31 -1.99,19.11 -1.8,28.67 5.66,-0.1 11.39,0.92 16.98,-0.39 -0.32,-9.41 1.28,-19.17 -1.85,-28.26 6.07,0.75 12.13,0.02 18.2,0.01 -1.68,3.86 -2.53,8.04 -2.6,12.25 -0.11,10.01 0.23,20.03 -0.24,30.04 -0.13,7 -0.1,14.01 0.54,20.99 0.16,3.17 1.99,5.85 3.73,8.37 -6.52,-0.05 -13.04,0.03 -19.55,-0.06 1.27,-2.93 1.82,-6.12 1.79,-9.31 0.04,-7.1 0,-14.21 -0.02,-21.31 -5.65,-0.01 -11.31,-0.25 -16.94,0.16 -0.41,7.68 -0.13,15.38 -0.23,23.07 -0.23,3.41 1.15,6.58 2.21,9.75 -2.9,0.92 -5.85,2.13 -8.01,4.36 -4.17,4.39 -7.8,9.23 -11.61,13.91 h -0.39 c 3.7,-9.88 3.97,-20.48 4.37,-30.89 2.81,-1.16 6.03,-2.2 7.05,-5.41 -1.27,-0.8 -2.54,-1.58 -3.81,-2.37 2.04,-1.16 4.07,-2.4 5.73,-4.09 -0.68,-3.1 -3.12,-4.94 -5.89,-6.13 2.51,-1.27 5.08,-2.39 7.71,-3.4 -3.01,-1.46 -6.63,-1.86 -9.58,-3.75 -0.02,0.71 -0.05,1.42 -0.08,2.13 1.79,0.27 4.66,0.13 4.39,2.73 -3.04,-0.68 -6.14,-0.56 -9.21,-0.18 -2.1,2.43 -2.78,5.81 -5.91,7.32 2.45,-1.15 4.87,-2.36 7.13,-3.85 1.68,0.16 3.36,0.28 5.04,0.38 1.58,0.77 3.16,1.54 4.73,2.35 -3.56,0.49 -7.33,-0.63 -10.73,0.85 -1.68,1.47 -3.3,3.03 -5.17,4.26 4.99,-2.36 10.73,-3.42 16.23,-2.91 -4.21,3.23 -9.74,3.26 -14.58,4.93 0.14,0.32 0.42,0.97 0.56,1.29 0.63,-0.58 1.25,-1.17 1.88,-1.75 2.14,3.98 6.88,2.2 10.43,2.42 -1.86,2.48 -5.36,3.71 -8.25,2.37 -1.62,-0.44 -3.01,-1.69 -4.75,-1.6 -1.05,-0.36 -2.1,-0.74 -3.15,-1.13 -1.37,-4 -3.12,-8.33 -1.52,-12.54 0.29,-2.92 2.18,-5.14 4.59,-6.63 1.18,-0.08 2.35,-0.18 3.52,-0.28 -0.54,0.6 -1.61,1.81 -2.15,2.41 1.81,-0.64 5,-0.09 5.98,-2.12 -0.92,-2.81 -1.21,-5.89 -0.42,-8.76 0.86,-0.19 2.58,-0.57 3.44,-0.76 -0.6,-0.41 -1.2,-0.81 -1.81,-1.2 -4.16,1.04 -8.5,-2.57 -12.33,0.05 -2.41,1.87 -5.45,2.18 -8.3,2.92 C 7.2,32.27 5.78,34.57 3.84,36.32 4.35,34.93 4.87,33.54 5.39,32.15 3.77,32.49 2.17,32.9 0.57,33.36 1.31,31.3 2.13,29.28 2.86,27.22 2.15,27.64 0.72,28.49 0,28.91 V 28.28 C 0.98,27.13 2,26 3.02,24.87 4.51,24 5.83,22.88 7.16,21.78 c 0.92,0.4 1.85,0.8 2.79,1.15 l 1.56,0.58 c -0.69,0.3 -2.07,0.92 -2.75,1.22 2.98,0.67 4.85,-1.97 7.36,-2.93 1.29,0.03 2.14,1.03 3.07,1.76 4.04,0.86 7.8,2.77 11.98,3.04 0.39,0.52 1.17,1.58 1.57,2.1 1.57,-3.68 -3.38,-3.32 -5.32,-4.73 2.86,-1.3 6.56,-1.24 8.37,-4.2 -2.13,-1.3 -4.5,-2.12 -6.84,-2.96 2.03,-0.5 4.68,-0.04 6.05,-1.95 -0.22,-2.49 -3.49,-2.58 -5.12,-3.8 0.38,-0.78 1.15,-2.36 1.54,-3.14 -3.44,-1.3 -5.93,-3.96 -8.4,-6.55 M 10,27.09 c 2.4,0.23 4.79,-0.48 6.05,-2.64 -1.97,0.96 -4.57,0.95 -6.05,2.64 m 9.35,17.51 c 1.5,-0.33 2.93,-2.49 2.96,-4.01 -1.8,-0.58 -3.65,2.47 -2.96,4.01 z"
       id="path3" />
    <path
       fill="#fdfefa"
       opacity="1"
       d="m 136.08,2.03 c 8.97,-0.42 17.97,-0.06 26.95,-0.2 5.22,-0.29 10.76,1.33 14.47,5.13 5.36,6.76 6.58,16.61 3.24,24.54 -1.56,4.05 -5.08,6.76 -8.7,8.89 1.89,7.45 5.37,14.37 7.82,21.64 2.36,6.76 5.83,13.12 10.74,18.38 -7.11,-2.5 -14.13,-5.3 -21.39,-7.33 -3.32,-9.76 -7.15,-19.36 -10.3,-29.19 -1.55,0.02 -3.1,0.08 -4.65,0.19 0.59,9.68 -1.06,19.56 1.11,29.09 -2.32,0.12 -4.56,-0.44 -6.82,-0.82 -0.87,3.09 -1.08,6.33 -0.94,9.53 -0.33,0 -1.01,0 -1.34,0 0.17,-3.01 0.88,-6.13 -0.4,-9 -4.36,5.06 -1.3,12.15 -1.74,18.07 -0.29,0.44 -0.86,1.32 -1.15,1.76 -2.5,-0.02 -1.67,-3.15 -1.7,-4.71 0.37,-4.97 1.7,-10.86 -1.85,-15.02 1.33,-9.58 0.65,-19.28 0.83,-28.93 0.29,-2.81 -1.65,-5.18 -1.87,-7.91 0.16,-1.51 1.65,-2.51 1.84,-4.03 0.17,-5.09 -0.18,-10.19 0.22,-15.27 0.28,-5.21 -0.04,-11.21 -4.37,-14.81 m 18.26,11.24 c 0.05,6.35 -0.2,12.71 0.13,19.05 3.68,-0.14 7.86,0.58 10.9,-2.03 3.87,-3.45 3.8,-9.76 1.32,-13.99 -2.73,-4.08 -8.16,-3.1 -12.35,-3.03 z"
       id="path4" />
    <path
       fill="#fdfefa"
       opacity="1"
       d="m 188.09,1.98 c 9.32,-0.32 18.64,-0.05 27.96,-0.14 6.42,-0.06 13.37,2.79 16.41,8.73 3.41,7.31 3.94,16.36 -0.19,23.49 -1.65,3.08 -4.64,5.05 -7.66,6.61 5.13,13.48 8.31,28.42 18.45,39.26 -7.3,-2.13 -14.38,-4.98 -21.73,-6.98 -0.26,-2.25 -0.96,-4.4 -1.91,-6.45 -2.66,-7.56 -5.21,-15.17 -8,-22.68 -1.48,0.04 -2.96,0.08 -4.43,0.11 0.4,9.7 -0.96,19.55 1,29.12 -2.46,0.08 -4.97,-0.02 -7.37,0.59 -1.53,2.57 -0.95,5.83 -1.94,8.63 -2.07,-2.48 -1.16,-5.91 -1.83,-8.84 -2.58,-0.05 -5.15,-0.19 -7.73,-0.29 1.33,-2.23 3.55,-4.23 3.47,-7.03 0.29,-8.33 0.15,-16.7 -0.15,-25.02 -1.4,-2.49 -2.87,-5.89 0.1,-7.88 0.14,-7.13 0.25,-14.27 0.31,-21.39 -1.07,-3.5 -1.74,-7.43 -4.76,-9.84 m 18.94,11.17 c -0.08,6.35 -0.03,12.7 -0.02,19.04 4.19,0.08 9.43,0.88 12.27,-2.99 2.47,-4.17 2.1,-9.93 -0.59,-13.91 -3,-3.12 -7.81,-1.79 -11.66,-2.14 z"
       id="path5" />
    <path
       fill="#fdfefa"
       opacity="1"
       d="m 296.31,1.84 c 9.55,0 19.1,0.01 28.64,0 6.74,0 13.31,4.03 15.79,10.4 -1.97,0.99 -5.69,1.75 -3.76,4.73 -1.41,0.83 -4.09,0.69 -4.44,2.6 0.34,2.15 2.56,2.19 4.24,2.43 l -0.13,0.83 c -2.01,0.13 -3.88,0.8 -5.51,1.96 0.83,3.79 5.2,2.94 7.84,4.62 -2.11,0.76 -4.75,0.45 -6.46,2.02 -0.08,2.8 3.92,2.72 5.81,3.53 -1.38,2.54 -4.03,3.92 -6.37,5.4 2.65,8.69 5.81,17.23 9.16,25.67 2.68,4.84 5.11,10.28 9.88,13.44 -1.86,-0.35 -2.68,0.38 -2.46,2.2 -1.13,-1.62 -2.56,-3.1 -4.5,-3.69 -5.17,-1.78 -10.38,-3.43 -15.59,-5.07 -0.14,-3.14 -1.69,-5.91 -2.68,-8.82 -2.38,-6.79 -4.84,-13.56 -7.35,-20.31 -1.42,0.07 -2.85,0.12 -4.26,0.18 0.31,9.64 -0.72,19.37 0.72,28.95 -2.78,0.42 -7.43,-0.88 -7.94,3.09 -0.5,1.93 1.58,5.87 -1.63,5.96 0.28,-2.9 0.57,-5.85 -0.12,-8.72 l -1.09,0.72 c -1.93,4.79 -0.16,10.18 -0.17,15.21 -1.65,0.12 -2.4,-0.6 -2.24,-2.16 0.38,-5 0.46,-10.49 -2.46,-14.82 1.63,-9.33 0.2,-18.76 0.58,-28.16 0.29,-2.8 -1.08,-5.31 -1.59,-7.98 0.69,-1.63 2.05,-3.11 1.87,-5 0.01,-6.67 0.02,-13.35 0.05,-20.02 0.11,-3.46 -1.83,-6.52 -3.83,-9.19 m 18.09,11.37 c 0.09,6.37 -0.63,12.75 0.09,19.09 4,-0.13 9.12,0.66 11.76,-3.16 2.49,-4.21 2.41,-10.09 -0.54,-14.05 -3.11,-2.62 -7.56,-1.71 -11.31,-1.88 z"
       id="path6" />
    <path
       fill="#fdfefa"
       opacity="1"
       d="m 13.34,14.59 c 4.27,0.24 6.01,-4.24 8.6,-6.73 2.71,-0.27 6.52,-1.26 8.3,1.45 -2.21,0.15 -4.43,0.26 -6.64,0.42 -1.49,1.73 -2.93,3.51 -4.36,5.3 4.01,-3.01 10.63,-4.83 14.19,-0.2 -2.46,-0.14 -4.91,-0.82 -7.38,-0.6 -2.46,0.83 -4.27,2.89 -6.06,4.68 4.47,-0.77 9.87,-1.9 13.47,1.71 -2.81,0.02 -5.61,-0.46 -8.43,-0.3 -1.74,0.61 -3.1,2.13 -4.92,2.5 -0.21,-0.3 -0.64,-0.9 -0.86,-1.2 -2.78,-0.89 -5.53,-0.11 -7.66,1.82 L 9.95,22.93 c 1.84,-1.62 3.88,-3.07 5.27,-5.13 -2.16,1.12 -3.82,3.07 -6.07,3.97 0.24,-2.7 3.68,-4.29 4.19,-7.18 z"
       id="path7" />
    <path
       fill="#fdfefa"
       opacity="1"
       d="m 14.19,13.83 c -0.32,-1.21 1.42,-2.9 2.61,-2.29 0.75,1.37 -1.4,2.99 -2.61,2.29 z"
       id="path8" />
    <path
       fill="#fdfefa"
       opacity="1"
       d="m 337.99,15.12 c 1.79,-2.11 4.84,-1.76 7.17,-0.92 2.16,0.36 2.55,2.92 3.78,4.37 1.06,-0.14 2.09,-0.02 3.08,0.35 0.46,0.67 2.81,2.02 0.97,2.35 -1.21,-0.67 -2.29,-1.55 -3.45,-2.28 1.07,1.69 2.59,3 4.33,3.98 2.3,5.64 7.48,8.98 11.13,13.64 v 1.42 c -0.73,-0.51 -2.2,-1.55 -2.94,-2.06 0.65,2.1 1.41,4.17 1.94,6.31 -0.99,-0.51 -1.87,-1.14 -2.67,-1.9 -0.53,0.08 -1.61,0.26 -2.15,0.35 0.51,1.48 1.05,2.96 1.52,4.46 -2.28,-2.05 -3.52,-4.92 -5.44,-7.27 -3.69,0 -6.5,-2.49 -9.37,-4.44 -2.05,-1.58 -4.71,-0.27 -7.04,-0.42 -0.7,0.3 -3.86,-0.22 -1.98,-1.15 3.4,-0.26 6.63,-1.87 10.07,-1.48 1.37,-0.08 2.21,-1.82 3.6,-1.58 1.75,1.72 3.31,3.83 5.85,4.43 l -1.83,-1.59 c 0.82,-0.44 1.63,-0.87 2.47,-1.29 -1.74,-1.75 -3.36,-3.61 -5.05,-5.4 0.34,1.7 1.43,3.04 2.67,4.21 -0.51,0.4 -1.02,0.8 -1.53,1.19 -0.93,-2.42 -3.69,-1.76 -5.53,-2.89 -0.82,0.58 -1.62,1.19 -2.44,1.75 -2.41,-4.32 -7.59,-3.33 -11.7,-3.66 3.63,-3.42 8.9,-1.48 13.02,-0.25 -1.28,-1.81 -2.64,-3.7 -4.52,-4.92 -2.71,-0.48 -5.47,-0.41 -8.19,-0.67 4.66,-3.13 10.78,-1.8 14.3,2.37 -1.13,-1.94 -2.18,-3.95 -3.57,-5.71 -1.91,-1.26 -4.37,-0.89 -6.5,-1.3 m 12.02,16.21 c 0.49,2.45 3.11,3.36 5.29,3.62 -1.51,-1.54 -3.48,-2.49 -5.29,-3.62 z"
       id="path9" />
  </g>
</svg>
