<?xml version="1.0" encoding="UTF-8" standalone="no"?>
<svg
   width="800pt"
   height="200pt"
   viewBox="0 0 800 199.99999"
   version="1.1"
   id="svg7"
   sodipodi:docname="k-drama.svg"
   inkscape:version="1.4.2 (f4327f4, 2025-05-13)"
   inkscape:export-filename="k-drama.png"
   inkscape:export-xdpi="96"
   inkscape:export-ydpi="96"
   xmlns:inkscape="http://www.inkscape.org/namespaces/inkscape"
   xmlns:sodipodi="http://sodipodi.sourceforge.net/DTD/sodipodi-0.dtd"
   xmlns="http://www.w3.org/2000/svg"
   xmlns:svg="http://www.w3.org/2000/svg">
  <defs
     id="defs7" />
  <sodipodi:namedview
     id="namedview7"
     pagecolor="#ffffff"
     bordercolor="#000000"
     borderopacity="0.25"
     inkscape:showpageshadow="2"
     inkscape:pageopacity="0.0"
     inkscape:pagecheckerboard="true"
     inkscape:deskcolor="#d1d1d1"
     inkscape:document-units="pt"
     inkscape:zoom="0.88892495"
     inkscape:cx="522.5413"
     inkscape:cy="238.49032"
     inkscape:window-width="1920"
     inkscape:window-height="1130"
     inkscape:window-x="-6"
     inkscape:window-y="-6"
     inkscape:window-maximized="1"
     inkscape:current-layer="svg7" />
  <g
     id="#fdfdfdff"
     transform="matrix(0.32198712,0,0,0.32198712,50.000001,48.211132)">
    <path
       fill="#fdfdfd"
       opacity="1"
       d="m 947.89,0 h 0.46 c 0.94,0.39 1.89,0.8 2.84,1.21 2.28,-0.41 4.59,-0.86 6.94,-1.21 h 0.54 c 15.58,2.87 31.39,0.9 47.1,1.58 22.72,0.56 46.07,1.12 67.34,10.2 20.72,9.99 39.67,25.83 48.76,47.45 4.87,10.2 5.15,21.77 5.93,32.84 0.43,17.63 -8.3,34.05 -20.04,46.69 -7.66,8.88 -18.36,14.29 -28.71,19.35 -13.79,5.37 -28.6,7.42 -43.22,9.05 10.43,6.32 20.96,12.7 29.73,21.28 23.12,22.67 41.38,49.79 65.2,71.81 16.57,16.67 36.73,29.43 58.22,38.82 23.56,9.57 49.16,13.5 74.52,12.5 15.09,1.07 28.97,-6.91 43.91,-6.92 4.02,-0.24 3.67,5.01 1.38,6.96 -4.72,4.35 -11.31,5.74 -17.14,7.95 -16.22,5.92 -33.39,8.25 -50.27,11.44 h -34.76 c -14.24,-2.71 -28.76,-4.41 -42.53,-9.18 -26.47,-8.38 -49.3,-24.93 -70.3,-42.62 -26.61,-23.53 -46.85,-53.08 -71.56,-78.43 -11.6,-11.81 -25.06,-21.94 -40.14,-28.85 -10.14,-4.69 -21.5,-4.84 -32.42,-4.15 -0.04,18.82 -0.39,37.64 -0.18,56.46 0.24,14.14 -2.39,28.62 1.89,42.44 3.22,9.27 12.85,13.13 20.56,17.89 -1.32,1.93 -2.56,3.89 -3.73,5.9 -27.14,0.53 -54.29,-0.7 -81.42,0.57 -0.27,-2.94 -0.76,-5.94 -0.98,-8.86 5.9,-3.32 12.95,-5.75 16.69,-11.76 3.67,-5.4 3.43,-12.26 4.22,-18.47 0.87,-47.3 0.17,-94.63 0.88,-141.93 0.36,-21.34 -0.95,-42.66 -0.22,-64 0.35,-8.63 -1.08,-17.91 -6.63,-24.84 -3.3,-5.71 -10.34,-6.84 -15.7,-9.69 0.31,-3.19 0.7,-6.38 0.95,-9.58 20.62,-1.24 41.41,1.32 61.89,-1.9 m 8.52,20.57 c -3.43,1.57 -4.67,5.76 -5.69,9.09 -1.37,11.37 -1.77,22.86 -1.33,34.31 0.91,28.64 -1.76,57.33 0.73,85.94 9.56,0.16 19.17,1.28 28.74,0.22 19.16,-0.43 38.75,2.29 57.56,-2.52 7.97,-2.59 16.31,-5.05 23.16,-10.07 8.46,-7.08 15.43,-16.29 19.41,-26.61 2.28,-10.11 0.48,-20.7 0.5,-30.96 0.1,-9.38 -2.15,-18.72 -6.14,-27.19 -4.46,-9.88 -11.16,-19.21 -21.41,-23.65 -17.47,-10.17 -38.42,-8.95 -57.87,-9.74 -12.57,0 -25.18,-0.62 -37.66,1.18 z"
       id="path1" />
    <path
       fill="#fdfdfd"
       opacity="1"
       d="m 558.98,1.84 c 22.77,-0.54 45.56,-0.59 68.33,-0.19 28.41,1.64 56.84,0.5 85.27,0.87 33.52,-0.43 66.37,10.73 94.67,28.27 16.3,10.4 29.16,25.2 39.71,41.23 8.08,13.63 13.35,28.69 18.15,43.72 6.47,28.76 5.61,59.63 -4.93,87.33 -9.74,23.54 -25.91,44.72 -47.14,59.01 -17.52,12.4 -37.98,19.91 -58.64,25.16 -23.55,4.82 -47.7,3.12 -71.55,3.21 -35.96,-1.57 -71.83,-7.83 -107.87,-4.5 -10.33,0.83 -19.97,5.21 -29.04,9.93 -15.08,7.65 -30.28,15.57 -46.9,19.29 -28.45,7.6 -58.24,10.9 -87.57,7.44 -29.24,-3.38 -58.39,-9.35 -85.83,-20.21 -43.27,-15.39 -83.85,-39.09 -117.05,-70.97 -27.62,-24.37 -49.92,-54.28 -78.91,-77.13 -10.56,-8.61 -25.34,-12.61 -38.44,-7.88 -9.25,5.69 -17.76,12.85 -24.49,21.42 -4.13,4.97 -1.99,12.26 -2.86,18.13 0.38,25.13 -0.76,50.31 0.74,75.41 -0.02,12.05 12.45,17.08 21.41,21.8 -0.34,2.54 -0.66,5.13 -1,7.7 -27.11,-1 -54.24,0.11 -81.35,-0.13 0.33,-3.02 0.75,-6.06 1.34,-9.03 3.16,-3.62 8.37,-4.63 11.75,-8 6.75,-8.17 4.73,-19.48 5.78,-29.19 C 23.63,182.03 22.57,119.51 23.14,57 22.99,48.3 23.51,39.48 22.08,30.87 19.14,19.88 7.25,16.57 0,9.24 V 3.56 C 28.46,0.52 57.17,3.07 85.73,2.25 c 0.12,2.82 0.2,5.63 0.31,8.44 -5.8,4.18 -13.4,6.71 -17.09,13.28 -5.33,8.63 -4.63,19.27 -4.95,28.99 0.02,31.85 -0.24,63.71 0.27,95.55 20.42,-17.34 42.17,-33.13 61.51,-51.73 10.3,-10.05 21.42,-19.22 31.56,-29.43 20.17,-19.52 41.3,-38.83 66.66,-51.34 20.73,-10.17 44.45,-10.59 67.02,-9.25 -0.03,1.78 -0.1,5.34 -0.13,7.12 -7.28,2.96 -14.57,5.96 -22.2,7.93 -22.1,6.8 -40.73,20.94 -60.44,32.52 -8.92,6.47 -18.44,12.05 -27.26,18.65 -10.86,7.67 -20.65,16.68 -31.17,24.79 -10.86,8.03 -20.45,17.71 -32,24.82 9.88,0.71 20.11,1.24 29.26,5.42 16.86,8.18 32.26,19.17 45.91,31.99 29.19,25.06 53.31,55.68 84.2,78.81 18.81,14.35 39.46,26.07 60.74,36.33 10.58,5.65 22.02,9.31 33.09,13.81 18.39,7.22 37.83,11.01 57.15,14.81 25.84,4.96 53.19,3.35 77.75,-6.43 22.02,-6.35 43.33,-17.34 58.56,-34.82 12.37,-15.39 21.41,-33.48 26.3,-52.62 11.55,-39.58 11.69,-81.51 7.54,-122.22 -3.22,-20.4 -6.94,-41.24 -16.18,-59.9 -4.45,-9.81 -14.98,-13.35 -24.28,-16.82 0.34,-3.04 0.71,-6.07 1.12,-9.11 m 62.96,19.27 c -0.58,3.99 1.59,7.72 2.57,11.45 2.59,7.58 5.85,14.93 8.28,22.57 7.29,26.09 12.19,53.23 10.49,80.4 -1.9,13.55 -5.25,26.84 -7.34,40.36 -1.43,11.17 -6.02,21.6 -9.93,32.07 -4.86,12.66 -12.52,23.92 -19.69,35.33 -6.17,10.29 -15.12,18.45 -22.79,27.57 8.82,-0.64 17.64,-1.78 26.51,-1.32 12.63,-1.24 25.32,-1.4 37.99,-2.04 13.04,-1.2 26.01,-3.53 38.4,-7.87 27.55,-7.11 52.87,-21.46 74.71,-39.51 7.57,-6.8 13.88,-14.85 20.06,-22.89 4.71,-6.16 7.79,-14.39 15.48,-17.57 1.49,4.69 4.84,9.59 2.66,14.64 -6.77,18.1 -19.9,33.34 -35.32,44.74 -19.99,15.65 -43.21,26.47 -67.37,33.9 9.15,0.89 18.48,1.41 27.53,-0.51 13.88,-3.1 28.27,-5.33 40.84,-12.41 11.35,-6.5 21.71,-14.83 30.25,-24.77 9.49,-10.58 14.84,-23.91 20.22,-36.85 9.2,-25.52 8.32,-53.53 4.15,-79.97 C 816.17,94.76 805.03,72.59 789.27,54.73 778.84,42.89 764.68,35.25 750.02,29.95 732.96,24.11 715.14,19.87 697.01,20.03 672,20.13 646.88,19.38 621.94,21.11 Z"
       id="path2" />
    <path
       fill="#fdfdfd"
       opacity="1"
       d="m 1483.49,1.29 c 25.88,0.97 52.06,-1.63 77.66,3.31 -0.18,1.65 -0.54,4.96 -0.73,6.62 -2.23,2.08 -6.26,4.42 -4.73,8.07 4.18,9.74 10.4,18.48 14.77,28.16 8.22,17.66 18.11,34.45 27.56,51.45 7.67,14.64 15.8,29.04 23.34,43.76 6.67,13.17 14.79,25.55 21.25,38.84 7.08,14.39 15.11,28.3 23.85,41.75 2.92,-5.93 5.6,-12 9.05,-17.66 6.28,-10.11 10.64,-21.25 16.46,-31.62 8.45,-14.94 16.45,-30.12 24.96,-45.02 14.38,-25.26 26.68,-51.65 41.29,-76.79 7.96,-15.49 15.76,-31.14 25.2,-45.81 2.59,-3.76 7.63,-3.7 11.71,-4.12 15.59,-0.18 31.16,-0.16 46.77,-0.18 -0.69,3.16 -0.16,6.85 -2.25,9.46 -5.03,4.36 -11.85,6.71 -15.48,12.57 -4.87,7.08 -4.47,16.03 -5.02,24.21 -0.95,63.23 1.05,126.44 0.34,189.66 0.24,8.72 0.1,17.52 1.44,26.16 2.53,8.76 10.8,15.42 19.56,17.23 13.37,-6.35 24.86,-16.59 32.5,-29.33 17.8,-27.84 33.34,-57.05 48.83,-86.22 9.59,-14.92 17.66,-30.73 25.39,-46.68 9.36,-17.71 17.52,-36.03 25.39,-54.45 3.05,-9.03 6.81,-17.79 10.54,-26.55 4.71,-10.86 -2.66,-22.06 -5.52,-32.45 8.48,-1.16 16.99,-3.3 25.6,-2.67 7.22,3.25 10.14,11.45 13.91,17.82 8.11,16.67 17.18,32.84 25.55,49.38 5.68,12.04 13.39,22.96 19.19,34.95 7.78,16.37 17.23,31.88 24.54,48.49 10.39,17.97 18.49,37.12 28.71,55.19 9.98,18.7 18.75,38.32 32.13,54.93 6.94,8.61 16.87,13.64 26.75,18.08 v 8.72 c -24.48,-0.23 -48.96,-0.84 -73.41,0.35 -3.07,-0.54 -10.47,1.41 -10.24,-3.88 1.13,-6.35 8.19,-8.97 12.47,-12.85 -5.8,-14.78 -14.52,-28.15 -21.78,-42.2 -16.04,-30.98 -32.68,-61.64 -48.31,-92.82 -8.49,-14.93 -14.68,-30.99 -22.53,-46.24 -6,-11.45 -10.39,-23.63 -15.76,-35.36 -6.05,10.6 -10.85,21.83 -16.34,32.71 -7.48,12.84 -13.24,26.57 -19.99,39.79 -18.65,35.32 -37.13,70.73 -56.25,105.79 -6.15,12.61 -14.29,25.17 -14,39.75 4.39,3.62 8.31,7.95 7.69,14.17 -12.64,1.47 -25.4,0.55 -38.06,1.07 -6.12,0.22 -12.11,-1.35 -17.54,-4.04 -0.16,1.29 -0.32,2.57 -0.43,3.86 -24.82,-0.32 -49.65,-0.67 -74.47,-0.12 -3.94,0.23 -11.67,-0.81 -8.73,-7.03 4.32,-4.94 11.57,-6.22 15.53,-11.61 5.49,-7.79 5.21,-17.81 5.27,-26.88 -0.28,-55 0.04,-110.01 -0.25,-165.01 -0.16,-12.16 0.62,-24.33 2.52,-36.35 -10.43,20.14 -19.87,40.8 -31.46,60.32 -16.4,27.78 -29.95,57.1 -45.91,85.12 -14.95,26.91 -27,55.24 -39.87,83.15 -2.76,6.16 -4.79,12.79 -9.44,17.88 -1.81,0.04 -3.82,-0.3 -4.89,-1.9 -3.62,-5.38 -5.84,-11.49 -8.66,-17.28 -7.55,-15.94 -16.29,-31.27 -24.16,-47.05 -5.44,-10.24 -10.32,-20.77 -16.14,-30.8 -11.89,-20.21 -22,-41.39 -32.76,-62.21 -8.42,-14.47 -14.98,-29.92 -23.81,-44.16 -6.27,-12.19 -11.78,-24.75 -18,-36.97 -0.05,14.74 0.08,29.49 -0.21,44.23 -0.42,28.74 0.91,57.53 -1.56,86.21 0.08,18.93 0.17,37.86 -0.4,56.8 0.09,9.42 -1.03,19.35 2.54,28.35 3.44,8.7 12.06,13.32 19.24,18.49 -1.66,2.2 -2.74,5.74 -5.88,6.05 -17.3,2.01 -34.73,-0.09 -52.06,-0.31 -19.61,1.89 -39.33,0.24 -58.97,0.79 -5.77,0.03 -11.5,0.25 -17.17,-0.8 1.69,-5.35 4.77,-10.09 8.71,-14.03 -2.52,-11.25 -8.78,-21.06 -13.8,-31.28 -11.58,-20.68 -22.24,-41.87 -33.99,-62.46 -19.41,7.49 -40.65,7.13 -61.03,5.27 -22.21,-3.72 -44.33,-8.43 -66.84,-9.96 -12.04,19.49 -24.43,38.75 -36.51,58.21 -4.05,7.62 -10.22,15.64 -8.11,24.85 1.24,4.95 3.04,9.79 3.23,14.95 -14.93,-0.38 -29.03,-6.16 -41.2,-14.51 -3.15,-1.63 0.28,-7.23 3.15,-6.8 4.42,-2.18 9.13,-4.12 12.62,-7.74 9.52,-9.32 17.1,-20.38 24.65,-31.3 7.55,-11.73 15.82,-23.07 21.88,-35.7 -9.09,2.06 -18.45,4.09 -26.43,9.12 -5.78,3.27 -9.89,8.64 -14.28,13.47 -1.68,-0.3 -3.36,-0.61 -5,-0.91 0.2,-9.19 3.94,-17.79 11.09,-23.77 12.27,-9.92 27.67,-14.97 42.92,-18.19 6,-1.05 9.32,-6.87 12.44,-11.54 14.83,-25.07 29.48,-50.26 42.6,-76.29 7.15,-14.58 16.58,-29.07 17.68,-45.69 -2.89,-7.43 -8.22,-13.51 -12.42,-20.19 11.25,-4.33 23.67,-2.57 35.3,-1.32 3.61,1.21 4.36,5.64 6.09,8.55 6.33,15.86 14.39,30.94 22.08,46.17 9.74,16.6 18.06,33.95 26.93,51.02 8.54,14.32 14.89,29.81 23.88,43.89 15.61,31.45 33.07,61.92 49.06,93.18 7.31,14.12 18.2,27.51 33.63,32.98 6.65,-0.97 12.08,-6.5 15.11,-12.28 5.24,-8.69 4.34,-19.34 4.68,-29.05 1.52,-17.43 -0.05,-34.92 0.5,-52.38 1.25,-46.59 -0.09,-93.21 0.97,-139.81 0.41,-8.3 -0.65,-17.11 -5.26,-24.2 -5.22,-5.18 -12.34,-7.78 -18.37,-11.76 -1.66,-2.56 -1.62,-5.9 -2.29,-8.77 m -185.54,81.68 c -6.95,12.66 -14.61,24.93 -21.36,37.71 -7.22,12.17 -14.81,24.15 -21.01,36.89 31.37,3.36 61.6,16.24 93.51,13.82 5.68,1.37 10.02,-2.44 14.4,-5.23 -8.68,-15.8 -17.48,-31.54 -24.59,-48.12 -10.6,-19.25 -17.73,-40.09 -27.58,-59.69 -4.97,7.93 -8.65,16.55 -13.37,24.62 z"
       id="path3" />
    <path
       fill="#fdfdfd"
       opacity="1"
       d="m 419.96,124.75 c 5.03,-3.77 9.84,-9.56 16.86,-8.56 7.03,2.26 15.41,6.51 16.25,14.78 3.08,13.28 -7.91,23.29 -15.58,32.49 -5.43,5.43 -9.28,12.88 -16.52,16.17 -8.74,-13.89 -23.82,-22.94 -30.43,-38.24 -1.98,-5.91 -2.69,-13.23 1.47,-18.38 2.65,-5.02 8.79,-6.32 13.97,-5.76 5.45,0.59 9.73,4.39 13.98,7.5 z"
       id="path4" />
    <path
       fill="#fdfdfd"
       opacity="1"
       d="m 1994.93,132.02 c 0.78,0.01 2.35,0.01 3.13,0.02 2.04,8.79 3.19,17.88 6.55,26.32 1.94,5.5 6.77,9.24 11.4,12.5 6.42,2.9 13.25,4.89 19.9,7.28 0.02,0.73 0.05,2.21 0.06,2.94 -6.11,1.23 -12.66,1.51 -18.1,4.79 -4.82,3.08 -9.69,6.55 -12.41,11.72 -4.39,6.9 -2.71,16.49 -9.18,22.19 -3.38,-10.85 -4.37,-23.57 -13.54,-31.46 -7.01,-4.11 -15.06,-5.88 -22.8,-8.05 -0.02,-1.49 -0.01,-2.98 0.03,-4.47 8.99,-1.8 18.87,-3.1 25.3,-10.51 7.97,-9.34 6.55,-22.14 9.66,-33.27 z"
       id="path5" />
    <path
       fill="#fdfdfd"
       opacity="1"
       d="m 284.29,138.29 c 2.29,-1.06 4.87,-0.71 7.36,-0.81 25.13,0.05 50.28,-0.6 75.4,0.6 4.2,0.21 7.57,3.12 11.23,4.86 -1.46,2.68 -1.76,8.34 -6.11,8.19 -25.34,1.81 -50.8,0.59 -76.19,0.96 -4.04,-0.96 -9.89,1.7 -12.82,-2.26 -2.41,-3.25 -2.59,-9.12 1.13,-11.54 z"
       id="path6" />
    <path
       fill="#fdfdfd"
       opacity="1"
       d="m 469.4,139.39 c 5.05,-3.75 11.83,-1.05 17.58,-1.67 24.06,-0.9 48.11,0.35 72.17,-0.17 2.37,0.04 5.52,0.35 6.28,3.08 0.95,2.9 1.56,9.26 -2.83,9.9 -6.58,1.89 -13.49,0.97 -20.21,1.05 -25.02,-0.42 -50.07,0.86 -75.05,-1.29 0.75,-3.52 0.05,-7.68 2.06,-10.9 z"
       id="path7" />
  </g>
</svg>
