<?xml version="1.0" encoding="UTF-8" standalone="no"?>
<svg
   width="800pt"
   height="200pt"
   viewBox="0 0 800 200"
   version="1.1"
   id="svg13"
   sodipodi:docname="romance.svg"
   inkscape:version="1.4.2 (f4327f4, 2025-05-13)"
   xmlns:inkscape="http://www.inkscape.org/namespaces/inkscape"
   xmlns:sodipodi="http://sodipodi.sourceforge.net/DTD/sodipodi-0.dtd"
   xmlns="http://www.w3.org/2000/svg"
   xmlns:svg="http://www.w3.org/2000/svg">
  <defs
     id="defs13" />
  <sodipodi:namedview
     id="namedview13"
     pagecolor="#ffffff"
     bordercolor="#000000"
     borderopacity="0.25"
     inkscape:showpageshadow="2"
     inkscape:pageopacity="0.0"
     inkscape:pagecheckerboard="true"
     inkscape:deskcolor="#d1d1d1"
     inkscape:document-units="pt"
     inkscape:zoom="1.708125"
     inkscape:cx="533.33333"
     inkscape:cy="133.47969"
     inkscape:window-width="1920"
     inkscape:window-height="1130"
     inkscape:window-x="-6"
     inkscape:window-y="-6"
     inkscape:window-maximized="1"
     inkscape:current-layer="svg13" />
  <g
     id="#fefefdff"
     transform="translate(160,7.5)">
    <path
       fill="#fefefd"
       opacity="1.00"
       d=" M 21.89 16.64 C 39.57 3.55 62.36 -0.79 83.97 0.61 C 96.28 1.74 108.94 5.43 118.47 13.61 C 127.61 21.86 130.71 35.27 128.13 47.06 C 126.49 55.63 121.00 62.93 114.57 68.59 C 108.77 73.67 101.40 76.42 93.99 78.16 C 102.51 83.83 107.26 93.23 111.67 102.14 C 120.54 120.08 125.88 140.02 138.46 155.94 C 152.45 149.93 166.48 142.99 181.85 141.50 C 190.96 140.68 201.27 141.24 208.53 147.51 C 216.12 153.86 216.12 166.42 209.64 173.56 C 203.06 181.14 192.64 183.57 183.07 184.54 C 163.02 185.89 142.14 179.54 127.71 165.19 C 119.11 168.76 110.28 172.15 100.94 173.12 C 92.86 173.89 84.31 173.86 76.82 170.29 C 69.49 167.00 63.23 160.19 62.46 151.94 C 62.09 146.52 65.71 141.78 70.12 139.04 C 70.21 144.04 69.82 149.34 72.17 153.95 C 76.28 162.15 85.08 167.27 94.04 168.26 C 104.60 169.44 115.22 166.87 124.77 162.43 C 116.64 152.98 110.21 142.15 105.22 130.75 C 98.65 116.66 94.19 101.66 87.07 87.82 C 84.98 84.25 82.69 79.49 77.95 79.28 C 75.24 90.95 72.84 102.72 69.36 114.20 C 66.70 121.88 63.41 129.77 57.29 135.37 C 50.42 141.87 39.85 144.18 30.94 140.95 C 35.24 139.67 39.91 138.46 43.02 134.97 C 47.94 129.55 50.29 122.40 52.20 115.47 C 55.56 102.38 58.30 89.14 61.30 75.97 C 64.49 62.18 66.85 48.07 72.41 34.97 C 70.11 33.58 67.78 32.25 65.55 30.74 C 69.14 28.52 73.55 28.92 77.44 27.55 C 82.11 26.16 85.95 23.06 90.24 20.88 C 92.02 19.84 94.07 20.77 95.96 20.91 C 92.16 25.27 89.20 30.35 87.72 35.96 C 84.13 48.62 81.67 61.56 78.79 74.39 C 87.91 75.66 97.50 71.26 103.15 64.08 C 109.12 56.83 111.23 47.20 111.49 38.01 C 111.52 29.28 108.54 20.07 101.63 14.37 C 92.75 6.64 80.31 5.20 68.98 5.54 C 52.40 6.34 35.46 12.58 24.20 25.14 C 14.27 35.23 10.73 50.38 13.17 64.10 C 14.30 70.79 18.77 77.14 25.33 79.39 C 28.52 80.62 31.89 79.56 35.10 79.03 C 35.18 79.87 35.33 81.55 35.41 82.39 C 26.72 86.43 15.66 84.98 8.61 78.39 C 3.18 73.52 0.79 66.24 0.00 59.18 L 0.00 52.99 C 1.10 38.22 9.98 25.03 21.89 16.64 M 140.81 158.86 C 150.57 170.89 165.33 179.30 181.02 179.48 C 188.38 179.37 196.29 178.08 202.00 173.05 C 207.26 168.55 209.31 160.36 205.85 154.17 C 202.85 147.96 195.50 145.37 189.02 145.17 C 171.84 144.24 156.30 152.73 140.81 158.86 Z"
       id="path1" />
    <path
       fill="#fefefd"
       opacity="1.00"
       d=" M 188.75 14.73 C 197.25 5.59 209.84 1.64 221.97 0.57 C 243.80 -1.19 265.45 4.60 285.76 12.15 C 314.28 22.35 341.47 36.29 370.91 43.86 C 374.85 37.82 380.54 32.17 387.97 31.06 C 388.49 31.24 389.53 31.60 390.04 31.78 C 384.81 35.38 379.42 39.15 376.45 44.99 C 389.86 46.92 404.22 45.91 416.27 39.25 C 422.83 35.54 428.85 30.37 432.34 23.58 C 434.43 19.08 435.21 13.04 431.64 9.06 C 429.13 7.02 425.37 6.02 422.35 7.52 C 418.68 8.91 417.16 12.82 415.56 16.07 C 414.27 12.36 412.53 8.15 408.53 6.68 C 403.63 4.27 397.22 7.59 396.17 12.90 C 394.23 20.54 399.22 27.37 403.51 33.16 C 396.66 28.73 390.22 21.66 390.28 13.04 C 390.19 6.33 396.08 -0.14 403.00 0.36 C 409.23 -0.09 414.14 5.05 415.79 10.66 C 417.54 6.53 420.68 2.61 425.22 1.49 C 432.64 -1.19 441.93 4.86 441.91 12.89 C 442.44 21.86 436.26 29.37 429.87 34.90 C 414.91 48.25 393.56 52.40 374.12 49.59 C 370.11 58.16 370.43 67.81 370.02 77.04 C 370.02 92.00 370.04 106.97 370.01 121.94 C 369.95 123.93 370.15 125.99 371.13 127.76 C 372.06 129.76 374.59 130.43 375.29 132.59 C 370.15 132.61 363.87 134.32 359.79 130.23 C 356.86 126.90 354.96 122.83 352.94 118.92 C 345.92 105.83 338.97 92.70 332.04 79.56 C 331.74 92.70 331.99 105.85 331.91 118.99 C 332.15 122.07 331.80 125.56 333.75 128.18 C 335.18 129.29 337.04 129.56 338.71 130.16 C 338.52 131.76 337.95 133.13 336.08 132.73 C 330.76 132.80 325.43 132.75 320.11 132.72 C 320.08 132.04 320.02 130.69 319.99 130.01 C 321.61 129.43 323.67 129.23 324.65 127.60 C 325.94 125.66 325.88 123.21 325.97 120.97 C 325.94 103.61 325.97 86.25 325.95 68.89 C 326.09 65.45 323.42 62.62 320.39 61.40 C 319.10 61.03 319.27 59.58 318.94 58.56 C 324.66 58.64 330.37 58.35 336.08 58.17 C 345.91 75.44 355.17 93.15 364.18 110.91 C 364.08 95.90 364.14 80.89 364.61 65.89 C 365.03 60.03 366.27 54.23 368.41 48.75 C 348.63 45.64 329.85 38.43 311.11 31.65 C 290.45 24.06 269.64 16.60 248.11 11.87 C 231.38 8.36 212.82 6.86 197.20 15.11 C 190.45 18.37 184.96 25.20 185.29 32.98 C 184.93 37.98 187.54 42.38 189.86 46.58 C 187.01 44.60 184.28 42.16 182.97 38.86 C 179.28 30.65 182.54 20.77 188.75 14.73 Z"
       id="path2" />
    <path
       fill="#fefefd"
       opacity="1.00"
       d=" M 28.74 36.62 C 31.76 38.00 33.74 35.55 36.04 34.08 C 39.52 32.76 43.43 33.57 46.85 34.76 C 49.06 35.45 51.37 37.41 50.84 39.98 C 50.86 42.90 47.82 44.07 45.58 45.03 C 45.95 42.48 47.13 39.20 44.68 37.33 C 39.86 34.00 32.89 36.22 30.25 41.25 C 28.79 43.59 30.20 47.16 33.16 47.26 C 37.85 47.63 42.56 47.33 47.22 46.73 C 44.52 49.21 42.23 52.11 40.53 55.36 C 36.98 52.88 33.24 50.67 29.53 48.42 C 27.19 47.06 26.53 44.28 25.60 41.95 C 26.15 39.90 27.22 38.08 28.74 36.62 Z"
       id="path3" />
    <path
       fill="#fefefd"
       opacity="1.00"
       d=" M 32.62 43.95 C 31.64 38.28 39.73 37.01 43.48 39.07 C 40.22 38.64 34.23 39.91 35.49 44.33 C 37.32 44.24 39.11 43.92 40.85 43.35 C 40.67 42.49 40.30 40.77 40.12 39.92 C 40.68 40.08 41.79 40.41 42.35 40.58 C 42.76 40.04 43.57 38.97 43.98 38.43 L 43.17 40.58 C 43.51 40.89 44.19 41.51 44.53 41.81 C 42.23 45.66 35.96 46.45 32.62 43.95 Z"
       id="path4" />
    <path
       fill="#fefefd"
       opacity="1.00"
       d=" M 53.07 38.63 C 54.11 39.55 56.36 40.15 55.93 41.95 C 55.21 43.64 54.11 45.15 53.53 46.90 C 52.89 51.69 55.65 56.72 53.22 61.28 C 52.29 63.60 49.95 64.72 47.80 65.64 C 46.84 62.23 44.79 59.40 42.34 56.91 C 43.31 51.98 47.67 49.13 50.77 45.59 C 52.55 43.71 52.53 40.99 53.07 38.63 Z"
       id="path5" />
    <path
       fill="#fefefd"
       opacity="1.00"
       d=" M 22.64 44.60 C 23.06 44.47 23.90 44.19 24.32 44.05 C 24.58 46.52 24.98 49.46 27.60 50.52 C 34.28 53.99 41.44 57.65 45.54 64.26 C 41.94 70.88 31.43 69.15 28.36 62.92 C 26.93 60.21 27.09 57.04 26.10 54.19 C 24.60 52.23 21.48 51.60 21.01 48.92 C 21.26 47.38 21.98 45.99 22.64 44.60 Z"
       id="path6" />
    <path
       fill="#fefefd"
       opacity="1.00"
       d=" M 287.56 57.68 C 289.56 57.01 291.21 54.93 293.45 55.34 C 295.35 59.48 296.04 64.06 297.37 68.41 C 301.98 84.70 305.85 101.18 310.26 117.53 C 311.26 120.81 311.97 124.28 313.82 127.23 C 315.09 129.47 318.96 129.26 318.91 132.30 C 310.59 133.32 302.24 132.07 293.90 132.76 C 293.84 132.03 293.78 131.30 293.73 130.57 C 295.13 129.67 297.40 129.04 297.38 127.00 C 297.67 116.18 290.13 105.15 279.05 103.34 C 277.36 110.73 275.19 118.06 274.44 125.62 C 274.04 128.63 276.95 129.63 279.26 130.21 C 279.17 130.84 279.00 132.09 278.91 132.72 C 267.90 132.64 256.88 133.04 245.88 132.69 C 242.81 132.90 243.04 129.21 242.70 127.10 C 242.52 109.73 242.74 92.35 242.61 74.98 C 242.64 70.89 241.51 65.57 236.86 64.53 C 231.99 63.46 228.07 68.31 227.91 72.81 C 227.53 82.89 228.08 92.99 227.48 103.06 C 227.54 110.12 227.74 117.19 227.94 124.25 C 227.94 127.26 230.07 129.58 232.96 130.16 C 232.87 130.79 232.68 132.05 232.59 132.68 C 225.04 132.79 217.49 132.88 209.94 132.84 C 209.49 132.31 208.58 131.26 208.12 130.73 C 209.74 129.55 212.21 128.97 212.79 126.80 C 213.76 123.62 213.58 120.24 213.61 116.95 C 213.55 103.02 213.70 89.09 213.56 75.16 C 213.27 71.24 212.62 65.82 208.05 64.70 C 202.24 63.85 198.66 70.18 198.59 75.21 C 198.36 88.13 198.59 101.07 198.50 113.99 C 198.58 118.31 198.08 122.76 199.46 126.94 C 200.21 128.79 202.41 129.26 203.92 130.30 C 203.66 131.13 203.40 131.96 203.13 132.79 C 195.24 132.78 187.34 132.85 179.45 132.74 C 179.32 131.73 179.20 130.72 179.08 129.72 C 180.54 129.19 181.99 128.66 183.45 128.12 C 184.10 126.16 184.73 124.15 184.64 122.06 C 184.62 103.63 184.67 85.20 184.60 66.77 C 184.86 63.36 181.62 61.87 178.96 60.87 C 178.83 60.30 178.57 59.17 178.44 58.60 C 184.99 58.21 191.55 58.08 198.12 58.31 C 198.11 60.09 198.10 61.88 198.11 63.67 C 201.68 60.34 205.95 56.98 211.14 57.22 C 216.92 56.85 223.03 59.49 225.74 64.82 C 231.03 56.89 243.05 54.49 250.74 60.28 C 254.82 63.11 256.44 68.25 256.47 73.03 C 256.49 89.03 256.47 105.03 256.47 121.03 C 256.48 124.58 256.95 128.78 260.72 130.29 C 263.19 128.96 266.37 127.99 267.03 124.86 C 269.20 117.44 270.88 109.87 272.71 102.35 C 268.42 102.23 264.77 104.51 260.94 106.04 C 262.79 100.73 268.37 97.28 273.96 97.74 C 276.17 87.78 278.65 77.88 281.10 67.98 C 281.92 65.64 280.93 63.27 280.76 60.92 C 282.41 58.91 285.42 58.99 287.56 57.68 M 285.60 75.36 C 283.55 82.99 281.84 90.70 280.06 98.40 C 284.80 99.51 289.15 101.89 292.58 105.35 C 290.34 95.33 287.86 85.37 285.60 75.36 Z"
       id="path7" />
    <path
       fill="#fefefd"
       opacity="1.00"
       d=" M 137.52 61.49 C 143.55 56.63 153.02 54.52 159.64 59.41 C 155.40 59.41 150.75 59.47 147.28 62.25 C 142.12 65.99 140.96 72.69 139.84 78.53 C 138.45 89.13 138.76 99.88 139.80 110.50 C 140.64 116.14 141.54 122.15 145.07 126.82 C 147.39 130.37 153.39 130.27 155.52 126.59 C 159.59 120.10 160.13 112.20 160.97 104.78 C 161.52 94.19 161.70 83.31 158.87 73.00 C 158.22 70.36 156.33 66.96 153.12 67.58 C 147.91 69.76 149.39 78.85 155.45 78.40 C 155.40 80.34 155.69 82.66 154.10 84.11 C 152.26 86.25 148.72 85.96 146.68 84.27 C 143.60 81.93 142.87 77.57 143.84 74.00 C 144.96 69.58 147.13 64.54 151.87 63.08 C 157.58 61.42 164.41 63.14 168.26 67.81 C 173.21 73.62 174.88 81.39 175.74 88.78 C 176.64 101.81 175.00 116.04 166.44 126.48 C 161.83 132.44 153.81 135.07 146.48 133.81 C 140.22 132.81 135.06 128.41 131.75 123.19 C 125.52 113.44 123.44 101.43 124.73 90.03 C 125.78 79.56 129.12 68.44 137.52 61.49 Z"
       id="path8" />
    <path
       fill="#fefefd"
       opacity="1.00"
       d=" M 383.77 74.76 C 387.12 66.95 393.30 59.42 401.92 57.44 C 406.99 56.10 412.06 57.75 416.97 58.92 C 417.55 58.52 418.69 57.72 419.27 57.31 C 419.93 57.36 421.26 57.45 421.92 57.50 C 421.87 64.03 422.21 70.58 421.88 77.11 C 421.08 77.13 419.48 77.18 418.68 77.20 C 417.57 71.72 416.01 65.34 410.66 62.51 C 407.10 60.62 402.91 62.70 400.79 65.76 C 397.25 70.80 396.26 77.10 395.52 83.09 C 394.76 91.64 394.80 100.28 395.54 108.83 C 396.40 114.99 397.37 121.65 401.53 126.56 C 404.67 130.42 411.22 130.32 414.35 126.50 C 417.65 122.40 418.62 117.05 419.49 112.00 C 421.64 112.18 423.77 112.60 425.73 113.54 C 425.07 119.49 422.98 125.50 418.77 129.89 C 413.49 134.97 405.03 135.12 398.54 132.48 C 390.09 128.91 385.21 120.40 382.40 112.09 C 378.76 99.97 379.00 86.54 383.77 74.76 Z"
       id="path9" />
    <path
       fill="#fefefd"
       opacity="1.00"
       d=" M 451.51 57.30 C 457.93 56.17 465.25 57.26 470.04 62.02 C 476.16 67.84 478.71 76.31 480.00 84.43 L 480.00 90.83 C 474.97 91.85 469.76 92.53 465.16 94.95 C 462.45 96.34 459.55 98.12 458.40 101.09 C 457.81 103.50 458.41 105.99 458.53 108.41 C 455.94 108.59 453.04 108.81 450.91 107.01 C 447.56 104.46 448.05 99.30 450.35 96.21 C 453.77 91.53 459.61 89.68 464.93 88.11 C 464.95 80.68 465.23 72.87 462.15 65.93 C 460.89 62.91 457.36 60.48 454.12 62.06 C 449.97 64.09 448.32 68.82 447.16 72.97 C 444.88 82.16 444.78 91.71 444.73 101.12 C 445.28 109.41 445.38 118.49 450.35 125.55 C 453.85 130.68 462.25 130.81 466.15 126.12 C 469.73 122.03 470.72 116.50 471.65 111.33 C 473.65 111.49 475.65 111.69 477.65 111.90 C 478.59 120.87 473.20 130.67 464.44 133.58 C 458.94 135.01 453.00 134.46 447.74 132.38 C 440.49 129.21 435.70 122.24 432.65 115.20 C 427.45 101.99 428.25 86.83 433.59 73.79 C 436.80 66.12 443.01 58.93 451.51 57.30 Z"
       id="path10" />
    <path
       fill="#fefefd"
       opacity="1.00"
       d=" M 42.82 69.07 C 45.18 68.13 47.46 66.88 50.07 66.78 C 47.96 69.03 45.07 71.47 45.72 74.93 C 46.64 82.73 45.42 90.88 41.66 97.82 C 45.09 96.60 49.81 96.57 51.82 100.16 C 53.88 103.05 52.57 107.96 48.85 108.61 C 47.04 109.18 46.48 107.14 45.78 105.98 C 46.97 105.69 48.17 105.41 49.37 105.15 C 49.56 103.59 49.97 101.67 48.36 100.69 C 45.16 98.51 40.31 100.08 38.50 103.42 C 32.27 112.53 23.52 120.31 20.35 131.19 C 18.38 137.97 21.42 145.51 27.30 149.30 C 21.12 148.06 16.14 142.39 16.06 136.03 C 15.98 131.08 18.02 126.42 20.16 122.07 C 21.75 118.75 24.60 116.10 25.45 112.44 C 27.79 112.90 28.68 110.35 30.06 109.02 C 35.07 102.85 40.37 96.15 41.56 88.06 C 40.16 87.41 38.77 86.76 37.36 86.13 C 38.96 86.33 40.56 86.52 42.16 86.70 C 43.52 82.44 44.36 77.17 41.87 73.17 C 40.58 70.80 37.54 72.61 35.54 72.41 C 36.94 69.56 40.32 70.09 42.82 69.07 Z"
       id="path11" />
    <path
       fill="#fefefd"
       opacity="1.00"
       d=" M 46.74 83.39 C 47.38 77.25 53.93 74.87 59.29 75.63 C 58.15 77.64 57.17 79.76 55.72 81.57 C 53.86 83.72 50.89 84.15 48.24 84.51 C 49.37 82.79 50.63 81.17 51.88 79.55 C 50.13 80.77 48.43 82.08 46.74 83.39 Z"
       id="path12" />
    <path
       fill="#fefefd"
       opacity="1.00"
       d=" M 17.44 92.28 C 22.10 92.83 27.17 94.69 29.54 99.03 C 31.10 101.37 30.09 104.22 30.00 106.78 C 28.80 104.29 27.45 101.86 25.68 99.73 C 26.65 102.30 27.82 104.85 27.95 107.65 C 24.84 106.72 21.50 105.11 20.14 101.96 C 18.86 98.86 18.44 95.48 17.44 92.28 Z"
       id="path13" />
  </g>
</svg>
