<?xml version="1.0" encoding="UTF-8" standalone="no"?>
<svg
   width="800pt"
   height="200pt"
   viewBox="0 0 800 200"
   version="1.1"
   id="svg19"
   sodipodi:docname="thriller.svg"
   inkscape:version="1.4.2 (f4327f4, 2025-05-13)"
   xmlns:inkscape="http://www.inkscape.org/namespaces/inkscape"
   xmlns:sodipodi="http://sodipodi.sourceforge.net/DTD/sodipodi-0.dtd"
   xmlns="http://www.w3.org/2000/svg"
   xmlns:svg="http://www.w3.org/2000/svg">
  <defs
     id="defs19" />
  <sodipodi:namedview
     id="namedview19"
     pagecolor="#ffffff"
     bordercolor="#000000"
     borderopacity="0.25"
     inkscape:showpageshadow="2"
     inkscape:pageopacity="0.0"
     inkscape:pagecheckerboard="true"
     inkscape:deskcolor="#d1d1d1"
     inkscape:document-units="pt"
     inkscape:zoom="1.708125"
     inkscape:cx="533.33333"
     inkscape:cy="133.47969"
     inkscape:window-width="1920"
     inkscape:window-height="1130"
     inkscape:window-x="-6"
     inkscape:window-y="-6"
     inkscape:window-maximized="1"
     inkscape:current-layer="svg19" />
  <g
     id="#fdfefbff"
     transform="translate(223,56.5)">
    <path
       fill="#fdfefb"
       opacity="1"
       d="m 159.23,0 h 2.75 c 2.81,1.15 5.15,3.73 5.1,6.91 0.4,10.23 0.17,20.48 0.24,30.72 -4.5,0.02 -9.01,0.07 -13.51,-0.03 1.29,-2.05 2.66,-4.07 4.14,-6 -0.15,-2.94 -1.2,-5.7 -1.82,-8.55 -0.8,-3.77 1.05,-7.46 0.67,-11.24 -0.66,-3.15 -2.25,-5.99 -3.3,-9.01 1.82,-1.1 3.69,-2.15 5.73,-2.8 m 0.64,6.89 c -1.27,1.1 0.1,2.51 0.51,3.66 1.25,-0.44 3.48,-0.51 3.21,-2.41 0.34,-1.88 -2.78,-2.98 -3.72,-1.25 z"
       id="path1" />
    <path
       fill="#fdfefb"
       opacity="1"
       d="m 0,2.86 c 6.63,0.75 13.29,-0.2 19.93,0.31 6.59,0.04 13.18,-0.18 19.77,0.05 -0.02,3.7 -0.02,7.4 -0.03,11.11 -4.35,-0.01 -8.7,0 -13.04,0 0,11.5 0.02,23.01 0.01,34.51 -4.33,0.9 -8.77,1.01 -13.18,1.11 -0.18,-3.96 0.28,-7.92 0.05,-11.88 C 13.05,30.15 14.15,22.23 13.4,14.32 8.93,14.33 4.47,14.32 0,14.31 Z"
       id="path2" />
    <path
       fill="#fdfefb"
       opacity="1"
       d="m 179.37,3.25 c 4.33,-0.52 8.71,-0.44 13.04,0.05 -0.04,8.57 -0.03,17.15 -0.01,25.73 0.37,4.34 -1.56,8.83 -4.83,11.67 -2.56,1.36 -5.44,1.91 -8.18,2.79 -0.02,-13.41 0.01,-26.83 -0.02,-40.24 z"
       id="path3" />
    <path
       fill="#fdfefb"
       opacity="1"
       d="m 311.13,3.25 c 7.6,-0.83 15.23,0.04 22.85,-0.16 4.96,0.07 10.29,1.5 13.67,5.36 3.23,3.37 3.79,8.23 4.24,12.66 -4.39,0.75 -9.12,1.43 -12.71,4.3 -0.64,-3.6 -0.25,-8.67 -4.23,-10.47 -3.47,-1.13 -7.21,-0.43 -10.79,-0.61 -0.01,4.85 -0.01,9.7 0,14.55 -4.27,1.85 -8.52,3.77 -12.98,5.11 C 311.1,23.74 311.17,13.5 311.13,3.25 Z"
       id="path4" />
    <path
       fill="#fdfefb"
       opacity="1"
       d="m 47,3.11 c 4.41,0.2 8.82,0.02 13.22,-0.27 0.11,10.44 0.02,20.89 0.06,31.33 5.1,0.01 10.2,-0.02 15.31,-0.01 0.04,-10.34 -0.02,-20.68 0.02,-31.02 4.42,0.09 8.85,0.2 13.26,-0.27 -0.08,10.94 0.19,21.9 -0.12,32.83 -1.47,4.19 -4.18,7.77 -6.54,11.49 -1.67,2.32 -3.14,4.92 -5.58,6.54 -0.16,-2.81 -0.12,-5.62 -0.11,-8.43 -5.49,0.02 -10.97,0.01 -16.45,0.02 -0.04,1.53 -0.08,3.06 -0.1,4.6 -2,0.43 -3.98,0.93 -5.94,1.49 C 51.8,50.68 49.56,49.97 47.32,49.26 46.8,33.88 47.16,18.5 47,3.11 Z"
       id="path5" />
    <path
       fill="#fdfefb"
       opacity="1"
       d="m 100.69,2.87 c 5.76,-0.05 11.51,0.71 17.26,0.07 6.8,0.01 14.85,0.01 19.77,5.52 4.59,5.81 3.89,13.59 3.89,20.53 0.26,4.46 -1.04,8.79 -2.49,12.95 -2.68,-0.63 -5.34,-1.32 -8.03,-1.91 -3.1,1.09 -6.12,2.39 -9.18,3.58 -3.39,0.86 -7.02,0.21 -10.4,1.24 -3.48,1.14 -7.06,1.97 -10.68,2.56 -0.33,-14.84 -0.05,-29.69 -0.14,-44.54 m 13.55,11.46 c 0.03,1.51 0.08,3.01 0.14,4.51 -2.73,1.27 -5.02,3.24 -7.03,5.45 5.57,7.47 18.52,8.01 23.75,-0.08 -2.07,-2.13 -3.15,-4.74 -3.98,-7.52 -3.01,-3.93 -8.67,-1.87 -12.88,-2.36 m 0.02,17.34 c 0.03,2.01 0.03,4.02 0.03,6.03 3.76,-0.22 7.84,0.71 11.33,-1.1 2.44,-1.37 2.64,-4.31 2.78,-6.79 -4.22,2.64 -9.38,2.92 -14.14,1.86 z"
       id="path6" />
    <path
       fill="#fdfefb"
       opacity="1"
       d="m 221.58,3.23 c 4.44,-0.09 8.88,-0.44 13.33,-0.34 0.08,6.69 0.01,13.39 0.04,20.09 -0.09,1.47 0.21,3.07 -0.51,4.43 -2.37,5.01 -4.78,10.02 -6.83,15.17 -0.96,-0.08 -1.92,-0.16 -2.87,-0.22 -4.11,4.02 -10.41,0.64 -15.38,2.67 -0.26,-0.58 -0.77,-1.73 -1.03,-2.3 -1.37,3.85 -1.07,8.67 -4.1,11.7 -1.6,-5.84 -2.49,-11.84 -3.82,-17.74 -0.76,2.48 -1.47,4.98 -2.24,7.47 -3.24,-0.12 -6.53,-0.37 -9.73,0.35 0.97,1.07 2.2,1.77 3.63,2.01 0.66,7.03 0.15,14.1 0.32,21.15 7.18,-0.02 14.37,0 21.55,0 -0.02,3.85 -0.03,7.7 0,11.55 -11.51,0.01 -23.05,-0.38 -34.55,0.22 0.06,-11.09 -0.14,-22.19 0.09,-33.27 2.63,-1.64 6.36,-1.35 9.39,-2.36 0.48,-0.75 0.96,-1.49 1.45,-2.23 2.15,0.62 4.39,0.7 6.62,0.68 1.06,-3.71 1.92,-7.49 3.43,-11.06 0.77,0.79 1.26,1.72 1.49,2.79 1.06,4.82 1.76,9.72 2.93,14.52 1.2,-3.48 1.75,-7.14 3.19,-10.53 0.96,1.39 1.8,2.85 2.49,4.39 3.56,-0.37 7.12,-0.04 10.68,0.05 0.73,-1.35 0.36,-2.97 0.48,-4.44 -0.07,-11.58 0.03,-23.17 -0.05,-34.75 z"
       id="path7" />
    <path
       fill="#fdfefb"
       opacity="1"
       d="m 265.15,3.21 c 11.74,-0.16 23.46,-0.36 35.2,0.03 -0.01,3.7 0,7.39 -0.01,11.09 -7.29,-0.03 -14.59,0.01 -21.89,-0.02 -0.03,2 -0.09,4.01 -0.25,6.01 1.09,4.76 -0.7,9.64 -0.1,14.5 6.04,-0.01 12.07,-0.02 18.11,0.01 -0.02,1.38 -0.04,2.76 -0.06,4.14 -5.2,-2.04 -10.03,1.21 -15.05,2.16 -3.77,-0.38 -7.59,-0.96 -11.33,0.04 -0.5,-0.76 -1,-1.51 -1.49,-2.27 -0.78,0.02 -2.32,0.05 -3.1,0.06 -0.03,-11.92 -0.01,-23.84 -0.03,-35.75 z"
       id="path8" />
    <path
       fill="#fdfefb"
       opacity="1"
       d="m 119.38,19.71 c 1.62,0.56 4,1.15 4.09,3.27 0.88,3.1 -2.59,5.83 -5.45,4.67 -2.25,-0.68 -2.72,-3.24 -3.08,-5.24 1.3,1.1 2.69,1.38 4.18,0.83 0.06,-0.88 0.19,-2.65 0.26,-3.53 z"
       id="path9" />
    <path
       fill="#fdfefb"
       opacity="1"
       d="m 246.01,19.51 c 1.1,0.79 1.64,1.95 1.64,3.28 1.21,9.82 2.85,19.58 4.31,29.36 1.23,-5.01 1.85,-10.19 3.42,-15.12 2.29,0.37 1.99,3.53 2.97,5.15 3.2,-0.01 6.41,-0.02 9.61,0.04 -0.12,0.45 -0.34,1.34 -0.46,1.79 -3.45,-0.05 -6.9,0.51 -10.35,0.17 -0.27,-0.59 -0.81,-1.79 -1.07,-2.39 -1.41,5.93 -2.22,12 -4.1,17.8 -0.96,-1.71 -1.44,-3.61 -1.7,-5.54 -1.35,-8.78 -2.58,-17.59 -3.95,-26.37 -1.58,7.45 -2.36,15.09 -4.41,22.44 -0.83,-1.88 -1.52,-3.83 -2.18,-5.78 -1.48,0 -2.96,0.01 -4.44,0.02 l -0.26,-1.88 c 1.84,0 3.69,-0.01 5.54,-0.02 0.21,0.39 0.64,1.17 0.86,1.56 1.43,-8.19 2.9,-16.37 4.57,-24.51 z"
       id="path10" />
    <path
       fill="#fdfefb"
       opacity="1"
       d="m 342.16,24.69 c 2.95,-0.67 5.86,-1.52 8.78,-2.35 -0.42,5.61 0.7,11.49 -1.57,16.82 -1.32,3.62 -4.46,6.07 -7.62,8.02 0.3,0.6 0.91,1.79 1.21,2.38 -4.72,-2.44 -9.76,-4.2 -14.82,-5.76 -3.88,-0.72 -8.1,-0.44 -11.6,-2.54 -2.29,-1.4 -4.85,-2.18 -7.35,-3.06 4.63,-2.18 9.44,-3.98 14.27,-5.68 0.05,1.72 0.05,3.44 0.11,5.16 3.65,-0.24 7.71,0.88 11.07,-0.96 2.98,-1.69 2.81,-5.5 2.93,-8.46 1.69,-0.98 3.35,-2.04 4.59,-3.57 z"
       id="path11" />
    <path
       fill="#fdfefb"
       opacity="1"
       d="m 229,44.94 c 1.65,-3.85 3.12,-7.77 4.88,-11.57 0.09,3.82 -0.13,7.68 0.94,11.39 0.26,7.63 0.01,15.27 0.13,22.9 7.09,0 14.17,0 21.26,0 0,3.92 0,7.83 0,11.74 -11.52,-0.65 -23.07,-0.03 -34.6,0 0.03,-8.48 -0.02,-16.96 0,-25.44 0.15,-4.17 2.38,-9.44 7.39,-9.02 z"
       id="path12" />
    <path
       fill="#fdfefb"
       opacity="1"
       d="m 280.01,43.34 c 5.29,-1.48 10.46,-5.26 16.18,-3.03 -0.02,1.98 -0.01,3.97 -0.01,5.95 -6.23,-0.01 -12.46,0 -18.69,0.02 -0.01,7.14 0,14.28 0,21.42 7.7,-0.04 15.4,-0.06 23.1,0.01 0.05,3.82 0.01,7.64 0.02,11.46 -12.14,0.12 -24.27,0.09 -36.42,0.19 0.06,-8.18 -0.12,-16.36 0.07,-24.54 3.6,-2.34 3.04,-7.1 3.8,-10.78 3.96,-0.55 7.95,-0.91 11.95,-0.7 z"
       id="path13" />
    <path
       fill="#fdfefb"
       opacity="1"
       d="m 152.71,40.23 c 4.97,0.01 9.94,0.04 14.91,0.05 -0.01,7.92 0.09,15.84 -0.04,23.76 -0.35,8.66 -1.07,17.3 -1.3,25.96 h -0.31 c -4.36,-3.49 -7.85,-8.06 -9.82,-13.29 -4.64,-11.6 -3.22,-24.3 -3.44,-36.48 m 1.59,1.99 c -0.21,13.6 -0.33,28.35 7.4,40.18 -4.48,-12.98 -4.88,-26.76 -4.83,-40.34 -0.65,0.04 -1.93,0.12 -2.57,0.16 z"
       id="path14" />
    <path
       fill="#fdfefb"
       opacity="1"
       d="m 120.04,47.15 c 3.71,-1.12 7.11,-3.12 10.89,-4.05 2.02,0.01 4,0.51 5.93,1.07 -1.1,1.04 -2.22,2.06 -3.36,3.05 3.52,10.71 7.12,21.41 11.18,31.93 -4.68,0.01 -9.35,-0.04 -14.02,0.04 -3.22,-10.04 -6.68,-20 -9.91,-30.04 -2.24,-0.01 -4.48,0 -6.71,0.03 -0.13,10.01 -0.03,20.02 -0.06,30.02 -4.42,-0.09 -8.85,-0.12 -13.26,0.12 -0.03,-9.09 0,-18.19 -0.01,-27.28 3.94,-2.25 9.29,-1.42 12.54,-4.77 2.26,-0.05 4.53,0.1 6.79,-0.12 z"
       id="path15" />
    <path
       fill="#fdfefb"
       opacity="1"
       d="m 309.6,42.44 c 4.13,0.99 8.36,2.41 12.63,1.32 7.08,2.01 14.32,3.93 21.01,6.93 4.44,9.15 6.71,19.19 10.71,28.55 -4.69,-0.07 -9.37,-0.12 -14.06,-0.09 -3.2,-10.06 -6.9,-19.95 -10.1,-30.01 -2.19,0 -4.37,0.01 -6.55,0.04 -0.14,10.07 -0.01,20.15 -0.07,30.22 -4.44,0.06 -8.86,-0.37 -13.29,-0.27 -0.17,-12.23 0.35,-24.48 -0.28,-36.69 z"
       id="path16" />
    <path
       fill="#fdfefb"
       opacity="1"
       d="m 78.62,56.89 c 3.67,-4.38 7.09,-8.97 10.84,-13.29 0.28,11.87 -0.93,23.75 -0.25,35.6 -4.54,-0.08 -9.08,-0.11 -13.61,0.04 0.61,-8.02 -1.49,-16.48 1.69,-24.11 0.33,0.44 1,1.32 1.33,1.76 z"
       id="path17" />
    <path
       fill="#fdfefb"
       opacity="1"
       d="m 13,53.08 c 3.7,0 7.41,-0.13 11.1,-0.46 0.03,7.57 -0.02,15.15 0.03,22.72 -4.34,4.72 -8.88,9.25 -12.96,14.2 C 11.07,79.35 11.16,69.17 11.11,58.99 10.84,56.8 12.28,55.02 13,53.08 Z"
       id="path18" />
    <path
       fill="#fdfefb"
       opacity="1"
       d="m 49.61,56.99 c -0.73,-1.56 -0.35,-2.7 1.16,-3.4 -0.15,0.91 -0.43,2.73 -0.58,3.64 2.82,-3.05 7.11,-2.92 10.75,-4.19 -0.96,8.67 -0.58,17.41 -0.65,26.11 -4.44,0.04 -8.88,-0.16 -13.3,0.23 0.02,-6.35 -0.05,-12.7 0.05,-19.05 0.75,-0.66 2.25,-1.96 3,-2.61 -0.84,-0.35 -1.68,-0.71 -2.51,-1.09 z"
       id="path19" />
  </g>
</svg>
