<?xml version="1.0" encoding="UTF-8" standalone="no"?>
<svg
   width="800pt"
   height="200pt"
   viewBox="0 0 800 200"
   version="1.1"
   id="svg19"
   sodipodi:docname="western.svg"
   inkscape:version="1.4.2 (f4327f4, 2025-05-13)"
   xmlns:inkscape="http://www.inkscape.org/namespaces/inkscape"
   xmlns:sodipodi="http://sodipodi.sourceforge.net/DTD/sodipodi-0.dtd"
   xmlns="http://www.w3.org/2000/svg"
   xmlns:svg="http://www.w3.org/2000/svg">
  <defs
     id="defs19" />
  <sodipodi:namedview
     id="namedview19"
     pagecolor="#ffffff"
     bordercolor="#000000"
     borderopacity="0.25"
     inkscape:showpageshadow="2"
     inkscape:pageopacity="0.0"
     inkscape:pagecheckerboard="true"
     inkscape:deskcolor="#d1d1d1"
     inkscape:document-units="pt"
     inkscape:zoom="1.708125"
     inkscape:cx="533.33333"
     inkscape:cy="133.47969"
     inkscape:window-width="1920"
     inkscape:window-height="1130"
     inkscape:window-x="-6"
     inkscape:window-y="-6"
     inkscape:window-maximized="1"
     inkscape:current-layer="svg19" />
  <g
     id="#fefefdff"
     transform="translate(213,34.5)">
    <path
       fill="#fefefd"
       opacity="1"
       d="m 147.5,0 h 14.6 c 0.86,0.13 2.59,0.4 3.45,0.53 0.02,0.27 0.06,0.82 0.08,1.09 1.93,-0.38 3.9,-0.27 5.86,-0.19 l -0.48,1.1 c 2.15,-0.5 4.05,0.5 5.91,1.4 1.72,1.39 3.2,3.05 4.33,4.95 -0.34,0.53 -1.02,1.59 -1.36,2.12 l 2.2,-0.8 c -0.76,2 -1.55,3.99 -2.34,5.97 -0.73,-0.79 -1.46,-1.58 -2.18,-2.37 0.52,-0.24 1.55,-0.73 2.07,-0.97 -0.36,-1.71 -0.76,-3.42 -1.19,-5.11 -7.89,-6.58 -18.84,-6.28 -28.52,-5.87 -1.83,0.66 -3.77,0.82 -5.69,0.92 -1.14,0.41 -2.29,0.81 -3.45,1.21 -0.91,0.29 -1.82,0.57 -2.74,0.83 -2.22,1.53 -4.71,2.86 -6.29,5.1 -0.76,1.71 -0.43,3.59 -0.42,5.39 1.76,1.15 3.51,2.33 5.34,3.4 l -0.67,1.08 c 0.85,-0.12 2.54,-0.35 3.39,-0.47 l -0.25,1 c 1.04,0.1 3.13,0.29 4.17,0.39 -2.44,1.51 -6.39,1.63 -7.9,-1.21 -4.66,0.15 -8.01,-6.19 -5.34,-10.24 4.77,-6.55 13.75,-8.22 21.35,-8.29 z"
       id="path1" />
    <path
       fill="#fefefd"
       opacity="1"
       d="m 263.95,5.38 c 1.16,-1.3 2.24,-2.73 3.85,-3.54 -1.26,1.94 -2.33,4.02 -2.16,6.42 2.54,0.38 5.5,-1.73 7.38,0.84 -1.26,0.93 -2.61,1.75 -3.73,2.85 -0.26,1.47 0.2,2.93 0.49,4.35 -0.51,1.79 -0.98,3.59 -1.4,5.41 -2.1,1.23 -4.53,1.1 -6.86,0.9 -1.42,-2.37 -3.68,-3.83 -6.41,-2.3 -1.03,-0.72 -1.98,-1.61 -3.17,-2.05 -4.37,0.36 -7.51,5.3 -12.14,4.27 2.64,-3.73 8.21,-4.08 11.26,-7.55 -5.76,2.44 -10.81,6.28 -16.65,8.54 l -0.68,0.48 -0.81,0.54 c 0.57,0.46 1.16,0.91 1.75,1.36 -1.25,0.53 -3.75,1.58 -5,2.11 l 1.17,-1.8 1.79,-0.64 0.03,-1.11 c -1.18,0.75 -2.36,1.49 -3.54,2.24 -1.74,-2.05 -0.23,-4.17 0.77,-6.08 0.5,0.31 1.5,0.92 2.01,1.23 6.68,-3.95 14.31,-6.6 19.84,-12.23 0.79,0.44 1.57,0.89 2.36,1.36 l -2.09,0.88 c 1.04,1.65 2.03,3.32 3,5.02 0.44,0.75 1.09,2.31 2.19,1.34 2.25,-1.05 4.37,-2.36 6.48,-3.68 -0.07,-1.58 0.41,-3.34 -0.48,-4.77 -1.08,-1.95 -3.34,-2.57 -5.15,-3.62 1.93,-0.74 3.87,-1.92 5.9,-0.77 m 1.58,11.38 c 0.09,1.86 0.16,3.73 0.3,5.58 3.25,-0.53 3.71,-6.12 -0.3,-5.58 m -5.1,4.38 c 1.58,0.85 3.29,1.32 5.11,1.02 -0.26,-1.5 -0.53,-2.98 -0.82,-4.47 -2,0.35 -3.68,1.42 -4.29,3.45 z"
       id="path2" />
    <path
       fill="#fefefd"
       opacity="1"
       d="m 253.09,9.19 c 1.59,-0.53 2.92,-2.16 4.73,-2.02 -0.4,1.62 -2.23,2.5 -3.04,3.89 1.92,-1.13 3.74,-2.47 5.72,-3.51 2.05,1.63 2.9,3.99 2.73,6.57 -1.87,0.46 -3.69,2.91 -5.55,2.09 l -0.72,-0.39 c 1.54,-0.54 2.64,-1.52 3.3,-2.94 -1.79,0.6 -3.3,2.55 -5.34,2 -0.28,-2.34 3.1,-2.4 4.39,-3.82 -1.88,0 -3.55,0.62 -5.02,1.88 -0.04,-0.94 0.11,-1.85 0.44,-2.73 -0.55,-0.34 -1.1,-0.69 -1.64,-1.02 z"
       id="path3" />
    <path
       fill="#fefefd"
       opacity="1"
       d="m 269.7,11.92 c 1.93,-1.17 3.91,-3.19 6.33,-1.93 4.96,1.67 10.65,5.19 11.62,10.69 -0.63,-0.13 -1.9,-0.4 -2.53,-0.53 l 0.7,1.83 c -0.64,-0.25 -1.92,-0.76 -2.56,-1.01 l 0.52,1.93 c -0.63,-0.21 -1.87,-0.63 -2.5,-0.84 l 0.55,1.73 c -0.79,-0.08 -2.36,-0.25 -3.15,-0.33 -0.92,-4.15 -3.84,-8.27 -8.62,-7.71 -0.12,-1.28 -0.24,-2.55 -0.36,-3.83 m 9.28,4.08 c -0.44,1.39 0.04,1.85 1.43,1.36 0.4,-1.42 -0.07,-1.88 -1.43,-1.36 z"
       id="path4" />
    <path
       fill="#fefefd"
       opacity="1"
       d="m 174.42,15.47 c 1.07,-0.12 2.14,-0.24 3.22,-0.36 0,1.23 0.01,2.45 0.02,3.67 -0.47,-0.81 -1.41,-2.42 -1.88,-3.23 0.62,2.75 -2.16,3.07 -3.97,3.96 -1.39,0.44 -2.76,1.46 -4.29,1.1 -0.67,0.46 -1.34,0.92 -2.01,1.39 -0.51,-0.26 -1.54,-0.78 -2.06,-1.04 l 0.22,1.64 c -1.81,0 -3.68,0.38 -5.4,-0.36 0.06,0.32 0.17,0.95 0.23,1.27 -4.65,0.01 -9.31,0.4 -13.94,-0.19 l 0.25,-0.82 c -1.04,-0.03 -3.13,-0.09 -4.17,-0.12 2.89,-2 6.29,-0.83 9.47,-0.64 4.01,0.31 8.01,-0.29 12.02,-0.44 1.06,-0.73 2.25,-1.06 3.57,-0.98 l -0.1,-0.76 c 1.34,-0.07 2.69,-0.12 4.04,-0.17 l -0.18,-1.27 c 0.51,0.14 1.52,0.43 2.02,0.57 0.11,-0.44 0.32,-1.33 0.43,-1.78 l 1.78,1.06 -0.32,-1.55 1.16,0.08 z"
       id="path5" />
    <path
       fill="#fefefd"
       opacity="1"
       d="m 257.68,16.21 c 0.65,2.43 -3.33,0.53 -0.76,-0.33 z"
       id="path6" />
    <path
       fill="#fefefd"
       opacity="1"
       d="m 179.01,17.61 c 1.24,0.54 1.43,1.82 1.79,2.94 l -1.42,-0.36 c 0.3,3.55 -3.4,5.96 -5.19,8.72 0.9,-2.75 2.44,-5.2 4.08,-7.56 0.14,-1.27 0.39,-2.52 0.74,-3.74 z"
       id="path7" />
    <path
       fill="#fefefd"
       opacity="1"
       d="m 170.25,23.22 c 2.06,-1.11 4.77,-1.57 5.73,-3.98 l 1.23,0.83 c -4.61,4.92 -11.91,5.3 -17.46,8.69 -1.71,1.04 -2.83,3.61 -5.19,2.75 0.33,1.06 0.67,2.11 1.03,3.17 1.04,-1.47 2.08,-2.94 3.16,-4.39 2.67,-0.32 5.22,0.59 7.74,1.35 3.01,-1.78 6.57,-1.04 9.89,-1.05 0.11,7.16 0.91,14.3 0.93,21.46 -4.02,0.04 -8.04,0.08 -12.05,-0.19 0.13,-4.23 -1.62,-8.87 -0.03,-12.85 l -1.98,-0.67 c 0.55,-0.21 1.63,-0.62 2.18,-0.82 0.15,-0.65 0.45,-1.93 0.6,-2.58 -2.89,2.53 -7.88,2.7 -9.21,6.78 -1.83,4.95 -1.67,11.16 1.99,15.27 5.88,7.15 14.57,12.24 17.92,21.25 1.91,5.88 2.24,12.61 -0.37,18.34 -2.69,5.29 -7.51,10.06 -13.75,10.42 h -3.04 c -2.67,-0.83 -4.98,-2.45 -7.28,-3.96 l 1.67,2.78 c -2.91,0.05 -5.81,0.1 -8.72,0.14 -1.48,-7.81 -2.82,-15.71 -3.09,-23.67 4.51,-0.17 9.02,0.06 13.52,0.39 0.52,5.13 -1.61,11.87 2.98,15.61 -0.19,1.6 -0.33,3.2 -0.51,4.81 0.67,-0.25 2,-0.74 2.66,-0.99 -0.17,0.72 -0.52,2.16 -0.7,2.88 0.59,-1.5 1.28,-2.98 2.68,-3.9 -0.84,0.26 -2.51,0.79 -3.35,1.05 -0.03,-1.29 -0.09,-2.58 -0.16,-3.87 5.69,-2.26 5.44,-9.3 4.61,-14.32 -3.29,-9.47 -13.46,-13.98 -18.13,-22.57 -3.57,-5.94 -3.82,-13.4 -2.01,-19.96 1.84,-6.09 7.07,-10.75 13.24,-12.16 3.22,-3.86 8.78,-4.41 13.27,-6.04 m -6.99,44.03 c 0.58,0.61 0.58,0.61 0,0 m -5.07,0.96 c -1.78,2.74 3.35,0.37 0,0 z"
       id="path8" />
    <path
       fill="#fefefd"
       opacity="1"
       d="m 238.74,22.31 0.66,-0.08 0.08,0.65 -0.66,0.09 z"
       id="path9" />
    <path
       fill="#fefefd"
       opacity="1"
       d="m 236.74,23.38 0.65,-0.08 0.08,0.65 -0.65,0.08 z"
       id="path10" />
    <path
       fill="#fefefd"
       opacity="1"
       d="m 235.35,24.37 c 0.3,0.31 0.3,0.31 0,0 z"
       id="path11" />
    <path
       fill="#fefefd"
       opacity="1"
       d="m 21.97,30.22 c 6.89,0 13.78,-0.11 20.67,0.02 0.07,2.68 0.07,5.37 -0.02,8.05 -0.77,0.1 -2.32,0.28 -3.09,0.38 1.23,9.33 2.76,18.61 3.93,27.95 -1.58,0.46 -3.19,0.81 -4.81,1.11 -1.06,-1.58 -0.46,-3.29 0.88,-4.4 -0.71,-0.59 -0.83,-2.64 -2.02,-2.11 0.35,0.94 0.42,1.88 0.21,2.81 -1.24,1.05 -1.95,-0.84 -2.45,-1.65 0.1,0.99 0.22,1.97 0.37,2.95 0.72,0.58 1.38,1.23 1.96,1.94 -2.23,0.51 -4.49,0.91 -6.74,1.33 -1.9,-9.86 -3.04,-19.85 -4.87,-29.72 -1.41,-0.2 -2.81,-0.41 -4.21,-0.63 -0.05,-2.68 0.11,-5.35 0.19,-8.03 z"
       id="path12" />
    <path
       fill="#fefefd"
       opacity="1"
       d="m 47.84,30.19 c 7.02,0.12 14.04,-0.1 21.04,0.08 1.75,0.1 0.89,2.65 1.16,3.78 -0.01,1.46 -0.14,2.92 -0.3,4.38 -0.74,0.1 -2.23,0.31 -2.98,0.42 1.65,16.16 4.25,32.21 5.78,48.39 1.11,-8.36 1.06,-16.85 2.46,-25.18 1.37,-7.74 2.23,-15.55 3.35,-23.33 -1.25,-0.14 -2.5,-0.28 -3.74,-0.42 -0.32,-2.67 -0.29,-5.37 -0.2,-8.05 6.88,-0.18 13.77,-0.06 20.66,-0.09 0.02,2.62 0,5.25 -0.14,7.88 -1.38,0.2 -2.77,0.41 -4.15,0.62 -2.56,12.3 -3.89,24.79 -5.52,37.22 -1.33,7.09 -1.96,14.28 -2.7,21.45 0.87,0 2.61,0 3.48,0.01 0.2,2.92 0.18,5.86 0.07,8.79 -8.58,-0.04 -17.16,0.09 -25.74,-0.07 0.05,-2.85 -0.3,-5.7 -0.16,-8.54 0.54,-0.11 1.61,-0.33 2.15,-0.44 C 60.55,87.35 60,77.42 58.29,67.67 c -0.77,1.62 -0.54,3.46 -0.71,5.19 -0.62,8.16 -2.04,16.24 -2.52,24.41 l 1.57,0.11 c 0.01,2.87 0,5.75 0.02,8.62 -8.22,0.22 -16.47,0.21 -24.69,0.03 -1.44,-2.34 -0.27,-5.82 -0.59,-8.57 0.87,-0.06 2.59,-0.17 3.45,-0.22 -0.86,-5.14 -1.54,-10.31 -2.34,-15.45 4.75,0.81 9.22,2.69 13.17,5.39 0.34,-4.35 0.69,-8.69 0.82,-13.05 -1.73,0.63 -3.5,0.94 -5.33,0.91 0.76,-1.45 1.77,-2.73 2.86,-3.95 -1.58,1.67 -4.47,2.47 -5.01,4.88 1.67,0.55 3.39,0.87 5.11,1.22 0.02,2.2 0.01,4.41 -0.03,6.61 -5.03,-2.46 -11.03,-5.89 -16.64,-3.2 -6.31,2.68 -10.78,8.66 -12.56,15.17 -0.67,-0.94 -1.34,-1.88 -1.98,-2.84 -1.81,0.06 -2.46,1.05 -1.95,2.98 l 1.74,-1.31 c 0.08,0.94 0.17,1.89 0.27,2.83 -0.78,-0.36 -2.32,-1.09 -3.09,-1.46 -0.02,-0.5 -0.05,-1.5 -0.06,-2 2.28,-5.39 4.93,-10.8 9.08,-15.03 2.18,-1.96 4.78,-3.37 7.24,-4.94 -2.39,-1.85 -5.89,-4.59 -4.57,-8.02 2.01,1.7 3.87,3.87 6.53,4.54 5.51,0.64 10.68,-1.89 16.08,-2.53 0.11,0.57 0.33,1.73 0.44,2.31 0.45,0.01 1.35,0.03 1.8,0.04 1.15,-5.09 1.44,-10.33 2.39,-15.46 0.95,-5.33 0.67,-10.86 2.34,-16.05 -1.19,-0.15 -2.38,-0.32 -3.57,-0.49 -0.04,-2.72 -0.08,-5.45 0.28,-8.15 m 6.38,16.09 c 0.7,0.53 0.7,0.53 0,0 m -8.98,55.96 c 0.63,0.56 0.63,0.56 0,0 z"
       id="path13" />
    <path
       fill="#fefefd"
       opacity="1"
       d="m 182.53,30.23 c 14.53,0.02 29.05,-0.26 43.58,-0.34 0.17,7.1 0.06,14.19 0.07,21.29 -2.91,0.01 -5.81,0.01 -8.71,0.02 -0.01,-3.33 -0.02,-6.66 0,-9.99 -2.03,-0.03 -4.06,-0.04 -6.1,-0.05 0.01,8.77 0.21,17.54 0.38,26.31 1.45,-0.08 2.91,-0.16 4.36,-0.25 0.91,-0.38 1.82,-0.75 2.74,-1.11 0.7,-0.8 1.53,-1.41 2.5,-1.83 2.05,-2.6 2.13,-5.82 2.04,-8.98 1.86,-0.04 1.12,2.64 1.36,3.82 0.22,6.39 -6.86,10.55 -12.68,9.49 -0.5,9.57 0.08,19.17 -0.02,28.76 1.48,0.02 2.97,0.05 4.47,0.1 0.06,2.76 0.11,5.54 0.3,8.3 -8.19,0.8 -16.42,-0.21 -24.64,0.04 -0.06,-2.79 -0.08,-5.58 0.11,-8.36 1.47,-0.01 2.94,0 4.41,0.02 0.14,-18.81 0.49,-37.62 -0.03,-56.42 -1.81,-0.07 -3.62,-0.11 -5.42,-0.12 0.03,3.41 0.03,6.82 0,10.23 -2.92,-0.16 -5.85,-0.24 -8.78,-0.27 0.04,-6.89 0.05,-13.77 0.06,-20.66 z"
       id="path14" />
    <path
       fill="#fefefd"
       opacity="1"
       d="m 274.83,30.2 c 7.05,0.07 14.11,-0.16 21.15,0.24 5.09,-0.16 10.77,0.19 14.71,3.84 5.63,4.79 5.64,12.95 5.44,19.73 -0.89,3.19 -1.76,6.47 -3.28,9.43 -1.5,1.01 -2.71,2.36 -4,3.61 2.88,10.11 5.39,20.36 8.96,30.26 1.32,0.16 2.69,0.22 4,0.56 0.16,2.62 0.1,5.26 0.07,7.88 -6.86,0.08 -13.73,0.14 -20.6,0.05 -0.11,-2.81 -0.24,-5.63 -0.07,-8.43 0.59,-0.09 1.76,-0.26 2.35,-0.35 -2.82,-8.53 -4.99,-17.26 -7.3,-25.94 0,-1.19 -0.87,-1.98 -1.5,-2.85 -0.52,9.76 -0.51,19.54 -0.78,29.31 1.23,0.03 2.47,0.06 3.7,0.09 0.03,2.72 0.11,5.44 0.12,8.17 -7.59,0.1 -15.19,-0.06 -22.78,0.05 0.19,-2.79 0.26,-5.58 0.33,-8.37 1.3,-0.05 2.6,-0.1 3.9,-0.15 0.36,-19.63 0.49,-39.27 0.88,-58.9 -1.82,-0.01 -3.63,0 -5.45,-0.02 -0.02,-2.74 -0.01,-5.48 0.15,-8.21 m 20.49,11.86 c -0.14,5.92 -0.86,11.82 -0.71,17.74 2.44,-0.03 5.6,0.41 7.02,-2.12 1.16,-4.43 0.61,-9.08 0.64,-13.61 0.01,-1.77 -0.96,-4.26 -3.14,-3.99 -1.44,-0.07 -3.98,-0.09 -3.81,1.98 m -4.06,13.95 c 0.51,0.76 0.51,0.76 0,0 z"
       id="path15" />
    <path
       fill="#fefefd"
       opacity="1"
       d="m 326.79,30.26 c 6.59,-0.13 13.18,-0.08 19.77,-0.08 3.93,12.94 5.86,26.57 11.63,38.9 -0.11,-1.41 -0.45,-2.8 -0.9,-4.14 0.3,-0.29 0.9,-0.86 1.2,-1.14 -0.39,-0.78 -0.76,-1.57 -1.11,-2.36 0.2,-6.52 0.09,-13.05 0.39,-19.57 0.59,-2.52 -2.46,-3.09 -3.31,-4.97 -0.2,-2.22 -0.1,-4.46 -0.1,-6.69 6.55,0.01 13.1,-0.55 19.64,0.09 v 7.04 c -1.32,0.53 -2.64,1.03 -3.96,1.54 0.2,19.45 -0.59,38.88 -0.07,58.32 0.68,0.07 2.03,0.22 2.71,0.29 0.12,2.78 0.13,5.56 0.09,8.34 -5.64,0.06 -11.27,-0.02 -16.9,0.02 -2.24,-12.19 -5.9,-24.04 -9.41,-35.9 l 1.61,-0.34 c -0.44,0 -1.31,0.02 -1.75,0.02 -0.32,-1.1 -0.95,-3.31 -1.27,-4.42 0.77,0.26 2.3,0.79 3.07,1.05 -1.35,-1.02 -2.67,-2.08 -3.91,-3.23 -0.31,1.26 -0.63,2.52 -0.98,3.77 1.59,3.99 0.63,8.38 0.69,12.55 -0.55,0 -1.65,-0.01 -2.2,-0.01 0.6,0.07 1.79,0.21 2.39,0.28 0.02,5.91 -0.19,11.83 0.24,17.73 0.86,0.02 2.58,0.06 3.44,0.08 0.01,2.82 -0.01,5.64 -0.12,8.45 -6.87,-0.04 -13.74,-0.01 -20.6,-0.02 0.01,-2.86 0.03,-5.71 0.09,-8.57 1.25,-0.16 2.5,-0.32 3.75,-0.49 -0.12,-19.16 0.71,-38.31 0.58,-57.47 -1.55,-0.13 -3.09,-0.26 -4.63,-0.39 -0.12,-2.9 -0.1,-5.79 -0.07,-8.68 m 38.44,17.96 c 0.59,0.62 0.59,0.62 0,0 m -22.01,5.04 c 0.64,0.58 0.64,0.58 0,0 m 7.08,6.91 c 0.5,0.69 0.5,0.69 0,0 m 9.9,32.06 c 0.6,0.61 0.6,0.61 0,0 z"
       id="path16" />
    <path
       fill="#fefefd"
       opacity="1"
       d="m 98.74,30.46 c 12.44,0.49 24.89,0.29 37.33,0.2 -0.07,6.84 0.08,13.68 -0.1,20.51 -2.58,0.02 -5.15,0.02 -7.72,-0.06 -0.28,-3.11 -0.38,-6.24 -0.96,-9.31 -3.24,0.01 -6.48,0.03 -9.72,0.05 -0.12,5.97 0,11.94 0.35,17.9 2.29,0.03 4.6,0.21 6.88,-0.08 1.21,-1.04 0.51,-2.96 0.86,-4.38 1.74,-0.04 3.49,-0.07 5.24,-0.09 0.01,6.15 0.07,12.3 -0.03,18.45 -1.9,0.01 -3.8,0.01 -5.7,0.01 -0.21,-1.35 -0.41,-2.69 -0.6,-4.04 -2.22,0 -4.45,0.02 -6.67,0.14 -0.15,8.05 -0.12,16.1 -0.04,24.15 2.96,0.13 6.17,0.88 8.99,-0.23 1.14,-2.64 0.98,-5.62 1.27,-8.43 2.72,-0.18 5.44,-0.16 8.16,-0.09 0.08,6.61 0.11,13.22 -0.02,19.84 -2.39,0.47 -4.8,0.9 -7.24,0.84 -10.08,0.01 -20.16,0.04 -30.24,0.01 -0.01,-2.83 -0.01,-5.67 0.06,-8.5 1.59,-0.01 3.2,-0.01 4.8,-0.01 -0.37,-19.36 0.02,-38.71 -0.01,-58.07 -1.62,-0.03 -3.23,-0.06 -4.85,-0.09 -0.02,-2.91 -0.01,-5.81 -0.04,-8.72 z"
       id="path17" />
    <path
       fill="#fefefd"
       opacity="1"
       d="m 231.16,30.7 c 12.59,0.03 25.19,0.2 37.79,-0.1 0.04,6.88 -0.24,13.75 -0.3,20.62 -2.65,-0.01 -5.29,-0.01 -7.93,-0.02 -0.7,-3.03 0.56,-6.91 -1.61,-9.34 -2.98,-0.16 -5.96,0 -8.93,-0.03 -0.05,5.95 -0.01,11.91 0.44,17.85 2.31,0.07 4.65,0.34 6.95,-0.06 1.05,-1.11 0.44,-2.92 0.75,-4.32 1.74,-0.02 3.49,-0.04 5.24,-0.05 -0.01,6.12 0.03,12.25 -0.04,18.37 -1.93,0.02 -3.85,0.02 -5.78,0 -0.14,-1.33 -0.29,-2.66 -0.43,-3.98 -2.18,0 -4.36,0.01 -6.53,0.06 -0.59,8.12 -0.12,16.25 -0.06,24.37 2.97,0.19 5.97,0.25 8.94,-0.11 0.75,-2.88 1.03,-5.85 1.37,-8.8 2.68,-0.05 5.35,-0.05 8.03,-0.01 0.23,6.6 0.2,13.22 -0.02,19.82 -2.34,0.41 -4.68,0.9 -7.07,0.86 -10.25,0.06 -20.49,0.03 -30.74,0 -0.04,-2.81 -0.04,-5.63 0.03,-8.43 1.65,-0.05 3.31,-0.09 4.96,-0.12 -0.32,-19.32 -0.21,-38.65 -0.16,-57.97 -1.63,-0.06 -3.27,-0.1 -4.9,-0.17 0,-2.81 0.01,-5.63 0,-8.44 m 15.02,30.49 c 0.6,0.66 0.6,0.66 0,0 m -2,1.03 c 0.7,0.52 0.7,0.52 0,0 m 0.11,38.98 c 0.51,0.68 0.51,0.68 0,0 z"
       id="path18" />
    <path
       fill="#fefefd"
       opacity="1"
       d="m 8.53,82.32 c 2.25,-0.03 2.33,3.28 3.55,4.69 -1.24,2.36 -2.86,4.59 -3.56,7.19 -0.31,3.08 3.67,5.07 5.97,3.06 1.37,-1.5 2.06,-3.47 3.03,-5.22 2.33,0.34 4.66,0.65 6.95,1.18 -1.93,1.92 -4.82,2.09 -7.11,3.41 1.46,2.01 4.16,3.6 3.91,6.41 -2.15,-0.99 -4.27,-2.05 -6.44,-2.98 -0.33,2.34 -0.32,4.79 -1.48,6.93 l 0.56,0.01 h -1 c -0.83,-2.07 -1.53,-4.19 -2.28,-6.28 -1.91,1.26 -3.67,2.72 -5.46,4.14 -1,-2.55 1.06,-4.8 1.74,-7.15 C 4.62,97.45 2.31,97.31 0,97.21 V 95.73 C 2.02,94.84 4.08,94.03 6.11,93.15 4.9,91.24 0.16,89.59 1.97,87.03 4.09,87.48 6.11,88.31 8.17,89 8.29,86.77 8.26,84.53 8.53,82.32 Z"
       id="path19" />
  </g>
</svg>
